<svg xmlns="http://www.w3.org/2000/svg" width="16.93" height="10" viewBox="0 0 16.93 10">
  <g id="down-arrow" transform="translate(0 -100.698)">
    <g id="Group_7" data-name="Group 7" transform="translate(0 100.698)">
      <path id="Path_8" data-name="Path 8" d="M16.66,101.534l-.555-.558a.928.928,0,0,0-1.31,0L8.469,107.3l-6.334-6.334a.928.928,0,0,0-1.31,0l-.555.555a.927.927,0,0,0,0,1.31L7.812,110.4a.947.947,0,0,0,.657.3h0a.946.946,0,0,0,.655-.3l7.534-7.547a.935.935,0,0,0,.271-.662A.926.926,0,0,0,16.66,101.534Z" transform="translate(0 -100.698)"/>
    </g>
  </g>
</svg>
