<?xml version="1.0" encoding="utf-8"?>
 
<svg version="1.1" id="Layer_1" xmlns="http://www.w3.org/2000/svg" xmlns:xlink="http://www.w3.org/1999/xlink" x="0px" y="0px"
	 viewBox="0 0 10.5 10.8" style="enable-background:new 0 0 10.5 10.8;" xml:space="preserve">
<style type="text/css">
	.st0{fill:#D8262F;}
</style>
<path id="XMLID_103_" class="st0" d="M4,9c0,0.1,0.1,0.1,0.1,0.2c0.3,0.3,0.3,0.3,0,0.6c-0.3,0.3-0.6,0.6-0.9,0.9
	c-0.2,0.2-0.3,0.1-0.4,0C2,9.8,1.1,9,0.3,8.1C0.1,8,0.1,7.8,0.3,7.7c0.3-0.3,0.6-0.6,1-1c0.2-0.2,0.3-0.2,0.5,0C1.8,7,1.9,7,2.1,6.8
	C2.4,6.4,2.7,6,3.2,5.8c0.4-0.1,0.4-0.3,0.4-0.6c0-0.5,0-1,0-1.4c0-0.1,0-0.2-0.1-0.2c-0.1,0-0.1-0.1-0.1-0.2c0-0.4,0-0.9,0-1.3
	c0-0.2,0.1-0.2,0.3-0.2c0.6,0,1.2,0,1.8,0C5.1,1.5,4.7,1.3,5,0.8c0.1-0.2,0.4-0.2,0.8-0.1c0-0.2,0-0.5,0.2-0.6
	c0.1-0.1,0.2-0.1,0.3-0.1c0.3,0,0.4,0.2,0.5,0.7c0.5-0.2,0.7-0.2,0.8,0.1c0.2,0.3,0.1,0.6-0.4,1h1c0.3,0,0.5,0,0.8,0
	c0.2,0,0.3,0.1,0.3,0.3c0,0.4,0,0.8,0,1.3c0,0.1,0,0.2-0.1,0.2C8.9,3.6,9,3.8,9,3.9c0,0.4,0,0.8,0,1.2C9.4,5,9.8,4.9,10.1,5.1
	c0.3,0.2,0.4,0.3,0.2,0.6c-0.6,1.2-1.5,2.2-2.5,3C7.6,8.9,7.3,9,7,9C6.1,9,5.2,9,4.3,9C4.2,9,4.1,9,4,9 M5.7,8.6c0.5,0,1,0,1.5,0
	c0.1,0,0.2,0,0.3-0.1c1-0.8,1.9-1.8,2.5-2.9c0.1-0.1,0-0.2-0.1-0.2c-0.4-0.1-0.8,0-1,0.4C8.7,6.2,8.4,6.4,8.1,6.5
	C8,6.5,7.9,6.6,7.8,6.6c-0.1,0-0.1,0.1-0.1,0.2c0,0.6-0.3,0.8-0.9,0.8c-0.5,0-1,0-1.5,0c-0.1,0-0.2,0-0.3,0c-0.1,0-0.1-0.1-0.1-0.2
	c0-0.1,0.1-0.2,0.2-0.2c0.1,0,0.1,0,0.2,0c0.5,0,1.1,0,1.6,0c0.3,0,0.5-0.2,0.5-0.4c0-0.2-0.2-0.4-0.5-0.4c-0.3,0-0.6,0-0.9,0
	c-0.3,0-0.5-0.1-0.8-0.3C5.1,6.2,5,6,4.8,6c-1.3,0-1.3-0.2-2.3,0.9C2.4,7,2.3,7,2.3,7.1c-0.1,0.1-0.1,0.2,0,0.3
	C2.7,7.7,3,8.1,3.4,8.5C3.6,8.7,3.7,8.9,4,8.7c0.1,0,0.2,0,0.2,0C4.7,8.6,5.2,8.6,5.7,8.6 M6.3,2.2c-0.6,0-1.2,0-1.9,0
	c-0.3,0-0.6-0.1-0.7,0c-0.1,0.2,0,0.5,0,0.8c0,0.2,0.1,0.2,0.2,0.2c1.4,0,2.8,0,4.2,0c0.3,0,0.6,0.1,0.8-0.1c0.1-0.2,0-0.5,0-0.8
	c0-0.2,0-0.2-0.2-0.2C7.9,2.2,7.1,2.2,6.3,2.2 M1.4,7c0,0-0.1,0.1-0.1,0.1C1.1,7.4,0.9,7.6,0.6,7.8C0.5,7.9,0.6,8,0.7,8
	c0.7,0.7,1.5,1.5,2.2,2.2c0.1,0.1,0.1,0.1,0.2,0C3.3,10,3.6,9.8,3.8,9.6c0.1-0.1,0.1-0.2,0-0.3C3,8.6,2.3,7.9,1.6,7.2
	C1.5,7.1,1.5,7.1,1.4,7 M7,4.9c0,0.2,0,0.3,0,0.5c0,0.3-0.1,0.6,0,0.7c0.2,0.1,0.5,0,0.8,0c0.3,0,0.8-0.4,0.8-0.8c0-0.5,0-1.1,0-1.6
	c0-0.1,0-0.1-0.1-0.1c-0.4,0-0.9,0-1.3,0C7,3.6,7,3.7,7,3.8C7,4.2,7,4.5,7,4.9 M5.5,6L5.5,6c0-0.8,0-1.5,0.1-2.3
	c0-0.2-0.1-0.1-0.2-0.1c-0.4,0-0.8,0-1.2,0C4,3.6,3.9,3.7,3.9,3.8c0,0.5,0,1.1,0,1.6c0,0.2,0.1,0.2,0.3,0.2C4.6,5.7,5.1,5.6,5.5,6
	 M5.9,4.9v0.7c0,0.6,0,0.6,0.6,0.6c0.2,0,0.2,0,0.2-0.2c0-0.6,0-1.2,0-1.8s0-0.6-0.6-0.6c-0.1,0-0.2,0-0.2,0.2
	C5.9,4.1,5.9,4.5,5.9,4.9 M6,1.8C6,1.5,5.9,1.4,5.7,1.2C5.6,1.1,5.5,1,5.3,1C5.3,1,5.2,1,5.2,1.1c0,0.2,0.1,0.3,0.3,0.4
	C5.6,1.6,5.8,1.7,6,1.8 M6.5,1.8c0.3-0.1,0.5-0.2,0.7-0.4c0.1-0.1,0.2-0.2,0-0.3C7.2,0.9,7.1,1,7,1C6.8,1.2,6.6,1.5,6.5,1.8
	 M6.3,1.3c0.1-0.2,0.2-0.5,0.2-0.7c0-0.1,0-0.2-0.2-0.2c-0.1,0-0.1,0.1-0.1,0.2C6.1,0.8,6.2,1.1,6.3,1.3"/>
</svg>
