<svg xmlns="http://www.w3.org/2000/svg" width="34" height="34" viewBox="0 0 34 34">
  <g id="Group_2265" data-name="Group 2265" transform="translate(-0.149)">
    <rect id="Rectangle_303" data-name="Rectangle 303" width="34" height="34" rx="6" transform="translate(0.149)" fill="#e21b1b"/>
    <path id="Icon_awesome-linkedin-in" data-name="Icon awesome-linkedin-in" d="M3.492,15.6H.258V5.185H3.492ZM1.873,3.764A1.882,1.882,0,1,1,3.746,1.874,1.889,1.889,0,0,1,1.873,3.764ZM15.6,15.6H12.369V10.53c0-1.208-.024-2.758-1.681-2.758-1.681,0-1.939,1.313-1.939,2.671V15.6H5.518V5.185h3.1V6.606h.045a3.4,3.4,0,0,1,3.06-1.682C15,4.924,15.6,7.079,15.6,9.879V15.6Z" transform="translate(9.276 9.874)" fill="#fff"/>
  </g>
</svg>
