<svg xmlns="http://www.w3.org/2000/svg" width="24.695" height="43.943" viewBox="0 0 24.695 43.943">
  <g id="Group_2275" data-name="Group 2275" transform="translate(345.701 -997.716)">
    <path id="Path_716" data-name="Path 716" d="M-333.345,1034.5l-1.264-2.193c-2.4-4.164-4.818-8.321-7.2-12.5-.7-1.226-1.528-2.367-2.235-3.583a12.291,12.291,0,0,1,2.051-14.942,12.227,12.227,0,0,1,14.483-2.063,11.927,11.927,0,0,1,6.452,9.9,12.086,12.086,0,0,1-2.533,8.539,25.961,25.961,0,0,0-1.563,2.638q-3.579,6.192-7.149,12.388C-332.638,1033.266-332.973,1033.85-333.345,1034.5Zm7.361-24.658a7.348,7.348,0,0,0-7.525-7.363,7.364,7.364,0,0,0-7.2,7.454,7.372,7.372,0,0,0,7.439,7.278A7.367,7.367,0,0,0-325.984,1009.838Z" fill="#e20025"/>
    <path id="Path_717" data-name="Path 717" d="M-259.968,1602.906a19.367,19.367,0,0,1,3.076.655,10.633,10.633,0,0,1,3.037,1.349c1.687,1.17,1.7,2.606.008,3.764a11.783,11.783,0,0,1-4.368,1.7,32.035,32.035,0,0,1-14.125-.166,10.667,10.667,0,0,1-3.75-1.582c-1.572-1.112-1.592-2.517-.027-3.632a12.859,12.859,0,0,1,4.957-1.875c.49-.1.987-.177,1.488-.239a12.622,12.622,0,0,0-2.059.938c-1.652,1.038-1.653,2.435.019,3.457a10.429,10.429,0,0,0,4.17,1.315,17.86,17.86,0,0,0,7.536-.5,5.978,5.978,0,0,0,2.432-1.251,1.6,1.6,0,0,0-.068-2.661,6.447,6.447,0,0,0-1.9-1.041C-259.677,1603.082-259.835,1603.082-259.968,1602.906Z" transform="translate(-68.42 -569.419)" fill="#e20025"/>
    <path id="Path_718" data-name="Path 718" d="M-186.452,1610.6c.383-.662.737-1.24,1.053-1.838a.513.513,0,0,1,.64-.305,7.361,7.361,0,0,1,2.293.673c.331.186.66.4.671.819.011.446-.33.674-.678.861a6.622,6.622,0,0,1-2.517.686,11.455,11.455,0,0,1-4.8-.4,3.168,3.168,0,0,1-.915-.45.758.758,0,0,1,.031-1.375,5.11,5.11,0,0,1,2.171-.746c.886-.133.673-.276,1.16.552C-187.06,1609.56-186.779,1610.042-186.452,1610.6Z" transform="translate(-146.897 -574.472)" fill="#e20025"/>
  </g>
</svg>
