<?xml version="1.0" encoding="utf-8"?>
 
<svg version="1.1" id="Layer_1" xmlns="http://www.w3.org/2000/svg" xmlns:xlink="http://www.w3.org/1999/xlink" x="0px" y="0px"
	 viewBox="0 0 26.2 23.2" style="enable-background:new 0 0 26.2 23.2;" xml:space="preserve">
<style type="text/css">
	.st0{fill:#FFF200;}
</style>
<path id="XMLID_81_" class="st0" d="M8.6,15.3h13.3c0.3,0,0.6-0.2,0.7-0.5l2.9-10.3c0.1-0.2,0-0.5-0.1-0.6c-0.1-0.2-0.4-0.3-0.6-0.3
	h-18L6.4,1.2C6.3,0.8,6,0.6,5.6,0.6H1.2c-0.4,0-0.7,0.3-0.7,0.7c0,0.4,0.3,0.7,0.7,0.7h3.9l2.7,12c-0.8,0.3-1.3,1.1-1.3,2
	c0,1.2,1,2.2,2.2,2.2h13.3c0.4,0,0.7-0.3,0.7-0.7c0-0.4-0.3-0.7-0.7-0.7H8.6c-0.4,0-0.7-0.3-0.7-0.7C7.9,15.7,8.2,15.3,8.6,15.3"/>
<path id="XMLID_4_" class="st0" d="M18.2,20.5c0,1.2,1,2.2,2.2,2.2c1.2,0,2.2-1,2.2-2.2c0-1.2-1-2.2-2.2-2.2
	C19.2,18.3,18.2,19.3,18.2,20.5"/>
<path id="XMLID_3_" class="st0" d="M7.9,20.5c0,1.2,1,2.2,2.2,2.2c1.2,0,2.2-1,2.2-2.2c0-1.2-1-2.2-2.2-2.2
	C8.8,18.3,7.9,19.3,7.9,20.5"/>
</svg>
