<?xml version="1.0" encoding="utf-8"?>
  
<svg version="1.1" id="Layer_1" xmlns="http://www.w3.org/2000/svg" xmlns:xlink="http://www.w3.org/1999/xlink" x="0px" y="0px"
	 viewBox="0 0 20.8 23.9" style="enable-background:new 0 0 20.8 23.9;" xml:space="preserve">
<style type="text/css">
	.st0{fill:#FFF200;}
</style>
<path id="XMLID_4_" class="st0" d="M10.4,0.5c-3.3,0-6,2.7-6,6c0,3.3,2.7,6,6,6c3.3,0,6-2.7,6-6C16.5,3.2,13.8,0.5,10.4,0.5"/>
<path id="XMLID_3_" class="st0" d="M17.9,16.5c-1.6-1.7-3.8-2.6-6.1-2.6H9.1c-2.3,0-4.5,0.9-6.1,2.6c-1.6,1.7-2.5,3.9-2.5,6.2
	c0,0.4,0.3,0.7,0.7,0.7h18.7c0.4,0,0.7-0.3,0.7-0.7C20.5,20.3,19.6,18.1,17.9,16.5"/>
</svg>
