<?xml version="1.0" standalone="no"?>
<!DOCTYPE svg PUBLIC "-//W3C//DTD SVG 1.1//EN" "http://www.w3.org/Graphics/SVG/1.1/DTD/svg11.dtd" >
<svg xmlns="http://www.w3.org/2000/svg" xmlns:xlink="http://www.w3.org/1999/xlink" version="1.1">
<metadata>
Created by FontForge 20170731 at Fri Jan 14 18:02:29 2022
 By Aleksey,,,
Copyright (c) 2017 by 29Letters / 29LT. All rights reserved.
</metadata>
<defs>
<font id="29LTAzer-Regular" horiz-adv-x="0" >
  <font-face 
    font-family="29LT Azer"
    font-weight="420"
    font-stretch="normal"
    units-per-em="2048"
    panose-1="0 0 5 0 0 0 0 0 0 0"
    ascent="1638"
    descent="-410"
    x-height="758"
    cap-height="1108"
    bbox="-770 -1069 4364 2142"
    underline-thickness="102"
    underline-position="-307"
    unicode-range="U+000D-FEFC"
  />
<missing-glyph horiz-adv-x="1024" 
 />
    <glyph glyph-name="fi" unicode="fi" horiz-adv-x="987" 
d="M217 -4l-6 625h-191q-16 68 0 137h193v35q0 108 42.5 190t120.5 132.5t181 77t231 30.5q43 -62 46 -152q-234 -6 -347.5 -73t-113.5 -216v-24h215q16 -69 0 -137h-215v-617q-43 -20 -156 -8zM713 -4q0 421 -13 741q85 32 170 29v-762q-20 -7 -61.5 -10t-95.5 2z" />
    <glyph glyph-name="fl" unicode="fl" horiz-adv-x="987" 
d="M217 -4l-6 625h-191q-16 68 0 137h193v35q0 105 28 182t89.5 133.5t164.5 84.5t248 28q35 0 66.5 -2.5t46.5 -4.5l14 -2v-1208q-20 -7 -61.5 -10t-95.5 2q-4 762 -15 1071q-100 0 -165 -17.5t-100 -55.5t-48.5 -87.5t-13.5 -124.5v-24h211q16 -69 0 -137h-209v-617
q-43 -20 -156 -8z" />
    <glyph glyph-name="uniFC43" unicode="&#xfedf;&#xfef0;" horiz-adv-x="1421" arabic-form="isolated" 
d="M584 -471q-222 0 -350 117.5t-128 328.5q0 129 48 293q55 0 127 -20q-37 -121 -37 -240q0 -155 104.5 -240t265.5 -85q153 -2 302 52t249 159q-92 103 -407 245q9 59 18.5 89.5t30.5 74.5q82 -19 161.5 -17.5t149.5 19.5q-23 648 -35 930q76 47 183 47l-4 -1071
q-46 -27 -125 -36.5t-176 5.5l-3 -6q132 -61 226 -141.5t94 -145.5q0 -78 -102 -161.5t-266 -140t-326 -56.5z" />
    <glyph glyph-name="uniFC86" unicode="&#xfee0;&#xfef0;" horiz-adv-x="1650" arabic-form="final" 
d="M584 -471q-222 0 -350 117.5t-128 328.5q0 129 48 293q55 0 127 -20q-37 -121 -37 -240q0 -155 104.5 -240t265.5 -85q153 -2 302 52t249 159q-92 103 -407 245q8 58 17.5 86.5t31.5 75.5q53 -13 117 -16.5t136.5 3.5t145 35.5t125.5 75.5q-4 86 -15 380t-18 456
q79 47 183 47l-2 -1118h172q10 0 10 -10v-142q0 -12 -10 -12h-221q-45 37 -82 84q-7 165 -7 170q-53 -39 -121.5 -60t-132 -22t-126.5 8l-3 -6q132 -61 226 -141.5t94 -145.5q0 -78 -102 -161.5t-266 -140t-326 -56.5z" />
    <glyph glyph-name="uniFEF5" unicode="&#xfedf;&#xfe82;" horiz-adv-x="1054" arabic-form="isolated" 
d="M53 -111q-14 98 -8 168q415 22 737 101q-32 801 -47 1132q73 45 180 45l-2 -1198q-37 -77 -75 -117q-318 -91 -785 -131zM6 1126q-28 25 -49 60q79 89 184 139q102 -51 172 -51q84 0 160 26q20 -62 21 -77q-104 -52 -193 -52q-80 0 -168 54q-60 -32 -127 -99zM459 182
q-167 521 -258 793q56 66 149 90l211 -786q-44 -63 -78 -97h-24z" />
    <glyph glyph-name="uniFEF6" unicode="&#xfee0;&#xfe82;" horiz-adv-x="1112" arabic-form="final" 
d="M8 1130q-28 25 -49 60q79 89 184 139q102 -51 172 -51q81 0 160 27q20 -61 21 -78q-102 -51 -193 -51q-82 0 -168 53q-60 -31 -127 -99zM55 -59q-15 85 -8 170q419 23 729 104q-32 802 -45 1065q79 47 182 47l-2 -1163h203q10 0 10 -10v-142q0 -12 -10 -12h-256
q-44 44 -65 82q-299 -101 -738 -141zM451 246q-47 144 -125.5 382.5t-114.5 348.5q55 68 147 90l195 -725q-56 -74 -78 -96h-24z" />
    <glyph glyph-name="uniFEF7" unicode="&#xfedf;&#xfe84;" horiz-adv-x="1054" arabic-form="isolated" 
d="M82 1141q-19 32 -27 80q53 24 105 39q-60 56 -60 129q0 63 55.5 113t129.5 50q58 0 110 -22q-4 -33 -20 -90q-34 12 -74 12q-77 0 -121 -55q15 -54 56 -84.5t92 -30.5q54 0 104 12q0 -38 -18 -112q-202 0 -332 -41zM53 -111q-14 98 -8 168q415 22 737 101
q-32 801 -47 1132q73 45 180 45l-2 -1198q-37 -77 -75 -117q-318 -91 -785 -131zM459 182q-167 521 -258 793q56 66 149 90l211 -786q-44 -63 -78 -97h-24z" />
    <glyph glyph-name="uniFEF8" unicode="&#xfee0;&#xfe84;" horiz-adv-x="1112" arabic-form="final" 
d="M84 1145q-19 32 -27 80q53 24 105 39q-60 56 -60 129q0 63 55.5 113t129.5 50q58 0 110 -22q-4 -33 -20 -90q-34 12 -74 12q-77 0 -121 -55q15 -54 56 -84.5t92 -30.5q54 0 104 12q0 -38 -18 -112q-202 0 -332 -41zM55 -59q-15 85 -8 170q419 23 729 104
q-32 802 -45 1065q79 47 182 47l-2 -1163h203q10 0 10 -10v-142q0 -12 -10 -12h-256q-44 44 -65 82q-299 -101 -738 -141zM451 246q-47 144 -125.5 382.5t-114.5 348.5q55 68 147 90l195 -725q-56 -74 -78 -96h-24z" />
    <glyph glyph-name="uniFEF9" unicode="&#xfedf;&#xfe88;" horiz-adv-x="1054" arabic-form="isolated" 
d="M53 -111q-14 98 -8 168q415 22 737 101q-32 801 -47 1132q73 45 180 45l-2 -1198q-37 -77 -75 -117q-318 -91 -785 -131zM459 182q-167 521 -258 793q56 66 149 90l211 -786q-44 -63 -78 -97h-24zM463 -567q-19 32 -27 80q47 21 105 38q-60 56 -60 130q0 63 55.5 113
t129.5 50q58 0 110 -22q-4 -33 -20 -90q-34 12 -74 12q-77 0 -121 -55q15 -54 56 -84.5t92 -30.5q55 0 104 12q0 -38 -18 -112q-202 0 -332 -41z" />
    <glyph glyph-name="uniFEFA" unicode="&#xfee0;&#xfe88;" horiz-adv-x="1112" arabic-form="final" 
d="M55 -59q-15 85 -8 170q419 23 729 104q-32 802 -45 1065q79 47 182 47l-2 -1163h203q10 0 10 -10v-142q0 -12 -10 -12h-256q-44 44 -65 82q-299 -101 -738 -141zM451 246q-47 144 -125.5 382.5t-114.5 348.5q55 68 147 90l195 -725q-56 -74 -78 -96h-24zM463 -559
q-19 32 -27 80q52 24 105 39q-60 56 -60 129q0 63 55.5 113.5t129.5 50.5q56 0 110 -23q-4 -33 -20 -90q-34 12 -74 12q-77 0 -121 -55q15 -54 56 -84.5t92 -30.5q55 0 104 12q0 -38 -18 -112q-202 0 -332 -41z" />
    <glyph glyph-name="uniFEFB" unicode="&#xfedf;&#xfe8e;" horiz-adv-x="1054" arabic-form="isolated" 
d="M53 -111q-14 98 -8 168q415 22 737 101q-32 801 -47 1132q73 45 180 45l-2 -1198q-37 -77 -75 -117q-318 -91 -785 -131zM459 182q-167 521 -258 793q56 66 149 90l211 -786q-44 -63 -78 -97h-24z" />
    <glyph glyph-name="uniFEFC" unicode="&#xfee0;&#xfe8e;" horiz-adv-x="1112" arabic-form="final" 
d="M55 -59q-15 85 -8 170q419 23 729 104q-32 802 -45 1065q79 47 182 47l-2 -1163h203q10 0 10 -10v-142q0 -12 -10 -12h-256q-44 44 -65 82q-299 -101 -738 -141zM451 246q-47 144 -125.5 382.5t-114.5 348.5q55 68 147 90l195 -725q-56 -74 -78 -96h-24z" />
    <glyph glyph-name="T_T" unicode="TT" horiz-adv-x="1640" 
d="M1604 1096q6 -29 6 -72t-6 -72h-351v-948q-22 -7 -64.5 -10t-96.5 2q-2 311 -11 956h-522v-948q-65 -19 -164 -8q0 478 -10 956h-348q-6 29 -6 72t6 72h1567z" />
    <glyph glyph-name="f_b" unicode="fb" horiz-adv-x="1521" 
d="M1016 -29q-175 0 -303 49q-4 674 -15 1047q-100 0 -165 -17.5t-100 -55.5t-48.5 -87.5t-13.5 -124.5v-24h211q16 -69 0 -137h-209v-617q-20 -7 -62 -10t-94 2l-6 625h-191q-16 68 0 137h193v35q0 105 28 182t89.5 133.5t164.5 84.5t248 28q35 0 66.5 -2.5t46.5 -4.5
l14 -2v-503q124 77 183 77q187 0 295 -109t108 -290q0 -200 -114 -308t-326 -108zM1042 113q106 0 185 37q63 71 63 212q0 136 -75.5 205.5t-208.5 69.5q-58 0 -136 -33v-463q70 -28 172 -28z" />
    <glyph glyph-name="f_h" unicode="fh" horiz-adv-x="1517" 
d="M743 1221q35 0 66.5 -2.5t46.5 -4.5l14 -2v-503q54 33 109.5 55t89.5 22q344 0 344 -335v-447q-56 -19 -158 -8l-4 399q-3 137 -55 190.5t-166 53.5q-67 0 -160 -35v-600q-20 -7 -61.5 -10t-95.5 2q-4 762 -15 1071q-100 0 -165 -17.5t-100 -55.5t-48 -87.5t-12 -124.5
v-24h209q16 -69 0 -137h-209v-617q-20 -7 -62 -10t-94 2l-6 625h-191q-16 68 0 137h191v35q1 105 29 182t90 133.5t165 84.5t248 28z" />
    <glyph glyph-name="f_k" unicode="fk" horiz-adv-x="1400" 
d="M1229 -12l-359 387v-371q-20 -7 -61.5 -10t-95.5 2q-4 762 -15 1071q-100 0 -165 -17.5t-100 -55.5t-48.5 -87.5t-13.5 -124.5l2 -24h209q16 -69 0 -137h-209v-617q-20 -7 -62 -10t-94 2l-6 625h-191q-16 68 0 137h191v35q1 105 29 182t90 133.5t165 84.5t248 28
q35 0 66.5 -2.5t46.5 -4.5l14 -2v-782l353 340q103 -4 166 -31l-349 -323l371 -398q-35 -14 -90 -23t-92 -7z" />
    <glyph glyph-name="f_t" unicode="ft" horiz-adv-x="1214" 
d="M999 -20q-77 0 -131.5 20.5t-85 59t-43.5 85.5t-14 109l-2 367h-350v-617q-20 -7 -62 -10t-94 2l-6 625h-191q-16 68 0 137h191v35q0 201 108.5 309t286.5 121q43 -58 53 -150q-155 -12 -220.5 -82.5t-65.5 -208.5v-24h346l-6 209q72 49 170 59v-268h293q16 -69 0 -137
h-293v-324q0 -91 33 -131.5t114 -40.5q56 0 121 20q19 -78 16 -143q-79 -22 -168 -22z" />
    <glyph glyph-name="uni06440671" unicode="&#xfedf;&#xfb51;" horiz-adv-x="1054" 
d="M381 1491q60 0 96.5 -36t36.5 -95q0 -73 -49 -154q-84 -41 -197 -41q-105 0 -176 43q-60 -31 -129 -90q-26 20 -49 58q79 89 184 137q30 -17 52 -25q125 203 231 203zM410 1280q14 24 14 55q0 28 -18.5 46t-47.5 18q-65 0 -143 -131q38 -6 76 -6q63 0 119 18zM53 -111
q-14 98 -8 168q415 22 737 101q-32 801 -47 1132q73 45 180 45l-2 -1198q-37 -77 -75 -117q-318 -91 -785 -131zM459 182q-167 521 -258 793q56 66 149 90l211 -786q-44 -63 -78 -97h-24z" />
    <glyph glyph-name="uni06440671.fina" unicode="&#xfee0;&#xfb51;" horiz-adv-x="1112" 
d="M383 1495q60 0 96.5 -36t36.5 -95q0 -73 -49 -154q-84 -41 -197 -41q-105 0 -176 43q-60 -31 -129 -90q-26 20 -49 58q79 89 184 137q30 -17 52 -25q125 203 231 203zM412 1284q14 24 14 55q0 28 -18.5 46t-47.5 18q-65 0 -143 -131q38 -6 76 -6q64 0 119 18zM55 -59
q-15 85 -8 170q419 23 729 104q-32 802 -45 1065q79 47 182 47l-2 -1163h203q10 0 10 -10v-142q0 -12 -10 -12h-256q-44 44 -65 82q-299 -101 -738 -141zM451 246q-47 144 -125.5 382.5t-114.5 348.5q55 68 147 90l195 -725q-56 -74 -78 -96h-24z" />
    <glyph glyph-name="uni066E.init" unicode="&#x66e;" horiz-adv-x="532" 
d="M0 0q-12 0 -12 12v142q0 10 12 10h250q20 69 20 164q0 153 -57 313q30 22 76 39t86 18q41 -155 41 -309q0 -198 -68 -389h-348z" />
    <glyph glyph-name="uni066E.medi" unicode="&#x66e;" horiz-adv-x="573" 
d="M0 0q-12 0 -12 12v142q0 10 12 10h160q48 106 72 196.5t40 210.5q95 3 162 -30q-39 -189 -110 -340q48 -22 104.5 -29.5t146.5 -7.5q11 0 11 -10v-142q0 -12 -11 -12q-196 0 -292 104q-33 -62 -62 -104h-221z" />
    <glyph glyph-name="uni066E.fina" unicode="&#x66e;" horiz-adv-x="1693" 
d="M1696 164q10 0 10 -10v-142q0 -12 -10 -12q-197 0 -293 104q-33 -62 -62 -104h-800q-222 0 -328.5 108t-106.5 291q0 58 7.5 111t14.5 80t26 90q52 0 127 -21q-37 -129 -37 -225q0 -136 81 -203t253 -67h702q48 107 72.5 197.5t40.5 209.5q94 3 161 -30
q-39 -189 -110 -340q81 -37 252 -37z" />
    <glyph glyph-name="uni066F.fina" unicode="&#x66f;" horiz-adv-x="1345" 
d="M106 18q0 127 50 293q58 0 123 -20q-35 -125 -35 -242q-1 -85 30.5 -148.5t89.5 -101t130 -55.5t159 -18q225 0 353 94q37 68 51 180h-139q-160 0 -271.5 82.5t-111.5 206.5q0 66 28 144t74 145t111.5 112t132.5 45q96 0 171 -74t113.5 -189t38.5 -247l-2 -61h144
q10 0 10 -10v-142q0 -12 -10 -12h-156q-25 -149 -105 -256q-63 -82 -182 -128t-282 -46q-241 0 -378 115.5t-137 332.5zM920 162l139 2q2 28 2 53q0 82 -27 164.5t-76.5 139.5t-107.5 57q-68 0 -127.5 -84.5t-73.5 -192.5q36 -66 106 -102.5t165 -36.5z" />
    <glyph glyph-name="uni06A1.init" unicode="&#x6a1;" horiz-adv-x="878" 
d="M0 0q-10 0 -10 10v144q0 10 10 10h338q-97 38 -161 100t-64 123t28 130.5t74 129.5t113.5 99.5t138.5 39.5q127 0 216 -108.5t89 -271.5q0 -198 -121 -406h-651zM569 176q49 101 49 221q0 99 -49.5 167.5t-122.5 68.5q-70 0 -134.5 -71.5t-84.5 -170.5q106 -149 342 -215
z" />
    <glyph glyph-name="uni06A1.medi" unicode="&#x6a1;" horiz-adv-x="905" 
d="M0 0q-10 0 -10 10v144q0 10 10 10q248 0 303 10q-76 39 -131 102t-55 123q-1 87 43 177.5t124.5 153.5t172.5 63q132 0 227.5 -97t95.5 -237q2 -154 -143 -285q58 -10 115 -10h153q13 0 13 -10v-144q0 -10 -13 -10h-137q-160 0 -272 53q-95 -35 -184 -44t-312 -9z
M481 211q60 32 103 91t43 128q0 88 -55 148.5t-134 60.5q-68 0 -128.5 -71t-80.5 -177q89 -118 252 -180z" />
    <glyph glyph-name="uni06A1.fina" unicode="&#x6a1;" horiz-adv-x="1777" 
d="M1778 164q12 0 12 -10v-144q0 -10 -12 -10h-138q-160 0 -272 53q-92 -34 -176 -43.5t-279 -9.5h-2h-370q-222 0 -328.5 108t-106.5 291q0 58 7.5 111t14.5 80t26 90q52 0 127 -21q-37 -129 -37 -225q0 -136 81 -203t253 -67h294q249 0 304 10q-77 39 -132 102t-55 123
q-1 87 43 177.5t124.5 153.5t172.5 63q132 0 228 -97t96 -237q2 -153 -144 -285q58 -10 115 -10h154zM1354 211q60 32 102.5 91t42.5 128q0 88 -54.5 148.5t-133.5 60.5q-68 0 -128.5 -71t-80.5 -177q89 -118 252 -180z" />
    <glyph glyph-name="uni06C2.fina" unicode="&#x6c2;" horiz-adv-x="886" 
d="M297 680q-19 32 -27 80q52 24 105 39q-60 56 -60 129q0 63 55.5 113.5t129.5 50.5q56 0 110 -23q-4 -33 -20 -90q-35 12 -74 12q-77 0 -121 -55q15 -54 56 -84.5t92 -30.5q50 0 104 13q0 -39 -18 -113q-202 0 -332 -41zM846 0q-256 0 -285 311q-240 -36 -491 -202
q-31 91 -25 180q94 64 255 122.5t273 65.5q59 -47 82 -78q9 -119 63 -177t159 -58h12q10 0 10 -10v-142q0 -12 -10 -12h-43z" />
    <glyph glyph-name="uni06C3.fina" unicode="&#x6c3;" horiz-adv-x="886" 
d="M578 684l-115 133q59 68 135 115l113 -133zM326 682l-115 133q59 68 135 115l113 -133zM846 0q-256 0 -285 311q-240 -36 -491 -202q-31 91 -25 180q94 64 255 122.5t273 65.5q59 -47 82 -78q9 -119 63 -177t159 -58h12q10 0 10 -10v-142q0 -12 -10 -12h-43z" />
    <glyph glyph-name="uniFB51" unicode="&#x671;" horiz-adv-x="466" arabic-form="final" 
d="M346 1575q60 0 96.5 -36t36.5 -95q0 -73 -49 -154q-84 -41 -197 -41q-105 0 -176 43q-60 -31 -129 -90q-26 20 -49 58q79 89 184 137q30 -17 52 -25q125 203 231 203zM375 1364q14 24 14 55q0 28 -18 46t-47 18q-66 0 -144 -131q37 -6 76 -6q64 0 119 18zM160 0
q-5 69 -18 491t-23 607q71 47 174 47v-981h172q14 0 14 -10v-142q0 -12 -14 -12h-305z" />
    <glyph glyph-name="uniFB57" unicode="&#x67e;" horiz-adv-x="1693" arabic-form="final" 
d="M1696 164q10 0 10 -10v-142q0 -12 -10 -12q-197 0 -293 104q-33 -62 -62 -104h-800q-222 0 -328.5 108t-106.5 291q0 58 7.5 111t14.5 80t26 90q52 0 127 -21q-37 -129 -37 -225q0 -136 81 -203t253 -67h702q48 107 72.5 197.5t40.5 209.5q94 3 161 -30
q-39 -189 -110 -340q81 -37 252 -37zM752 -219q22 -24 48.5 -55.5t41.5 -51.5l16 -20l-125 -109l-110 127q57 66 129 109zM870 -328q57 66 129 109q22 -24 48.5 -55.5t42.5 -51.5l16 -20l-125 -109zM762 -516q52 57 115 94q19 -21 42 -48.5t37 -44.5l13 -17l-111 -95z" />
    <glyph glyph-name="uniFB58" unicode="&#x67e;" horiz-adv-x="641" arabic-form="initial" 
d="M0 0q-12 0 -12 12v142q0 10 12 10h358q23 79 23 164q0 147 -59 313q30 22 76 39t85 18q41 -155 41 -309q0 -200 -67 -389h-457zM135 -455l-110 127q57 66 129 109q22 -24 48.5 -55.5t41.5 -51.5l16 -20zM383 -455l-111 127q57 66 129 109q22 -24 48.5 -55.5t42.5 -51.5
l16 -20zM260 -627l-96 111q52 57 115 94q19 -21 42 -48.5t37 -44.5l13 -17z" />
    <glyph glyph-name="uniFB59" unicode="&#x67e;" horiz-adv-x="645" arabic-form="medial" 
d="M0 0q-12 0 -12 12v142q0 10 12 10h205q48 107 71.5 198t38.5 209q101 6 162 -30q-41 -197 -108 -340q87 -37 278 -37q8 0 8 -10v-142q0 -12 -8 -12q-223 0 -321 104q-33 -67 -62 -104h-264zM188 -455l-110 127q57 66 129 109q22 -24 48.5 -55.5t42.5 -51.5l15 -20z
M436 -455l-110 127q57 66 129 109q22 -24 48.5 -55.5t42.5 -51.5l15 -20zM313 -627l-96 111q52 57 115 94q19 -21 42 -48.5t36 -44.5l14 -17z" />
    <glyph glyph-name="uniFB67" unicode="&#x679;" horiz-adv-x="1693" arabic-form="final" 
d="M1081 657q-129 -18 -256 -18q-147 0 -262 27q0 48 23 104q94 -26 114 -29l-28 392q43 30 96 30l2 -317l-14 -60q57 106 114.5 155.5t126.5 49.5q58 0 99 -40.5t41 -108.5q0 -85 -56 -185zM973 899q-46 0 -92.5 -45.5t-83.5 -120.5h55q114 0 180 6q17 43 17 78t-20.5 58.5
t-55.5 23.5zM1696 164q10 0 10 -10v-142q0 -12 -10 -12q-197 0 -293 104q-33 -62 -62 -104h-800q-222 0 -328.5 108t-106.5 291q0 58 7.5 111t14.5 80t26 90q52 0 127 -21q-37 -129 -37 -225q0 -136 81 -203t253 -67h702q48 107 72.5 197.5t40.5 209.5q94 3 161 -30
q-39 -189 -110 -340q81 -37 252 -37z" />
    <glyph glyph-name="uniFB68" unicode="&#x679;" horiz-adv-x="641" arabic-form="initial" 
d="M289 854q-147 0 -262 27q0 50 22 104q92 -25 115 -29l-29 392q43 30 96 30l2 -317l-14 -60q57 106 115 155.5t127 49.5q58 0 98.5 -40.5t40.5 -108.5q0 -87 -55 -185q-129 -18 -256 -18zM260 948h55q115 0 181 6q16 40 16 78q0 35 -20.5 58.5t-55.5 23.5
q-46 0 -92.5 -45.5t-83.5 -120.5zM0 0q-12 0 -12 12v142q0 10 12 10h358q23 79 23 164q0 147 -59 313q30 22 76 39t85 18q41 -155 41 -309q0 -200 -67 -389h-457z" />
    <glyph glyph-name="uniFB69" unicode="&#x679;" horiz-adv-x="645" arabic-form="medial" 
d="M305 762q-151 0 -262 26q0 49 23 105q94 -26 114 -29l-28 391q45 31 96 31l2 -317l-14 -60q57 106 114.5 155.5t126.5 49.5q58 0 98.5 -40.5t40.5 -108.5q0 -87 -55 -185q-129 -18 -256 -18zM276 856h56q114 0 180 6q16 40 16 78q0 35 -20 58.5t-55 23.5q-46 0 -93.5 -46
t-83.5 -120zM0 0q-12 0 -12 12v142q0 10 12 10h205q48 107 71.5 198t38.5 209q101 6 162 -30q-41 -197 -108 -340q87 -37 278 -37q8 0 8 -10v-142q0 -12 -8 -12q-223 0 -321 104q-33 -67 -62 -104h-264z" />
    <glyph glyph-name="uniFB6B" unicode="&#x6a4;" horiz-adv-x="1777" arabic-form="final" 
d="M1442 1282l-101 -88l-90 102q48 51 105 86zM1335 1073l-129 -110l-112 129q57 65 133 110zM1350 1092q57 65 133 110l108 -129l-129 -110zM1778 164q12 0 12 -10v-144q0 -10 -12 -10h-138q-160 0 -272 53q-92 -34 -176 -43.5t-279 -9.5h-2h-370q-222 0 -328.5 108
t-106.5 291q0 58 7.5 111t14.5 80t26 90q52 0 127 -21q-37 -129 -37 -225q0 -136 81 -203t253 -67h294q249 0 304 10q-77 39 -132 102t-55 123q-1 87 43 177.5t124.5 153.5t172.5 63q132 0 228 -97t96 -237q2 -153 -144 -285q58 -10 115 -10h154zM1354 211q60 32 102.5 91
t42.5 128q0 88 -54.5 148.5t-133.5 60.5q-68 0 -128.5 -71t-80.5 -177q89 -118 252 -180z" />
    <glyph glyph-name="uniFB6C" unicode="&#x6a4;" horiz-adv-x="878" arabic-form="initial" 
d="M444 1194l-90 102q48 51 105 86l86 -100zM309 963l-112 129q57 65 133 110l108 -129zM565 963l-112 129q57 65 133 110l108 -129zM0 0q-10 0 -10 10v144q0 10 10 10h338q-97 38 -161 100t-64 123t28 130.5t74 129.5t113.5 99.5t138.5 39.5q127 0 216 -108.5t89 -271.5
q0 -198 -121 -406h-651zM569 176q49 101 49 221q0 99 -49.5 167.5t-122.5 68.5q-70 0 -134.5 -71.5t-84.5 -170.5q106 -149 342 -215z" />
    <glyph glyph-name="uniFB6D" unicode="&#x6a4;" horiz-adv-x="905" arabic-form="medial" 
d="M469 1194l-90 102q47 51 104 86l86 -100zM334 963l-113 129q57 65 133 110l109 -129zM590 963l-113 129q57 65 133 110l109 -129zM0 0q-10 0 -10 10v144q0 10 10 10q248 0 303 10q-76 39 -131 102t-55 123q-1 87 43 177.5t124.5 153.5t172.5 63q132 0 227.5 -97
t95.5 -237q2 -154 -143 -285q58 -10 115 -10h153q13 0 13 -10v-144q0 -10 -13 -10h-137q-160 0 -272 53q-95 -35 -184 -44t-312 -9zM481 211q60 32 103 91t43 128q0 88 -55 148.5t-134 60.5q-68 0 -128.5 -71t-80.5 -177q89 -118 252 -180z" />
    <glyph glyph-name="uniFB7B" unicode="&#x686;" horiz-adv-x="1128" arabic-form="final" 
d="M1128 164q11 0 11 -10v-142q0 -12 -11 -12q-73 0 -130.5 22t-82.5 60q-32 -43 -71 -82h-203q-318 0 -428 -129q15 -271 248 -442q-67 -52 -150 -74q-105 79 -171 203.5t-66 242.5q0 161 141 262t365 101h208q5 29 5 65q0 163 -147 261.5t-382 95.5q0 92 31 168
q92 0 179 -16t172.5 -55.5t149 -98.5t103 -151.5t39.5 -207.5v-10q63 -51 190 -51zM539 -219q22 -24 48.5 -55.5t42.5 -51.5l15 -20l-125 -109l-110 127q57 66 129 109zM657 -328q57 66 129 109q22 -24 48.5 -55.5t42.5 -51.5l16 -20l-125 -109zM549 -516q52 57 115 94
q19 -21 42 -48.5t36 -44.5l14 -17l-111 -95z" />
    <glyph glyph-name="uniFB7C" unicode="&#x686;" horiz-adv-x="946" arabic-form="initial" 
d="M0 0q-12 0 -12 12v142q0 10 12 10h690q4 23 4 65q0 163 -147 261.5t-381 95.5q0 92 31 168q92 0 179.5 -16t173 -55.5t149 -98.5t102.5 -151.5t39 -207.5q0 -92 -29 -225h-811zM301 -455l-111 127q57 66 129 109q22 -24 48.5 -55.5t42.5 -51.5l16 -20zM549 -455l-111 127
q57 66 129 109q22 -24 48.5 -55.5t42.5 -51.5l16 -20zM426 -627l-96 111q51 57 114 94l93 -110z" />
    <glyph glyph-name="uniFB7D" unicode="&#x686;" horiz-adv-x="1021" arabic-form="medial" 
d="M1022 164q10 0 10 -10v-142q0 -12 -10 -12q-69 0 -126 20.5t-83 55.5q-31 -42 -68 -76h-745q-12 0 -12 12v142q0 10 12 10h690q4 23 4 65q0 163 -147 261.5t-381 95.5q0 92 31 168q130 1 245 -32t202.5 -94.5t138.5 -156t51 -209.5v-49q65 -49 188 -49zM367 -219
q22 -24 48.5 -55.5t42.5 -51.5l15 -20l-125 -109l-110 127q57 66 129 109zM485 -328q57 66 129 109q22 -24 48.5 -55.5t42.5 -51.5l16 -20l-125 -109zM377 -516q52 57 115 94q19 -21 42 -48.5t36 -44.5l14 -17l-111 -95z" />
    <glyph glyph-name="uniFB89" unicode="&#x688;" horiz-adv-x="921" arabic-form="final" 
d="M752 999q-129 -18 -256 -18q-148 0 -263 27q0 48 23 104q92 -25 115 -29l-29 392q43 30 96 30l2 -317l-14 -60q57 106 115 155.5t127 49.5q58 0 98.5 -40.5t40.5 -108.5q0 -87 -55 -185zM643 1241q-46 0 -92.5 -45.5t-83.5 -120.5h55q114 0 180 6q17 43 17 78t-20.5 58.5
t-55.5 23.5zM922 164q12 0 12 -10v-142q0 -12 -12 -12h-172q-37 32 -66 80q-171 -80 -360 -80q-152 0 -271 27q-18 96 0 180q135 -41 301 -41q133 0 269 37q-88 206 -146 553q67 51 170 51q11 -167 45 -341.5t86 -301.5h144z" />
    <glyph glyph-name="uniFB8B" unicode="&#x698;" horiz-adv-x="702" arabic-form="final" 
d="M358 1188l-100 -88l-90 102q47 51 104 86zM252 979l-129 -111l-113 129q57 66 133 111zM266 997q57 66 133 111l109 -129l-129 -111zM702 164q11 0 11 -10v-142q0 -12 -11 -12q-65 0 -119.5 18.5t-82.5 49.5q-37 -145 -166 -290t-314 -249q-75 38 -126 123
q205 106 327 223.5t174 261.5q-39 245 -174 473q66 56 158 76q45 -98 83 -229t48 -240q62 -53 192 -53z" />
    <glyph glyph-name="uniFB8D" unicode="&#x691;" horiz-adv-x="702" arabic-form="final" 
d="M477 887q-136 -19 -256 -19q-147 0 -262 27q0 48 23 104q85 -23 114 -28l-28 391q45 31 96 31l2 -318l-14 -59q57 106 114.5 155.5t126.5 49.5q58 0 98.5 -41t40.5 -109q0 -86 -55 -184zM369 1128q-46 0 -93 -45.5t-83 -119.5h55q114 0 180 6q16 40 16 78q0 35 -20 58
t-55 23zM702 164q11 0 11 -10v-142q0 -12 -11 -12q-65 0 -119.5 18.5t-82.5 49.5q-37 -145 -166 -290t-314 -249q-75 38 -126 123q205 106 327 223.5t174 261.5q-39 245 -174 473q66 56 158 76q45 -98 83 -229t48 -240q62 -53 192 -53z" />
    <glyph glyph-name="uniFB8F" unicode="&#x6a9;" horiz-adv-x="1667" arabic-form="final" 
d="M1669 164q10 0 10 -10v-142q0 -12 -10 -12q-69 0 -122.5 25t-84.5 65q-35 -50 -80 -90h-841q-222 0 -328.5 108t-106.5 291q0 58 7.5 111t14.5 80t26 90q52 0 127 -21q-37 -129 -37 -225q0 -136 81 -203t253 -67h757v24q0 206 -126.5 298t-358.5 92q-82 0 -170 -15
q-52 39 -76 113q107 155 285 339t348 316q88 -12 152 -92q-198 -139 -336 -261t-271 -265q55 14 129 14q124 0 225.5 -31t178 -93t119 -163t43.5 -235q61 -41 192 -41z" />
    <glyph glyph-name="uniFB90" unicode="&#x6a9;" horiz-adv-x="1062" arabic-form="initial" 
d="M389 727q125 0 226.5 -31.5t178.5 -95t119.5 -168t42.5 -242.5q0 -91 -24 -190h-932q-12 0 -12 12v142q0 10 12 10h813v24q0 205 -120.5 297.5t-364.5 92.5q-84 0 -170 -15q-52 39 -76 113q107 155 284.5 338.5t346.5 316.5q89 -12 153 -92q-198 -139 -335 -260.5
t-271 -265.5q55 14 129 14z" />
    <glyph glyph-name="uniFB91" unicode="&#x6a9;" horiz-adv-x="1155" arabic-form="medial" 
d="M1155 164q10 0 10 -10v-142q0 -12 -10 -12q-69 0 -122.5 25t-84.5 65q-35 -50 -80 -90h-868q-12 0 -12 12v142q0 10 12 10h821v24q0 206 -126.5 298t-358.5 92q-82 0 -170 -15q-52 39 -76 113q107 155 285 339t348 316q87 -12 151 -92q-198 -139 -335 -260.5t-271 -265.5
q55 14 129 14q124 0 225.5 -31t178 -93t119 -163t43.5 -235q61 -41 192 -41z" />
    <glyph glyph-name="uniFB93" unicode="&#x6af;" horiz-adv-x="1667" arabic-form="final" 
d="M520 741q-37 30 -53 50q103 147 265 326t333 327q45 -17 82 -49q-172 -142 -340.5 -322t-286.5 -332zM1669 164q10 0 10 -10v-142q0 -12 -10 -12q-69 0 -122.5 25t-84.5 65q-35 -50 -80 -90h-841q-222 0 -328.5 108t-106.5 291q0 58 7.5 111t14.5 80t26 90q52 0 127 -21
q-37 -129 -37 -225q0 -136 81 -203t253 -67h757v24q0 206 -126.5 298t-358.5 92q-82 0 -170 -15q-52 39 -76 113q107 155 285 339t348 316q88 -12 152 -92q-198 -139 -336 -261t-271 -265q55 14 129 14q124 0 225.5 -31t178 -93t119 -163t43.5 -235q61 -41 192 -41z" />
    <glyph glyph-name="uniFB94" unicode="&#x6af;" horiz-adv-x="1062" arabic-form="initial" 
d="M614 1399q-172 -142 -339.5 -321.5t-286.5 -332.5q-40 32 -54 50q103 147 265 326t333 327q45 -17 82 -49zM389 727q125 0 226.5 -31.5t178.5 -95t119.5 -168t42.5 -242.5q0 -91 -24 -190h-932q-12 0 -12 12v142q0 10 12 10h813v24q0 205 -120.5 297.5t-364.5 92.5
q-84 0 -170 -15q-52 39 -76 113q107 155 284.5 338.5t346.5 316.5q89 -12 153 -92q-198 -139 -335 -260.5t-271 -265.5q55 14 129 14z" />
    <glyph glyph-name="uniFB95" unicode="&#x6af;" horiz-adv-x="1155" arabic-form="medial" 
d="M614 1399q-172 -142 -339.5 -321.5t-286.5 -332.5q-40 32 -54 50q103 147 265 326t333 327q45 -17 82 -49zM1155 164q10 0 10 -10v-142q0 -12 -10 -12q-69 0 -122.5 25t-84.5 65q-35 -50 -80 -90h-868q-12 0 -12 12v142q0 10 12 10h821v24q0 206 -126.5 298t-358.5 92
q-82 0 -170 -15q-52 39 -76 113q107 155 285 339t348 316q87 -12 151 -92q-198 -139 -335 -260.5t-271 -265.5q55 14 129 14q124 0 225.5 -31t178 -93t119 -163t43.5 -235q61 -41 192 -41z" />
    <glyph glyph-name="uniFB9F" unicode="&#x6ba;" horiz-adv-x="1206" arabic-form="final" 
d="M1206 164q11 0 11 -10v-142q0 -12 -11 -12q-127 0 -190 57q-8 -100 -36 -190t-73 -148q-117 -149 -356 -149q-445 0 -445 448q0 129 48 293q55 0 127 -20q-37 -129 -37 -250q0 -315 331 -315q157 0 252 75q50 123 50 291q0 193 -64 416q69 48 160 57q37 -163 43 -352
q65 -49 190 -49z" />
    <glyph glyph-name="uniFBA5" unicode="&#x6c0;" horiz-adv-x="872" arabic-form="final" 
d="M311 965q-18 30 -26 79q54 25 104 39q-59 55 -59 129q0 63 55 113.5t129 50.5q59 0 111 -22q-3 -26 -21 -90q-35 12 -74 12q-76 0 -120 -55q15 -54 55.5 -84.5t91.5 -30.5q55 0 105 12q0 -34 -19 -112q-202 0 -332 -41zM496 0q-176 0 -287 78.5t-111 197.5
q0 112 127 235.5t316 195.5q-3 42 -9 94q74 45 179 51v-688h163q9 0 9 -10v-142q0 -12 -9 -12h-221q-24 19 -65 70q-46 -43 -92 -70zM498 164q39 0 69 6l-14 414q-101 -36 -197.5 -107.5t-142.5 -161.5q28 -74 108 -112.5t177 -38.5z" />
    <glyph glyph-name="uniFBA7" unicode="&#x6c1;" horiz-adv-x="886" arabic-form="final" 
d="M846 0q-256 0 -285 311q-240 -36 -491 -202q-31 91 -25 180q94 64 255 122.5t273 65.5q59 -47 82 -78q9 -119 63 -177t159 -58h12q10 0 10 -10v-142q0 -12 -10 -12h-43z" />
    <glyph glyph-name="uniFBA8" unicode="&#x6c1;" horiz-adv-x="532" arabic-form="initial" 
d="M0 0q-12 0 -12 12v142q0 10 12 10h250q20 69 20 164q0 153 -57 313q30 22 76 39t86 18q41 -155 41 -309q0 -198 -68 -389h-348zM174 -506q-48 22 -77 67.5t-29 104.5q0 64 45 128.5t125 105.5q20 -7 32 -27q-35 -30 -57.5 -70.5t-22.5 -76.5q0 -45 30.5 -80.5t80.5 -53.5
q-56 -71 -127 -98z" />
    <glyph glyph-name="uniFBA9" unicode="&#x6c1;" horiz-adv-x="1155" arabic-form="medial" 
d="M1155 164q12 0 12 -10v-142q0 -12 -12 -12h-266q-112 0 -189 -29q-47 -72 -47 -198q0 -76 21 -148q-31 -53 -86 -108q-204 58 -313 207t-115 346q-61 -70 -160 -70q-12 0 -12 12v140q0 12 12 12q70 0 110.5 18.5t61.5 63.5q7 53 27 133q58 0 135 -25q-37 -132 -37 -256
q0 -145 74.5 -255.5t197.5 -155.5q-20 65 -20 145q0 148 84.5 240t251.5 92h270zM928 -274q0 -45 30 -80.5t80 -53.5q-56 -71 -127 -98q-48 22 -77 67.5t-29 104.5q0 64 45 128.5t125 105.5q21 -7 33 -27q-35 -30 -57.5 -70.5t-22.5 -76.5z" />
    <glyph glyph-name="uniFBAB" unicode="&#x6be;" horiz-adv-x="1032" arabic-form="final" 
d="M698 -457q-176 51 -277 165t-134 267q-196 -61 -236 -77q-9 47 -8.5 96t8.5 80q99 37 225 61l3 12q15 208 116 409t267 372q62 -5 137 -47q102 -196 102 -420q0 -148 -76 -232q-51 -60 -153.5 -108t-261.5 -96q27 -117 98 -201.5t172 -114.5q-16 56 -16 117q0 148 97 243
t273 95q10 0 10 -10v-142q0 -12 -10 -12q-143 0 -215 -27q-49 -73 -49 -174q0 -77 18 -145q-35 -56 -90 -111zM414 166q247 47 336 113q14 57 14 133q0 178 -88 354q-114 -127 -188 -281.5t-74 -312.5v-6z" />
    <glyph glyph-name="uniFBAC" unicode="&#x6be;" horiz-adv-x="1089" arabic-form="initial" 
d="M301 969q330 -41 500 -206.5t170 -443.5q0 -158 -62 -309q-44 -44 -121 -86q-288 16 -450 121q-113 -45 -244 -45h-94q-10 0 -10 10v144q0 10 10 10h72q83 0 118 2q-98 101 -98 207q0 101 74 183.5t190 82.5q100 0 177 -74t77 -180q0 -145 -118 -248q127 -41 288 -55
q41 112 41 229q0 221 -146.5 349.5t-422.5 150.5q4 86 49 158zM348 508q-54 0 -95 -42.5t-50 -107.5q19 -54 54 -91t101 -72q59 26 92 69.5t33 93.5q0 65 -38.5 107.5t-96.5 42.5z" />
    <glyph glyph-name="uniFBAD" unicode="&#x6be;" horiz-adv-x="903" arabic-form="medial" 
d="M-12 12v142q0 10 12 10q51 0 133 4v20q12 171 109.5 366.5t265.5 373.5q60 -5 139 -47q103 -220 103 -432q0 -80 -23.5 -143.5t-58.5 -100.5q78 -41 237 -41q10 0 10 -10v-142q0 -12 -10 -12h-35q-76 0 -108 8l-92 51l-4 -6q44 -44 84.5 -111.5t64.5 -134.5
q-21 -83 -65 -143q-87 -43 -207 -43q-170 0 -278.5 104.5t-135.5 278.5q-90 -4 -129 -4q-12 0 -12 12zM262 172q181 17 316 70q34 58 34 161q0 175 -90 363q-240 -271 -260 -559q-3 -20 0 -35zM553 -227q75 0 133 28q-82 195 -192 277q-104 -40 -234 -55q25 -116 101.5 -183
t191.5 -67z" />
    <glyph glyph-name="uniFBAF" unicode="&#x6d2;" horiz-adv-x="854" arabic-form="final" 
d="M606 -471q-165 0 -311.5 50.5t-251.5 146.5q2 29 12 82.5t19 76.5q114 101 163 135q172 122 408 140q48 4 100 4h111q10 0 10 -10v-142q0 -12 -10 -12h-119q-187 0 -299.5 -42t-228.5 -144q175 -127 414 -127q102 0 159 8q15 -68 21 -154q-120 -12 -197 -12z" />
    <glyph glyph-name="uniFBB1" unicode="&#x6d3;" horiz-adv-x="854" arabic-form="final" 
d="M295 330q-19 32 -27 80q52 24 105 39q-60 56 -60 129q0 63 55.5 113t129.5 50q58 0 110 -22q-4 -33 -20 -90q-35 12 -74 12q-77 0 -121 -55q15 -54 56 -84.5t92 -30.5q55 0 104 12q0 -38 -18 -112q-202 0 -332 -41zM606 -471q-165 0 -311.5 50.5t-251.5 146.5
q2 29 12 82.5t19 76.5q114 101 163 135q172 122 408 140q48 4 100 4h111q10 0 10 -10v-142q0 -12 -10 -12h-119q-187 0 -299.5 -42t-228.5 -144q175 -127 414 -127q102 0 159 8q15 -68 21 -154q-120 -12 -197 -12z" />
    <glyph glyph-name="uniFBE8" unicode="&#x649;" horiz-adv-x="532" arabic-form="initial" 
d="M0 0q-12 0 -12 12v142q0 10 12 10h250q20 69 20 164q0 153 -57 313q30 22 76 39t86 18q41 -155 41 -309q0 -198 -68 -389h-348z" />
    <glyph glyph-name="uniFBE9" unicode="&#x649;" horiz-adv-x="573" arabic-form="medial" 
d="M0 0q-12 0 -12 12v142q0 10 12 10h160q48 106 72 196.5t40 210.5q95 3 162 -30q-39 -189 -110 -340q48 -22 104.5 -29.5t146.5 -7.5q11 0 11 -10v-142q0 -12 -11 -12q-196 0 -292 104q-33 -62 -62 -104h-221z" />
    <glyph glyph-name="uniFBFD" unicode="&#x6cc;" horiz-adv-x="1331" arabic-form="final" 
d="M584 -471q-222 0 -350 117.5t-128 328.5q0 129 48 293q55 0 127 -20q-37 -121 -37 -240q0 -155 104.5 -240t265.5 -85q158 0 304.5 55.5t244.5 161.5q-111 118 -385 264q26 83 80 158q139 -86 238 -122t233 -36q14 0 14 -10v-142q0 -12 -14 -12h-78l-129 49l-4 -6
q156 -89 156 -164q0 -32 -32.5 -77t-95.5 -92.5t-145 -88t-192 -66.5t-225 -26z" />
    <glyph glyph-name="uniFBFE" unicode="&#x6cc;" horiz-adv-x="641" arabic-form="initial" 
d="M0 0q-12 0 -12 12v142q0 10 12 10h358q23 79 23 164q0 147 -59 313q30 22 76 39t85 18q41 -155 41 -309q0 -200 -67 -389h-457zM133 -467l-115 131q60 68 136 113q23 -24 50.5 -57t43.5 -54l16 -20zM391 -467l-115 131q60 68 136 113q23 -24 50.5 -57t43.5 -54l16 -20z
" />
    <glyph glyph-name="uniFBFF" unicode="&#x6cc;" horiz-adv-x="645" arabic-form="medial" 
d="M0 0q-12 0 -12 12v142q0 10 12 10h205q48 107 71.5 198t38.5 209q101 6 162 -30q-41 -197 -108 -340q87 -37 278 -37q8 0 8 -10v-142q0 -12 -8 -12q-223 0 -321 104q-33 -67 -62 -104h-264zM186 -467l-114 131q59 68 135 113q23 -24 50.5 -57t43.5 -54l16 -20zM444 -467
l-114 131q59 68 135 113q23 -24 50.5 -57t43.5 -54l16 -20z" />
    <glyph glyph-name="uniFC02" unicode="&#xfc02;" horiz-adv-x="1064" arabic-form="isolated" 
d="M584 918q-20 33 -27 79q53 24 105 39q-60 56 -60 129q0 63 55 113.5t129 50.5q59 0 111 -22q-4 -33 -20 -90q-35 12 -74 12q-77 0 -121 -55q15 -54 55.5 -84.5t91.5 -30.5q55 0 105 12q0 -35 -19 -113q-204 0 -331 -40zM174 -645q-12 394 -72 684q27 73 80 133q50 8 88 8
q80 0 162 -26q-84 57 -84 131q1 76 33.5 157.5t86.5 148.5t134 110.5t166 43.5q162 0 244 -102q-32 -76 -88 -135q-79 72 -172 72q-101 0 -184 -97.5t-101 -224.5q97 -97 330 -172q-21 -87 -66 -166q-105 43 -220.5 71.5t-199.5 28.5q-23 0 -51 -4q42 -274 39 -618
q-51 -30 -98 -43h-27z" />
    <glyph glyph-name="uniFC03" unicode="&#xfc03;" horiz-adv-x="1398" arabic-form="isolated" 
d="M954 981q-18 30 -26 80q54 25 104 39q-59 55 -59 129q0 63 55 113.5t129 50.5q57 0 111 -23q-3 -26 -21 -90q-35 12 -73 12q-77 0 -121 -55q15 -54 55.5 -84.5t91.5 -30.5t105 13q0 -35 -19 -113q-202 0 -332 -41zM584 -471q-222 0 -350 117.5t-128 328.5q0 129 48 293
q55 0 127 -20q-37 -121 -37 -240q0 -155 104.5 -240t265.5 -85q153 -2 302 52t249 159q-92 100 -391 243q21 92 47 148q160 -23 281 4q22 84 22 160q3 158 -53 321q29 21 77 38.5t87 18.5q37 -154 37 -309q0 -156 -58 -313q-118 -44 -253 -31v-2q139 -65 228 -140t89 -143
q0 -59 -62 -123.5t-158.5 -116.5t-224 -86t-249.5 -34z" />
    <glyph glyph-name="uniFC04" unicode="&#xfc04;" horiz-adv-x="1398" arabic-form="isolated" 
d="M954 981q-18 30 -26 80q54 25 104 39q-59 55 -59 129q0 63 55 113.5t129 50.5q57 0 111 -23q-3 -26 -21 -90q-35 12 -73 12q-77 0 -121 -55q15 -54 55.5 -84.5t91.5 -30.5t105 13q0 -35 -19 -113q-202 0 -332 -41zM584 -471q-222 0 -350 117.5t-128 328.5q0 129 48 293
q55 0 127 -20q-37 -121 -37 -240q0 -155 104.5 -240t265.5 -85q153 -2 302 52t249 159q-92 100 -391 243q21 92 47 148q160 -23 281 4q22 84 22 160q3 158 -53 321q29 21 77 38.5t87 18.5q37 -154 37 -309q0 -156 -58 -313q-118 -44 -253 -31v-2q139 -65 228 -140t89 -143
q0 -59 -62 -123.5t-158.5 -116.5t-224 -86t-249.5 -34zM467 -864l-115 131q59 67 135 112q23 -24 50.5 -57t44.5 -54l16 -20zM725 -864l-115 131q59 67 135 112q23 -24 50.5 -57t44.5 -54l16 -20z" />
    <glyph glyph-name="uniFC08" unicode="&#xfc08;" horiz-adv-x="1064" arabic-form="isolated" 
d="M174 -645q-12 394 -72 684q27 73 80 133q50 8 88 8q80 0 162 -26q-84 57 -84 131q1 76 33.5 157.5t86.5 148.5t134 110.5t166 43.5q162 0 244 -102q-32 -76 -88 -135q-79 72 -172 72q-101 0 -184 -97.5t-101 -224.5q97 -97 330 -172q-21 -87 -66 -166
q-105 43 -220.5 71.5t-199.5 28.5q-23 0 -51 -4q42 -274 39 -618q-51 -30 -98 -43h-27zM754 -473l-115 131q59 68 135 113q23 -24 50.5 -57t43.5 -54l17 -20z" />
    <glyph glyph-name="uniFC09" unicode="&#xfc09;" horiz-adv-x="1398" arabic-form="isolated" 
d="M584 -471q-222 0 -350 117.5t-128 328.5q0 129 48 293q55 0 127 -20q-37 -121 -37 -240q0 -155 104.5 -240t265.5 -85q153 -2 302 52t249 159q-92 100 -391 243q21 92 47 148q160 -23 281 4q22 84 22 160q3 158 -53 321q29 21 77 38.5t87 18.5q37 -154 37 -309
q0 -156 -58 -313q-118 -44 -253 -31v-2q139 -65 228 -140t89 -143q0 -59 -62 -123.5t-158.5 -116.5t-224 -86t-249.5 -34zM1143 -770l-115 131q59 68 135 113q23 -24 50.5 -57t44.5 -53l16 -21z" />
    <glyph glyph-name="uniFC0A" unicode="&#xfc0a;" horiz-adv-x="1398" arabic-form="isolated" 
d="M584 -471q-222 0 -350 117.5t-128 328.5q0 129 48 293q55 0 127 -20q-37 -121 -37 -240q0 -155 104.5 -240t265.5 -85q153 -2 302 52t249 159q-92 100 -391 243q21 92 47 148q160 -23 281 4q22 84 22 160q3 158 -53 321q29 21 77 38.5t87 18.5q37 -154 37 -309
q0 -156 -58 -313q-118 -44 -253 -31v-2q139 -65 228 -140t89 -143q0 -59 -62 -123.5t-158.5 -116.5t-224 -86t-249.5 -34zM1143 -770l-115 131q59 68 135 113q23 -24 50.5 -57t44.5 -53l16 -21zM373 -864l-115 131q59 67 135 112q23 -24 50.5 -57t44.5 -54l16 -20zM631 -864
l-115 131q59 67 135 112q23 -24 50.5 -57t44.5 -54l16 -20z" />
    <glyph glyph-name="uniFC0E" unicode="&#xfc0e;" horiz-adv-x="1064" arabic-form="isolated" 
d="M864 922l-114 133q59 67 135 114l112 -133zM612 920l-114 133q59 67 135 114l112 -133zM174 -645q-12 394 -72 684q27 73 80 133q50 8 88 8q80 0 162 -26q-84 57 -84 131q1 76 33.5 157.5t86.5 148.5t134 110.5t166 43.5q162 0 244 -102q-32 -76 -88 -135q-79 72 -172 72
q-101 0 -184 -97.5t-101 -224.5q97 -97 330 -172q-21 -87 -66 -166q-105 43 -220.5 71.5t-199.5 28.5q-23 0 -51 -4q42 -274 39 -618q-51 -30 -98 -43h-27z" />
    <glyph glyph-name="uniFC0F" unicode="&#xfc0f;" horiz-adv-x="1398" arabic-form="isolated" 
d="M1235 985l-115 133q59 68 135 115l113 -133zM983 983l-115 133q60 68 136 115l112 -133zM584 -471q-222 0 -350 117.5t-128 328.5q0 129 48 293q55 0 127 -20q-37 -121 -37 -240q0 -155 104.5 -240t265.5 -85q153 -2 302 52t249 159q-92 100 -391 243q21 92 47 148
q160 -23 281 4q22 84 22 160q3 158 -53 321q29 21 77 38.5t87 18.5q37 -154 37 -309q0 -156 -58 -313q-118 -44 -253 -31v-2q139 -65 228 -140t89 -143q0 -59 -62 -123.5t-158.5 -116.5t-224 -86t-249.5 -34z" />
    <glyph glyph-name="uniFC10" unicode="&#xfc10;" horiz-adv-x="1398" arabic-form="isolated" 
d="M1235 985l-115 133q59 68 135 115l113 -133zM983 983l-115 133q60 68 136 115l112 -133zM584 -471q-222 0 -350 117.5t-128 328.5q0 129 48 293q55 0 127 -20q-37 -121 -37 -240q0 -155 104.5 -240t265.5 -85q153 -2 302 52t249 159q-92 100 -391 243q21 92 47 148
q160 -23 281 4q22 84 22 160q3 158 -53 321q29 21 77 38.5t87 18.5q37 -154 37 -309q0 -156 -58 -313q-118 -44 -253 -31v-2q139 -65 228 -140t89 -143q0 -59 -62 -123.5t-158.5 -116.5t-224 -86t-249.5 -34zM467 -864l-115 131q59 67 135 112q23 -24 50.5 -57t44.5 -54
l16 -20zM725 -864l-115 131q59 67 135 112q23 -24 50.5 -57t44.5 -54l16 -20z" />
    <glyph glyph-name="uniFC12" unicode="&#xfc12;" horiz-adv-x="1064" arabic-form="isolated" 
d="M754 1151l-90 102q47 51 104 86l86 -100zM618 920l-112 129q57 65 133 110l109 -129zM874 920l-112 129q57 65 133 110l109 -129zM174 -645q-12 394 -72 684q27 73 80 133q50 8 88 8q80 0 162 -26q-84 57 -84 131q1 76 33.5 157.5t86.5 148.5t134 110.5t166 43.5
q162 0 244 -102q-32 -76 -88 -135q-79 72 -172 72q-101 0 -184 -97.5t-101 -224.5q97 -97 330 -172q-21 -87 -66 -166q-105 43 -220.5 71.5t-199.5 28.5q-23 0 -51 -4q42 -274 39 -618q-51 -30 -98 -43h-27z" />
    <glyph glyph-name="uniFC13" unicode="&#xfc13;" horiz-adv-x="1398" arabic-form="isolated" 
d="M1124 1214l-90 103q48 51 105 86l86 -100zM989 983l-112 129q57 66 133 111l108 -129zM1245 983l-112 129q57 66 133 111l108 -129zM584 -471q-222 0 -350 117.5t-128 328.5q0 129 48 293q55 0 127 -20q-37 -121 -37 -240q0 -155 104.5 -240t265.5 -85q153 -2 302 52
t249 159q-92 100 -391 243q21 92 47 148q160 -23 281 4q22 84 22 160q3 158 -53 321q29 21 77 38.5t87 18.5q37 -154 37 -309q0 -156 -58 -313q-118 -44 -253 -31v-2q139 -65 228 -140t89 -143q0 -59 -62 -123.5t-158.5 -116.5t-224 -86t-249.5 -34z" />
    <glyph glyph-name="uniFC14" unicode="&#xfc14;" horiz-adv-x="1398" arabic-form="isolated" 
d="M1124 1214l-90 103q48 51 105 86l86 -100zM989 983l-112 129q57 66 133 111l108 -129zM1245 983l-112 129q57 66 133 111l108 -129zM584 -471q-222 0 -350 117.5t-128 328.5q0 129 48 293q55 0 127 -20q-37 -121 -37 -240q0 -155 104.5 -240t265.5 -85q153 -2 302 52
t249 159q-92 100 -391 243q21 92 47 148q160 -23 281 4q22 84 22 160q3 158 -53 321q29 21 77 38.5t87 18.5q37 -154 37 -309q0 -156 -58 -313q-118 -44 -253 -31v-2q139 -65 228 -140t89 -143q0 -59 -62 -123.5t-158.5 -116.5t-224 -86t-249.5 -34zM467 -864l-115 131
q59 67 135 112q23 -24 50.5 -57t44.5 -54l16 -20zM725 -864l-115 131q59 67 135 112q23 -24 50.5 -57t44.5 -54l16 -20z" />
    <glyph glyph-name="uniFC1F" unicode="&#xfc1f;" horiz-adv-x="2162" arabic-form="isolated" 
d="M174 -645q-11 233 -26.5 384.5t-45.5 299.5q26 73 88 139q50 8 82 8q66 0 152 -28q-76 61 -76 127q0 102 72 196.5t186.5 152t237.5 62.5q76 -60 121 -114q2 -104 15.5 -175t48 -128t98.5 -85.5t161 -29.5h68q30 53 30 176q0 134 -43 285q74 49 156 57q33 -138 33 -291
q3 -89 -12 -162q188 -89 348 -92q24 91 24 219q0 192 -75 373q75 53 168 62q59 -209 59 -404q0 -212 -68 -416q-234 0 -503 117q-33 -54 -72 -88h-119q-242 0 -343 131t-101 406q-126 -12 -232 -81.5t-145 -193.5q109 -96 325 -168q-26 -106 -67 -174q-102 43 -210 70.5
t-183 27.5q-42 0 -62 -4q20 -156 26.5 -280.5t8.5 -335.5q-29 -18 -102 -43h-23z" />
    <glyph glyph-name="uniFC21" unicode="&#xfc21;" horiz-adv-x="2256" arabic-form="isolated" 
d="M174 -645q-12 394 -72 684q27 73 80 133q50 8 88 8q80 0 162 -26q-84 57 -84 131q0 98 72 192t188.5 153t239.5 62q65 -47 117 -110q3 -177 41.5 -264.5t121.5 -120.5q157 283 323.5 430t350.5 147q161 0 259 -105t98 -272q0 -184 -121 -397h-733q-257 0 -362 132.5
t-105 412.5q-128 -19 -233.5 -90t-143.5 -193q110 -107 323 -176q-20 -80 -65 -166q-100 43 -212.5 71.5t-195.5 28.5q-23 0 -51 -4q42 -274 39 -618q-51 -30 -98 -43h-27zM1763 621q-138 1 -265 -116t-251 -329q35 -12 105 -12h600q51 94 51 196q0 114 -62.5 186t-177.5 75
z" />
    <glyph glyph-name="uniFC25" unicode="&#xfc25;" horiz-adv-x="2256" arabic-form="isolated" 
d="M1491 918l-115 131q59 67 135 112l111 -131zM174 -645q-12 394 -72 684q27 73 80 133q50 8 88 8q80 0 162 -26q-84 57 -84 131q0 98 72 192t188.5 153t239.5 62q65 -47 117 -110q3 -177 41.5 -264.5t121.5 -120.5q157 283 323.5 430t350.5 147q161 0 259 -105t98 -272
q0 -184 -121 -397h-733q-257 0 -362 132.5t-105 412.5q-128 -19 -233.5 -90t-143.5 -193q110 -107 323 -176q-20 -80 -65 -166q-100 43 -212.5 71.5t-195.5 28.5q-23 0 -51 -4q42 -274 39 -618q-51 -30 -98 -43h-27zM1763 621q-138 1 -265 -116t-251 -329q35 -12 105 -12
h600q51 94 51 196q0 114 -62.5 186t-177.5 75z" />
    <glyph glyph-name="uniFC31" unicode="&#xfc31;" horiz-adv-x="1400" arabic-form="isolated" 
d="M942 1255l-115 131q60 68 136 113l110 -131zM584 -471q-222 0 -350 117.5t-128 328.5q0 128 48 295q59 0 127 -22q-37 -132 -37 -240q0 -155 105 -240t265 -85q153 -2 295 49.5t246 150.5q-117 133 -397 254q17 96 49 164q160 -41 307 -2q23 82 29 168q-69 -29 -135 -29
q-95 0 -178 27t-138 83.5t-55 131.5q0 63 24 134.5t64.5 133.5t103 103t132.5 41q93 0 167.5 -77t112 -190.5t37.5 -234.5q0 -213 -64 -385q-56 -19 -128.5 -26t-124.5 -1l-3 -4q132 -61 226 -141t94 -144q1 -36 -30 -83t-93 -95.5t-143.5 -89t-194.5 -66.5t-233 -26z
M1010 569q64 0 133 29q0 81 -23 160.5t-70.5 136.5t-107.5 57q-74 0 -130 -76.5t-67 -183.5q34 -57 101 -90t164 -33z" />
    <glyph glyph-name="uniFC32" unicode="&#xfc32;" horiz-adv-x="1400" arabic-form="isolated" 
d="M942 1255l-115 131q60 68 136 113l110 -131zM584 -471q-222 0 -350 117.5t-128 328.5q0 128 48 295q59 0 127 -22q-37 -132 -37 -240q0 -155 105 -240t265 -85q153 -2 295 49.5t246 150.5q-117 133 -397 254q17 96 49 164q160 -41 307 -2q23 82 29 168q-69 -29 -135 -29
q-95 0 -178 27t-138 83.5t-55 131.5q0 63 24 134.5t64.5 133.5t103 103t132.5 41q93 0 167.5 -77t112 -190.5t37.5 -234.5q0 -213 -64 -385q-56 -19 -128.5 -26t-124.5 -1l-3 -4q132 -61 226 -141t94 -144q1 -36 -30 -83t-93 -95.5t-143.5 -89t-194.5 -66.5t-233 -26z
M1010 569q64 0 133 29q0 81 -23 160.5t-70.5 136.5t-107.5 57q-74 0 -130 -76.5t-67 -183.5q34 -57 101 -90t164 -33zM475 -893l-115 131q60 68 136 113q23 -24 50.5 -57t43.5 -54l16 -20zM733 -893l-115 131q60 68 136 113q23 -24 50.5 -57t43.5 -54l16 -20z" />
    <glyph glyph-name="uniFC35" unicode="&#xfc35;" horiz-adv-x="1400" arabic-form="isolated" 
d="M1069 1247l-115 133q60 68 136 115l112 -133zM817 1245l-115 133q60 68 136 115l112 -133zM584 -471q-222 0 -350 117.5t-128 328.5q0 128 48 295q59 0 127 -22q-37 -132 -37 -240q0 -155 105 -240t265 -85q153 -2 295 49.5t246 150.5q-117 133 -397 254q17 96 49 164
q160 -41 307 -2q23 82 29 168q-69 -29 -135 -29q-95 0 -178 27t-138 83.5t-55 131.5q0 63 24 134.5t64.5 133.5t103 103t132.5 41q93 0 167.5 -77t112 -190.5t37.5 -234.5q0 -213 -64 -385q-56 -19 -128.5 -26t-124.5 -1l-3 -4q132 -61 226 -141t94 -144q1 -36 -30 -83
t-93 -95.5t-143.5 -89t-194.5 -66.5t-233 -26zM1010 569q64 0 133 29q0 81 -23 160.5t-70.5 136.5t-107.5 57q-74 0 -130 -76.5t-67 -183.5q34 -57 101 -90t164 -33z" />
    <glyph glyph-name="uniFC36" unicode="&#xfc36;" horiz-adv-x="1400" arabic-form="isolated" 
d="M1069 1247l-115 133q60 68 136 115l112 -133zM817 1245l-115 133q60 68 136 115l112 -133zM584 -471q-222 0 -350 117.5t-128 328.5q0 128 48 295q59 0 127 -22q-37 -132 -37 -240q0 -155 105 -240t265 -85q153 -2 295 49.5t246 150.5q-117 133 -397 254q17 96 49 164
q160 -41 307 -2q23 82 29 168q-69 -29 -135 -29q-95 0 -178 27t-138 83.5t-55 131.5q0 63 24 134.5t64.5 133.5t103 103t132.5 41q93 0 167.5 -77t112 -190.5t37.5 -234.5q0 -213 -64 -385q-56 -19 -128.5 -26t-124.5 -1l-3 -4q132 -61 226 -141t94 -144q1 -36 -30 -83
t-93 -95.5t-143.5 -89t-194.5 -66.5t-233 -26zM1010 569q64 0 133 29q0 81 -23 160.5t-70.5 136.5t-107.5 57q-74 0 -130 -76.5t-67 -183.5q34 -57 101 -90t164 -33zM475 -893l-115 131q60 68 136 113q23 -24 50.5 -57t43.5 -54l16 -20zM733 -893l-115 131q60 68 136 113
q23 -24 50.5 -57t43.5 -54l16 -20z" />
    <glyph glyph-name="uniFC3D" unicode="&#xfc3d;" horiz-adv-x="2127" arabic-form="isolated" 
d="M106 -25q0 129 48 293q55 0 127 -20q-37 -121 -37 -240q0 -155 104.5 -240t265.5 -85q153 -2 302 52t249 159q-51 61 -157 133.5t-232 136.5q42 102 86 164q131 -84 245 -123.5t243 -40.5h528v24q0 198 -128.5 294t-358.5 96q-83 0 -168 -15q-52 39 -76 113
q107 155 284.5 338.5t346.5 316.5q90 -12 151 -92q-196 -139 -332.5 -260t-273.5 -266q55 14 131 14q125 0 226.5 -31.5t178.5 -95t119.5 -168t42.5 -242.5q0 -91 -24 -190h-742l-133 49l-2 -6q73 -41 113.5 -86.5t40.5 -79.5q0 -32 -30 -76t-91 -91.5t-141.5 -88
t-193 -66.5t-234.5 -26q-222 0 -350 117.5t-128 328.5z" />
    <glyph glyph-name="uniFC3E" unicode="&#xfc3e;" horiz-adv-x="2127" arabic-form="isolated" 
d="M106 -25q0 129 48 293q55 0 127 -20q-37 -121 -37 -240q0 -155 104.5 -240t265.5 -85q153 -2 302 52t249 159q-51 61 -157 133.5t-232 136.5q42 102 86 164q131 -84 245 -123.5t243 -40.5h528v24q0 198 -128.5 294t-358.5 96q-83 0 -168 -15q-52 39 -76 113
q107 155 284.5 338.5t346.5 316.5q90 -12 151 -92q-196 -139 -332.5 -260t-273.5 -266q55 14 131 14q125 0 226.5 -31.5t178.5 -95t119.5 -168t42.5 -242.5q0 -91 -24 -190h-742l-133 49l-2 -6q73 -41 113.5 -86.5t40.5 -79.5q0 -32 -30 -76t-91 -91.5t-141.5 -88
t-193 -66.5t-234.5 -26q-222 0 -350 117.5t-128 328.5zM481 -848l-114 131q59 68 135 113q23 -24 50.5 -57t43.5 -53l16 -21zM739 -848l-114 131q59 68 135 113q23 -24 50.5 -57t43.5 -53l16 -21z" />
    <glyph glyph-name="uniFC42" unicode="&#xfc42;" horiz-adv-x="860" arabic-form="isolated" 
d="M174 -643q-9 192 -15 289.5t-21 241t-36 245.5q30 77 80 131q42 10 88 10q69 0 162 -26q-75 78 -82 196l-26 791q79 47 182 47l-2 -954q102 -88 291 -152q-17 -83 -66 -166q-105 45 -219.5 75t-198.5 30q-30 0 -51 -6q39 -266 39 -711q-45 -27 -98 -41h-27z" />
    <glyph glyph-name="uniFC44" unicode="&#xfc44;" horiz-adv-x="1421" arabic-form="isolated" 
d="M584 -471q-222 0 -350 117.5t-128 328.5q0 129 48 293q55 0 127 -20q-37 -121 -37 -240q0 -155 104.5 -240t265.5 -85q153 -2 302 52t249 159q-92 103 -407 245q9 59 18.5 89.5t30.5 74.5q82 -19 161.5 -17.5t149.5 19.5q-23 648 -35 930q76 47 183 47l-4 -1071
q-46 -27 -125 -36.5t-176 5.5l-3 -6q132 -61 226 -141.5t94 -145.5q0 -78 -102 -161.5t-266 -140t-326 -56.5zM481 -848l-114 131q59 68 135 113q23 -24 50.5 -57t43.5 -53l16 -21zM739 -848l-114 131q59 68 135 113q23 -24 50.5 -57t43.5 -53l16 -21z" />
    <glyph glyph-name="uniFC4E" unicode="&#xfc4e;" horiz-adv-x="1064" arabic-form="isolated" 
d="M737 930l-114 131q59 68 135 113q23 -25 50.5 -58t43.5 -54l16 -20zM174 -645q-12 394 -72 684q27 73 80 133q50 8 88 8q80 0 162 -26q-84 57 -84 131q1 76 33.5 157.5t86.5 148.5t134 110.5t166 43.5q162 0 244 -102q-32 -76 -88 -135q-79 72 -172 72q-101 0 -184 -97.5
t-101 -224.5q97 -97 330 -172q-21 -87 -66 -166q-105 43 -220.5 71.5t-199.5 28.5q-23 0 -51 -4q42 -274 39 -618q-51 -30 -98 -43h-27z" />
    <glyph glyph-name="uniFC4F" unicode="&#xfc4f;" horiz-adv-x="1398" arabic-form="isolated" 
d="M1108 993l-115 131q59 68 135 113l111 -131zM584 -471q-222 0 -350 117.5t-128 328.5q0 129 48 293q55 0 127 -20q-37 -121 -37 -240q0 -155 104.5 -240t265.5 -85q153 -2 302 52t249 159q-92 100 -391 243q21 92 47 148q160 -23 281 4q22 84 22 160q3 158 -53 321
q29 21 77 38.5t87 18.5q37 -154 37 -309q0 -156 -58 -313q-118 -44 -253 -31v-2q139 -65 228 -140t89 -143q0 -59 -62 -123.5t-158.5 -116.5t-224 -86t-249.5 -34z" />
    <glyph glyph-name="uniFC50" unicode="&#xfc50;" horiz-adv-x="1398" arabic-form="isolated" 
d="M1108 993l-115 131q59 68 135 113l111 -131zM584 -471q-222 0 -350 117.5t-128 328.5q0 129 48 293q55 0 127 -20q-37 -121 -37 -240q0 -155 104.5 -240t265.5 -85q153 -2 302 52t249 159q-92 100 -391 243q21 92 47 148q160 -23 281 4q22 84 22 160q3 158 -53 321
q29 21 77 38.5t87 18.5q37 -154 37 -309q0 -156 -58 -313q-118 -44 -253 -31v-2q139 -65 228 -140t89 -143q0 -59 -62 -123.5t-158.5 -116.5t-224 -86t-249.5 -34zM467 -864l-115 131q59 67 135 112q23 -24 50.5 -57t44.5 -54l16 -20zM725 -864l-115 131q59 67 135 112
q23 -24 50.5 -57t44.5 -54l16 -20z" />
    <glyph glyph-name="uniFC58" unicode="&#xfc58;" horiz-adv-x="1064" arabic-form="isolated" 
d="M174 -645q-12 394 -72 684q27 73 80 133q50 8 88 8q80 0 162 -26q-84 57 -84 131q1 76 33.5 157.5t86.5 148.5t134 110.5t166 43.5q162 0 244 -102q-32 -76 -88 -135q-79 72 -172 72q-101 0 -184 -97.5t-101 -224.5q97 -97 330 -172q-21 -87 -66 -166
q-105 43 -220.5 71.5t-199.5 28.5q-23 0 -51 -4q42 -274 39 -618q-51 -30 -98 -43h-27zM633 -473l-115 131q59 68 135 113q23 -24 50.5 -57t44.5 -54l16 -20zM891 -473l-115 131q59 68 135 113q23 -24 50.5 -57t44.5 -54l16 -20z" />
    <glyph glyph-name="uniFC59" unicode="&#xfc59;" horiz-adv-x="1398" arabic-form="isolated" 
d="M584 -471q-222 0 -350 117.5t-128 328.5q0 129 48 293q55 0 127 -20q-37 -121 -37 -240q0 -155 104.5 -240t265.5 -85q153 -2 302 52t249 159q-92 100 -391 243q21 92 47 148q160 -23 281 4q22 84 22 160q3 158 -53 321q29 21 77 38.5t87 18.5q37 -154 37 -309
q0 -156 -58 -313q-118 -44 -253 -31v-2q139 -65 228 -140t89 -143q0 -59 -62 -123.5t-158.5 -116.5t-224 -86t-249.5 -34zM1022 -770l-115 131q59 68 135 113q23 -24 50.5 -57t43.5 -53l17 -21zM1280 -770l-115 131q59 68 135 113q23 -24 50.5 -57t43.5 -53l17 -21z" />
    <glyph glyph-name="uniFC5A" unicode="&#xfc5a;" horiz-adv-x="1398" arabic-form="isolated" 
d="M584 -471q-222 0 -350 117.5t-128 328.5q0 129 48 293q55 0 127 -20q-37 -121 -37 -240q0 -155 104.5 -240t265.5 -85q153 -2 302 52t249 159q-92 100 -391 243q21 92 47 148q160 -23 281 4q22 84 22 160q3 158 -53 321q29 21 77 38.5t87 18.5q37 -154 37 -309
q0 -156 -58 -313q-118 -44 -253 -31v-2q139 -65 228 -140t89 -143q0 -59 -62 -123.5t-158.5 -116.5t-224 -86t-249.5 -34zM1022 -770l-115 131q59 68 135 113q23 -24 50.5 -57t43.5 -53l17 -21zM1280 -770l-115 131q59 68 135 113q23 -24 50.5 -57t43.5 -53l17 -21z
M373 -864l-115 131q59 67 135 112q23 -24 50.5 -57t44.5 -54l16 -20zM631 -864l-115 131q59 67 135 112q23 -24 50.5 -57t44.5 -54l16 -20z" />
    <glyph glyph-name="uniFC64" unicode="&#xfc64;" horiz-adv-x="1230" arabic-form="final" 
d="M788 903q-18 30 -26 80q54 25 104 39q-59 55 -59 129q0 63 55 113.5t129 50.5q57 0 111 -23q-3 -26 -21 -90q-35 12 -73 12q-77 0 -121 -55q15 -54 55.5 -84.5t91.5 -30.5t105 13q0 -35 -19 -113q-202 0 -332 -41zM20 -471q-75 38 -126 123q205 106 327 223.5t174 261.5
q-41 244 -139 426q70 47 145 64q28 -57 83.5 -84t121.5 -25q77 1 156 68t112 153q63 12 125 9q-22 -154 -22 -269q0 -157 60 -236t196 -79q10 0 10 -10v-142q0 -12 -10 -12q-102 0 -179 35.5t-121 96t-65.5 131.5t-21.5 151q0 56 8 127q-38 -67 -110 -112.5t-138 -45.5
q-88 0 -145 47q20 -53 35.5 -129t15.5 -133q0 -162 -136.5 -339t-355.5 -300z" />
    <glyph glyph-name="uniFC65" unicode="&#xfc65;" horiz-adv-x="1230" arabic-form="final" 
d="M788 903q-18 30 -26 80q54 25 104 39q-59 55 -59 129q0 63 55 113.5t129 50.5q57 0 111 -23q-3 -26 -21 -90q-35 12 -73 12q-77 0 -121 -55q15 -54 55.5 -84.5t91.5 -30.5t105 13q0 -35 -19 -113q-202 0 -332 -41zM266 813l-114 131q59 68 135 113l110 -131zM20 -471
q-75 38 -126 123q205 106 327 223.5t174 261.5q-41 244 -139 426q70 47 145 64q28 -57 83.5 -84t121.5 -25q77 1 156 68t112 153q63 12 125 9q-22 -154 -22 -269q0 -157 60 -236t196 -79q10 0 10 -10v-142q0 -12 -10 -12q-102 0 -179 35.5t-121 96t-65.5 131.5t-21.5 151
q0 56 8 127q-38 -67 -110 -112.5t-138 -45.5q-88 0 -145 47q20 -53 35.5 -129t15.5 -133q0 -162 -136.5 -339t-355.5 -300z" />
    <glyph glyph-name="uniFC66" unicode="&#xfc66;" horiz-adv-x="1271" arabic-form="final" 
d="M690 885q-18 30 -26 80q54 25 104 39q-59 55 -59 129q0 63 55 113t129 50q59 0 111 -22q-3 -26 -21 -90q-34 12 -74 12q-77 0 -121 -55q15 -54 56 -84.5t92 -30.5q54 0 104 12q0 -38 -18 -112q-202 0 -332 -41zM174 -645q-12 394 -72 684q27 73 80 133q50 8 88 8
q80 0 162 -26q-84 57 -84 131q0 98 72 192t188.5 153t239.5 62q65 -47 117 -110q2 -104 15.5 -175t46.5 -128t94 -85.5t153 -29.5q10 0 10 -10v-142q0 -12 -10 -12q-237 0 -336.5 132.5t-99.5 412.5q-128 -19 -233.5 -90t-143.5 -193q110 -107 323 -176q-20 -80 -65 -166
q-100 43 -212.5 71.5t-195.5 28.5q-23 0 -51 -4q42 -274 39 -618q-51 -30 -98 -43h-27z" />
    <glyph glyph-name="uniFC67" unicode="&#xfc67;" horiz-adv-x="1730" arabic-form="final" 
d="M1206 934q-18 30 -26 80q54 25 104 39q-59 55 -59 129q0 63 55 113.5t129 50.5q57 0 111 -23q-3 -26 -21 -90q-35 12 -74 12q-76 0 -120 -55q15 -54 55.5 -84.5t91.5 -30.5q54 0 104 12q0 -38 -18 -112q-202 0 -332 -41zM498 551l-115 131q59 68 135 113l111 -131z
M526 -430q-199 0 -309.5 115t-110.5 333q0 129 48 293q55 0 127 -20q-37 -129 -37 -250q0 -162 86 -238.5t229 -76.5q85 0 145.5 17t114.5 60q45 104 45 271q0 222 -90 432q59 43 131 65q66 -92 180 -92q84 0 156 66.5t105 150.5q65 12 127 9q-23 -130 -23 -244
q0 -147 71 -222t212 -75q10 0 10 -10v-142q0 -12 -10 -12q-106 0 -186.5 30.5t-129 85t-72.5 122.5t-24 149q0 32 8 102q-37 -64 -100.5 -107.5t-130.5 -43.5q-74 0 -131 45q43 -127 43 -262q0 -121 -25.5 -217.5t-80 -173t-150.5 -118.5t-228 -42z" />
    <glyph glyph-name="uniFC68" unicode="&#xfc68;" horiz-adv-x="1757" arabic-form="final" 
d="M1059 897q-19 32 -27 80q52 24 105 39q-60 56 -60 129q0 63 55.5 113.5t129.5 50.5q56 0 110 -23q-4 -33 -20 -90q-34 12 -74 12q-77 0 -121 -55q15 -54 56 -84.5t92 -30.5q50 0 104 13q0 -39 -18 -113q-202 0 -332 -41zM584 -471q-222 0 -350 117.5t-128 328.5
q0 129 48 293q55 0 127 -20q-37 -121 -37 -240q0 -155 104.5 -240t265.5 -85q155 0 301 61.5t246 173.5q-31 21 -118 62t-159 75.5t-131 83.5t-59 94q0 61 44.5 132.5t119 137t183 118t225.5 73.5q69 -49 118 -114q2 -84 12 -145t35 -114.5t66.5 -86.5t106 -51.5
t153.5 -18.5q12 0 12 -10v-142q0 -12 -12 -12q-131 0 -223.5 34t-150 104t-86 168.5t-33.5 236.5q-141 -29 -260 -103.5t-183 -171.5q36 -26 100 -58t120.5 -59.5t111 -59t87 -67.5t32.5 -73q0 -48 -33.5 -105t-97.5 -112.5t-146.5 -101.5t-190.5 -74.5t-220 -28.5z" />
    <glyph glyph-name="uniFC69" unicode="&#xfc69;" horiz-adv-x="1757" arabic-form="final" 
d="M1059 897q-19 32 -27 80q52 24 105 39q-60 56 -60 129q0 63 55.5 113.5t129.5 50.5q56 0 110 -23q-4 -33 -20 -90q-34 12 -74 12q-77 0 -121 -55q15 -54 56 -84.5t92 -30.5q50 0 104 13q0 -39 -18 -113q-202 0 -332 -41zM584 -471q-222 0 -350 117.5t-128 328.5
q0 129 48 293q55 0 127 -20q-37 -121 -37 -240q0 -155 104.5 -240t265.5 -85q155 0 301 61.5t246 173.5q-31 21 -118 62t-159 75.5t-131 83.5t-59 94q0 61 44.5 132.5t119 137t183 118t225.5 73.5q69 -49 118 -114q2 -84 12 -145t35 -114.5t66.5 -86.5t106 -51.5
t153.5 -18.5q12 0 12 -10v-142q0 -12 -12 -12q-131 0 -223.5 34t-150 104t-86 168.5t-33.5 236.5q-141 -29 -260 -103.5t-183 -171.5q36 -26 100 -58t120.5 -59.5t111 -59t87 -67.5t32.5 -73q0 -48 -33.5 -105t-97.5 -112.5t-146.5 -101.5t-190.5 -74.5t-220 -28.5z
M510 -846l-115 131q59 68 135 113q23 -24 50.5 -57t43.5 -53l17 -21zM768 -846l-115 131q59 68 135 113q23 -24 50.5 -57t43.5 -53l17 -21z" />
    <glyph glyph-name="uniFC6A" unicode="&#xfc6a;" horiz-adv-x="1230" arabic-form="final" 
d="M20 -471q-75 38 -126 123q205 106 327 223.5t174 261.5q-41 244 -139 426q70 47 145 64q28 -57 83.5 -84t121.5 -25q77 1 156 68t112 153q63 12 125 9q-22 -154 -22 -269q0 -157 60 -236t196 -79q10 0 10 -10v-142q0 -12 -10 -12q-102 0 -179 35.5t-121 96t-65.5 131.5
t-21.5 151q0 56 8 127q-38 -67 -110 -112.5t-138 -45.5q-88 0 -145 47q20 -53 35.5 -129t15.5 -133q0 -162 -136.5 -339t-355.5 -300zM750 -473l-115 131q59 68 135 113q23 -24 50.5 -57t43.5 -54l17 -20z" />
    <glyph glyph-name="uniFC6B" unicode="&#xfc6b;" horiz-adv-x="1230" arabic-form="final" 
d="M266 813l-114 131q59 68 135 113l110 -131zM20 -471q-75 38 -126 123q205 106 327 223.5t174 261.5q-41 244 -139 426q70 47 145 64q28 -57 83.5 -84t121.5 -25q77 1 156 68t112 153q63 12 125 9q-22 -154 -22 -269q0 -157 60 -236t196 -79q10 0 10 -10v-142
q0 -12 -10 -12q-102 0 -179 35.5t-121 96t-65.5 131.5t-21.5 151q0 56 8 127q-38 -67 -110 -112.5t-138 -45.5q-88 0 -145 47q20 -53 35.5 -129t15.5 -133q0 -162 -136.5 -339t-355.5 -300zM750 -473l-115 131q59 68 135 113q23 -24 50.5 -57t43.5 -54l17 -20z" />
    <glyph glyph-name="uniFC6C" unicode="&#xfc6c;" horiz-adv-x="1271" arabic-form="final" 
d="M174 -645q-12 394 -72 684q27 73 80 133q50 8 88 8q80 0 162 -26q-84 57 -84 131q0 98 72 192t188.5 153t239.5 62q65 -47 117 -110q2 -104 15.5 -175t46.5 -128t94 -85.5t153 -29.5q10 0 10 -10v-142q0 -12 -10 -12q-237 0 -336.5 132.5t-99.5 412.5
q-128 -19 -233.5 -90t-143.5 -193q110 -107 323 -176q-20 -80 -65 -166q-100 43 -212.5 71.5t-195.5 28.5q-23 0 -51 -4q42 -274 39 -618q-51 -30 -98 -43h-27zM866 -473l-114 131q59 68 135 113q23 -24 50.5 -57t43.5 -54l16 -20z" />
    <glyph glyph-name="uniFC6D" unicode="&#xfc6d;" horiz-adv-x="1730" arabic-form="final" 
d="M498 551l-115 131q59 68 135 113l111 -131zM526 -430q-199 0 -309.5 115t-110.5 333q0 129 48 293q55 0 127 -20q-37 -129 -37 -250q0 -162 86 -238.5t229 -76.5q85 0 145.5 17t114.5 60q45 104 45 271q0 222 -90 432q59 43 131 65q66 -92 180 -92q84 0 156 66.5
t105 150.5q65 12 127 9q-23 -130 -23 -244q0 -147 71 -222t212 -75q10 0 10 -10v-142q0 -12 -10 -12q-106 0 -186.5 30.5t-129 85t-72.5 122.5t-24 149q0 32 8 102q-37 -64 -100.5 -107.5t-130.5 -43.5q-74 0 -131 45q43 -127 43 -262q0 -121 -25.5 -217.5t-80 -173
t-150.5 -118.5t-228 -42zM1288 -473l-114 131q59 68 135 113q23 -24 50.5 -57t43.5 -54l16 -20z" />
    <glyph glyph-name="uniFC6E" unicode="&#xfc6e;" horiz-adv-x="1757" arabic-form="final" 
d="M584 -471q-222 0 -350 117.5t-128 328.5q0 129 48 293q55 0 127 -20q-37 -121 -37 -240q0 -155 104.5 -240t265.5 -85q155 0 301 61.5t246 173.5q-31 21 -118 62t-159 75.5t-131 83.5t-59 94q0 61 44.5 132.5t119 137t183 118t225.5 73.5q69 -49 118 -114q2 -84 12 -145
t35 -114.5t66.5 -86.5t106 -51.5t153.5 -18.5q12 0 12 -10v-142q0 -12 -12 -12q-131 0 -223.5 34t-150 104t-86 168.5t-33.5 236.5q-141 -29 -260 -103.5t-183 -171.5q36 -26 100 -58t120.5 -59.5t111 -59t87 -67.5t32.5 -73q0 -48 -33.5 -105t-97.5 -112.5t-146.5 -101.5
t-190.5 -74.5t-220 -28.5zM1483 -473l-115 131q59 68 135 113q23 -24 50.5 -57t44.5 -54l16 -20z" />
    <glyph glyph-name="uniFC6F" unicode="&#xfc6f;" horiz-adv-x="1757" arabic-form="final" 
d="M584 -471q-222 0 -350 117.5t-128 328.5q0 129 48 293q55 0 127 -20q-37 -121 -37 -240q0 -155 104.5 -240t265.5 -85q155 0 301 61.5t246 173.5q-31 21 -118 62t-159 75.5t-131 83.5t-59 94q0 61 44.5 132.5t119 137t183 118t225.5 73.5q69 -49 118 -114q2 -84 12 -145
t35 -114.5t66.5 -86.5t106 -51.5t153.5 -18.5q12 0 12 -10v-142q0 -12 -12 -12q-131 0 -223.5 34t-150 104t-86 168.5t-33.5 236.5q-141 -29 -260 -103.5t-183 -171.5q36 -26 100 -58t120.5 -59.5t111 -59t87 -67.5t32.5 -73q0 -48 -33.5 -105t-97.5 -112.5t-146.5 -101.5
t-190.5 -74.5t-220 -28.5zM1483 -473l-115 131q59 68 135 113q23 -24 50.5 -57t44.5 -54l16 -20zM510 -846l-115 131q59 68 135 113q23 -24 50.5 -57t43.5 -53l17 -21zM768 -846l-115 131q59 68 135 113q23 -24 50.5 -57t43.5 -53l17 -21z" />
    <glyph glyph-name="uniFC70" unicode="&#xfc70;" horiz-adv-x="1230" arabic-form="final" 
d="M1069 907l-115 133q60 68 136 115l112 -133zM817 905l-115 133q60 68 136 115l112 -133zM20 -471q-75 38 -126 123q205 106 327 223.5t174 261.5q-41 244 -139 426q70 47 145 64q28 -57 83.5 -84t121.5 -25q77 1 156 68t112 153q63 12 125 9q-22 -154 -22 -269
q0 -157 60 -236t196 -79q10 0 10 -10v-142q0 -12 -10 -12q-102 0 -179 35.5t-121 96t-65.5 131.5t-21.5 151q0 56 8 127q-38 -67 -110 -112.5t-138 -45.5q-88 0 -145 47q20 -53 35.5 -129t15.5 -133q0 -162 -136.5 -339t-355.5 -300z" />
    <glyph glyph-name="uniFC71" unicode="&#xfc71;" horiz-adv-x="1230" arabic-form="final" 
d="M1069 907l-115 133q60 68 136 115l112 -133zM817 905l-115 133q60 68 136 115l112 -133zM266 813l-114 131q59 68 135 113l110 -131zM20 -471q-75 38 -126 123q205 106 327 223.5t174 261.5q-41 244 -139 426q70 47 145 64q28 -57 83.5 -84t121.5 -25q77 1 156 68
t112 153q63 12 125 9q-22 -154 -22 -269q0 -157 60 -236t196 -79q10 0 10 -10v-142q0 -12 -10 -12q-102 0 -179 35.5t-121 96t-65.5 131.5t-21.5 151q0 56 8 127q-38 -67 -110 -112.5t-138 -45.5q-88 0 -145 47q20 -53 35.5 -129t15.5 -133q0 -162 -136.5 -339t-355.5 -300z
" />
    <glyph glyph-name="uniFC72" unicode="&#xfc72;" horiz-adv-x="1271" arabic-form="final" 
d="M971 889l-115 133q59 68 135 115l113 -133zM719 887l-115 133q59 68 135 115l113 -134zM174 -645q-12 394 -72 684q27 73 80 133q50 8 88 8q80 0 162 -26q-84 57 -84 131q0 98 72 192t188.5 153t239.5 62q65 -47 117 -110q2 -104 15.5 -175t46.5 -128t94 -85.5t153 -29.5
q10 0 10 -10v-142q0 -12 -10 -12q-237 0 -336.5 132.5t-99.5 412.5q-128 -19 -233.5 -90t-143.5 -193q110 -107 323 -176q-20 -80 -65 -166q-100 43 -212.5 71.5t-195.5 28.5q-23 0 -51 -4q42 -274 39 -618q-51 -30 -98 -43h-27z" />
    <glyph glyph-name="uniFC73" unicode="&#xfc73;" horiz-adv-x="1730" arabic-form="final" 
d="M1487 938l-115 133q59 68 135 115l113 -133zM1235 936l-115 133q59 68 135 115l113 -133zM498 551l-115 131q59 68 135 113l111 -131zM526 -430q-199 0 -309.5 115t-110.5 333q0 129 48 293q55 0 127 -20q-37 -129 -37 -250q0 -162 86 -238.5t229 -76.5q85 0 145.5 17
t114.5 60q45 104 45 271q0 222 -90 432q59 43 131 65q66 -92 180 -92q84 0 156 66.5t105 150.5q65 12 127 9q-23 -130 -23 -244q0 -147 71 -222t212 -75q10 0 10 -10v-142q0 -12 -10 -12q-106 0 -186.5 30.5t-129 85t-72.5 122.5t-24 149q0 32 8 102q-37 -64 -100.5 -107.5
t-130.5 -43.5q-74 0 -131 45q43 -127 43 -262q0 -121 -25.5 -217.5t-80 -173t-150.5 -118.5t-228 -42z" />
    <glyph glyph-name="uniFC74" unicode="&#xfc74;" horiz-adv-x="1757" arabic-form="final" 
d="M1339 901l-114 133q59 68 135 115l113 -133zM1087 899l-114 133q59 68 135 115l113 -133zM584 -471q-222 0 -350 117.5t-128 328.5q0 129 48 293q55 0 127 -20q-37 -121 -37 -240q0 -155 104.5 -240t265.5 -85q155 0 301 61.5t246 173.5q-31 21 -118 62t-159 75.5
t-131 83.5t-59 94q0 61 44.5 132.5t119 137t183 118t225.5 73.5q69 -49 118 -114q2 -84 12 -145t35 -114.5t66.5 -86.5t106 -51.5t153.5 -18.5q12 0 12 -10v-142q0 -12 -12 -12q-131 0 -223.5 34t-150 104t-86 168.5t-33.5 236.5q-141 -29 -260 -103.5t-183 -171.5
q36 -26 100 -58t120.5 -59.5t111 -59t87 -67.5t32.5 -73q0 -48 -33.5 -105t-97.5 -112.5t-146.5 -101.5t-190.5 -74.5t-220 -28.5z" />
    <glyph glyph-name="uniFC75" unicode="&#xfc75;" horiz-adv-x="1757" arabic-form="final" 
d="M1339 901l-114 133q59 68 135 115l113 -133zM1087 899l-114 133q59 68 135 115l113 -133zM584 -471q-222 0 -350 117.5t-128 328.5q0 129 48 293q55 0 127 -20q-37 -121 -37 -240q0 -155 104.5 -240t265.5 -85q155 0 301 61.5t246 173.5q-31 21 -118 62t-159 75.5
t-131 83.5t-59 94q0 61 44.5 132.5t119 137t183 118t225.5 73.5q69 -49 118 -114q2 -84 12 -145t35 -114.5t66.5 -86.5t106 -51.5t153.5 -18.5q12 0 12 -10v-142q0 -12 -12 -12q-131 0 -223.5 34t-150 104t-86 168.5t-33.5 236.5q-141 -29 -260 -103.5t-183 -171.5
q36 -26 100 -58t120.5 -59.5t111 -59t87 -67.5t32.5 -73q0 -48 -33.5 -105t-97.5 -112.5t-146.5 -101.5t-190.5 -74.5t-220 -28.5zM510 -846l-115 131q59 68 135 113q23 -24 50.5 -57t43.5 -53l17 -21zM768 -846l-115 131q59 68 135 113q23 -24 50.5 -57t43.5 -53l17 -21z
" />
    <glyph glyph-name="uniFC76" unicode="&#xfc76;" horiz-adv-x="1230" arabic-form="final" 
d="M958 1137l-90 102q48 51 105 86l86 -100zM823 905l-112 129q57 66 133 111l108 -129zM1079 905l-112 129q57 66 133 111l108 -129zM20 -471q-75 38 -126 123q205 106 327 223.5t174 261.5q-41 244 -139 426q70 47 145 64q28 -57 83.5 -84t121.5 -25q77 1 156 68t112 153
q63 12 125 9q-22 -154 -22 -269q0 -157 60 -236t196 -79q10 0 10 -10v-142q0 -12 -10 -12q-102 0 -179 35.5t-121 96t-65.5 131.5t-21.5 151q0 56 8 127q-38 -67 -110 -112.5t-138 -45.5q-88 0 -145 47q20 -53 35.5 -129t15.5 -133q0 -162 -136.5 -339t-355.5 -300z" />
    <glyph glyph-name="uniFC77" unicode="&#xfc77;" horiz-adv-x="1230" arabic-form="final" 
d="M958 1137l-90 102q48 51 105 86l86 -100zM823 905l-112 129q57 66 133 111l108 -129zM1079 905l-112 129q57 66 133 111l108 -129zM266 813l-114 131q59 68 135 113l110 -131zM20 -471q-75 38 -126 123q205 106 327 223.5t174 261.5q-41 244 -139 426q70 47 145 64
q28 -57 83.5 -84t121.5 -25q77 1 156 68t112 153q63 12 125 9q-22 -154 -22 -269q0 -157 60 -236t196 -79q10 0 10 -10v-142q0 -12 -10 -12q-102 0 -179 35.5t-121 96t-65.5 131.5t-21.5 151q0 56 8 127q-38 -67 -110 -112.5t-138 -45.5q-88 0 -145 47q20 -53 35.5 -129
t15.5 -133q0 -162 -136.5 -339t-355.5 -300z" />
    <glyph glyph-name="uniFC78" unicode="&#xfc78;" horiz-adv-x="1271" arabic-form="final" 
d="M860 1118l-90 103q47 51 104 86l87 -101zM725 887l-113 129q57 65 133 110l109 -129zM981 887l-113 129q57 65 133 110l109 -129zM174 -645q-12 394 -72 684q27 73 80 133q50 8 88 8q80 0 162 -26q-84 57 -84 131q0 98 72 192t188.5 153t239.5 62q65 -47 117 -110
q2 -104 15.5 -175t46.5 -128t94 -85.5t153 -29.5q10 0 10 -10v-142q0 -12 -10 -12q-237 0 -336.5 132.5t-99.5 412.5q-128 -19 -233.5 -90t-143.5 -193q110 -107 323 -176q-20 -80 -65 -166q-100 43 -212.5 71.5t-195.5 28.5q-23 0 -51 -4q42 -274 39 -618q-51 -30 -98 -43
h-27z" />
    <glyph glyph-name="uniFC79" unicode="&#xfc79;" horiz-adv-x="1730" arabic-form="final" 
d="M1376 1167l-90 103q48 51 105 86l86 -101zM1241 936l-113 129q58 66 134 111l108 -129zM1497 936l-113 129q58 66 134 111l108 -129zM498 551l-115 131q59 68 135 113l111 -131zM526 -430q-199 0 -309.5 115t-110.5 333q0 129 48 293q55 0 127 -20q-37 -129 -37 -250
q0 -162 86 -238.5t229 -76.5q85 0 145.5 17t114.5 60q45 104 45 271q0 222 -90 432q59 43 131 65q66 -92 180 -92q84 0 156 66.5t105 150.5q65 12 127 9q-23 -130 -23 -244q0 -147 71 -222t212 -75q10 0 10 -10v-142q0 -12 -10 -12q-106 0 -186.5 30.5t-129 85t-72.5 122.5
t-24 149q0 32 8 102q-37 -64 -100.5 -107.5t-130.5 -43.5q-74 0 -131 45q43 -127 43 -262q0 -121 -25.5 -217.5t-80 -173t-150.5 -118.5t-228 -42z" />
    <glyph glyph-name="uniFC7A" unicode="&#xfc7a;" horiz-adv-x="1757" arabic-form="final" 
d="M1229 1130l-90 103q47 51 104 86l86 -100zM1094 899l-113 129q57 66 133 111l109 -129zM1350 899l-113 129q57 66 133 111l109 -129zM584 -471q-222 0 -350 117.5t-128 328.5q0 129 48 293q55 0 127 -20q-37 -121 -37 -240q0 -155 104.5 -240t265.5 -85q155 0 301 61.5
t246 173.5q-31 21 -118 62t-159 75.5t-131 83.5t-59 94q0 61 44.5 132.5t119 137t183 118t225.5 73.5q69 -49 118 -114q2 -84 12 -145t35 -114.5t66.5 -86.5t106 -51.5t153.5 -18.5q12 0 12 -10v-142q0 -12 -12 -12q-131 0 -223.5 34t-150 104t-86 168.5t-33.5 236.5
q-141 -29 -260 -103.5t-183 -171.5q36 -26 100 -58t120.5 -59.5t111 -59t87 -67.5t32.5 -73q0 -48 -33.5 -105t-97.5 -112.5t-146.5 -101.5t-190.5 -74.5t-220 -28.5z" />
    <glyph glyph-name="uniFC7B" unicode="&#xfc7b;" horiz-adv-x="1757" arabic-form="final" 
d="M1229 1130l-90 103q47 51 104 86l86 -100zM1094 899l-113 129q57 66 133 111l109 -129zM1350 899l-113 129q57 66 133 111l109 -129zM584 -471q-222 0 -350 117.5t-128 328.5q0 129 48 293q55 0 127 -20q-37 -121 -37 -240q0 -155 104.5 -240t265.5 -85q155 0 301 61.5
t246 173.5q-31 21 -118 62t-159 75.5t-131 83.5t-59 94q0 61 44.5 132.5t119 137t183 118t225.5 73.5q69 -49 118 -114q2 -84 12 -145t35 -114.5t66.5 -86.5t106 -51.5t153.5 -18.5q12 0 12 -10v-142q0 -12 -12 -12q-131 0 -223.5 34t-150 104t-86 168.5t-33.5 236.5
q-141 -29 -260 -103.5t-183 -171.5q36 -26 100 -58t120.5 -59.5t111 -59t87 -67.5t32.5 -73q0 -48 -33.5 -105t-97.5 -112.5t-146.5 -101.5t-190.5 -74.5t-220 -28.5zM510 -846l-115 131q59 68 135 113q23 -24 50.5 -57t43.5 -53l17 -21zM768 -846l-115 131q59 68 135 113
q23 -24 50.5 -57t43.5 -53l17 -21z" />
    <glyph glyph-name="uniFC83" unicode="&#xfc83;" horiz-adv-x="2211" arabic-form="final" 
d="M584 -471q-222 0 -350 117.5t-128 328.5q0 129 48 293q55 0 127 -20q-37 -121 -37 -240q0 -155 104.5 -240t265.5 -85q153 -2 302 52t249 159q-51 61 -157 133.5t-232 136.5q42 102 86 164q131 -84 245 -123.5t243 -40.5h528v24q0 198 -128.5 294t-358.5 96
q-83 0 -168 -15q-52 39 -76 113q107 155 284.5 338.5t346.5 316.5q90 -12 151 -92q-196 -139 -332.5 -260t-273.5 -266q55 14 131 14q125 0 226.5 -30.5t178 -92.5t119 -163.5t43.5 -235.5q61 -41 191 -41q12 0 12 -10v-142q0 -12 -12 -12q-69 0 -122.5 25t-84.5 65
q-25 -41 -80 -90h-670l-133 49l-2 -6q73 -41 113.5 -86.5t40.5 -79.5q0 -32 -30 -76t-91 -91.5t-141.5 -88t-193 -66.5t-234.5 -26z" />
    <glyph glyph-name="uniFC84" unicode="&#xfc84;" horiz-adv-x="2211" arabic-form="final" 
d="M584 -471q-222 0 -350 117.5t-128 328.5q0 129 48 293q55 0 127 -20q-37 -121 -37 -240q0 -155 104.5 -240t265.5 -85q153 -2 302 52t249 159q-51 61 -157 133.5t-232 136.5q42 102 86 164q131 -84 245 -123.5t243 -40.5h528v24q0 198 -128.5 294t-358.5 96
q-83 0 -168 -15q-52 39 -76 113q107 155 284.5 338.5t346.5 316.5q90 -12 151 -92q-196 -139 -332.5 -260t-273.5 -266q55 14 131 14q125 0 226.5 -30.5t178 -92.5t119 -163.5t43.5 -235.5q61 -41 191 -41q12 0 12 -10v-142q0 -12 -12 -12q-69 0 -122.5 25t-84.5 65
q-25 -41 -80 -90h-670l-133 49l-2 -6q73 -41 113.5 -86.5t40.5 -79.5q0 -32 -30 -76t-91 -91.5t-141.5 -88t-193 -66.5t-234.5 -26zM481 -848l-114 131q59 68 135 113q23 -24 50.5 -57t43.5 -53l16 -21zM739 -848l-114 131q59 68 135 113q23 -24 50.5 -57t43.5 -53l16 -21z
" />
    <glyph glyph-name="uniFC87" unicode="&#xfc87;" horiz-adv-x="1650" arabic-form="final" 
d="M584 -471q-222 0 -350 117.5t-128 328.5q0 129 48 293q55 0 127 -20q-37 -121 -37 -240q0 -155 104.5 -240t265.5 -85q153 -2 302 52t249 159q-92 103 -407 245q8 58 17.5 86.5t31.5 75.5q53 -13 117 -16.5t136.5 3.5t145 35.5t125.5 75.5q-4 86 -15 380t-18 456
q79 47 183 47l-2 -1118h172q10 0 10 -10v-142q0 -12 -10 -12h-221q-45 37 -82 84q-7 165 -7 170q-53 -39 -121.5 -60t-132 -22t-126.5 8l-3 -6q132 -61 226 -141.5t94 -145.5q0 -78 -102 -161.5t-266 -140t-326 -56.5zM481 -848l-114 131q59 68 135 113q23 -24 50.5 -57
t43.5 -53l16 -21zM739 -848l-114 131q59 68 135 113q23 -24 50.5 -57t43.5 -53l16 -21z" />
    <glyph glyph-name="uniFC8A" unicode="&#xfc8a;" horiz-adv-x="1230" arabic-form="final" 
d="M942 915l-115 132q60 67 136 112l110 -131zM20 -471q-75 38 -126 123q205 106 327 223.5t174 261.5q-41 244 -139 426q70 47 145 64q28 -57 83.5 -84t121.5 -25q77 1 156 68t112 153q63 12 125 9q-22 -154 -22 -269q0 -157 60 -236t196 -79q10 0 10 -10v-142
q0 -12 -10 -12q-102 0 -179 35.5t-121 96t-65.5 131.5t-21.5 151q0 56 8 127q-38 -67 -110 -112.5t-138 -45.5q-88 0 -145 47q20 -53 35.5 -129t15.5 -133q0 -162 -136.5 -339t-355.5 -300z" />
    <glyph glyph-name="uniFC8B" unicode="&#xfc8b;" horiz-adv-x="1230" arabic-form="final" 
d="M942 915l-115 132q60 67 136 112l110 -131zM266 813l-114 131q59 68 135 113l110 -131zM20 -471q-75 38 -126 123q205 106 327 223.5t174 261.5q-41 244 -139 426q70 47 145 64q28 -57 83.5 -84t121.5 -25q77 1 156 68t112 153q63 12 125 9q-22 -154 -22 -269
q0 -157 60 -236t196 -79q10 0 10 -10v-142q0 -12 -10 -12q-102 0 -179 35.5t-121 96t-65.5 131.5t-21.5 151q0 56 8 127q-38 -67 -110 -112.5t-138 -45.5q-88 0 -145 47q20 -53 35.5 -129t15.5 -133q0 -162 -136.5 -339t-355.5 -300z" />
    <glyph glyph-name="uniFC8C" unicode="&#xfc8c;" horiz-adv-x="1271" arabic-form="final" 
d="M844 897l-115 131q59 68 135 113l111 -131zM174 -645q-12 394 -72 684q27 73 80 133q50 8 88 8q80 0 162 -26q-84 57 -84 131q0 98 72 192t188.5 153t239.5 62q65 -47 117 -110q2 -104 15.5 -175t46.5 -128t94 -85.5t153 -29.5q10 0 10 -10v-142q0 -12 -10 -12
q-237 0 -336.5 132.5t-99.5 412.5q-128 -19 -233.5 -90t-143.5 -193q110 -107 323 -176q-20 -80 -65 -166q-100 43 -212.5 71.5t-195.5 28.5q-23 0 -51 -4q42 -274 39 -618q-51 -30 -98 -43h-27z" />
    <glyph glyph-name="uniFC8D" unicode="&#xfc8d;" horiz-adv-x="1730" arabic-form="final" 
d="M1360 946l-115 131q59 68 135 113l111 -131zM498 551l-115 131q59 68 135 113l111 -131zM526 -430q-199 0 -309.5 115t-110.5 333q0 129 48 293q55 0 127 -20q-37 -129 -37 -250q0 -162 86 -238.5t229 -76.5q85 0 145.5 17t114.5 60q45 104 45 271q0 222 -90 432
q59 43 131 65q66 -92 180 -92q84 0 156 66.5t105 150.5q65 12 127 9q-23 -130 -23 -244q0 -147 71 -222t212 -75q10 0 10 -10v-142q0 -12 -10 -12q-106 0 -186.5 30.5t-129 85t-72.5 122.5t-24 149q0 32 8 102q-37 -64 -100.5 -107.5t-130.5 -43.5q-74 0 -131 45
q43 -127 43 -262q0 -121 -25.5 -217.5t-80 -173t-150.5 -118.5t-228 -42z" />
    <glyph glyph-name="uniFC8E" unicode="&#xfc8e;" horiz-adv-x="1757" arabic-form="final" 
d="M1212 909l-114 131q59 68 135 113l110 -131zM584 -471q-222 0 -350 117.5t-128 328.5q0 129 48 293q55 0 127 -20q-37 -121 -37 -240q0 -155 104.5 -240t265.5 -85q155 0 301 61.5t246 173.5q-31 21 -118 62t-159 75.5t-131 83.5t-59 94q0 61 44.5 132.5t119 137t183 118
t225.5 73.5q69 -49 118 -114q2 -84 12 -145t35 -114.5t66.5 -86.5t106 -51.5t153.5 -18.5q12 0 12 -10v-142q0 -12 -12 -12q-131 0 -223.5 34t-150 104t-86 168.5t-33.5 236.5q-141 -29 -260 -103.5t-183 -171.5q36 -26 100 -58t120.5 -59.5t111 -59t87 -67.5t32.5 -73
q0 -48 -33.5 -105t-97.5 -112.5t-146.5 -101.5t-190.5 -74.5t-220 -28.5z" />
    <glyph glyph-name="uniFC8F" unicode="&#xfc8f;" horiz-adv-x="1757" arabic-form="final" 
d="M1212 909l-114 131q59 68 135 113l110 -131zM584 -471q-222 0 -350 117.5t-128 328.5q0 129 48 293q55 0 127 -20q-37 -121 -37 -240q0 -155 104.5 -240t265.5 -85q155 0 301 61.5t246 173.5q-31 21 -118 62t-159 75.5t-131 83.5t-59 94q0 61 44.5 132.5t119 137t183 118
t225.5 73.5q69 -49 118 -114q2 -84 12 -145t35 -114.5t66.5 -86.5t106 -51.5t153.5 -18.5q12 0 12 -10v-142q0 -12 -12 -12q-131 0 -223.5 34t-150 104t-86 168.5t-33.5 236.5q-141 -29 -260 -103.5t-183 -171.5q36 -26 100 -58t120.5 -59.5t111 -59t87 -67.5t32.5 -73
q0 -48 -33.5 -105t-97.5 -112.5t-146.5 -101.5t-190.5 -74.5t-220 -28.5zM510 -846l-115 131q59 68 135 113q23 -24 50.5 -57t43.5 -53l17 -21zM768 -846l-115 131q59 68 135 113q23 -24 50.5 -57t43.5 -53l17 -21z" />
    <glyph glyph-name="uniFC91" unicode="&#xfc91;" horiz-adv-x="1230" arabic-form="final" 
d="M20 -471q-75 38 -126 123q205 106 327 223.5t174 261.5q-41 244 -139 426q70 47 145 64q28 -57 83.5 -84t121.5 -25q77 1 156 68t112 153q63 12 125 9q-22 -154 -22 -269q0 -157 60 -236t196 -79q10 0 10 -10v-142q0 -12 -10 -12q-102 0 -179 35.5t-121 96t-65.5 131.5
t-21.5 151q0 56 8 127q-38 -67 -110 -112.5t-138 -45.5q-88 0 -145 47q20 -53 35.5 -129t15.5 -133q0 -162 -136.5 -339t-355.5 -300zM629 -473l-115 131q59 68 135 113q23 -24 50.5 -57t44.5 -54l16 -20zM887 -473l-115 131q59 68 135 113q23 -24 50.5 -57t44.5 -54l16 -20
z" />
    <glyph glyph-name="uniFC92" unicode="&#xfc92;" horiz-adv-x="1230" arabic-form="final" 
d="M266 813l-114 131q59 68 135 113l110 -131zM20 -471q-75 38 -126 123q205 106 327 223.5t174 261.5q-41 244 -139 426q70 47 145 64q28 -57 83.5 -84t121.5 -25q77 1 156 68t112 153q63 12 125 9q-22 -154 -22 -269q0 -157 60 -236t196 -79q10 0 10 -10v-142
q0 -12 -10 -12q-102 0 -179 35.5t-121 96t-65.5 131.5t-21.5 151q0 56 8 127q-38 -67 -110 -112.5t-138 -45.5q-88 0 -145 47q20 -53 35.5 -129t15.5 -133q0 -162 -136.5 -339t-355.5 -300zM629 -473l-115 131q59 68 135 113q23 -24 50.5 -57t44.5 -54l16 -20zM887 -473
l-115 131q59 68 135 113q23 -24 50.5 -57t44.5 -54l16 -20z" />
    <glyph glyph-name="uniFC93" unicode="&#xfc93;" horiz-adv-x="1271" arabic-form="final" 
d="M174 -645q-12 394 -72 684q27 73 80 133q50 8 88 8q80 0 162 -26q-84 57 -84 131q0 98 72 192t188.5 153t239.5 62q65 -47 117 -110q2 -104 15.5 -175t46.5 -128t94 -85.5t153 -29.5q10 0 10 -10v-142q0 -12 -10 -12q-237 0 -336.5 132.5t-99.5 412.5
q-128 -19 -233.5 -90t-143.5 -193q110 -107 323 -176q-20 -80 -65 -166q-100 43 -212.5 71.5t-195.5 28.5q-23 0 -51 -4q42 -274 39 -618q-51 -30 -98 -43h-27zM745 -473l-114 131q59 68 135 113q23 -24 50.5 -57t43.5 -54l17 -20zM1004 -473l-115 131q59 68 135 113
q23 -24 50.5 -57t43.5 -54l17 -20z" />
    <glyph glyph-name="uniFC94" unicode="&#xfc94;" horiz-adv-x="1730" arabic-form="final" 
d="M498 551l-115 131q59 68 135 113l111 -131zM526 -430q-199 0 -309.5 115t-110.5 333q0 129 48 293q55 0 127 -20q-37 -129 -37 -250q0 -162 86 -238.5t229 -76.5q85 0 145.5 17t114.5 60q45 104 45 271q0 222 -90 432q59 43 131 65q66 -92 180 -92q84 0 156 66.5
t105 150.5q65 12 127 9q-23 -130 -23 -244q0 -147 71 -222t212 -75q10 0 10 -10v-142q0 -12 -10 -12q-106 0 -186.5 30.5t-129 85t-72.5 122.5t-24 149q0 32 8 102q-37 -64 -100.5 -107.5t-130.5 -43.5q-74 0 -131 45q43 -127 43 -262q0 -121 -25.5 -217.5t-80 -173
t-150.5 -118.5t-228 -42zM1167 -473l-114 131q59 68 135 113q23 -24 50.5 -57t43.5 -54l16 -20zM1425 -473l-114 131q59 68 135 113q23 -24 50.5 -57t43.5 -54l16 -20z" />
    <glyph glyph-name="uniFC95" unicode="&#xfc95;" horiz-adv-x="1757" arabic-form="final" 
d="M584 -471q-222 0 -350 117.5t-128 328.5q0 129 48 293q55 0 127 -20q-37 -121 -37 -240q0 -155 104.5 -240t265.5 -85q155 0 301 61.5t246 173.5q-31 21 -118 62t-159 75.5t-131 83.5t-59 94q0 61 44.5 132.5t119 137t183 118t225.5 73.5q69 -49 118 -114q2 -84 12 -145
t35 -114.5t66.5 -86.5t106 -51.5t153.5 -18.5q12 0 12 -10v-142q0 -12 -12 -12q-131 0 -223.5 34t-150 104t-86 168.5t-33.5 236.5q-141 -29 -260 -103.5t-183 -171.5q36 -26 100 -58t120.5 -59.5t111 -59t87 -67.5t32.5 -73q0 -48 -33.5 -105t-97.5 -112.5t-146.5 -101.5
t-190.5 -74.5t-220 -28.5zM1362 -473l-115 131q59 68 135 113q23 -24 50.5 -57t43.5 -54l17 -20zM1620 -473l-115 131q59 68 135 113q23 -24 50.5 -57t43.5 -54l17 -20z" />
    <glyph glyph-name="uniFC96" unicode="&#xfc96;" horiz-adv-x="1757" arabic-form="final" 
d="M584 -471q-222 0 -350 117.5t-128 328.5q0 129 48 293q55 0 127 -20q-37 -121 -37 -240q0 -155 104.5 -240t265.5 -85q155 0 301 61.5t246 173.5q-31 21 -118 62t-159 75.5t-131 83.5t-59 94q0 61 44.5 132.5t119 137t183 118t225.5 73.5q69 -49 118 -114q2 -84 12 -145
t35 -114.5t66.5 -86.5t106 -51.5t153.5 -18.5q12 0 12 -10v-142q0 -12 -12 -12q-131 0 -223.5 34t-150 104t-86 168.5t-33.5 236.5q-141 -29 -260 -103.5t-183 -171.5q36 -26 100 -58t120.5 -59.5t111 -59t87 -67.5t32.5 -73q0 -48 -33.5 -105t-97.5 -112.5t-146.5 -101.5
t-190.5 -74.5t-220 -28.5zM1362 -473l-115 131q59 68 135 113q23 -24 50.5 -57t43.5 -54l17 -20zM1620 -473l-115 131q59 68 135 113q23 -24 50.5 -57t43.5 -54l17 -20zM510 -846l-115 131q59 68 135 113q23 -24 50.5 -57t43.5 -53l17 -21zM768 -846l-115 131q59 68 135 113
q23 -24 50.5 -57t43.5 -53l17 -21z" />
    <glyph glyph-name="uniFC9A" unicode="&#xfc9a;" horiz-adv-x="878" arabic-form="initial" 
d="M440 897q-18 30 -26 80q54 25 104 39q-59 55 -59 129q0 63 55 113.5t129 50.5q57 0 111 -23q-3 -26 -21 -90q-34 12 -74 12q-76 0 -120 -55q15 -54 55.5 -84.5t91.5 -30.5t105 13q0 -35 -19 -113q-202 0 -332 -41zM547 -88q-111 46 -221.5 66.5t-259.5 21.5h-66
q-12 0 -12 12v142q0 10 12 10h14q154 0 242 -25q-44 33 -67 64.5t-23 72.5q0 74 32 151t85.5 140t132.5 103.5t166 40.5q160 0 243 -103q-32 -76 -88 -135q-79 72 -172 72q-102 0 -181.5 -86.5t-98.5 -208.5q97 -97 329 -172q-23 -94 -67 -166z" />
    <glyph glyph-name="uniFC9B" unicode="&#xfc9b;" horiz-adv-x="1370" arabic-form="initial" 
d="M807 881q-19 32 -27 80q47 21 105 38q-60 56 -60 129q0 63 55.5 113.5t129.5 50.5q58 0 110 -22q-4 -33 -20 -90q-34 12 -74 12q-77 0 -121 -55q15 -54 56 -84.5t92 -30.5q55 0 104 12q0 -38 -18 -112q-202 0 -332 -41zM709 -414q-214 33 -357.5 168t-175.5 346
q-57 -100 -176 -100q-12 0 -12 12v142q0 10 12 10q71 0 111 20.5t59 65.5v24q0 54 10.5 137t30.5 146q62 0 141 -22q-43 -154 -43 -308q0 -194 101 -320t262 -177q-47 79 -76 190.5t-29 210.5q0 236 130.5 387.5t328.5 151.5q156 0 250 -105q-32 -77 -94 -143
q-78 82 -183 82q-143 0 -221 -112t-78 -294q0 -100 29 -208.5t76 -188.5q-42 -70 -96 -115z" />
    <glyph glyph-name="uniFC9F" unicode="&#xfc9f;" horiz-adv-x="878" arabic-form="initial" 
d="M547 -88q-111 46 -221.5 66.5t-259.5 21.5h-66q-12 0 -12 12v142q0 10 12 10h14q154 0 242 -25q-44 33 -67 64.5t-23 72.5q0 74 32 151t85.5 140t132.5 103.5t166 40.5q160 0 243 -103q-32 -76 -88 -135q-79 72 -172 72q-102 0 -181.5 -86.5t-98.5 -208.5
q97 -97 329 -172q-23 -94 -67 -166zM598 -473l-115 131q59 68 135 113q23 -24 50.5 -57t43.5 -54l17 -20z" />
    <glyph glyph-name="uniFCA0" unicode="&#xfca0;" horiz-adv-x="1370" arabic-form="initial" 
d="M709 -414q-214 33 -357.5 168t-175.5 346q-57 -100 -176 -100q-12 0 -12 12v142q0 10 12 10q71 0 111 20.5t59 65.5v24q0 54 10.5 137t30.5 146q62 0 141 -22q-43 -154 -43 -308q0 -194 101 -320t262 -177q-47 79 -76 190.5t-29 210.5q0 236 130.5 387.5t328.5 151.5
q156 0 250 -105q-32 -77 -94 -143q-78 82 -183 82q-143 0 -221 -112t-78 -294q0 -100 29 -208.5t76 -188.5q-42 -70 -96 -115zM1055 -35l-115 131q59 68 135 113q23 -24 50.5 -57t44.5 -54l16 -20z" />
    <glyph glyph-name="uniFCA4" unicode="&#xfca4;" horiz-adv-x="878" arabic-form="initial" 
d="M721 901l-115 133q59 68 135 115l113 -133zM469 899l-115 133q59 68 135 115l113 -133zM547 -88q-111 46 -221.5 66.5t-259.5 21.5h-66q-12 0 -12 12v142q0 10 12 10h14q154 0 242 -25q-44 33 -67 64.5t-23 72.5q0 74 32 151t85.5 140t132.5 103.5t166 40.5
q160 0 243 -103q-32 -76 -88 -135q-79 72 -172 72q-102 0 -181.5 -86.5t-98.5 -208.5q97 -97 329 -172q-23 -94 -67 -166z" />
    <glyph glyph-name="uniFCA5" unicode="&#xfca5;" horiz-adv-x="1370" arabic-form="initial" 
d="M1087 885l-114 133q59 68 135 115l113 -134zM836 883l-115 133q59 67 135 114l113 -133zM709 -414q-214 33 -357.5 168t-175.5 346q-57 -100 -176 -100q-12 0 -12 12v142q0 10 12 10q71 0 111 20.5t59 65.5v24q0 54 10.5 137t30.5 146q62 0 141 -22q-43 -154 -43 -308
q0 -194 101 -320t262 -177q-47 79 -76 190.5t-29 210.5q0 236 130.5 387.5t328.5 151.5q156 0 250 -105q-32 -77 -94 -143q-78 82 -183 82q-143 0 -221 -112t-78 -294q0 -100 29 -208.5t76 -188.5q-42 -70 -96 -115z" />
    <glyph glyph-name="uniFCA6" unicode="&#xfca6;" horiz-adv-x="878" arabic-form="initial" 
d="M610 1130l-90 103q48 51 105 86l86 -100zM475 899l-113 129q58 66 134 111l108 -129zM731 899l-113 129q58 66 134 111l108 -129zM547 -88q-111 46 -221.5 66.5t-259.5 21.5h-66q-12 0 -12 12v142q0 10 12 10h14q154 0 242 -25q-44 33 -67 64.5t-23 72.5q0 74 32 151
t85.5 140t132.5 103.5t166 40.5q160 0 243 -103q-32 -76 -88 -135q-79 72 -172 72q-102 0 -181.5 -86.5t-98.5 -208.5q97 -97 329 -172q-23 -94 -67 -166z" />
    <glyph glyph-name="uniFCB0" unicode="&#xfcb0;" horiz-adv-x="1976" arabic-form="initial" 
d="M526 -88q-128 53 -224.5 70.5t-235.5 17.5h-66q-12 0 -12 12v142q0 10 12 10h20q149 0 224 -21q-82 65 -82 131q0 101 71.5 198t184.5 158t229 66q77 -58 123 -114q2 -83 10 -142.5t29 -114.5t56.5 -88.5t93.5 -53t139 -19.5h73q29 59 29 176q0 144 -43 285q73 48 156 57
q31 -130 35 -291q0 -89 -15 -162q188 -89 348 -92q25 94 25 219q0 194 -74 373q75 53 166 62q60 -202 60 -404q0 -212 -68 -416q-231 0 -504 117q-27 -49 -72 -88h-120q-250 0 -351.5 130.5t-99.5 406.5q-75 -7 -147.5 -39t-135.5 -96.5t-86 -149.5q107 -97 320 -164
q-21 -103 -68 -176z" />
    <glyph glyph-name="uniFCB3" unicode="&#xfcb3;" horiz-adv-x="2086" arabic-form="initial" 
d="M532 -90q-109 47 -215.5 68.5t-250.5 21.5h-66q-12 0 -12 12v142q0 10 12 10h20q143 0 232 -25q-44 34 -67 65t-23 70q0 73 43 148t111.5 133.5t158.5 96.5t178 40q65 -47 117 -110q5 -192 44.5 -279t139.5 -119q160 292 326.5 441t351.5 149q161 0 259 -105t98 -272
q0 -184 -121 -397h-768q-252 0 -355.5 134t-101.5 411q-56 -9 -111 -30.5t-107.5 -56.5t-92.5 -88t-58 -118q111 -105 324 -174q-20 -84 -66 -168zM1075 170q24 -6 66 -6h641q51 100 51 196q0 114 -63 186t-179 75q-251 3 -516 -451z" />
    <glyph glyph-name="uniFCB7" unicode="&#xfcb7;" horiz-adv-x="2086" arabic-form="initial" 
d="M1321 918l-115 131q59 67 135 112l111 -131zM532 -90q-109 47 -215.5 68.5t-250.5 21.5h-66q-12 0 -12 12v142q0 10 12 10h20q143 0 232 -25q-44 34 -67 65t-23 70q0 73 43 148t111.5 133.5t158.5 96.5t178 40q65 -47 117 -110q5 -192 44.5 -279t139.5 -119
q160 292 326.5 441t351.5 149q161 0 259 -105t98 -272q0 -184 -121 -397h-768q-252 0 -355.5 134t-101.5 411q-56 -9 -111 -30.5t-107.5 -56.5t-92.5 -88t-58 -118q111 -105 324 -174q-20 -84 -66 -168zM1075 170q24 -6 66 -6h641q51 100 51 196q0 114 -63 186t-179 75
q-251 3 -516 -451z" />
    <glyph glyph-name="uniFCCC" unicode="&#xfccc;" horiz-adv-x="647" arabic-form="initial" 
d="M516 -84q-123 48 -211.5 66t-204.5 18h-100q-12 0 -12 12v142q0 10 12 10h12q141 0 224 -19q-42 35 -65 72.5t-26 97.5q-22 720 -32 920q79 47 182 47l-2 -1049q119 -95 289 -149q-18 -78 -66 -168z" />
    <glyph glyph-name="uniFCD5" unicode="&#xfcd5;" horiz-adv-x="878" arabic-form="initial" 
d="M594 909l-115 131q59 68 135 113l111 -131zM547 -88q-111 46 -221.5 66.5t-259.5 21.5h-66q-12 0 -12 12v142q0 10 12 10h14q154 0 242 -25q-44 33 -67 64.5t-23 72.5q0 74 32 151t85.5 140t132.5 103.5t166 40.5q160 0 243 -103q-32 -76 -88 -135q-79 72 -172 72
q-102 0 -181.5 -86.5t-98.5 -208.5q97 -97 329 -172q-23 -94 -67 -166z" />
    <glyph glyph-name="uniFCD6" unicode="&#xfcd6;" horiz-adv-x="1370" arabic-form="initial" 
d="M961 893l-115 131q59 68 135 113l111 -131zM709 -414q-214 33 -357.5 168t-175.5 346q-57 -100 -176 -100q-12 0 -12 12v142q0 10 12 10q71 0 111 20.5t59 65.5v24q0 54 10.5 137t30.5 146q62 0 141 -22q-43 -154 -43 -308q0 -194 101 -320t262 -177q-47 79 -76 190.5
t-29 210.5q0 236 130.5 387.5t328.5 151.5q156 0 250 -105q-32 -77 -94 -143q-78 82 -183 82q-143 0 -221 -112t-78 -294q0 -100 29 -208.5t76 -188.5q-42 -70 -96 -115z" />
    <glyph glyph-name="uniFCDD" unicode="&#xfcdd;" horiz-adv-x="878" arabic-form="initial" 
d="M547 -88q-111 46 -221.5 66.5t-259.5 21.5h-66q-12 0 -12 12v142q0 10 12 10h14q154 0 242 -25q-44 33 -67 64.5t-23 72.5q0 74 32 151t85.5 140t132.5 103.5t166 40.5q160 0 243 -103q-32 -76 -88 -135q-79 72 -172 72q-102 0 -181.5 -86.5t-98.5 -208.5
q97 -97 329 -172q-23 -94 -67 -166zM477 -473l-115 131q60 68 136 113q23 -24 50.5 -57t43.5 -54l16 -20zM735 -473l-114 131q59 68 135 113q23 -24 50.5 -57t43.5 -54l16 -20z" />
    <glyph glyph-name="uniFCDE" unicode="&#xfcde;" horiz-adv-x="1370" arabic-form="initial" 
d="M709 -414q-214 33 -357.5 168t-175.5 346q-57 -100 -176 -100q-12 0 -12 12v142q0 10 12 10q71 0 111 20.5t59 65.5v24q0 54 10.5 137t30.5 146q62 0 141 -22q-43 -154 -43 -308q0 -194 101 -320t262 -177q-47 79 -76 190.5t-29 210.5q0 236 130.5 387.5t328.5 151.5
q156 0 250 -105q-32 -77 -94 -143q-78 82 -183 82q-143 0 -221 -112t-78 -294q0 -100 29 -208.5t76 -188.5q-42 -70 -96 -115zM1069 -33l-115 131q60 68 136 113q23 -24 50.5 -57t43.5 -54l16 -20zM1083 -276l-114 131q59 67 135 112q23 -24 50.5 -57t43.5 -54l16 -20z" />
    <glyph glyph-name="uniFCDF" unicode="&#xfcdf;" horiz-adv-x="1081" arabic-form="medial" 
d="M508 909q-19 32 -27 80q53 24 105 39q-60 56 -60 129q0 63 55.5 113.5t129.5 50.5q56 0 110 -23q-4 -33 -20 -90q-37 13 -74 13q-76 0 -121 -56q15 -54 56 -84t92 -30q54 0 104 12q0 -39 -18 -113q-202 0 -332 -41zM526 -88q-128 53 -224.5 70.5t-235.5 17.5h-66
q-12 0 -12 12v142q0 10 12 10h20q149 0 224 -21q-82 65 -82 131q0 101 71.5 198t184.5 158t229 66q77 -58 123 -114q2 -83 10 -142t28 -113.5t53.5 -88t88.5 -53.5t131 -21q11 0 11 -10v-142q0 -12 -11 -12q-241 0 -340.5 130.5t-97.5 406.5q-75 -7 -147.5 -39t-135.5 -96.5
t-86 -149.5q107 -97 320 -164q-21 -103 -68 -176z" />
    <glyph glyph-name="uniFCE0" unicode="&#xfce0;" horiz-adv-x="1378" arabic-form="medial" 
d="M809 897q-19 32 -27 80q52 24 105 39q-60 56 -60 129q0 63 55.5 113.5t129.5 50.5q56 0 110 -23q-4 -33 -20 -90q-34 12 -74 12q-77 0 -121 -55q15 -54 56 -84.5t92 -30.5q50 0 104 13q0 -39 -18 -113q-202 0 -332 -41zM715 -414q-216 33 -361.5 168t-177.5 346
q-57 -100 -176 -100q-12 0 -12 12v142q0 10 12 10q71 0 111 20.5t59 65.5v24q0 54 10.5 137t30.5 146q62 0 141 -22q-43 -154 -43 -308q0 -185 102.5 -313.5t262.5 -181.5q-105 183 -105 374q0 207 107 364.5t307 211.5q72 -46 123 -109q3 -200 65 -304.5t207 -104.5
q11 0 11 -10v-142q0 -12 -11 -12q-212 0 -308.5 131.5t-104.5 392.5q-66 -22 -117.5 -70.5t-81 -111t-44.5 -128.5t-15 -132q0 -206 100 -389q-33 -55 -92 -107z" />
    <glyph glyph-name="uniFCE1" unicode="&#xfce1;" horiz-adv-x="1081" arabic-form="medial" 
d="M526 -88q-128 53 -224.5 70.5t-235.5 17.5h-66q-12 0 -12 12v142q0 10 12 10h20q149 0 224 -21q-82 65 -82 131q0 101 71.5 198t184.5 158t229 66q77 -58 123 -114q2 -83 10 -142t28 -113.5t53.5 -88t88.5 -53.5t131 -21q11 0 11 -10v-142q0 -12 -11 -12
q-241 0 -340.5 130.5t-97.5 406.5q-75 -7 -147.5 -39t-135.5 -96.5t-86 -149.5q107 -97 320 -164q-21 -103 -68 -176zM756 -473l-115 131q59 68 135 113q23 -24 50.5 -57t43.5 -54l17 -20z" />
    <glyph glyph-name="uniFCE2" unicode="&#xfce2;" horiz-adv-x="1378" arabic-form="medial" 
d="M715 -414q-216 33 -361.5 168t-177.5 346q-57 -100 -176 -100q-12 0 -12 12v142q0 10 12 10q71 0 111 20.5t59 65.5v24q0 54 10.5 137t30.5 146q62 0 141 -22q-43 -154 -43 -308q0 -185 102.5 -313.5t262.5 -181.5q-105 183 -105 374q0 207 107 364.5t307 211.5
q72 -46 123 -109q3 -200 65 -304.5t207 -104.5q11 0 11 -10v-142q0 -12 -11 -12q-212 0 -308.5 131.5t-104.5 392.5q-66 -22 -117.5 -70.5t-81 -111t-44.5 -128.5t-15 -132q0 -206 100 -389q-33 -55 -92 -107zM1096 -473l-115 131q59 68 135 113q23 -24 50.5 -57t43.5 -54
l17 -20z" />
    <glyph glyph-name="uniFCE3" unicode="&#xfce3;" horiz-adv-x="1081" arabic-form="medial" 
d="M788 913l-114 134q59 67 135 114l113 -133zM537 911l-115 133q59 68 135 115l113 -133zM526 -88q-128 53 -224.5 70.5t-235.5 17.5h-66q-12 0 -12 12v142q0 10 12 10h20q149 0 224 -21q-82 65 -82 131q0 101 71.5 198t184.5 158t229 66q77 -58 123 -114q2 -83 10 -142
t28 -113.5t53.5 -88t88.5 -53.5t131 -21q11 0 11 -10v-142q0 -12 -11 -12q-241 0 -340.5 130.5t-97.5 406.5q-75 -7 -147.5 -39t-135.5 -96.5t-86 -149.5q107 -97 320 -164q-21 -103 -68 -176z" />
    <glyph glyph-name="uniFCE4" unicode="&#xfce4;" horiz-adv-x="1378" arabic-form="medial" 
d="M1090 901l-115 133q59 68 135 115l113 -133zM838 899l-115 133q59 68 135 115l113 -133zM715 -414q-216 33 -361.5 168t-177.5 346q-57 -100 -176 -100q-12 0 -12 12v142q0 10 12 10q71 0 111 20.5t59 65.5v24q0 54 10.5 137t30.5 146q62 0 141 -22q-43 -154 -43 -308
q0 -185 102.5 -313.5t262.5 -181.5q-105 183 -105 374q0 207 107 364.5t307 211.5q72 -46 123 -109q3 -200 65 -304.5t207 -104.5q11 0 11 -10v-142q0 -12 -11 -12q-212 0 -308.5 131.5t-104.5 392.5q-66 -22 -117.5 -70.5t-81 -111t-44.5 -128.5t-15 -132q0 -206 100 -389
q-33 -55 -92 -107z" />
    <glyph glyph-name="uniFCE5" unicode="&#xfce5;" horiz-adv-x="1081" arabic-form="medial" 
d="M678 1143l-90 102q47 51 104 86l86 -100zM543 911l-113 129q57 66 133 111l109 -129zM799 911l-113 129q57 66 133 111l109 -129zM526 -88q-128 53 -224.5 70.5t-235.5 17.5h-66q-12 0 -12 12v142q0 10 12 10h20q149 0 224 -21q-82 65 -82 131q0 101 71.5 198t184.5 158
t229 66q77 -58 123 -114q2 -83 10 -142t28 -113.5t53.5 -88t88.5 -53.5t131 -21q11 0 11 -10v-142q0 -12 -11 -12q-241 0 -340.5 130.5t-97.5 406.5q-75 -7 -147.5 -39t-135.5 -96.5t-86 -149.5q107 -97 320 -164q-21 -103 -68 -176z" />
    <glyph glyph-name="uniFCE6" unicode="&#xfce6;" horiz-adv-x="1378" arabic-form="medial" 
d="M979 1130l-90 103q47 51 104 86l86 -100zM844 899l-113 129q57 66 133 111l109 -129zM1100 899l-113 129q57 66 133 111l109 -129zM715 -414q-216 33 -361.5 168t-177.5 346q-57 -100 -176 -100q-12 0 -12 12v142q0 10 12 10q71 0 111 20.5t59 65.5v24q0 54 10.5 137
t30.5 146q62 0 141 -22q-43 -154 -43 -308q0 -185 102.5 -313.5t262.5 -181.5q-105 183 -105 374q0 207 107 364.5t307 211.5q72 -46 123 -109q3 -200 65 -304.5t207 -104.5q11 0 11 -10v-142q0 -12 -11 -12q-212 0 -308.5 131.5t-104.5 392.5q-66 -22 -117.5 -70.5
t-81 -111t-44.5 -128.5t-15 -132q0 -206 100 -389q-33 -55 -92 -107z" />
    <glyph glyph-name="uniFCE7" unicode="&#xfce7;" horiz-adv-x="2015" arabic-form="medial" 
d="M526 -88q-128 53 -224.5 70.5t-235.5 17.5h-66q-12 0 -12 12v142q0 10 12 10h20q149 0 224 -21q-82 65 -82 131q0 101 71.5 198t184.5 158t229 66q77 -58 123 -114q2 -83 10 -142.5t29 -114.5t56.5 -88.5t93.5 -53t139 -19.5h69q29 59 29 176q0 144 -43 285q73 48 156 57
q30 -125 34 -291q0 -77 -12 -147q162 -73 352 -82q23 95 23 215q0 178 -72 360q74 49 158 60q61 -196 61 -391q0 -97 -16 -209q68 -33 180 -33q11 0 11 -10v-142q0 -12 -11 -12q-132 0 -211 86q-28 -43 -77 -86q-206 6 -433 102q-38 -60 -86 -102h-116q-250 0 -351.5 130.5
t-99.5 406.5q-75 -7 -147.5 -39t-135.5 -96.5t-86 -149.5q107 -97 320 -164q-21 -103 -68 -176z" />
    <glyph glyph-name="uniFCE8" unicode="&#xfce8;" horiz-adv-x="2361" arabic-form="medial" 
d="M0 0q-12 0 -12 12v142q0 10 12 10q71 0 111 20.5t59 65.5v24q0 54 10.5 137t30.5 146q62 0 141 -22q-43 -154 -43 -308q0 -185 102.5 -313.5t262.5 -181.5q-105 183 -105 374q0 207 107 364.5t307 211.5q72 -46 123 -109q3 -204 75 -305t251 -104h79q29 52 29 176
q0 144 -43 285q77 49 156 57q31 -130 35 -291q0 -82 -11 -147q160 -73 351 -82q22 91 22 215q0 178 -72 360q78 50 158 60q64 -205 64 -391q0 -76 -19 -209q68 -33 180 -33q11 0 11 -10v-142q0 -12 -11 -12q-133 0 -209 86q-44 -56 -79 -86q-206 6 -433 102
q-38 -60 -86 -102h-116q-130 0 -220.5 34t-144.5 103.5t-79 163t-29 223.5q-66 -22 -117.5 -70.5t-81 -111t-44.5 -128.5t-15 -132q0 -206 100 -389q-33 -55 -92 -107q-216 33 -361.5 168t-177.5 346q-57 -100 -176 -100z" />
    <glyph glyph-name="uniFCE9" unicode="&#xfce9;" horiz-adv-x="2015" arabic-form="medial" 
d="M1221 1114l-91 103q48 51 105 86l86 -101zM1085 883l-112 129q57 65 133 110l108 -129zM1341 883l-112 129q57 65 133 110l108 -129zM526 -88q-128 53 -224.5 70.5t-235.5 17.5h-66q-12 0 -12 12v142q0 10 12 10h20q149 0 224 -21q-82 65 -82 131q0 101 71.5 198
t184.5 158t229 66q77 -58 123 -114q2 -83 10 -142.5t29 -114.5t56.5 -88.5t93.5 -53t139 -19.5h69q29 59 29 176q0 144 -43 285q73 48 156 57q30 -125 34 -291q0 -77 -12 -147q162 -73 352 -82q23 95 23 215q0 178 -72 360q74 49 158 60q61 -196 61 -391q0 -97 -16 -209
q68 -33 180 -33q11 0 11 -10v-142q0 -12 -11 -12q-132 0 -211 86q-28 -43 -77 -86q-206 6 -433 102q-38 -60 -86 -102h-116q-250 0 -351.5 130.5t-99.5 406.5q-75 -7 -147.5 -39t-135.5 -96.5t-86 -149.5q107 -97 320 -164q-21 -103 -68 -176z" />
    <glyph glyph-name="uniFCEA" unicode="&#xfcea;" horiz-adv-x="2361" arabic-form="medial" 
d="M1559 1114l-91 103q48 51 105 86l86 -101zM1423 883l-112 129q57 65 133 110l108 -129zM1679 883l-112 129q57 65 133 110l108 -129zM0 0q-12 0 -12 12v142q0 10 12 10q71 0 111 20.5t59 65.5v24q0 54 10.5 137t30.5 146q62 0 141 -22q-43 -154 -43 -308
q0 -185 102.5 -313.5t262.5 -181.5q-105 183 -105 374q0 207 107 364.5t307 211.5q72 -46 123 -109q3 -204 75 -305t251 -104h79q29 52 29 176q0 144 -43 285q77 49 156 57q31 -130 35 -291q0 -82 -11 -147q160 -73 351 -82q22 91 22 215q0 178 -72 360q78 50 158 60
q64 -205 64 -391q0 -76 -19 -209q68 -33 180 -33q11 0 11 -10v-142q0 -12 -11 -12q-133 0 -209 86q-44 -56 -79 -86q-206 6 -433 102q-38 -60 -86 -102h-116q-130 0 -220.5 34t-144.5 103.5t-79 163t-29 223.5q-66 -22 -117.5 -70.5t-81 -111t-44.5 -128.5t-15 -132
q0 -206 100 -389q-33 -55 -92 -107q-216 33 -361.5 168t-177.5 346q-57 -100 -176 -100z" />
    <glyph glyph-name="uniFCEE" unicode="&#xfcee;" horiz-adv-x="1081" arabic-form="medial" 
d="M662 922l-115 131q59 67 135 112l111 -131zM526 -88q-128 53 -224.5 70.5t-235.5 17.5h-66q-12 0 -12 12v142q0 10 12 10h20q149 0 224 -21q-82 65 -82 131q0 101 71.5 198t184.5 158t229 66q77 -58 123 -114q2 -83 10 -142t28 -113.5t53.5 -88t88.5 -53.5t131 -21
q11 0 11 -10v-142q0 -12 -11 -12q-241 0 -340.5 130.5t-97.5 406.5q-75 -7 -147.5 -39t-135.5 -96.5t-86 -149.5q107 -97 320 -164q-21 -103 -68 -176z" />
    <glyph glyph-name="uniFCEF" unicode="&#xfcef;" horiz-adv-x="1378" arabic-form="medial" 
d="M963 909l-115 131q59 68 135 113l111 -131zM715 -414q-216 33 -361.5 168t-177.5 346q-57 -100 -176 -100q-12 0 -12 12v142q0 10 12 10q71 0 111 20.5t59 65.5v24q0 54 10.5 137t30.5 146q62 0 141 -22q-43 -154 -43 -308q0 -185 102.5 -313.5t262.5 -181.5
q-105 183 -105 374q0 207 107 364.5t307 211.5q72 -46 123 -109q3 -200 65 -304.5t207 -104.5q11 0 11 -10v-142q0 -12 -11 -12q-212 0 -308.5 131.5t-104.5 392.5q-66 -22 -117.5 -70.5t-81 -111t-44.5 -128.5t-15 -132q0 -206 100 -389q-33 -55 -92 -107z" />
    <glyph glyph-name="uniFCF0" unicode="&#xfcf0;" horiz-adv-x="1081" arabic-form="medial" 
d="M526 -88q-128 53 -224.5 70.5t-235.5 17.5h-66q-12 0 -12 12v142q0 10 12 10h20q149 0 224 -21q-82 65 -82 131q0 101 71.5 198t184.5 158t229 66q77 -58 123 -114q2 -83 10 -142t28 -113.5t53.5 -88t88.5 -53.5t131 -21q11 0 11 -10v-142q0 -12 -11 -12
q-241 0 -340.5 130.5t-97.5 406.5q-75 -7 -147.5 -39t-135.5 -96.5t-86 -149.5q107 -97 320 -164q-21 -103 -68 -176zM635 -473l-115 131q59 68 135 113q23 -24 50.5 -57t44.5 -54l16 -20zM893 -473l-115 131q59 68 135 113q23 -24 50.5 -57t44.5 -54l16 -20z" />
    <glyph glyph-name="uniFCF1" unicode="&#xfcf1;" horiz-adv-x="1378" arabic-form="medial" 
d="M715 -414q-216 33 -361.5 168t-177.5 346q-57 -100 -176 -100q-12 0 -12 12v142q0 10 12 10q71 0 111 20.5t59 65.5v24q0 54 10.5 137t30.5 146q62 0 141 -22q-43 -154 -43 -308q0 -185 102.5 -313.5t262.5 -181.5q-105 183 -105 374q0 207 107 364.5t307 211.5
q72 -46 123 -109q3 -200 65 -304.5t207 -104.5q11 0 11 -10v-142q0 -12 -11 -12q-212 0 -308.5 131.5t-104.5 392.5q-66 -22 -117.5 -70.5t-81 -111t-44.5 -128.5t-15 -132q0 -206 100 -389q-33 -55 -92 -107zM1110 -471l-115 131q59 68 135 113q23 -24 50.5 -57t43.5 -54
l17 -20zM1124 -715l-114 131q59 68 135 113q23 -24 50.5 -57t43.5 -54l16 -20z" />
    <glyph glyph-name="uniFCFB" unicode="&#xfcfb;" horiz-adv-x="2580" arabic-form="isolated" 
d="M584 -471q-222 0 -350 117.5t-128 328.5q0 129 48 293q55 0 127 -20q-37 -121 -37 -240q0 -155 104.5 -240t265.5 -85q155 0 301 61.5t246 173.5q-31 21 -118 62t-159 76t-131 84t-59 93q0 60 44.5 131t117.5 135.5t177.5 115.5t215.5 69q66 -49 115 -113
q3 -84 12.5 -145t32 -112.5t59 -83t93 -49t133.5 -17.5h80q30 53 30 176q0 137 -45 285q77 49 156 57q31 -130 35 -291q0 -82 -13 -162q188 -89 347 -92q26 88 26 219q0 189 -76 373q77 53 164 62q64 -204 64 -404q0 -212 -68 -416q-235 0 -504 117q-34 -56 -71 -88h-119
q-227 0 -335.5 129t-119.5 403q-288 -65 -424 -262q42 -31 128 -74.5t152 -75.5t118.5 -78t52.5 -91q0 -48 -33.5 -105t-97.5 -112.5t-146.5 -101.5t-190.5 -74.5t-220 -28.5z" />
    <glyph glyph-name="uniFCFC" unicode="&#xfcfc;" horiz-adv-x="2580" arabic-form="isolated" 
d="M584 -471q-222 0 -350 117.5t-128 328.5q0 129 48 293q55 0 127 -20q-37 -121 -37 -240q0 -155 104.5 -240t265.5 -85q155 0 301 61.5t246 173.5q-31 21 -118 62t-159 76t-131 84t-59 93q0 60 44.5 131t117.5 135.5t177.5 115.5t215.5 69q66 -49 115 -113
q3 -84 12.5 -145t32 -112.5t59 -83t93 -49t133.5 -17.5h80q30 53 30 176q0 137 -45 285q77 49 156 57q31 -130 35 -291q0 -82 -13 -162q188 -89 347 -92q26 88 26 219q0 189 -76 373q77 53 164 62q64 -204 64 -404q0 -212 -68 -416q-235 0 -504 117q-34 -56 -71 -88h-119
q-227 0 -335.5 129t-119.5 403q-288 -65 -424 -262q42 -31 128 -74.5t152 -75.5t118.5 -78t52.5 -91q0 -48 -33.5 -105t-97.5 -112.5t-146.5 -101.5t-190.5 -74.5t-220 -28.5zM461 -879l-115 131q59 68 135 113q23 -24 50.5 -57t44.5 -54l16 -20zM719 -879l-115 131
q59 68 135 113q23 -24 50.5 -57t44.5 -54l16 -20z" />
    <glyph glyph-name="uniFCFD" unicode="&#xfcfd;" horiz-adv-x="2580" arabic-form="isolated" 
d="M1831 1114l-90 103q47 51 104 86l86 -101zM1696 883l-113 129q57 65 133 110l109 -129zM1952 883l-113 129q57 65 133 110l109 -129zM584 -471q-222 0 -350 117.5t-128 328.5q0 129 48 293q55 0 127 -20q-37 -121 -37 -240q0 -155 104.5 -240t265.5 -85q155 0 301 61.5
t246 173.5q-31 21 -118 62t-159 76t-131 84t-59 93q0 60 44.5 131t117.5 135.5t177.5 115.5t215.5 69q66 -49 115 -113q3 -84 12.5 -145t32 -112.5t59 -83t93 -49t133.5 -17.5h80q30 53 30 176q0 137 -45 285q77 49 156 57q31 -130 35 -291q0 -82 -13 -162q188 -89 347 -92
q26 88 26 219q0 189 -76 373q77 53 164 62q64 -204 64 -404q0 -212 -68 -416q-235 0 -504 117q-34 -56 -71 -88h-119q-227 0 -335.5 129t-119.5 403q-288 -65 -424 -262q42 -31 128 -74.5t152 -75.5t118.5 -78t52.5 -91q0 -48 -33.5 -105t-97.5 -112.5t-146.5 -101.5
t-190.5 -74.5t-220 -28.5z" />
    <glyph glyph-name="uniFCFE" unicode="&#xfcfe;" horiz-adv-x="2580" arabic-form="isolated" 
d="M1831 1114l-90 103q47 51 104 86l86 -101zM1696 883l-113 129q57 65 133 110l109 -129zM1952 883l-113 129q57 65 133 110l109 -129zM584 -471q-222 0 -350 117.5t-128 328.5q0 129 48 293q55 0 127 -20q-37 -121 -37 -240q0 -155 104.5 -240t265.5 -85q155 0 301 61.5
t246 173.5q-31 21 -118 62t-159 76t-131 84t-59 93q0 60 44.5 131t117.5 135.5t177.5 115.5t215.5 69q66 -49 115 -113q3 -84 12.5 -145t32 -112.5t59 -83t93 -49t133.5 -17.5h80q30 53 30 176q0 137 -45 285q77 49 156 57q31 -130 35 -291q0 -82 -13 -162q188 -89 347 -92
q26 88 26 219q0 189 -76 373q77 53 164 62q64 -204 64 -404q0 -212 -68 -416q-235 0 -504 117q-34 -56 -71 -88h-119q-227 0 -335.5 129t-119.5 403q-288 -65 -424 -262q42 -31 128 -74.5t152 -75.5t118.5 -78t52.5 -91q0 -48 -33.5 -105t-97.5 -112.5t-146.5 -101.5
t-190.5 -74.5t-220 -28.5zM461 -879l-115 131q59 68 135 113q23 -24 50.5 -57t44.5 -54l16 -20zM719 -879l-115 131q59 68 135 113q23 -24 50.5 -57t44.5 -54l16 -20z" />
    <glyph glyph-name="uniFCFF" unicode="&#xfcff;" horiz-adv-x="2113" arabic-form="isolated" 
d="M1364 754q92 0 179.5 -16t173 -55.5t149 -98.5t102.5 -151.5t39 -207.5q0 -92 -29 -225h-647h-2h-78l-129 49l-4 -6q156 -89 156 -164q0 -32 -32.5 -77t-95.5 -92.5t-145 -88t-192 -66.5t-225 -26q-222 0 -350 117.5t-128 328.5q0 129 48 293q55 0 127 -20
q-37 -121 -37 -240q0 -155 104.5 -240t265.5 -85q158 0 304.5 55.5t244.5 161.5q-111 118 -385 264q26 83 80 158q139 -86 238 -122t233 -36h2h527q4 23 4 65q0 163 -147 261.5t-382 95.5q0 92 31 168z" />
    <glyph glyph-name="uniFD00" unicode="&#xfd00;" horiz-adv-x="2113" arabic-form="isolated" 
d="M1364 754q92 0 179.5 -16t173 -55.5t149 -98.5t102.5 -151.5t39 -207.5q0 -92 -29 -225h-647h-2h-78l-129 49l-4 -6q156 -89 156 -164q0 -32 -32.5 -77t-95.5 -92.5t-145 -88t-192 -66.5t-225 -26q-222 0 -350 117.5t-128 328.5q0 129 48 293q55 0 127 -20
q-37 -121 -37 -240q0 -155 104.5 -240t265.5 -85q158 0 304.5 55.5t244.5 161.5q-111 118 -385 264q26 83 80 158q139 -86 238 -122t233 -36h2h527q4 23 4 65q0 163 -147 261.5t-382 95.5q0 92 31 168zM342 -717q59 68 135 113q23 -24 50.5 -57t44.5 -53l16 -21l-131 -113z
M600 -717q59 68 135 113q23 -24 50.5 -57t44.5 -53l16 -21l-131 -113z" />
    <glyph glyph-name="uniFD01" unicode="&#xfd01;" horiz-adv-x="2113" arabic-form="isolated" 
d="M1364 754q92 0 179.5 -16t173 -55.5t149 -98.5t102.5 -151.5t39 -207.5q0 -92 -29 -225h-647h-2h-78l-129 49l-4 -6q156 -89 156 -164q0 -32 -32.5 -77t-95.5 -92.5t-145 -88t-192 -66.5t-225 -26q-222 0 -350 117.5t-128 328.5q0 129 48 293q55 0 127 -20
q-37 -121 -37 -240q0 -155 104.5 -240t265.5 -85q158 0 304.5 55.5t244.5 161.5q-111 118 -385 264q26 83 80 158q139 -86 238 -122t233 -36h2h527q4 23 4 65q0 163 -147 261.5t-382 95.5q0 92 31 168zM1473 -336q59 68 135 113q23 -24 50.5 -57t43.5 -54l16 -20l-131 -113z
" />
    <glyph glyph-name="uniFD02" unicode="&#xfd02;" horiz-adv-x="2113" arabic-form="isolated" 
d="M1364 754q92 0 179.5 -16t173 -55.5t149 -98.5t102.5 -151.5t39 -207.5q0 -92 -29 -225h-647h-2h-78l-129 49l-4 -6q156 -89 156 -164q0 -32 -32.5 -77t-95.5 -92.5t-145 -88t-192 -66.5t-225 -26q-222 0 -350 117.5t-128 328.5q0 129 48 293q55 0 127 -20
q-37 -121 -37 -240q0 -155 104.5 -240t265.5 -85q158 0 304.5 55.5t244.5 161.5q-111 118 -385 264q26 83 80 158q139 -86 238 -122t233 -36h2h527q4 23 4 65q0 163 -147 261.5t-382 95.5q0 92 31 168zM1473 -336q59 68 135 113q23 -24 50.5 -57t43.5 -54l16 -20l-131 -113z
M342 -717q59 68 135 113q23 -24 50.5 -57t44.5 -53l16 -21l-131 -113zM600 -717q59 68 135 113q23 -24 50.5 -57t44.5 -53l16 -21l-131 -113z" />
    <glyph glyph-name="uniFD03" unicode="&#xfd03;" horiz-adv-x="2113" arabic-form="isolated" 
d="M1708 1044l-131 -112l-115 131q59 68 135 113zM1364 754q92 0 179.5 -16t173 -55.5t149 -98.5t102.5 -151.5t39 -207.5q0 -92 -29 -225h-647h-2h-78l-129 49l-4 -6q156 -89 156 -164q0 -32 -32.5 -77t-95.5 -92.5t-145 -88t-192 -66.5t-225 -26q-222 0 -350 117.5
t-128 328.5q0 129 48 293q55 0 127 -20q-37 -121 -37 -240q0 -155 104.5 -240t265.5 -85q158 0 304.5 55.5t244.5 161.5q-111 118 -385 264q26 83 80 158q139 -86 238 -122t233 -36h2h527q4 23 4 65q0 163 -147 261.5t-382 95.5q0 92 31 168z" />
    <glyph glyph-name="uniFD04" unicode="&#xfd04;" horiz-adv-x="2113" arabic-form="isolated" 
d="M1708 1044l-131 -112l-115 131q59 68 135 113zM1364 754q92 0 179.5 -16t173 -55.5t149 -98.5t102.5 -151.5t39 -207.5q0 -92 -29 -225h-647h-2h-78l-129 49l-4 -6q156 -89 156 -164q0 -32 -32.5 -77t-95.5 -92.5t-145 -88t-192 -66.5t-225 -26q-222 0 -350 117.5
t-128 328.5q0 129 48 293q55 0 127 -20q-37 -121 -37 -240q0 -155 104.5 -240t265.5 -85q158 0 304.5 55.5t244.5 161.5q-111 118 -385 264q26 83 80 158q139 -86 238 -122t233 -36h2h527q4 23 4 65q0 163 -147 261.5t-382 95.5q0 92 31 168zM342 -717q59 68 135 113
q23 -24 50.5 -57t44.5 -53l16 -21l-131 -113zM600 -717q59 68 135 113q23 -24 50.5 -57t44.5 -53l16 -21l-131 -113z" />
    <glyph glyph-name="uniFD05" unicode="&#xfd05;" horiz-adv-x="2674" arabic-form="isolated" 
d="M584 -471q-222 0 -350 117.5t-128 328.5q0 129 48 293q55 0 127 -20q-37 -121 -37 -240q0 -155 104.5 -240t265.5 -85q155 0 301 61.5t246 173.5q-31 21 -118 62t-159 76t-131 84t-59 93q0 60 44.5 131t117.5 135.5t177.5 115.5t215.5 69q66 -49 115 -113
q3 -180 47.5 -267.5t132.5 -115.5q160 289 325.5 437.5t352.5 148.5q160 0 257 -105t97 -272q0 -190 -118 -397h-738q-246 0 -355 127.5t-120 404.5q-288 -65 -424 -262q42 -31 128 -74.5t152 -75.5t118.5 -78t52.5 -91q0 -48 -33.5 -105t-97.5 -112.5t-146.5 -101.5
t-190.5 -74.5t-220 -28.5zM1663 170q35 -6 84 -6h625q49 96 49 196q0 114 -62.5 186t-177.5 75q-259 3 -518 -451z" />
    <glyph glyph-name="uniFD06" unicode="&#xfd06;" horiz-adv-x="2674" arabic-form="isolated" 
d="M584 -471q-222 0 -350 117.5t-128 328.5q0 129 48 293q55 0 127 -20q-37 -121 -37 -240q0 -155 104.5 -240t265.5 -85q155 0 301 61.5t246 173.5q-31 21 -118 62t-159 76t-131 84t-59 93q0 60 44.5 131t117.5 135.5t177.5 115.5t215.5 69q66 -49 115 -113
q3 -180 47.5 -267.5t132.5 -115.5q160 289 325.5 437.5t352.5 148.5q160 0 257 -105t97 -272q0 -190 -118 -397h-738q-246 0 -355 127.5t-120 404.5q-288 -65 -424 -262q42 -31 128 -74.5t152 -75.5t118.5 -78t52.5 -91q0 -48 -33.5 -105t-97.5 -112.5t-146.5 -101.5
t-190.5 -74.5t-220 -28.5zM1663 170q35 -6 84 -6h625q49 96 49 196q0 114 -62.5 186t-177.5 75q-259 3 -518 -451zM461 -879l-115 131q59 68 135 113q23 -24 50.5 -57t44.5 -54l16 -20zM719 -879l-115 131q59 68 135 113q23 -24 50.5 -57t44.5 -54l16 -20z" />
    <glyph glyph-name="uniFD07" unicode="&#xfd07;" horiz-adv-x="2674" arabic-form="isolated" 
d="M1911 918l-115 131q59 67 135 112l111 -131zM584 -471q-222 0 -350 117.5t-128 328.5q0 129 48 293q55 0 127 -20q-37 -121 -37 -240q0 -155 104.5 -240t265.5 -85q155 0 301 61.5t246 173.5q-31 21 -118 62t-159 76t-131 84t-59 93q0 60 44.5 131t117.5 135.5
t177.5 115.5t215.5 69q66 -49 115 -113q3 -180 47.5 -267.5t132.5 -115.5q160 289 325.5 437.5t352.5 148.5q160 0 257 -105t97 -272q0 -190 -118 -397h-738q-246 0 -355 127.5t-120 404.5q-288 -65 -424 -262q42 -31 128 -74.5t152 -75.5t118.5 -78t52.5 -91
q0 -48 -33.5 -105t-97.5 -112.5t-146.5 -101.5t-190.5 -74.5t-220 -28.5zM1663 170q35 -6 84 -6h625q49 96 49 196q0 114 -62.5 186t-177.5 75q-259 3 -518 -451z" />
    <glyph glyph-name="uniFD08" unicode="&#xfd08;" horiz-adv-x="2674" arabic-form="isolated" 
d="M1911 918l-115 131q59 67 135 112l111 -131zM584 -471q-222 0 -350 117.5t-128 328.5q0 129 48 293q55 0 127 -20q-37 -121 -37 -240q0 -155 104.5 -240t265.5 -85q155 0 301 61.5t246 173.5q-31 21 -118 62t-159 76t-131 84t-59 93q0 60 44.5 131t117.5 135.5
t177.5 115.5t215.5 69q66 -49 115 -113q3 -180 47.5 -267.5t132.5 -115.5q160 289 325.5 437.5t352.5 148.5q160 0 257 -105t97 -272q0 -190 -118 -397h-738q-246 0 -355 127.5t-120 404.5q-288 -65 -424 -262q42 -31 128 -74.5t152 -75.5t118.5 -78t52.5 -91
q0 -48 -33.5 -105t-97.5 -112.5t-146.5 -101.5t-190.5 -74.5t-220 -28.5zM1663 170q35 -6 84 -6h625q49 96 49 196q0 114 -62.5 186t-177.5 75q-259 3 -518 -451zM461 -879l-115 131q59 68 135 113q23 -24 50.5 -57t44.5 -54l16 -20zM719 -879l-115 131q59 68 135 113
q23 -24 50.5 -57t44.5 -54l16 -20z" />
    <glyph glyph-name="uniFD0C" unicode="&#xfd0c;" horiz-adv-x="2162" arabic-form="isolated" 
d="M1405 1114l-90 103q47 51 104 86l86 -101zM1270 883l-113 129q57 65 133 110l109 -129zM1526 883l-113 129q57 65 133 110l109 -129zM174 -645q-11 233 -26.5 384.5t-45.5 299.5q26 73 88 139q50 8 82 8q66 0 152 -28q-76 61 -76 127q0 102 72 196.5t186.5 152
t237.5 62.5q76 -60 121 -114q2 -104 15.5 -175t48 -128t98.5 -85.5t161 -29.5h68q30 53 30 176q0 134 -43 285q74 49 156 57q33 -138 33 -291q3 -89 -12 -162q188 -89 348 -92q24 91 24 219q0 192 -75 373q75 53 168 62q59 -209 59 -404q0 -212 -68 -416q-234 0 -503 117
q-33 -54 -72 -88h-119q-242 0 -343 131t-101 406q-126 -12 -232 -81.5t-145 -193.5q109 -96 325 -168q-26 -106 -67 -174q-102 43 -210 70.5t-183 27.5q-42 0 -62 -4q20 -156 26.5 -280.5t8.5 -335.5q-29 -18 -102 -43h-23z" />
    <glyph glyph-name="uniFD0D" unicode="&#xfd0d;" horiz-adv-x="2058" arabic-form="isolated" 
d="M1300 1114l-90 103q48 51 105 86l86 -101zM1165 883l-112 129q57 65 133 110l108 -129zM1421 883l-112 129q57 65 133 110l108 -129zM20 -471q-75 38 -126 123q433 224 501 518q-55 78 -129 127q8 61 27 119q227 116 485 172q71 -40 119 -96q13 -168 74.5 -248t197.5 -80
h82q31 55 31 176q0 134 -43 285q74 49 156 57q32 -134 32 -291q3 -89 -12 -162q188 -89 348 -92q25 94 25 219q0 189 -76 373q77 53 166 62q61 -205 61 -404q0 -215 -67 -416q-235 0 -504 117q-33 -54 -72 -88h-120q-362 0 -404 442q-193 -39 -344 -106q84 -88 84 -154
q0 -180 -134.5 -353t-357.5 -300z" />
    <glyph glyph-name="uniFD0E" unicode="&#xfd0e;" horiz-adv-x="2058" arabic-form="isolated" 
d="M20 -471q-75 38 -126 123q433 224 501 518q-55 78 -129 127q8 61 27 119q227 116 485 172q71 -40 119 -96q13 -168 74.5 -248t197.5 -80h82q31 55 31 176q0 134 -43 285q74 49 156 57q32 -134 32 -291q3 -89 -12 -162q188 -89 348 -92q25 94 25 219q0 189 -76 373
q77 53 166 62q61 -205 61 -404q0 -215 -67 -416q-235 0 -504 117q-33 -54 -72 -88h-120q-362 0 -404 442q-193 -39 -344 -106q84 -88 84 -154q0 -180 -134.5 -353t-357.5 -300z" />
    <glyph glyph-name="uniFD0F" unicode="&#xfd0f;" horiz-adv-x="2152" arabic-form="isolated" 
d="M20 -471q-75 38 -126 123q433 224 501 518q-55 78 -129 127q8 61 27 119q227 116 485 172q71 -40 119 -96q8 -122 37 -192t94 -101q317 575 672 575q161 0 258.5 -105t97.5 -272q0 -184 -121 -397h-706q-227 0 -329 98t-128 344q-193 -39 -344 -106q84 -88 84 -154
q0 -180 -134.5 -353t-357.5 -300zM1145 176q38 -12 100 -12h604q52 92 52 196q0 115 -63 188t-179 73q-137 1 -263.5 -116t-250.5 -329z" />
    <glyph glyph-name="uniFD10" unicode="&#xfd10;" horiz-adv-x="2152" arabic-form="isolated" 
d="M1389 918l-115 131q59 67 135 112l111 -131zM20 -471q-75 38 -126 123q433 224 501 518q-55 78 -129 127q8 61 27 119q227 116 485 172q71 -40 119 -96q8 -122 37 -192t94 -101q317 575 672 575q161 0 258.5 -105t97.5 -272q0 -184 -121 -397h-706q-227 0 -329 98
t-128 344q-193 -39 -344 -106q84 -88 84 -154q0 -180 -134.5 -353t-357.5 -300zM1145 176q38 -12 100 -12h604q52 92 52 196q0 115 -63 188t-179 73q-137 1 -263.5 -116t-250.5 -329z" />
    <glyph glyph-name="uniFD17" unicode="&#xfd17;" horiz-adv-x="2623" arabic-form="final" 
d="M584 -471q-222 0 -350 117.5t-128 328.5q0 129 48 293q55 0 127 -20q-37 -121 -37 -240q0 -155 104.5 -240t265.5 -85q155 0 301 61.5t246 173.5q-31 21 -118 62t-159 76t-131 84t-59 93q0 60 44.5 131t117.5 135.5t177.5 115.5t215.5 69q66 -49 115 -113
q3 -84 12.5 -145t32 -112.5t59 -83t93 -49t133.5 -17.5h80q30 53 30 176q0 137 -45 285q77 49 156 57q31 -130 35 -291q0 -82 -11 -147q160 -73 351 -82q22 91 22 215q0 180 -71 360q79 50 157 60q64 -205 64 -391q0 -76 -19 -209q61 -33 180 -33q11 0 11 -10v-142
q0 -12 -11 -12q-128 0 -208 86q-42 -53 -80 -86q-205 6 -432 102q-37 -58 -84 -102h-97q-247 0 -356.5 127.5t-120.5 404.5q-288 -65 -424 -262q42 -31 128 -74.5t152 -75.5t118.5 -78t52.5 -91q0 -48 -33.5 -105t-97.5 -112.5t-146.5 -101.5t-190.5 -74.5t-220 -28.5z" />
    <glyph glyph-name="uniFD18" unicode="&#xfd18;" horiz-adv-x="2623" arabic-form="final" 
d="M584 -471q-222 0 -350 117.5t-128 328.5q0 129 48 293q55 0 127 -20q-37 -121 -37 -240q0 -155 104.5 -240t265.5 -85q155 0 301 61.5t246 173.5q-31 21 -118 62t-159 76t-131 84t-59 93q0 60 44.5 131t117.5 135.5t177.5 115.5t215.5 69q66 -49 115 -113
q3 -84 12.5 -145t32 -112.5t59 -83t93 -49t133.5 -17.5h80q30 53 30 176q0 137 -45 285q77 49 156 57q31 -130 35 -291q0 -82 -11 -147q160 -73 351 -82q22 91 22 215q0 180 -71 360q79 50 157 60q64 -205 64 -391q0 -76 -19 -209q61 -33 180 -33q11 0 11 -10v-142
q0 -12 -11 -12q-128 0 -208 86q-42 -53 -80 -86q-205 6 -432 102q-37 -58 -84 -102h-97q-247 0 -356.5 127.5t-120.5 404.5q-288 -65 -424 -262q42 -31 128 -74.5t152 -75.5t118.5 -78t52.5 -91q0 -48 -33.5 -105t-97.5 -112.5t-146.5 -101.5t-190.5 -74.5t-220 -28.5z
M461 -879l-115 131q59 68 135 113q23 -24 50.5 -57t44.5 -54l16 -20zM719 -879l-115 131q59 68 135 113q23 -24 50.5 -57t44.5 -54l16 -20z" />
    <glyph glyph-name="uniFD19" unicode="&#xfd19;" horiz-adv-x="2623" arabic-form="final" 
d="M1829 1114l-90 103q47 51 104 86l86 -101zM1694 883l-113 129q57 65 133 110l109 -129zM1950 883l-113 129q57 65 133 110l109 -129zM584 -471q-222 0 -350 117.5t-128 328.5q0 129 48 293q55 0 127 -20q-37 -121 -37 -240q0 -155 104.5 -240t265.5 -85q155 0 301 61.5
t246 173.5q-31 21 -118 62t-159 76t-131 84t-59 93q0 60 44.5 131t117.5 135.5t177.5 115.5t215.5 69q66 -49 115 -113q3 -84 12.5 -145t32 -112.5t59 -83t93 -49t133.5 -17.5h80q30 53 30 176q0 137 -45 285q77 49 156 57q31 -130 35 -291q0 -82 -11 -147q160 -73 351 -82
q22 91 22 215q0 180 -71 360q79 50 157 60q64 -205 64 -391q0 -76 -19 -209q61 -33 180 -33q11 0 11 -10v-142q0 -12 -11 -12q-128 0 -208 86q-42 -53 -80 -86q-205 6 -432 102q-37 -58 -84 -102h-97q-247 0 -356.5 127.5t-120.5 404.5q-288 -65 -424 -262q42 -31 128 -74.5
t152 -75.5t118.5 -78t52.5 -91q0 -48 -33.5 -105t-97.5 -112.5t-146.5 -101.5t-190.5 -74.5t-220 -28.5z" />
    <glyph glyph-name="uniFD1A" unicode="&#xfd1a;" horiz-adv-x="2623" arabic-form="final" 
d="M1829 1114l-90 103q47 51 104 86l86 -101zM1694 883l-113 129q57 65 133 110l109 -129zM1950 883l-113 129q57 65 133 110l109 -129zM584 -471q-222 0 -350 117.5t-128 328.5q0 129 48 293q55 0 127 -20q-37 -121 -37 -240q0 -155 104.5 -240t265.5 -85q155 0 301 61.5
t246 173.5q-31 21 -118 62t-159 76t-131 84t-59 93q0 60 44.5 131t117.5 135.5t177.5 115.5t215.5 69q66 -49 115 -113q3 -84 12.5 -145t32 -112.5t59 -83t93 -49t133.5 -17.5h80q30 53 30 176q0 137 -45 285q77 49 156 57q31 -130 35 -291q0 -82 -11 -147q160 -73 351 -82
q22 91 22 215q0 180 -71 360q79 50 157 60q64 -205 64 -391q0 -76 -19 -209q61 -33 180 -33q11 0 11 -10v-142q0 -12 -11 -12q-128 0 -208 86q-42 -53 -80 -86q-205 6 -432 102q-37 -58 -84 -102h-97q-247 0 -356.5 127.5t-120.5 404.5q-288 -65 -424 -262q42 -31 128 -74.5
t152 -75.5t118.5 -78t52.5 -91q0 -48 -33.5 -105t-97.5 -112.5t-146.5 -101.5t-190.5 -74.5t-220 -28.5zM461 -879l-115 131q59 68 135 113q23 -24 50.5 -57t44.5 -54l16 -20zM719 -879l-115 131q59 68 135 113q23 -24 50.5 -57t44.5 -54l16 -20z" />
    <glyph glyph-name="uniFD1B" unicode="&#xfd1b;" horiz-adv-x="2189" arabic-form="final" 
d="M2189 164q11 0 11 -10v-142q0 -12 -11 -12q-69 0 -126 20.5t-83 55.5q-34 -45 -67 -76h-582h-2h-78l-129 49l-4 -6q156 -89 156 -164q0 -32 -32.5 -77t-95.5 -92.5t-145 -88t-192 -66.5t-225 -26q-222 0 -350 117.5t-128 328.5q0 129 48 293q55 0 127 -20
q-37 -121 -37 -240q0 -155 104.5 -240t265.5 -85q158 0 304.5 55.5t244.5 161.5q-111 118 -385 264q26 83 80 158q139 -86 238 -122t233 -36h2h527q4 23 4 65q0 163 -147 261.5t-382 95.5q0 92 31 168q130 1 245 -32t202.5 -94.5t138.5 -156t51 -209.5v-49q65 -49 188 -49z
" />
    <glyph glyph-name="uniFD1C" unicode="&#xfd1c;" horiz-adv-x="2189" arabic-form="final" 
d="M2189 164q11 0 11 -10v-142q0 -12 -11 -12q-69 0 -126 20.5t-83 55.5q-34 -45 -67 -76h-582h-2h-78l-129 49l-4 -6q156 -89 156 -164q0 -32 -32.5 -77t-95.5 -92.5t-145 -88t-192 -66.5t-225 -26q-222 0 -350 117.5t-128 328.5q0 129 48 293q55 0 127 -20
q-37 -121 -37 -240q0 -155 104.5 -240t265.5 -85q158 0 304.5 55.5t244.5 161.5q-111 118 -385 264q26 83 80 158q139 -86 238 -122t233 -36h2h527q4 23 4 65q0 163 -147 261.5t-382 95.5q0 92 31 168q130 1 245 -32t202.5 -94.5t138.5 -156t51 -209.5v-49q65 -49 188 -49z
M342 -717q59 68 135 113q23 -24 50.5 -57t44.5 -53l16 -21l-131 -113zM600 -717q59 68 135 113q23 -24 50.5 -57t44.5 -53l16 -21l-131 -113z" />
    <glyph glyph-name="uniFD1D" unicode="&#xfd1d;" horiz-adv-x="2189" arabic-form="final" 
d="M2189 164q11 0 11 -10v-142q0 -12 -11 -12q-69 0 -126 20.5t-83 55.5q-34 -45 -67 -76h-582h-2h-78l-129 49l-4 -6q156 -89 156 -164q0 -32 -32.5 -77t-95.5 -92.5t-145 -88t-192 -66.5t-225 -26q-222 0 -350 117.5t-128 328.5q0 129 48 293q55 0 127 -20
q-37 -121 -37 -240q0 -155 104.5 -240t265.5 -85q158 0 304.5 55.5t244.5 161.5q-111 118 -385 264q26 83 80 158q139 -86 238 -122t233 -36h2h527q4 23 4 65q0 163 -147 261.5t-382 95.5q0 92 31 168q130 1 245 -32t202.5 -94.5t138.5 -156t51 -209.5v-49q65 -49 188 -49z
M1473 -336q59 68 135 113q23 -24 50.5 -57t43.5 -54l16 -20l-131 -113z" />
    <glyph glyph-name="uniFD1E" unicode="&#xfd1e;" horiz-adv-x="2189" arabic-form="final" 
d="M2189 164q11 0 11 -10v-142q0 -12 -11 -12q-69 0 -126 20.5t-83 55.5q-34 -45 -67 -76h-582h-2h-78l-129 49l-4 -6q156 -89 156 -164q0 -32 -32.5 -77t-95.5 -92.5t-145 -88t-192 -66.5t-225 -26q-222 0 -350 117.5t-128 328.5q0 129 48 293q55 0 127 -20
q-37 -121 -37 -240q0 -155 104.5 -240t265.5 -85q158 0 304.5 55.5t244.5 161.5q-111 118 -385 264q26 83 80 158q139 -86 238 -122t233 -36h2h527q4 23 4 65q0 163 -147 261.5t-382 95.5q0 92 31 168q130 1 245 -32t202.5 -94.5t138.5 -156t51 -209.5v-49q65 -49 188 -49z
M1473 -336q59 68 135 113q23 -24 50.5 -57t43.5 -54l16 -20l-131 -113zM342 -717q59 68 135 113q23 -24 50.5 -57t44.5 -53l16 -21l-131 -113zM600 -717q59 68 135 113q23 -24 50.5 -57t44.5 -53l16 -21l-131 -113z" />
    <glyph glyph-name="uniFD1F" unicode="&#xfd1f;" horiz-adv-x="2189" arabic-form="final" 
d="M1708 1044l-131 -112l-115 131q59 68 135 113zM2189 164q11 0 11 -10v-142q0 -12 -11 -12q-69 0 -126 20.5t-83 55.5q-34 -45 -67 -76h-582h-2h-78l-129 49l-4 -6q156 -89 156 -164q0 -32 -32.5 -77t-95.5 -92.5t-145 -88t-192 -66.5t-225 -26q-222 0 -350 117.5
t-128 328.5q0 129 48 293q55 0 127 -20q-37 -121 -37 -240q0 -155 104.5 -240t265.5 -85q158 0 304.5 55.5t244.5 161.5q-111 118 -385 264q26 83 80 158q139 -86 238 -122t233 -36h2h527q4 23 4 65q0 163 -147 261.5t-382 95.5q0 92 31 168q130 1 245 -32t202.5 -94.5
t138.5 -156t51 -209.5v-49q65 -49 188 -49z" />
    <glyph glyph-name="uniFD20" unicode="&#xfd20;" horiz-adv-x="2189" arabic-form="final" 
d="M1708 1044l-131 -112l-115 131q59 68 135 113zM2189 164q11 0 11 -10v-142q0 -12 -11 -12q-69 0 -126 20.5t-83 55.5q-34 -45 -67 -76h-582h-2h-78l-129 49l-4 -6q156 -89 156 -164q0 -32 -32.5 -77t-95.5 -92.5t-145 -88t-192 -66.5t-225 -26q-222 0 -350 117.5
t-128 328.5q0 129 48 293q55 0 127 -20q-37 -121 -37 -240q0 -155 104.5 -240t265.5 -85q158 0 304.5 55.5t244.5 161.5q-111 118 -385 264q26 83 80 158q139 -86 238 -122t233 -36h2h527q4 23 4 65q0 163 -147 261.5t-382 95.5q0 92 31 168q130 1 245 -32t202.5 -94.5
t138.5 -156t51 -209.5v-49q65 -49 188 -49zM342 -717q59 68 135 113q23 -24 50.5 -57t44.5 -53l16 -21l-131 -113zM600 -717q59 68 135 113q23 -24 50.5 -57t44.5 -53l16 -21l-131 -113z" />
    <glyph glyph-name="uniFD21" unicode="&#xfd21;" horiz-adv-x="2717" arabic-form="final" 
d="M2718 164q10 0 10 -10v-142q0 -12 -10 -12q-74 0 -134 23.5t-81 62.5q-17 -35 -45 -86h-738q-246 0 -355 127.5t-120 404.5q-288 -65 -424 -262q42 -31 128 -74.5t152 -75.5t118.5 -78t52.5 -91q0 -48 -33.5 -105t-97.5 -112.5t-146.5 -101.5t-190.5 -74.5t-220 -28.5
q-222 0 -350 117.5t-128 328.5q0 129 48 293q55 0 127 -20q-37 -121 -37 -240q0 -155 104.5 -240t265.5 -85q155 0 301 61.5t246 173.5q-31 21 -118 62t-159 76t-131 84t-59 93q0 60 44.5 131t117.5 135.5t177.5 115.5t215.5 69q66 -49 115 -113q3 -180 47.5 -267.5
t132.5 -115.5q160 289 325.5 437.5t352.5 148.5q160 0 257 -105t97 -272q0 -97 -30 -196q61 -37 172 -37zM2372 164q49 96 49 196q0 114 -62.5 186t-177.5 75q-259 3 -518 -451q35 -6 84 -6h625z" />
    <glyph glyph-name="uniFD22" unicode="&#xfd22;" horiz-adv-x="2717" arabic-form="final" 
d="M2718 164q10 0 10 -10v-142q0 -12 -10 -12q-74 0 -134 23.5t-81 62.5q-17 -35 -45 -86h-738q-246 0 -355 127.5t-120 404.5q-288 -65 -424 -262q42 -31 128 -74.5t152 -75.5t118.5 -78t52.5 -91q0 -48 -33.5 -105t-97.5 -112.5t-146.5 -101.5t-190.5 -74.5t-220 -28.5
q-222 0 -350 117.5t-128 328.5q0 129 48 293q55 0 127 -20q-37 -121 -37 -240q0 -155 104.5 -240t265.5 -85q155 0 301 61.5t246 173.5q-31 21 -118 62t-159 76t-131 84t-59 93q0 60 44.5 131t117.5 135.5t177.5 115.5t215.5 69q66 -49 115 -113q3 -180 47.5 -267.5
t132.5 -115.5q160 289 325.5 437.5t352.5 148.5q160 0 257 -105t97 -272q0 -97 -30 -196q61 -37 172 -37zM2372 164q49 96 49 196q0 114 -62.5 186t-177.5 75q-259 3 -518 -451q35 -6 84 -6h625zM346 -748q59 68 135 113q23 -24 50.5 -57t44.5 -54l16 -20l-131 -113z
M604 -748q59 68 135 113q23 -24 50.5 -57t44.5 -54l16 -20l-131 -113z" />
    <glyph glyph-name="uniFD23" unicode="&#xfd23;" horiz-adv-x="2717" arabic-form="final" 
d="M2042 1030l-131 -112l-115 131q59 67 135 112zM2718 164q10 0 10 -10v-142q0 -12 -10 -12q-74 0 -134 23.5t-81 62.5q-17 -35 -45 -86h-738q-246 0 -355 127.5t-120 404.5q-288 -65 -424 -262q42 -31 128 -74.5t152 -75.5t118.5 -78t52.5 -91q0 -48 -33.5 -105
t-97.5 -112.5t-146.5 -101.5t-190.5 -74.5t-220 -28.5q-222 0 -350 117.5t-128 328.5q0 129 48 293q55 0 127 -20q-37 -121 -37 -240q0 -155 104.5 -240t265.5 -85q155 0 301 61.5t246 173.5q-31 21 -118 62t-159 76t-131 84t-59 93q0 60 44.5 131t117.5 135.5t177.5 115.5
t215.5 69q66 -49 115 -113q3 -180 47.5 -267.5t132.5 -115.5q160 289 325.5 437.5t352.5 148.5q160 0 257 -105t97 -272q0 -97 -30 -196q61 -37 172 -37zM2372 164q49 96 49 196q0 114 -62.5 186t-177.5 75q-259 3 -518 -451q35 -6 84 -6h625z" />
    <glyph glyph-name="uniFD24" unicode="&#xfd24;" horiz-adv-x="2717" arabic-form="final" 
d="M2042 1030l-131 -112l-115 131q59 67 135 112zM2718 164q10 0 10 -10v-142q0 -12 -10 -12q-74 0 -134 23.5t-81 62.5q-17 -35 -45 -86h-738q-246 0 -355 127.5t-120 404.5q-288 -65 -424 -262q42 -31 128 -74.5t152 -75.5t118.5 -78t52.5 -91q0 -48 -33.5 -105
t-97.5 -112.5t-146.5 -101.5t-190.5 -74.5t-220 -28.5q-222 0 -350 117.5t-128 328.5q0 129 48 293q55 0 127 -20q-37 -121 -37 -240q0 -155 104.5 -240t265.5 -85q155 0 301 61.5t246 173.5q-31 21 -118 62t-159 76t-131 84t-59 93q0 60 44.5 131t117.5 135.5t177.5 115.5
t215.5 69q66 -49 115 -113q3 -180 47.5 -267.5t132.5 -115.5q160 289 325.5 437.5t352.5 148.5q160 0 257 -105t97 -272q0 -97 -30 -196q61 -37 172 -37zM2372 164q49 96 49 196q0 114 -62.5 186t-177.5 75q-259 3 -518 -451q35 -6 84 -6h625zM346 -748q59 68 135 113
q23 -24 50.5 -57t44.5 -54l16 -20l-131 -113zM604 -748q59 68 135 113q23 -24 50.5 -57t44.5 -54l16 -20l-131 -113z" />
    <glyph glyph-name="uniFD28" unicode="&#xfd28;" horiz-adv-x="2203" arabic-form="final" 
d="M1409 1114l-90 103q47 51 104 86l86 -101zM1274 883l-113 129q57 65 133 110l109 -129zM1530 883l-113 129q57 65 133 110l109 -129zM174 -645q-11 233 -26.5 384.5t-45.5 299.5q26 73 88 139q50 8 82 8q66 0 152 -28q-76 61 -76 127q0 102 72 196.5t186.5 152
t237.5 62.5q76 -60 121 -114q2 -104 15.5 -175t48 -128t98.5 -85.5t161 -29.5h66q30 53 30 176q0 137 -45 285q77 49 156 57q31 -130 35 -291q3 -72 -10 -147q160 -73 350 -82q22 91 22 215q0 180 -71 360q79 50 157 60q64 -205 64 -391q0 -76 -19 -209q68 -33 181 -33
q10 0 10 -10v-142q0 -12 -10 -12q-138 0 -209 88q-25 -39 -78 -88q-207 6 -434 102q-37 -58 -84 -102h-117q-242 0 -343 131t-101 406q-126 -12 -232 -81.5t-145 -193.5q109 -96 325 -168q-26 -106 -67 -174q-102 43 -210 70.5t-183 27.5q-42 0 -62 -4q20 -156 26.5 -280.5
t8.5 -335.5q-29 -18 -102 -43h-23z" />
    <glyph glyph-name="uniFD29" unicode="&#xfd29;" horiz-adv-x="2091" arabic-form="final" 
d="M1298 1114l-90 103q48 51 105 86l86 -101zM1163 883l-112 129q57 65 133 110l108 -129zM1419 883l-112 129q57 65 133 110l108 -129zM20 -471q-75 38 -126 123q433 224 501 518q-55 78 -129 127q8 61 27 119q227 116 485 172q71 -40 119 -96q12 -168 73 -248t193 -80h80
q29 59 29 176q0 144 -43 285q73 48 155 57q31 -130 35 -291q0 -69 -10 -147q160 -73 350 -82q23 95 23 215q0 178 -72 360q78 50 158 60q63 -202 63 -391q0 -83 -18 -209q68 -33 180 -33q10 0 10 -10v-142q0 -12 -10 -12q-138 0 -211 86q-31 -45 -78 -86q-205 6 -432 102
q-38 -60 -86 -102h-117q-355 0 -397 442q-193 -39 -344 -106q84 -88 84 -154q0 -180 -134.5 -353t-357.5 -300z" />
    <glyph glyph-name="uniFD2A" unicode="&#xfd2a;" horiz-adv-x="2091" arabic-form="final" 
d="M20 -471q-75 38 -126 123q433 224 501 518q-55 78 -129 127q8 61 27 119q227 116 485 172q71 -40 119 -96q12 -168 73 -248t193 -80h80q29 59 29 176q0 144 -43 285q73 48 155 57q31 -130 35 -291q0 -69 -10 -147q160 -73 350 -82q23 95 23 215q0 178 -72 360
q78 50 158 60q63 -202 63 -391q0 -83 -18 -209q68 -33 180 -33q10 0 10 -10v-142q0 -12 -10 -12q-138 0 -211 86q-31 -45 -78 -86q-205 6 -432 102q-38 -60 -86 -102h-117q-355 0 -397 442q-193 -39 -344 -106q84 -88 84 -154q0 -180 -134.5 -353t-357.5 -300z" />
    <glyph glyph-name="uniFD2B" unicode="&#xfd2b;" horiz-adv-x="2193" arabic-form="final" 
d="M2193 164q11 0 11 -10v-142q0 -12 -11 -12q-73 0 -131.5 23t-83.5 61q-10 -24 -43 -84h-706q-227 0 -329 98t-128 344q-193 -39 -344 -106q84 -88 84 -154q0 -180 -134.5 -353t-357.5 -300q-75 38 -126 123q433 224 501 518q-55 78 -129 127q8 61 27 119q227 116 485 172
q71 -40 119 -96q8 -122 37 -192t94 -101q317 575 672 575q161 0 258.5 -105t97.5 -272q0 -96 -31 -198q59 -35 168 -35zM1849 164q52 92 52 196q0 115 -63 188t-179 73q-137 1 -263.5 -116t-250.5 -329q38 -12 100 -12h604z" />
    <glyph glyph-name="uniFD2C" unicode="&#xfd2c;" horiz-adv-x="2193" arabic-form="final" 
d="M1520 1030l-131 -112l-115 131q59 67 135 112zM2193 164q11 0 11 -10v-142q0 -12 -11 -12q-73 0 -131.5 23t-83.5 61q-10 -24 -43 -84h-706q-227 0 -329 98t-128 344q-193 -39 -344 -106q84 -88 84 -154q0 -180 -134.5 -353t-357.5 -300q-75 38 -126 123q433 224 501 518
q-55 78 -129 127q8 61 27 119q227 116 485 172q71 -40 119 -96q8 -122 37 -192t94 -101q317 575 672 575q161 0 258.5 -105t97.5 -272q0 -96 -31 -198q59 -35 168 -35zM1849 164q52 92 52 196q0 115 -63 188t-179 73q-137 1 -263.5 -116t-250.5 -329q38 -12 100 -12h604z
" />
    <glyph glyph-name="uniFD30" unicode="&#xfd30;" horiz-adv-x="1976" arabic-form="initial" 
d="M1219 1114l-91 103q48 51 105 86l86 -101zM1083 883l-112 129q57 65 133 110l108 -129zM1339 883l-112 129q57 65 133 110l108 -129zM526 -88q-128 53 -224.5 70.5t-235.5 17.5h-66q-12 0 -12 12v142q0 10 12 10h20q149 0 224 -21q-82 65 -82 131q0 101 71.5 198
t184.5 158t229 66q77 -58 123 -114q2 -83 10 -142.5t29 -114.5t56.5 -88.5t93.5 -53t139 -19.5h73q29 59 29 176q0 144 -43 285q73 48 156 57q31 -130 35 -291q0 -89 -15 -162q188 -89 348 -92q25 94 25 219q0 194 -74 373q75 53 166 62q60 -202 60 -404q0 -212 -68 -416
q-231 0 -504 117q-27 -49 -72 -88h-120q-250 0 -351.5 130.5t-99.5 406.5q-75 -7 -147.5 -39t-135.5 -96.5t-86 -149.5q107 -97 320 -164q-21 -103 -68 -176z" />
    <glyph glyph-name="uniFD31" unicode="&#xfd31;" horiz-adv-x="2316" arabic-form="initial" 
d="M715 -414q-216 33 -361.5 168t-177.5 346q-57 -100 -176 -100q-12 0 -12 12v142q0 10 12 10q71 0 111 20.5t59 65.5v24q0 54 10.5 137t30.5 146q62 0 141 -22q-43 -154 -43 -308q0 -185 102.5 -313.5t262.5 -181.5q-105 183 -105 374q0 207 107 364.5t307 211.5
q72 -46 123 -109q3 -204 75 -305t251 -104h79q29 52 29 176q0 144 -43 285q77 49 156 57q31 -130 35 -291q0 -89 -15 -162q191 -89 348 -92q27 92 27 219q0 189 -76 373q77 53 164 62q64 -204 64 -404q0 -212 -68 -416q-233 0 -506 117q-29 -53 -72 -88h-116
q-130 0 -220.5 34t-144.5 103.5t-79 163t-29 223.5q-66 -22 -117.5 -70.5t-81 -111t-44.5 -128.5t-15 -132q0 -206 100 -389q-33 -55 -92 -107z" />
    <glyph glyph-name="uniFD32" unicode="&#xfd32;" horiz-adv-x="2316" arabic-form="initial" 
d="M1561 1114l-91 103q48 51 105 86l86 -101zM1425 883l-112 129q57 65 133 110l108 -129zM1681 883l-112 129q57 65 133 110l108 -129zM715 -414q-216 33 -361.5 168t-177.5 346q-57 -100 -176 -100q-12 0 -12 12v142q0 10 12 10q71 0 111 20.5t59 65.5v24q0 54 10.5 137
t30.5 146q62 0 141 -22q-43 -154 -43 -308q0 -185 102.5 -313.5t262.5 -181.5q-105 183 -105 374q0 207 107 364.5t307 211.5q72 -46 123 -109q3 -204 75 -305t251 -104h79q29 52 29 176q0 144 -43 285q77 49 156 57q31 -130 35 -291q0 -89 -15 -162q191 -89 348 -92
q27 92 27 219q0 189 -76 373q77 53 164 62q64 -204 64 -404q0 -212 -68 -416q-233 0 -506 117q-29 -53 -72 -88h-116q-130 0 -220.5 34t-144.5 103.5t-79 163t-29 223.5q-66 -22 -117.5 -70.5t-81 -111t-44.5 -128.5t-15 -132q0 -206 100 -389q-33 -55 -92 -107z" />
    <glyph glyph-name="uniFE82" unicode="&#x622;" horiz-adv-x="466" arabic-form="final" 
d="M-29 1210q-28 25 -49 60q79 89 184 139q102 -51 173 -51q83 0 159 26q20 -62 21 -77q-104 -52 -193 -52q-80 0 -168 54q-60 -31 -127 -99zM160 0q-5 69 -18 491t-23 607q71 47 174 47v-981h172q14 0 14 -10v-142q0 -12 -14 -12h-305z" />
    <glyph glyph-name="uniFE84" unicode="&#x623;" horiz-adv-x="466" arabic-form="final" 
d="M47 1225q-19 32 -27 80q47 21 105 38q-59 55 -59 130q0 63 55 113t129 50q58 0 110 -22q-4 -33 -20 -90q-34 12 -74 12q-77 0 -121 -55q15 -54 56 -84.5t92 -30.5q55 0 104 12q0 -38 -18 -112q-202 0 -332 -41zM160 0q-5 69 -18 491t-23 607q71 47 174 47v-981h172
q14 0 14 -10v-142q0 -12 -14 -12h-305z" />
    <glyph glyph-name="uniFE86" unicode="&#x624;" horiz-adv-x="897" arabic-form="final" 
d="M260 864q-19 32 -27 80q53 24 105 39q-59 55 -59 129q0 63 55 113.5t129 50.5q56 0 110 -23q-4 -33 -20 -90q-37 13 -74 13q-76 0 -121 -56q15 -54 56 -84t92 -30q54 0 104 12q0 -39 -18 -113q-202 0 -332 -41zM266 -471q-78 41 -129 129q321 126 449 342h-111
q-160 0 -268.5 82t-108.5 207q0 90 45.5 192.5t127.5 178t171 75.5q96 0 171.5 -71.5t114 -184t38.5 -241.5q0 -41 -8 -74h139q10 0 10 -10v-142q0 -12 -10 -12h-172q-52 -131 -170 -255.5t-289 -215.5zM483 162l131 2q9 45 9 67q0 69 -25.5 148.5t-75.5 139t-108 59.5
q-68 0 -128.5 -85t-72.5 -192q34 -66 103.5 -102.5t166.5 -36.5z" />
    <glyph glyph-name="uniFE88" unicode="&#x625;" horiz-adv-x="473" arabic-form="final" 
d="M168 0q-11 424 -49 1235q76 47 182 47v-1118h172q12 0 12 -10v-142q0 -12 -12 -12h-305zM98 -522q-18 30 -26 80q54 25 104 39q-59 55 -59 129q0 63 55 113t129 50q59 0 111 -22q-3 -26 -21 -90q-35 12 -74 12q-76 0 -120 -55q15 -54 55.5 -84.5t91.5 -30.5q56 0 105 12
q0 -34 -19 -112q-202 0 -332 -41z" />
    <glyph glyph-name="uniFE8A" unicode="&#x626;" horiz-adv-x="1331" arabic-form="final" 
d="M362 424q-18 30 -26 80q54 25 104 39q-59 55 -59 129q0 63 55 113.5t129 50.5q57 0 111 -23q-3 -26 -21 -90q-35 12 -73 12q-77 0 -121 -55q15 -54 55.5 -84.5t91.5 -30.5t105 13q0 -35 -19 -113q-202 0 -332 -41zM584 -471q-222 0 -350 117.5t-128 328.5q0 129 48 293
q55 0 127 -20q-37 -121 -37 -240q0 -155 104.5 -240t265.5 -85q158 0 304.5 55.5t244.5 161.5q-111 118 -385 264q26 83 80 158q139 -86 238 -122t233 -36q14 0 14 -10v-142q0 -12 -14 -12h-78l-129 49l-4 -6q156 -89 156 -164q0 -32 -32.5 -77t-95.5 -92.5t-145 -88
t-192 -66.5t-225 -26z" />
    <glyph glyph-name="uniFE8B" unicode="&#x626;" horiz-adv-x="532" arabic-form="initial" 
d="M94 852q-18 30 -26 80q54 25 104 39q-59 55 -59 129q0 63 55 113.5t129 50.5q57 0 111 -23q-3 -26 -21 -90q-34 12 -74 12q-76 0 -120 -55q15 -54 55.5 -84.5t91.5 -30.5q50 0 104 13q0 -39 -18 -113q-202 0 -332 -41zM0 0q-12 0 -12 12v142q0 10 12 10h250q20 69 20 164
q0 153 -57 313q30 22 76 39t86 18q41 -155 41 -309q0 -198 -68 -389h-348z" />
    <glyph glyph-name="uniFE8C" unicode="&#x626;" horiz-adv-x="573" arabic-form="medial" 
d="M135 743q-18 30 -26 80q54 25 104 39q-59 55 -59 129q0 63 55 113.5t129 50.5q59 0 111 -22q-4 -28 -21 -91q-37 13 -74 13q-76 0 -121 -56q15 -54 56 -84t92 -30q55 0 104 12q0 -39 -18 -113q-202 0 -332 -41zM0 0q-12 0 -12 12v142q0 10 12 10h160q48 106 72 196.5
t40 210.5q95 3 162 -30q-39 -189 -110 -340q48 -22 104.5 -29.5t146.5 -7.5q11 0 11 -10v-142q0 -12 -11 -12q-196 0 -292 104q-33 -62 -62 -104h-221z" />
    <glyph glyph-name="uniFE8E" unicode="&#x627;" horiz-adv-x="473" arabic-form="final" 
d="M168 0q-11 424 -49 1235q76 47 182 47v-1118h172q12 0 12 -10v-142q0 -12 -12 -12h-305z" />
    <glyph glyph-name="uniFE90" unicode="&#x628;" horiz-adv-x="1693" arabic-form="final" 
d="M1696 164q10 0 10 -10v-142q0 -12 -10 -12q-197 0 -293 104q-33 -62 -62 -104h-800q-222 0 -328.5 108t-106.5 291q0 58 7.5 111t14.5 80t26 90q52 0 127 -21q-37 -129 -37 -225q0 -136 81 -203t253 -67h702q48 107 72.5 197.5t40.5 209.5q94 3 161 -30
q-39 -189 -110 -340q81 -37 252 -37zM737 -336q59 68 135 113q23 -24 50.5 -57t43.5 -54l17 -20l-131 -113z" />
    <glyph glyph-name="uniFE91" unicode="&#x628;" horiz-adv-x="532" arabic-form="initial" 
d="M0 0q-12 0 -12 12v142q0 10 12 10h250q20 69 20 164q0 153 -57 313q30 22 76 39t86 18q41 -155 41 -309q0 -198 -68 -389h-348zM168 -467l-115 131q59 68 135 113q23 -24 50.5 -57t43.5 -54l17 -20z" />
    <glyph glyph-name="uniFE92" unicode="&#x628;" horiz-adv-x="573" arabic-form="medial" 
d="M0 0q-12 0 -12 12v142q0 10 12 10h160q48 106 72 196.5t40 210.5q95 3 162 -30q-39 -189 -110 -340q48 -22 104.5 -29.5t146.5 -7.5q11 0 11 -10v-142q0 -12 -11 -12q-196 0 -292 104q-33 -62 -62 -104h-221zM262 -467l-115 131q60 68 136 113q23 -24 50.5 -57t43.5 -54
l16 -20z" />
    <glyph glyph-name="uniFE94" unicode="&#x629;" horiz-adv-x="872" arabic-form="final" 
d="M592 969l-115 133q59 68 135 115l113 -134zM340 967l-115 133q59 67 135 114l113 -133zM496 0q-176 0 -287 78.5t-111 197.5q0 112 127 235.5t316 195.5q-3 42 -9 94q74 45 179 51v-688h163q9 0 9 -10v-142q0 -12 -9 -12h-221q-24 19 -65 70q-46 -43 -92 -70zM498 164
q39 0 69 6l-14 414q-101 -36 -197.5 -107.5t-142.5 -161.5q28 -74 108 -112.5t177 -38.5z" />
    <glyph glyph-name="uniFE96" unicode="&#x62a;" horiz-adv-x="1693" arabic-form="final" 
d="M1106 756l-133 -115l-115 133q59 68 135 115zM854 754l-133 -115l-115 133q59 68 135 115zM1696 164q10 0 10 -10v-142q0 -12 -10 -12q-197 0 -293 104q-33 -62 -62 -104h-800q-222 0 -328.5 108t-106.5 291q0 58 7.5 111t14.5 80t26 90q52 0 127 -21q-37 -129 -37 -225
q0 -136 81 -203t253 -67h702q48 107 72.5 197.5t40.5 209.5q94 3 161 -30q-39 -189 -110 -340q81 -37 252 -37z" />
    <glyph glyph-name="uniFE97" unicode="&#x62a;" horiz-adv-x="641" arabic-form="initial" 
d="M436 856l-114 133q59 68 135 115l112 -133zM184 854l-114 133q59 68 135 115l112 -133zM0 0q-12 0 -12 12v142q0 10 12 10h358q23 79 23 164q0 147 -59 313q30 22 76 39t85 18q41 -155 41 -309q0 -200 -67 -389h-457z" />
    <glyph glyph-name="uniFE98" unicode="&#x62a;" horiz-adv-x="645" arabic-form="medial" 
d="M453 764l-115 133q59 68 135 115l113 -133zM201 762l-115 133q59 68 135 115l113 -133zM0 0q-12 0 -12 12v142q0 10 12 10h205q48 107 71.5 198t38.5 209q101 6 162 -30q-41 -197 -108 -340q87 -37 278 -37q8 0 8 -10v-142q0 -12 -8 -12q-223 0 -321 104
q-33 -67 -62 -104h-264z" />
    <glyph glyph-name="uniFE9A" unicode="&#x62b;" horiz-adv-x="1693" arabic-form="final" 
d="M963 958l-101 -88l-90 103q48 51 105 86zM856 750l-129 -111l-113 129q58 66 134 111zM870 768q58 66 134 111l108 -129l-129 -111zM1696 164q10 0 10 -10v-142q0 -12 -10 -12q-197 0 -293 104q-33 -62 -62 -104h-800q-222 0 -328.5 108t-106.5 291q0 58 7.5 111t14.5 80
t26 90q52 0 127 -21q-37 -129 -37 -225q0 -136 81 -203t253 -67h702q48 107 72.5 197.5t40.5 209.5q94 3 161 -30q-39 -189 -110 -340q81 -37 252 -37z" />
    <glyph glyph-name="uniFE9B" unicode="&#x62b;" horiz-adv-x="641" arabic-form="initial" 
d="M326 1085l-90 103q47 51 104 86l86 -100zM190 854l-112 129q57 66 133 111l108 -129zM446 854l-112 129q57 66 133 111l108 -129zM0 0q-12 0 -12 12v142q0 10 12 10h358q23 79 23 164q0 147 -59 313q30 22 76 39t85 18q41 -155 41 -309q0 -200 -67 -389h-457z" />
    <glyph glyph-name="uniFE9C" unicode="&#x62b;" horiz-adv-x="645" arabic-form="medial" 
d="M342 993l-90 103q47 51 104 86l86 -101zM207 762l-113 129q57 65 133 110l109 -129zM463 762l-113 129q57 65 133 110l109 -129zM0 0q-12 0 -12 12v142q0 10 12 10h205q48 107 71.5 198t38.5 209q101 6 162 -30q-41 -197 -108 -340q87 -37 278 -37q8 0 8 -10v-142
q0 -12 -8 -12q-223 0 -321 104q-33 -67 -62 -104h-264z" />
    <glyph glyph-name="uniFE9E" unicode="&#x62c;" horiz-adv-x="1128" arabic-form="final" 
d="M1128 164q11 0 11 -10v-142q0 -12 -11 -12q-73 0 -130.5 22t-82.5 60q-32 -43 -71 -82h-203q-318 0 -428 -129q15 -271 248 -442q-67 -52 -150 -74q-105 79 -171 203.5t-66 242.5q0 161 141 262t365 101h208q5 29 5 65q0 163 -147 261.5t-382 95.5q0 92 31 168
q92 0 179 -16t172.5 -55.5t149 -98.5t103 -151.5t39.5 -207.5v-10q63 -51 190 -51zM524 -336q59 66 135 111l111 -131l-131 -113z" />
    <glyph glyph-name="uniFE9F" unicode="&#x62c;" horiz-adv-x="946" arabic-form="initial" 
d="M0 0q-12 0 -12 12v142q0 10 12 10h690q4 23 4 65q0 163 -147 261.5t-381 95.5q0 92 31 168q92 0 179.5 -16t173 -55.5t149 -98.5t102.5 -151.5t39 -207.5q0 -92 -29 -225h-811zM420 -467l-115 131q59 68 135 113q23 -24 50.5 -57t43.5 -54l17 -20z" />
    <glyph glyph-name="uniFEA0" unicode="&#x62c;" horiz-adv-x="1021" arabic-form="medial" 
d="M1022 164q10 0 10 -10v-142q0 -12 -10 -12q-69 0 -126 20.5t-83 55.5q-31 -42 -68 -76h-745q-12 0 -12 12v142q0 10 12 10h690q4 23 4 65q0 163 -147 261.5t-381 95.5q0 92 31 168q130 1 245 -32t202.5 -94.5t138.5 -156t51 -209.5v-49q65 -49 188 -49zM352 -336
q59 68 135 113q23 -24 50.5 -57t44.5 -54l16 -20l-131 -113z" />
    <glyph glyph-name="uniFEA2" unicode="&#x62d;" horiz-adv-x="1077" arabic-form="final" 
d="M1077 164q10 0 10 -10v-142q0 -12 -10 -12q-71 0 -128.5 21.5t-82.5 56.5q-57 -67 -69 -78h-181q-270 0 -397 -119q21 -132 104.5 -240t217.5 -184q-66 -69 -142 -102q-134 60 -229.5 199t-95.5 276q0 143 136.5 238.5t354.5 95.5h176q7 40 7 65q0 163 -148 261.5
t-383 95.5q3 104 33 168q129 1 244 -32t202.5 -94.5t139 -156t51.5 -209.5v-47q60 -51 190 -51z" />
    <glyph glyph-name="uniFEA3" unicode="&#x62d;" horiz-adv-x="946" arabic-form="initial" 
d="M0 0q-12 0 -12 12v142q0 10 12 10h690q4 23 4 65q0 163 -147 261.5t-381 95.5q0 92 31 168q92 0 179.5 -16t173 -55.5t149 -98.5t102.5 -151.5t39 -207.5q0 -92 -29 -225h-811z" />
    <glyph glyph-name="uniFEA4" unicode="&#x62d;" horiz-adv-x="1021" arabic-form="medial" 
d="M1022 164q10 0 10 -10v-142q0 -12 -10 -12q-69 0 -126 20.5t-83 55.5q-31 -42 -68 -76h-745q-12 0 -12 12v142q0 10 12 10h690q4 23 4 65q0 163 -147 261.5t-381 95.5q0 92 31 168q130 1 245 -32t202.5 -94.5t138.5 -156t51 -209.5v-49q65 -49 188 -49z" />
    <glyph glyph-name="uniFEA6" unicode="&#x62e;" horiz-adv-x="1077" arabic-form="final" 
d="M594 1047l-131 -113l-115 131q59 68 135 113zM1077 164q10 0 10 -10v-142q0 -12 -10 -12q-71 0 -128.5 21.5t-82.5 56.5q-57 -67 -69 -78h-181q-270 0 -397 -119q21 -132 104.5 -240t217.5 -184q-66 -69 -142 -102q-134 60 -229.5 199t-95.5 276q0 143 136.5 238.5
t354.5 95.5h176q7 40 7 65q0 163 -148 261.5t-383 95.5q3 104 33 168q129 1 244 -32t202.5 -94.5t139 -156t51.5 -209.5v-47q60 -51 190 -51z" />
    <glyph glyph-name="uniFEA7" unicode="&#x62e;" horiz-adv-x="946" arabic-form="initial" 
d="M408 932l-115 131q59 68 135 113l111 -132zM0 0q-12 0 -12 12v142q0 10 12 10h690q4 23 4 65q0 163 -147 261.5t-381 95.5q0 92 31 168q92 0 179.5 -16t173 -55.5t149 -98.5t102.5 -151.5t39 -207.5q0 -92 -29 -225h-811z" />
    <glyph glyph-name="uniFEA8" unicode="&#x62e;" horiz-adv-x="1021" arabic-form="medial" 
d="M539 1044l-131 -112l-115 131q59 68 135 113zM1022 164q10 0 10 -10v-142q0 -12 -10 -12q-69 0 -126 20.5t-83 55.5q-31 -42 -68 -76h-745q-12 0 -12 12v142q0 10 12 10h690q4 23 4 65q0 163 -147 261.5t-381 95.5q0 92 31 168q130 1 245 -32t202.5 -94.5t138.5 -156
t51 -209.5v-49q65 -49 188 -49z" />
    <glyph glyph-name="uniFEAA" unicode="&#x62f;" horiz-adv-x="921" arabic-form="final" 
d="M922 164q12 0 12 -10v-142q0 -12 -12 -12h-172q-37 32 -66 80q-171 -80 -360 -80q-152 0 -271 27q-18 96 0 180q135 -41 301 -41q133 0 269 37q-88 206 -146 553q67 51 170 51q11 -167 45 -341.5t86 -301.5h144z" />
    <glyph glyph-name="uniFEAC" unicode="&#x630;" horiz-adv-x="921" arabic-form="final" 
d="M647 1104l-131 -113l-115 131q60 68 136 113zM922 164q12 0 12 -10v-142q0 -12 -12 -12h-172q-37 32 -66 80q-171 -80 -360 -80q-152 0 -271 27q-18 96 0 180q135 -41 301 -41q133 0 269 37q-88 206 -146 553q67 51 170 51q11 -167 45 -341.5t86 -301.5h144z" />
    <glyph glyph-name="uniFEAE" unicode="&#x631;" horiz-adv-x="702" arabic-form="final" 
d="M702 164q11 0 11 -10v-142q0 -12 -11 -12q-65 0 -119.5 18.5t-82.5 49.5q-37 -145 -166 -290t-314 -249q-75 38 -126 123q205 106 327 223.5t174 261.5q-39 245 -174 473q66 56 158 76q45 -98 83 -229t48 -240q62 -53 192 -53z" />
    <glyph glyph-name="uniFEB0" unicode="&#x632;" horiz-adv-x="702" arabic-form="final" 
d="M373 991l-131 -112l-115 131q59 67 135 112zM702 164q11 0 11 -10v-142q0 -12 -11 -12q-65 0 -119.5 18.5t-82.5 49.5q-37 -145 -166 -290t-314 -249q-75 38 -126 123q205 106 327 223.5t174 261.5q-39 245 -174 473q66 56 158 76q45 -98 83 -229t48 -240q62 -53 192 -53
z" />
    <glyph glyph-name="uniFEB2" unicode="&#x633;" horiz-adv-x="2150" arabic-form="final" 
d="M2152 164q11 0 11 -10v-142q0 -12 -11 -12q-73 0 -131.5 22t-81.5 60q-49 -61 -75 -82q-205 6 -432 102q-38 -60 -86 -102h-172q-97 0 -162 16q-24 -194 -105 -297q-117 -149 -356 -149q-445 0 -445 448q0 129 48 293q55 0 127 -20q-37 -129 -37 -250q0 -315 331 -315
q157 0 252 75q50 123 50 291q0 193 -64 416q69 48 160 57q42 -191 45 -385q75 -16 160 -16h125q28 57 28 176q0 144 -43 285q73 48 156 57q31 -130 35 -291q0 -71 -13 -147q162 -73 353 -82q22 91 22 215q0 178 -72 360q78 50 158 60q64 -205 64 -391q0 -87 -15 -201
q62 -41 176 -41z" />
    <glyph glyph-name="uniFEB3" unicode="&#x633;" horiz-adv-x="1507" arabic-form="initial" 
d="M1321 -29q-235 0 -504 117q-33 -54 -72 -88h-194q-136 0 -229 104q-25 -55 -62 -104h-260q-12 0 -12 12v142q0 10 12 10h199q66 137 104 344q84 -3 150 -29q-32 -133 -91 -282q70 -33 193 -33h145q31 55 31 176q0 134 -43 285q74 49 156 57q33 -138 33 -291
q3 -84 -13 -162q188 -89 348 -92q25 94 25 219q0 189 -76 373q77 53 166 62q62 -208 62 -404q0 -212 -68 -416z" />
    <glyph glyph-name="uniFEB4" unicode="&#x633;" horiz-adv-x="1550" arabic-form="medial" 
d="M0 0q-12 0 -12 12v142q0 10 12 10h199q66 137 104 344q84 -3 150 -29q-32 -133 -91 -282q70 -33 193 -33h145q31 55 31 176q0 134 -43 285q74 49 156 57q33 -138 33 -291q3 -67 -11 -147q163 -73 351 -82q24 99 24 215q0 178 -72 360q75 49 158 60q62 -199 62 -391
q0 -98 -19 -209q61 -33 180 -33q13 0 13 -10v-142q0 -12 -13 -12q-67 0 -123.5 23t-85.5 63q-33 -47 -77 -86q-205 6 -435 102q-31 -52 -84 -102h-194q-139 0 -229 104q-25 -55 -62 -104h-260z" />
    <glyph glyph-name="uniFEB6" unicode="&#x634;" horiz-adv-x="2150" arabic-form="final" 
d="M1434 1208l-101 -88l-90 103q48 51 105 86zM1327 999l-129 -110l-113 129q58 65 134 110zM1341 1018q58 65 134 110l108 -129l-129 -110zM2152 164q11 0 11 -10v-142q0 -12 -11 -12q-73 0 -131.5 22t-81.5 60q-49 -61 -75 -82q-205 6 -432 102q-38 -60 -86 -102h-172
q-97 0 -162 16q-24 -194 -105 -297q-117 -149 -356 -149q-445 0 -445 448q0 129 48 293q55 0 127 -20q-37 -129 -37 -250q0 -315 331 -315q157 0 252 75q50 123 50 291q0 193 -64 416q69 48 160 57q42 -191 45 -385q75 -16 160 -16h125q28 57 28 176q0 144 -43 285
q73 48 156 57q31 -130 35 -291q0 -71 -13 -147q162 -73 353 -82q22 91 22 215q0 178 -72 360q78 50 158 60q64 -205 64 -391q0 -87 -15 -201q62 -41 176 -41z" />
    <glyph glyph-name="uniFEB7" unicode="&#x634;" horiz-adv-x="1507" arabic-form="initial" 
d="M750 1114l-91 103q48 51 105 86l86 -101zM614 883l-112 129q57 65 133 110l108 -129zM870 883l-112 129q57 65 133 110l108 -129zM1321 -29q-235 0 -504 117q-33 -54 -72 -88h-194q-136 0 -229 104q-25 -55 -62 -104h-260q-12 0 -12 12v142q0 10 12 10h199
q66 137 104 344q84 -3 150 -29q-32 -133 -91 -282q70 -33 193 -33h145q31 55 31 176q0 134 -43 285q74 49 156 57q33 -138 33 -291q3 -84 -13 -162q188 -89 348 -92q25 94 25 219q0 189 -76 373q77 53 166 62q62 -208 62 -404q0 -212 -68 -416z" />
    <glyph glyph-name="uniFEB8" unicode="&#x634;" horiz-adv-x="1550" arabic-form="medial" 
d="M756 1114l-90 103q47 51 104 86l86 -101zM621 883l-113 129q57 65 133 110l109 -129zM877 883l-113 129q57 65 133 110l109 -129zM0 0q-12 0 -12 12v142q0 10 12 10h199q66 137 104 344q84 -3 150 -29q-32 -133 -91 -282q70 -33 193 -33h145q31 55 31 176q0 134 -43 285
q74 49 156 57q33 -138 33 -291q3 -67 -11 -147q163 -73 351 -82q24 99 24 215q0 178 -72 360q75 49 158 60q62 -199 62 -391q0 -98 -19 -209q61 -33 180 -33q13 0 13 -10v-142q0 -12 -13 -12q-67 0 -123.5 23t-85.5 63q-33 -47 -77 -86q-205 6 -435 102q-31 -52 -84 -102
h-194q-139 0 -229 104q-25 -55 -62 -104h-260z" />
    <glyph glyph-name="uniFEBA" unicode="&#x635;" horiz-adv-x="2160" arabic-form="final" 
d="M2161 164q10 0 10 -10v-142q0 -12 -10 -12q-79 0 -141.5 26t-80.5 70q-12 -28 -49 -96h-880q-26 -180 -103 -281q-117 -149 -356 -149q-445 0 -445 448q0 129 48 293q55 0 127 -20q-37 -129 -37 -250q0 -315 331 -315q157 0 252 75q50 123 50 291q0 193 -64 416
q69 48 160 57q32 -158 41 -309q149 254 314.5 386t326.5 132t258.5 -105t97.5 -272q0 -92 -29 -190q58 -43 179 -43zM1804 164q51 90 51 196q0 115 -62.5 188t-176.5 73q-140 0 -268 -119t-254 -338h710z" />
    <glyph glyph-name="uniFEBB" unicode="&#x635;" horiz-adv-x="1443" arabic-form="initial" 
d="M989 774q161 0 259 -105t98 -272q0 -184 -121 -397h-1225q-12 0 -12 12v142q0 10 12 10h205q-18 147 -76 317q28 20 71.5 38t78.5 22q44 -156 49 -287l-19 -64l2 -2q155 286 330.5 436t347.5 150zM1139 164q51 90 51 196q0 115 -62.5 188t-177.5 73q-140 0 -268 -119
t-254 -338h711z" />
    <glyph glyph-name="uniFEBC" unicode="&#x635;" horiz-adv-x="1495" arabic-form="medial" 
d="M1495 164q10 0 10 -10v-142q0 -12 -10 -12q-79 0 -141 26t-80 70q-12 -28 -49 -96h-1225q-12 0 -12 12v142q0 10 12 10h205q-18 147 -76 317q28 20 71.5 38t78.5 22q44 -156 49 -287l-19 -64l2 -2q155 286 330.5 436t347.5 150q161 0 259 -105t98 -272q0 -92 -29 -190
q58 -43 178 -43zM1139 164q51 90 51 196q0 115 -62.5 188t-177.5 73q-140 0 -268 -119t-254 -338h711z" />
    <glyph glyph-name="uniFEBE" unicode="&#x636;" horiz-adv-x="2160" arabic-form="final" 
d="M1475 1030l-132 -112l-114 131q59 67 135 112zM2161 164q10 0 10 -10v-142q0 -12 -10 -12q-79 0 -141.5 26t-80.5 70q-12 -28 -49 -96h-880q-26 -180 -103 -281q-117 -149 -356 -149q-445 0 -445 448q0 129 48 293q55 0 127 -20q-37 -129 -37 -250q0 -315 331 -315
q157 0 252 75q50 123 50 291q0 193 -64 416q69 48 160 57q32 -158 41 -309q149 254 314.5 386t326.5 132t258.5 -105t97.5 -272q0 -92 -29 -190q58 -43 179 -43zM1804 164q51 90 51 196q0 115 -62.5 188t-176.5 73q-140 0 -268 -119t-254 -338h710z" />
    <glyph glyph-name="uniFEBF" unicode="&#x636;" horiz-adv-x="1443" arabic-form="initial" 
d="M809 1030l-131 -112l-115 131q59 67 135 112zM989 774q161 0 259 -105t98 -272q0 -184 -121 -397h-1225q-12 0 -12 12v142q0 10 12 10h205q-18 147 -76 317q28 20 71.5 38t78.5 22q44 -156 49 -287l-19 -64l2 -2q155 286 330.5 436t347.5 150zM1139 164q51 90 51 196
q0 115 -62.5 188t-177.5 73q-140 0 -268 -119t-254 -338h711z" />
    <glyph glyph-name="uniFEC0" unicode="&#x636;" horiz-adv-x="1495" arabic-form="medial" 
d="M809 1030l-131 -112l-115 131q59 67 135 112zM1495 164q10 0 10 -10v-142q0 -12 -10 -12q-79 0 -141 26t-80 70q-12 -28 -49 -96h-1225q-12 0 -12 12v142q0 10 12 10h205q-18 147 -76 317q28 20 71.5 38t78.5 22q44 -156 49 -287l-19 -64l2 -2q155 286 330.5 436
t347.5 150q161 0 259 -105t98 -272q0 -92 -29 -190q58 -43 178 -43zM1139 164q51 90 51 196q0 115 -62.5 188t-177.5 73q-140 0 -268 -119t-254 -338h711z" />
    <glyph glyph-name="uniFEC2" unicode="&#x637;" horiz-adv-x="1583" arabic-form="final" 
d="M1583 164q10 0 10 -10v-142q0 -12 -10 -12q-79 0 -141 26t-80 70q-16 -36 -49 -96h-551q-251 0 -418.5 10t-300.5 41q6 101 47 182q127 -45 289 -55q-40 931 -49 1057q79 47 182 47l-2 -879l-18 -84l4 -2q140 234 282.5 345.5t296.5 111.5q163 0 260 -104.5t97 -272.5
q0 -89 -29 -190q61 -43 180 -43zM1227 164q49 87 49 196q0 115 -62.5 188t-177.5 73q-138 0 -265.5 -118t-252.5 -335q132 -4 207 -4h502z" />
    <glyph glyph-name="uniFEC3" unicode="&#x637;" horiz-adv-x="1402" arabic-form="initial" 
d="M950 774q161 0 259 -105t98 -272q0 -184 -121 -397h-1186q-12 0 -12 12v142q0 10 12 10h205q-4 92 -11.5 282t-12.5 303t-12 253.5t-13 232.5q79 47 182 47l-2 -932l-17 -78q147 246 309 374t322 128zM1100 164q51 90 51 196q0 115 -62.5 188t-177.5 73q-140 0 -268 -119
t-254 -338h711z" />
    <glyph glyph-name="uniFEC4" unicode="&#x637;" horiz-adv-x="1456" arabic-form="medial" 
d="M1456 164q10 0 10 -10v-142q0 -12 -10 -12q-79 0 -141 26t-80 70q-12 -28 -49 -96h-1186q-12 0 -12 12v142q0 10 12 10h205q-4 92 -11.5 282t-12.5 303t-12 253.5t-13 232.5q79 47 182 47l-2 -932l-17 -78q147 246 309 374t322 128q161 0 259 -105t98 -272
q0 -92 -29 -190q58 -43 178 -43zM1100 164q51 90 51 196q0 115 -62.5 188t-177.5 73q-140 0 -268 -119t-254 -338h711z" />
    <glyph glyph-name="uniFEC6" unicode="&#x638;" horiz-adv-x="1583" arabic-form="final" 
d="M1583 164q10 0 10 -10v-142q0 -12 -10 -12q-79 0 -141 26t-80 70q-16 -36 -49 -96h-551q-251 0 -418.5 10t-300.5 41q6 101 47 182q127 -45 289 -55q-40 931 -49 1057q79 47 182 47l-2 -879l-18 -84l4 -2q140 234 282.5 345.5t296.5 111.5q163 0 260 -104.5t97 -272.5
q0 -89 -29 -190q61 -43 180 -43zM1075 1049l-131 -113l-115 131q60 68 136 113zM1227 164q49 87 49 196q0 115 -62.5 188t-177.5 73q-138 0 -265.5 -118t-252.5 -335q132 -4 207 -4h502z" />
    <glyph glyph-name="uniFEC7" unicode="&#x638;" horiz-adv-x="1402" arabic-form="initial" 
d="M950 774q161 0 259 -105t98 -272q0 -184 -121 -397h-1186q-12 0 -12 12v142q0 10 12 10h205q-4 92 -11.5 282t-12.5 303t-12 253.5t-13 232.5q79 47 182 47l-2 -932l-17 -78q147 246 309 374t322 128zM899 1049l-131 -113l-115 131q59 68 135 113zM1100 164q51 90 51 196
q0 115 -62.5 188t-177.5 73q-140 0 -268 -119t-254 -338h711z" />
    <glyph glyph-name="uniFEC8" unicode="&#x638;" horiz-adv-x="1456" arabic-form="medial" 
d="M1456 164q10 0 10 -10v-142q0 -12 -10 -12q-79 0 -141 26t-80 70q-12 -28 -49 -96h-1186q-12 0 -12 12v142q0 10 12 10h205q-4 92 -11.5 282t-12.5 303t-12 253.5t-13 232.5q79 47 182 47l-2 -932l-17 -78q147 246 309 374t322 128q161 0 259 -105t98 -272
q0 -92 -29 -190q58 -43 178 -43zM899 1049l-131 -113l-115 131q59 68 135 113zM1100 164q51 90 51 196q0 115 -62.5 188t-177.5 73q-140 0 -268 -119t-254 -338h711z" />
    <glyph glyph-name="uniFECA" unicode="&#x639;" horiz-adv-x="970" arabic-form="final" 
d="M440 -645q-131 56 -229 183t-98 247q0 115 69.5 206t192.5 179q-84 72 -158.5 171.5t-124.5 205.5q6 77 37 153q173 95 360 95q104 0 217.5 -33t196.5 -90q-45 -154 -109 -257t-171 -200q105 -51 260 -51h90q10 0 10 -10v-144q0 -10 -10 -10h-90q-123 0 -209.5 19
t-175.5 71q-99 -75 -152 -127.5t-84 -118.5q20 -117 107 -219t223 -170q-70 -67 -152 -100zM498 266q94 76 147.5 149.5t89.5 174.5q-110 55 -258 55q-129 0 -260 -55q47 -98 120 -182t161 -142z" />
    <glyph glyph-name="uniFECB" unicode="&#x639;" horiz-adv-x="919" arabic-form="initial" 
d="M401 168q249 6 424 39q-6 -97 -32 -176q-78 -18 -199.5 -24.5t-378.5 -6.5h-215q-12 0 -12 12v142q0 10 12 10h188q-102 113 -102 242q0 101 56 182t145 123.5t190 42.5q145 0 277 -72q-14 -59 -49 -123q-121 43 -205 43q-90 0 -166.5 -40t-116.5 -113q23 -180 184 -281z
" />
    <glyph glyph-name="uniFECC" unicode="&#x639;" horiz-adv-x="991" arabic-form="medial" 
d="M0 0q-10 0 -10 10v144q0 10 10 10h57q196 0 281 49q-157 138 -244 334q5 66 37 153q176 95 363 95q104 0 217 -33t196 -90q-46 -155 -110.5 -258t-171.5 -199q53 -29 111 -40t149 -11h106q13 0 13 -10v-144q0 -10 -13 -10h-106q-129 0 -218.5 20t-179.5 74
q-145 -94 -389 -94h-98zM494 266q94 71 149 147.5t90 176.5q-113 55 -254 55q-130 0 -258 -55q104 -209 273 -324z" />
    <glyph glyph-name="uniFECE" unicode="&#x63a;" horiz-adv-x="970" arabic-form="final" 
d="M461 997l-115 131q59 68 135 113l111 -131zM440 -645q-131 56 -229 183t-98 247q0 115 69.5 206t192.5 179q-84 72 -158.5 171.5t-124.5 205.5q6 77 37 153q173 95 360 95q104 0 217.5 -33t196.5 -90q-45 -154 -109 -257t-171 -200q105 -51 260 -51h90q10 0 10 -10v-144
q0 -10 -10 -10h-90q-123 0 -209.5 19t-175.5 71q-99 -75 -152 -127.5t-84 -118.5q20 -117 107 -219t223 -170q-70 -67 -152 -100zM498 266q94 76 147.5 149.5t89.5 174.5q-110 55 -258 55q-129 0 -260 -55q47 -98 120 -182t161 -142z" />
    <glyph glyph-name="uniFECF" unicode="&#x63a;" horiz-adv-x="919" arabic-form="initial" 
d="M545 1063l-131 -113l-115 131q59 68 135 113zM401 168q249 6 424 39q-6 -97 -32 -176q-78 -18 -199.5 -24.5t-378.5 -6.5h-215q-12 0 -12 12v142q0 10 12 10h188q-102 113 -102 242q0 101 56 182t145 123.5t190 42.5q145 0 277 -72q-14 -59 -49 -123q-121 43 -205 43
q-90 0 -166.5 -40t-116.5 -113q23 -180 184 -281z" />
    <glyph glyph-name="uniFED0" unicode="&#x63a;" horiz-adv-x="991" arabic-form="medial" 
d="M471 995l-115 131q60 68 136 113l110 -131zM0 0q-10 0 -10 10v144q0 10 10 10h57q196 0 281 49q-157 138 -244 334q5 66 37 153q176 95 363 95q104 0 217 -33t196 -90q-46 -155 -110.5 -258t-171.5 -199q53 -29 111 -40t149 -11h106q13 0 13 -10v-144q0 -10 -13 -10h-106
q-129 0 -218.5 20t-179.5 74q-145 -94 -389 -94h-98zM494 266q94 71 149 147.5t90 176.5q-113 55 -254 55q-130 0 -258 -55q104 -209 273 -324z" />
    <glyph glyph-name="uniFED2" unicode="&#x641;" horiz-adv-x="1777" arabic-form="final" 
d="M1456 1085l-131 -112l-115 131q60 68 136 113q23 -25 50.5 -58t43.5 -53zM1778 164q12 0 12 -10v-144q0 -10 -12 -10h-138q-160 0 -272 53q-92 -34 -176 -43.5t-279 -9.5h-2h-370q-222 0 -328.5 108t-106.5 291q0 58 7.5 111t14.5 80t26 90q52 0 127 -21
q-37 -129 -37 -225q0 -136 81 -203t253 -67h294q249 0 304 10q-77 39 -132 102t-55 123q-1 87 43 177.5t124.5 153.5t172.5 63q132 0 228 -97t96 -237q2 -153 -144 -285q58 -10 115 -10h154zM1354 211q60 32 102.5 91t42.5 128q0 88 -54.5 148.5t-133.5 60.5
q-68 0 -128.5 -71t-80.5 -177q89 -118 252 -180z" />
    <glyph glyph-name="uniFED3" unicode="&#x641;" horiz-adv-x="878" arabic-form="initial" 
d="M428 973l-115 131q60 68 136 113q23 -25 50.5 -58t43.5 -53l16 -21zM0 0q-10 0 -10 10v144q0 10 10 10h338q-97 38 -161 100t-64 123t28 130.5t74 129.5t113.5 99.5t138.5 39.5q127 0 216 -108.5t89 -271.5q0 -198 -121 -406h-651zM569 176q49 101 49 221
q0 99 -49.5 167.5t-122.5 68.5q-70 0 -134.5 -71.5t-84.5 -170.5q106 -149 342 -215z" />
    <glyph glyph-name="uniFED4" unicode="&#x641;" horiz-adv-x="905" arabic-form="medial" 
d="M453 973l-115 131q59 68 135 113l111 -132zM0 0q-10 0 -10 10v144q0 10 10 10q248 0 303 10q-76 39 -131 102t-55 123q-1 87 43 177.5t124.5 153.5t172.5 63q132 0 227.5 -97t95.5 -237q2 -154 -143 -285q58 -10 115 -10h153q13 0 13 -10v-144q0 -10 -13 -10h-137
q-160 0 -272 53q-95 -35 -184 -44t-312 -9zM481 211q60 32 103 91t43 128q0 88 -55 148.5t-134 60.5q-68 0 -128.5 -71t-80.5 -177q89 -118 252 -180z" />
    <glyph glyph-name="uniFED6" unicode="&#x642;" horiz-adv-x="1345" arabic-form="final" 
d="M1004 920l-115 133q59 67 135 114l113 -133zM752 918l-115 133q59 67 135 114l113 -133zM106 18q0 127 50 293q58 0 123 -20q-35 -125 -35 -242q-1 -85 30.5 -148.5t89.5 -101t130 -55.5t159 -18q225 0 353 94q37 68 51 180h-139q-160 0 -271.5 82.5t-111.5 206.5
q0 66 28 144t74 145t111.5 112t132.5 45q96 0 171 -74t113.5 -189t38.5 -247l-2 -61h144q10 0 10 -10v-142q0 -12 -10 -12h-156q-25 -149 -105 -256q-63 -82 -182 -128t-282 -46q-241 0 -378 115.5t-137 332.5zM920 162l139 2q2 28 2 53q0 82 -27 164.5t-76.5 139.5
t-107.5 57q-68 0 -127.5 -84.5t-73.5 -192.5q36 -66 106 -102.5t165 -36.5z" />
    <glyph glyph-name="uniFED7" unicode="&#x642;" horiz-adv-x="878" arabic-form="initial" 
d="M555 965l-115 133q59 67 135 114l113 -133zM303 963l-115 133q60 67 136 114l112 -133zM0 0q-10 0 -10 10v144q0 10 10 10h338q-97 38 -161 100t-64 123t28 130.5t74 129.5t113.5 99.5t138.5 39.5q127 0 216 -108.5t89 -271.5q0 -198 -121 -406h-651zM569 176
q49 101 49 221q0 99 -49.5 167.5t-122.5 68.5q-70 0 -134.5 -71.5t-84.5 -170.5q106 -149 342 -215z" />
    <glyph glyph-name="uniFED8" unicode="&#x642;" horiz-adv-x="905" arabic-form="medial" 
d="M580 965l-115 133q59 67 135 114l113 -133zM328 963l-115 133q59 67 135 114l113 -133zM0 0q-10 0 -10 10v144q0 10 10 10q248 0 303 10q-76 39 -131 102t-55 123q-1 87 43 177.5t124.5 153.5t172.5 63q132 0 227.5 -97t95.5 -237q2 -154 -143 -285q58 -10 115 -10h153
q13 0 13 -10v-144q0 -10 -13 -10h-137q-160 0 -272 53q-95 -35 -184 -44t-312 -9zM481 211q60 32 103 91t43 128q0 88 -55 148.5t-134 60.5q-68 0 -128.5 -71t-80.5 -177q89 -118 252 -180z" />
    <glyph glyph-name="uniFEDA" unicode="&#x643;" horiz-adv-x="1581" arabic-form="final" 
d="M696 0q-140 0 -245 20t-170 53.5t-105 85.5t-55 109t-15 131q0 58 7.5 111t14.5 80t26 90q52 0 127 -21q-37 -129 -37 -225q0 -57 12.5 -97.5t45 -75t88 -55t140.5 -31.5t203 -11q313 0 531 47l-43 1026q76 47 180 47l-2 -1120h184q10 0 10 -10v-142q0 -12 -10 -12h-237
q-34 34 -54 70q-253 -70 -596 -70zM776 801q97 -12 154 -72.5t57 -155.5q0 -56 -10 -104h-168q-163 0 -270 59q10 72 47 109q100 -47 215 -47h80q-22 118 -195 115q-25 25 -49 81q76 120 235 242q60 -33 93 -90q-71 -53 -189 -137z" />
    <glyph glyph-name="uniFEDB" unicode="&#x643;" horiz-adv-x="1062" arabic-form="initial" 
d="M389 727q125 0 226.5 -31.5t178.5 -95t119.5 -168t42.5 -242.5q0 -91 -24 -190h-932q-12 0 -12 12v142q0 10 12 10h813v24q0 205 -120.5 297.5t-364.5 92.5q-84 0 -170 -15q-52 39 -76 113q107 155 284.5 338.5t346.5 316.5q89 -12 153 -92q-198 -139 -335 -260.5
t-271 -265.5q55 14 129 14z" />
    <glyph glyph-name="uniFEDC" unicode="&#x643;" horiz-adv-x="1155" arabic-form="medial" 
d="M1155 164q10 0 10 -10v-142q0 -12 -10 -12q-69 0 -122.5 25t-84.5 65q-35 -50 -80 -90h-868q-12 0 -12 12v142q0 10 12 10h821v24q0 206 -126.5 298t-358.5 92q-82 0 -170 -15q-52 39 -76 113q107 155 285 339t348 316q87 -12 151 -92q-198 -139 -335 -260.5t-271 -265.5
q55 14 129 14q124 0 225.5 -31t178 -93t119 -163t43.5 -235q61 -41 192 -41z" />
    <glyph glyph-name="uniFEDE" unicode="&#x644;" horiz-adv-x="1226" arabic-form="final" 
d="M1227 164q10 0 10 -10v-142q0 -12 -10 -12q-133 0 -195 59q-19 -229 -92 -329q-55 -76 -155.5 -118t-223.5 -42q-225 0 -340 113t-115 335q0 129 48 293q55 0 127 -20q-37 -129 -37 -250q0 -315 331 -315q163 0 275 77q43 101 43 347q0 369 -39 1085q78 47 186 47
l-2 -1034v-35q65 -49 189 -49z" />
    <glyph glyph-name="uniFEDF" unicode="&#x644;" horiz-adv-x="468" arabic-form="initial" 
d="M0 0q-12 0 -12 12v142q0 10 12 10h188q-14 521 -38 1071q76 47 180 47l-2 -1282h-328z" />
    <glyph glyph-name="uniFEE0" unicode="&#x644;" horiz-adv-x="520" arabic-form="medial" 
d="M0 0q-12 0 -12 12v140q0 12 12 12q121 0 197 43q-10 351 -39 1028q79 47 182 47l-2 -1118h182q12 0 12 -10v-142q0 -12 -12 -12h-231q-47 42 -78 86q-82 -86 -211 -86z" />
    <glyph glyph-name="uniFEE2" unicode="&#x645;" horiz-adv-x="1198" arabic-form="final" 
d="M1200 164q8 0 8 -10v-142q0 -12 -8 -12q-120 0 -203 61q-18 -58 -36 -96q-401 96 -621 96q-62 0 -80 -4q40 -403 35 -659q-44 -26 -96 -41h-29q-22 458 -68 715q24 66 78 131q36 10 127 10h29q11 129 52 228t105.5 161.5t141.5 99.5t170 52q65 -26 123 -84q0 -98 6 -169
t23 -138t46.5 -108.5t79 -66t117.5 -24.5zM451 207q239 -18 491 -72q-140 119 -143 473q-133 -17 -229.5 -115t-118.5 -286z" />
    <glyph glyph-name="uniFEE3" unicode="&#x645;" horiz-adv-x="974" arabic-form="initial" 
d="M715 -20q-234 5 -436 94q-2 5 -9 57q-104 -131 -270 -131q-12 0 -12 12v142q0 10 12 10q55 0 97 15t70.5 46.5t48.5 70.5t31.5 96.5t17.5 114.5t9 134q47 73 97 111q95 0 182.5 -27.5t158.5 -79.5t113.5 -137t42.5 -191q0 -107 -32 -213q-50 -70 -121 -124zM690 143
q25 60 25 152q0 129 -86.5 206.5t-227.5 86.5q-16 -245 -82 -363q155 -82 371 -82z" />
    <glyph glyph-name="uniFEE4" unicode="&#x645;" horiz-adv-x="985" arabic-form="medial" 
d="M754 -31q-371 18 -541 80q-3 5 -13 18.5t-14 18.5q-26 -33 -64 -59.5t-79 -26.5h-43q-12 0 -12 12v142q0 10 12 10q77 0 129 37q10 137 50 239.5t105.5 165.5t141.5 97.5t172 50.5q65 -26 123 -84q0 -98 5.5 -169t22.5 -138t46 -108.5t76.5 -66t113.5 -24.5q10 0 10 -10
v-142q0 -12 -10 -12q-111 0 -194 61q-10 -33 -37 -92zM735 135q-77 64 -109 181.5t-34 291.5q-134 -17 -229.5 -114t-108.5 -281q108 -38 219 -55.5t262 -22.5z" />
    <glyph glyph-name="uniFEE6" unicode="&#x646;" horiz-adv-x="1206" arabic-form="final" 
d="M641 664l-131 -113l-115 131q59 68 135 113zM1206 164q11 0 11 -10v-142q0 -12 -11 -12q-127 0 -190 57q-8 -100 -36 -190t-73 -148q-117 -149 -356 -149q-445 0 -445 448q0 129 48 293q55 0 127 -20q-37 -129 -37 -250q0 -315 331 -315q157 0 252 75q50 123 50 291
q0 193 -64 416q69 48 160 57q37 -163 43 -352q65 -49 190 -49z" />
    <glyph glyph-name="uniFEE7" unicode="&#x646;" horiz-adv-x="532" arabic-form="initial" 
d="M248 864l-115 131q59 68 135 113l111 -131zM0 0q-12 0 -12 12v142q0 10 12 10h250q20 69 20 164q0 153 -57 313q30 22 76 39t86 18q41 -155 41 -309q0 -198 -68 -389h-348z" />
    <glyph glyph-name="uniFEE8" unicode="&#x646;" horiz-adv-x="573" arabic-form="medial" 
d="M289 756l-115 131q59 67 135 112l111 -131zM0 0q-12 0 -12 12v142q0 10 12 10h160q48 106 72 196.5t40 210.5q95 3 162 -30q-39 -189 -110 -340q48 -22 104.5 -29.5t146.5 -7.5q11 0 11 -10v-142q0 -12 -11 -12q-196 0 -292 104q-33 -62 -62 -104h-221z" />
    <glyph glyph-name="uniFEE9" unicode="&#x647;" horiz-adv-x="1249" arabic-form="isolated" 
d="M463 969q330 -41 500 -206.5t170 -443.5q0 -153 -64 -309q-46 -46 -119 -86q-264 14 -444 121q-102 -45 -230 -45q-108 0 -223 23q-16 80 0 180q138 -43 238 -43q45 0 63 2q-100 100 -100 211q0 101 73.5 183.5t188.5 82.5q100 0 178 -74t78 -180q0 -148 -115 -248
q128 -41 283 -55q43 118 43 229q0 221 -147.5 349.5t-423.5 150.5q4 83 51 158zM508 508q-54 0 -94.5 -42.5t-51.5 -107.5q20 -53 55 -90t101 -73q59 27 92 69t33 94q0 65 -37.5 107.5t-97.5 42.5z" />
    <glyph glyph-name="uniFEEA" unicode="&#x647;" horiz-adv-x="872" arabic-form="final" 
d="M496 0q-176 0 -287 78.5t-111 197.5q0 112 127 235.5t316 195.5q-3 42 -9 94q74 45 179 51v-688h163q9 0 9 -10v-142q0 -12 -9 -12h-221q-24 19 -65 70q-46 -43 -92 -70zM498 164q39 0 69 6l-14 414q-101 -36 -197.5 -107.5t-142.5 -161.5q28 -74 108 -112.5t177 -38.5z
" />
    <glyph glyph-name="uniFEEB" unicode="&#x647;" horiz-adv-x="1089" arabic-form="initial" 
d="M301 969q330 -41 500 -206.5t170 -443.5q0 -158 -62 -309q-44 -44 -121 -86q-288 16 -450 121q-113 -45 -244 -45h-94q-10 0 -10 10v144q0 10 10 10h72q83 0 118 2q-98 101 -98 207q0 101 74 183.5t190 82.5q100 0 177 -74t77 -180q0 -145 -118 -248q127 -41 288 -55
q41 112 41 229q0 221 -146.5 349.5t-422.5 150.5q4 86 49 158zM348 508q-54 0 -95 -42.5t-50 -107.5q19 -54 54 -91t101 -72q59 26 92 69.5t33 93.5q0 65 -38.5 107.5t-96.5 42.5z" />
    <glyph glyph-name="uniFEEC" unicode="&#x647;" horiz-adv-x="903" arabic-form="medial" 
d="M-12 12v142q0 10 12 10q51 0 133 4v20q12 171 109.5 366.5t265.5 373.5q60 -5 139 -47q103 -220 103 -432q0 -80 -23.5 -143.5t-58.5 -100.5q78 -41 237 -41q10 0 10 -10v-142q0 -12 -10 -12h-35q-76 0 -108 8l-92 51l-4 -6q44 -44 84.5 -111.5t64.5 -134.5
q-21 -83 -65 -143q-87 -43 -207 -43q-170 0 -278.5 104.5t-135.5 278.5q-90 -4 -129 -4q-12 0 -12 12zM262 172q181 17 316 70q34 58 34 161q0 175 -90 363q-240 -271 -260 -559q-3 -20 0 -35zM553 -227q75 0 133 28q-82 195 -192 277q-104 -40 -234 -55q25 -116 101.5 -183
t191.5 -67z" />
    <glyph glyph-name="uniFEEE" unicode="&#x648;" horiz-adv-x="897" arabic-form="final" 
d="M266 -471q-78 41 -129 129q321 126 449 342h-111q-160 0 -268.5 82t-108.5 207q0 90 45.5 192.5t127.5 178t171 75.5q96 0 171.5 -71.5t114 -184t38.5 -241.5q0 -41 -8 -74h139q10 0 10 -10v-142q0 -12 -10 -12h-172q-52 -131 -170 -255.5t-289 -215.5zM483 162l131 2
q9 45 9 67q0 69 -25.5 148.5t-75.5 139t-108 59.5q-68 0 -128.5 -85t-72.5 -192q34 -66 103.5 -102.5t166.5 -36.5z" />
    <glyph glyph-name="uniFEF0" unicode="&#x649;" horiz-adv-x="1331" arabic-form="final" 
d="M584 -471q-222 0 -350 117.5t-128 328.5q0 129 48 293q55 0 127 -20q-37 -121 -37 -240q0 -155 104.5 -240t265.5 -85q158 0 304.5 55.5t244.5 161.5q-111 118 -385 264q26 83 80 158q139 -86 238 -122t233 -36q14 0 14 -10v-142q0 -12 -14 -12h-78l-129 49l-4 -6
q156 -89 156 -164q0 -32 -32.5 -77t-95.5 -92.5t-145 -88t-192 -66.5t-225 -26z" />
    <glyph glyph-name="uniFEF2" unicode="&#x64a;" horiz-adv-x="1331" arabic-form="final" 
d="M584 -471q-222 0 -350 117.5t-128 328.5q0 129 48 293q55 0 127 -20q-37 -121 -37 -240q0 -155 104.5 -240t265.5 -85q158 0 304.5 55.5t244.5 161.5q-111 118 -385 264q26 83 80 158q139 -86 238 -122t233 -36q14 0 14 -10v-142q0 -12 -14 -12h-78l-129 49l-4 -6
q156 -89 156 -164q0 -32 -32.5 -77t-95.5 -92.5t-145 -88t-192 -66.5t-225 -26zM457 -848l-115 131q59 68 135 113q23 -24 50.5 -57t44.5 -53l16 -21zM715 -848l-115 131q59 68 135 113q23 -24 50.5 -57t44.5 -53l16 -21z" />
    <glyph glyph-name="uniFEF3" unicode="&#x64a;" horiz-adv-x="641" arabic-form="initial" 
d="M0 0q-12 0 -12 12v142q0 10 12 10h358q23 79 23 164q0 147 -59 313q30 22 76 39t85 18q41 -155 41 -309q0 -200 -67 -389h-457zM133 -467l-115 131q60 68 136 113q23 -24 50.5 -57t43.5 -54l16 -20zM391 -467l-115 131q60 68 136 113q23 -24 50.5 -57t43.5 -54l16 -20z
" />
    <glyph glyph-name="uniFEF4" unicode="&#x64a;" horiz-adv-x="645" arabic-form="medial" 
d="M0 0q-12 0 -12 12v142q0 10 12 10h205q48 107 71.5 198t38.5 209q101 6 162 -30q-41 -197 -108 -340q87 -37 278 -37q8 0 8 -10v-142q0 -12 -8 -12q-223 0 -321 104q-33 -67 -62 -104h-264zM186 -467l-114 131q59 68 135 113q23 -24 50.5 -57t43.5 -54l16 -20zM444 -467
l-114 131q59 68 135 113q23 -24 50.5 -57t43.5 -54l16 -20z" />
    <glyph glyph-name=".notdef" horiz-adv-x="1024" 
 />
    <glyph glyph-name=".null" 
 />
    <glyph glyph-name="nonmarkingreturn" horiz-adv-x="682" 
 />
    <glyph glyph-name="CR" unicode="&#xd;" 
 />
    <glyph glyph-name="space" unicode=" " horiz-adv-x="415" 
 />
    <glyph glyph-name="exclam" unicode="!" horiz-adv-x="561" 
d="M201 369q-3 401 -19 819q88 32 176 29v-840q-22 -7 -63 -10t-94 2zM283 -29l-148 146q62 81 148 149q31 -29 67.5 -66.5t57.5 -59.5l20 -23z" />
    <glyph glyph-name="quotedbl" unicode="&#x22;" horiz-adv-x="823" 
d="M176 727l-29 475q90 13 177 0l-29 -475q-58 -13 -119 0zM526 727l-28 475q90 13 176 0l-29 -475q-58 -13 -119 0z" />
    <glyph glyph-name="numbersign" unicode="#" horiz-adv-x="1144" 
d="M1087 668h-206l-93 -242h211q6 -23 6 -58.5t-6 -58.5h-254l-122 -327q-74 6 -121 41l108 286h-274l-123 -327q-74 6 -121 41l109 286h-164q-11 59 0 117h207l90 242h-207q-14 59 0 118h252l125 332q66 -6 121 -39l-111 -293h274l125 332q70 -6 121 -39l-110 -293h163
q14 -59 0 -118zM653 426l90 242h-272l-92 -242h274z" />
    <glyph glyph-name="dollar" unicode="$" horiz-adv-x="952" 
d="M856 303q0 -144 -86 -227t-238 -101v-176q-45 -14 -96 -8v178q-104 0 -195 23t-147 63q3 36 18 78t35 66q52 -35 130.5 -56t158.5 -24q-2 115 -2 366l-49 19q-134 51 -199 121.5t-65 175.5q0 128 81 210t224 101q0 30 -1 83t-1 75q66 20 108 20v-174q168 -7 283 -76
q-14 -87 -59 -141q-95 56 -224 66v-334l41 -17q146 -56 214.5 -128t68.5 -183zM268 836q0 -52 36 -89.5t128 -74.5q-1 49 -2 147.5t-2 145.5q-68 -3 -117 -21q-43 -40 -43 -108zM670 156q39 46 39 114q0 58 -39.5 96t-137.5 78v-321q82 6 138 33z" />
    <glyph glyph-name="percent" unicode="%" horiz-adv-x="1572" 
d="M350 440q-134 0 -207 89t-73 247q0 160 77 250t218 90q134 0 207 -90t73 -248q0 -159 -77 -248.5t-218 -89.5zM342 53l799 1061q68 -20 100 -70l-797 -1062q-72 21 -102 71zM365 545q63 0 110 26q45 79 45 205q0 111 -44.5 173.5t-125.5 62.5q-54 0 -110 -27
q-45 -82 -45 -207q0 -111 44.5 -172t125.5 -61zM1208 -18q-134 0 -207 88.5t-73 246.5q0 160 77 250t218 90q134 0 207 -90t73 -248q0 -159 -76.5 -248t-218.5 -89zM1223 86q61 0 110 27q45 79 45 204q0 111 -44.5 173.5t-125.5 62.5q-54 0 -110 -27q-45 -82 -45 -207
q0 -111 44.5 -172t125.5 -61z" />
    <glyph glyph-name="ampersand" unicode="&#x26;" horiz-adv-x="1136" 
d="M489 -25q-62 0 -121.5 11t-115 35.5t-97.5 60.5t-67 90t-25 119q0 209 263 299q-73 34 -114.5 96.5t-41.5 151.5q0 123 94 199.5t254 76.5q131 0 211 -59t80 -160q0 -128 -131 -213h448q16 -70 0 -137h-194v-158q0 -203 -112.5 -307.5t-330.5 -104.5zM502 682h10
q67 29 110.5 76t43.5 110q0 60 -48.5 92.5t-128.5 32.5q-63 0 -124 -22q-37 -47 -37 -115q0 -82 45.5 -128t128.5 -46zM535 117q92 0 159 30q43 50 60.5 107.5t17.5 157.5v133h-244q-10 0 -22.5 0.5t-20.5 0.5l-8 1q-125 -43 -184.5 -97t-59.5 -128q0 -104 82.5 -154.5
t219.5 -50.5z" />
    <glyph glyph-name="quotesingle" unicode="'" horiz-adv-x="473" 
d="M176 727l-29 475q90 13 177 0l-29 -475q-58 -13 -119 0z" />
    <glyph glyph-name="parenleft" unicode="(" horiz-adv-x="772" 
d="M494 -471q-312 458 -312 920q0 458 312 919q58 -20 112 -65q-254 -447 -254 -854q0 -410 254 -857q-60 -48 -112 -63z" />
    <glyph glyph-name="parenright" unicode=")" horiz-adv-x="772" 
d="M279 -471q-53 16 -113 63q254 447 254 857q0 407 -254 854q53 45 113 65q311 -460 311 -919q0 -463 -311 -920z" />
    <glyph glyph-name="asterisk" unicode="*" horiz-adv-x="665" 
d="M270 655l21 213l-168 -127q-48 55 -64 109l201 88l-201 82q18 62 64 108l170 -127l-23 213q66 9 125 0l-26 -213l174 127q37 -37 63 -108l-200 -82l198 -88q-20 -57 -61 -109l-174 127l24 -213q-64 -11 -123 0z" />
    <glyph glyph-name="plus" unicode="+" horiz-adv-x="872" 
d="M367 55v285h-306q-12 25 -12 67.5t12 65.5h306v287q25 12 67.5 12t67.5 -12v-287h307q11 -23 11 -65.5t-11 -67.5h-307v-285q-25 -12 -67.5 -12t-67.5 12z" />
    <glyph glyph-name="comma" unicode="," horiz-adv-x="477" 
d="M51 -281l139 441q96 17 195 0l-215 -441q-62 -14 -119 0z" />
    <glyph glyph-name="hyphen" unicode="-" horiz-adv-x="724" 
d="M104 367q3 67 29 141h488q-3 -64 -31 -141h-486z" />
    <glyph glyph-name="period" unicode="." horiz-adv-x="509" 
d="M256 -29l-147 146q61 81 147 149q31 -29 67.5 -66.5t56.5 -59.5l21 -23z" />
    <glyph glyph-name="slash" unicode="/" horiz-adv-x="935" 
d="M137 -459q-81 20 -145 64l745 1775q75 -21 142 -63z" />
    <glyph glyph-name="zero" unicode="0" horiz-adv-x="1097" 
d="M543 -25q-232 0 -352.5 145.5t-120.5 424.5q0 274 126.5 421.5t358.5 147.5t352.5 -145.5t120.5 -423.5q0 -274 -126 -422t-359 -148zM559 119q103 0 201 53q92 139 92 373q0 207 -80.5 316.5t-232.5 109.5q-104 0 -199 -53q-92 -134 -92 -373q0 -206 80 -316t231 -110z
" />
    <glyph glyph-name="one" unicode="1" horiz-adv-x="630" 
d="M307 -4q0 499 -8 895l-221 -111q-44 69 -53 140q184 96 277 138t142 42h27v-1096q-22 -7 -65 -10t-99 2z" />
    <glyph glyph-name="two" unicode="2" horiz-adv-x="864" 
d="M784 143q8 -29 8 -71.5t-8 -71.5h-757q-12 70 0 147l166 129q75 60 121 99t101.5 94.5t86 100.5t52 100t21.5 110q0 185 -219 185q-143 0 -256 -76q-53 57 -59 129q64 43 154.5 69.5t191.5 26.5q176 0 270.5 -79.5t94.5 -221.5q0 -73 -23 -142.5t-57.5 -125t-94 -117.5
t-113 -108t-134.5 -109l-88 -68h542z" />
    <glyph glyph-name="three" unicode="3" horiz-adv-x="872" 
d="M367 -25q-92 0 -181.5 21t-150.5 59q12 94 53 144q131 -76 293 -76q132 0 205 39q43 57 43 127q0 205 -348 205h-41q-16 70 0 141h47q143 0 225 52t82 144q0 64 -52 99t-147 35q-144 0 -260 -76q-53 57 -59 129q145 96 350 96q164 0 250 -69.5t86 -178.5
q0 -104 -64 -175.5t-170 -104.5q125 -20 201 -89t76 -186q0 -160 -114.5 -248t-323.5 -88z" />
    <glyph glyph-name="four" unicode="4" horiz-adv-x="983" 
d="M606 -4l-2 250h-581q-12 70 0 147l550 680q81 38 193 35v-719h160q6 -29 6 -71.5t-6 -71.5h-160v-244q-65 -17 -160 -6zM180 389h424l-6 504z" />
    <glyph glyph-name="five" unicode="5" horiz-adv-x="872" 
d="M365 -25q-91 0 -179.5 21t-150.5 59q12 94 53 144q132 -76 295 -76q130 0 207 41q47 66 47 160q0 126 -130 187.5t-394 51.5l69 533h606q10 -68 -12 -144h-463l-37 -245q258 -4 394.5 -96t136.5 -259q1 -188 -113.5 -282.5t-328.5 -94.5z" />
    <glyph glyph-name="six" unicode="6" horiz-adv-x="978" 
d="M524 680q174 0 273.5 -89t99.5 -239q0 -177 -106.5 -277t-294.5 -100q-195 0 -302.5 122t-107.5 341q0 79 15.5 155t49 152.5t90.5 142t134.5 118.5t188 87.5t243.5 43.5q38 -58 35 -146q-261 -21 -403.5 -116t-176.5 -291q66 40 145.5 68t116.5 28zM651 139
q74 74 74 195q0 95 -64.5 152t-175.5 57q-108 0 -233 -54q-2 -16 -2 -49q0 -156 68 -240.5t196 -84.5q72 0 137 24z" />
    <glyph glyph-name="seven" unicode="7" horiz-adv-x="858" 
d="M838 1096q12 -71 0 -148q-212 -182 -337.5 -410.5t-144.5 -531.5q-24 -10 -78.5 -13t-95.5 3q28 324 142.5 545.5t324.5 410.5h-612q-7 29 -7 72t7 72h801z" />
    <glyph glyph-name="eight" unicode="8" horiz-adv-x="1026" 
d="M668 592q135 -55 200.5 -127.5t65.5 -173.5q0 -108 -57.5 -180.5t-150 -104t-214.5 -31.5q-118 0 -209.5 31t-148 98.5t-56.5 163.5q0 106 68 181.5t176 117.5q-186 92 -186 260q0 132 104 209.5t287 77.5q153 0 241.5 -67t88.5 -181q0 -180 -209 -274zM360 946
q-36 -41 -36 -106q0 -61 40 -103.5t138 -81.5l26 -10q96 45 140.5 92t44.5 105q0 61 -50 96t-137 35t-166 -27zM713 150q49 46 49 129q0 74 -60 120.5t-204 104.5l-15 6q-209 -83 -209 -221q0 -82 65 -127t185 -45q110 0 189 33z" />
    <glyph glyph-name="nine" unicode="9" horiz-adv-x="978" 
d="M483 1120q195 0 302.5 -122t107.5 -341q0 -96 -21.5 -186t-74.5 -179.5t-133 -158t-206.5 -116t-285.5 -58.5q-38 58 -35 145q261 21 403.5 116.5t176.5 291.5q-66 -40 -145.5 -68t-116.5 -28q-174 0 -273.5 88.5t-99.5 238.5q0 177 106.5 277t294.5 100zM494 553
q110 0 233 53q2 16 2 49q0 156 -68 241t-196 85q-70 0 -137 -25q-74 -74 -74 -194q0 -95 64.5 -152t175.5 -57z" />
    <glyph glyph-name="colon" unicode=":" horiz-adv-x="493" 
d="M248 461l-142 139q60 77 142 143q30 -28 65.5 -63.5t55.5 -57.5l20 -22zM248 -29l-142 140q60 77 142 143q30 -28 65.5 -63.5t55.5 -57.5l20 -22z" />
    <glyph glyph-name="semicolon" unicode=";" horiz-adv-x="507" 
d="M256 444l-147 146q61 81 147 149q31 -29 67.5 -66.5t56.5 -60.5l21 -22zM51 -281l139 441q96 17 195 0l-215 -441q-62 -14 -119 0z" />
    <glyph glyph-name="less" unicode="&#x3c;" horiz-adv-x="839" 
d="M713 -23l-633 334q-15 29 -15 72.5t15 71.5l633 333q21 -10 40 -50t19 -70l-551 -283l551 -287q-2 -31 -20 -70.5t-39 -50.5z" />
    <glyph glyph-name="equal" unicode="=" horiz-adv-x="903" 
d="M78 459q-12 24 -12.5 65.5t12.5 65.5h747q11 -23 11 -65.5t-11 -65.5h-747zM78 188q-12 25 -12.5 67.5t12.5 66.5h747q11 -23 11 -66t-11 -68h-747z" />
    <glyph glyph-name="greater" unicode="&#x3e;" horiz-adv-x="839" 
d="M123 -23q-21 12 -39.5 51t-20.5 70l551 287l-551 283q0 30 19.5 70t40.5 50l633 -333q15 -28 15 -71.5t-15 -72.5z" />
    <glyph glyph-name="question" unicode="?" horiz-adv-x="737" 
d="M207 371q-37 271 90 334q127 62 184.5 112.5t57.5 120.5q0 60 -54.5 96.5t-154.5 36.5q-151 0 -264 -76q-54 58 -60 129q65 43 155.5 70t190.5 27q169 0 261 -68.5t92 -187.5q0 -61 -21.5 -114.5t-54 -91t-81.5 -71t-91.5 -54.5t-96.5 -42q-11 -92 9 -213
q-25 -9 -67 -11.5t-95 3.5zM293 -29l-148 146q62 81 148 149q31 -29 67.5 -66.5t57.5 -59.5l20 -23z" />
    <glyph glyph-name="at" unicode="@" horiz-adv-x="1314" 
d="M592 -31q-245 0 -379.5 127t-134.5 346q0 190 77.5 341t231.5 241t361 90q229 0 369 -122t140 -320q0 -193 -103 -324t-245 -131q-64 0 -106.5 24.5t-57.5 67.5q-110 -80 -174 -80q-96 0 -153.5 63.5t-57.5 174.5q0 74 22 144.5t64.5 130t113.5 96t159 36.5
q124 0 229 -47l-98 -403q-30 -125 76 -125q88 0 157.5 99.5t69.5 254.5q0 172 -115.5 269.5t-320.5 97.5q-158 0 -280 -75t-186.5 -202t-64.5 -284q0 -189 112 -293.5t308 -104.5q138 0 287 56q27 -39 27 -92q-157 -56 -328 -56zM606 322q67 0 133 53l90 383q-61 24 -137 24
q-78 0 -139 -39q-35 -43 -58.5 -112t-23.5 -152q0 -76 36 -116.5t99 -40.5z" />
    <glyph glyph-name="A" unicode="A" horiz-adv-x="1062" 
d="M641 1096l401 -1082q-96 -35 -172 -32l-112 311h-463l-109 -311q-71 -3 -166 32l402 1082q44 8 109.5 8t109.5 -8zM344 430h365l-187 510z" />
    <glyph glyph-name="B" unicode="B" horiz-adv-x="1017" 
d="M788 600q82 -32 124 -98.5t42 -159.5q0 -164 -113.5 -253t-318.5 -89h-393q-4 698 -12 1081q153 35 352 35q211 0 312.5 -77t101.5 -218q0 -133 -95 -221zM293 967v-326h254h115q32 34 46.5 68.5t14.5 83.5q0 182 -256 182q-45 0 -88.5 -2t-64.5 -4zM735 180
q47 63 47 158q0 83 -49.5 127.5t-146.5 44.5h-293v-367h233q128 0 209 37z" />
    <glyph glyph-name="C" unicode="C" horiz-adv-x="989" 
d="M606 -29q-257 0 -396.5 157.5t-139.5 420.5q0 273 145.5 424t405.5 151q193 0 317 -77q-13 -81 -64 -142q-118 68 -266 68q-146 0 -252 -53q-110 -145 -110 -371q0 -200 100.5 -314t288.5 -114q143 0 252 69q42 -62 57 -131q-62 -42 -151.5 -65t-186.5 -23z" />
    <glyph glyph-name="D" unicode="D" horiz-adv-x="1136" 
d="M129 0q-4 703 -12 1081q175 35 366 35q286 0 435 -144t149 -417q0 -270 -144 -412.5t-419 -142.5h-375zM293 143h223q158 0 262 52q111 134 111 360q0 204 -106 311t-316 107q-45 0 -88.5 -2t-64.5 -4l-21 -2v-822z" />
    <glyph glyph-name="E" unicode="E" horiz-adv-x="907" 
d="M129 0q-4 702 -12 1075q76 21 217 21h500q6 -29 6 -72t-6 -72h-541v-327h465q14 -70 0 -140h-465v-342h553q8 -29 8 -71.5t-8 -71.5h-717z" />
    <glyph glyph-name="F" unicode="F" horiz-adv-x="874" 
d="M129 -4q-4 702 -12 1079q76 21 217 21h491q6 -29 6 -72t-6 -72h-532v-331h459q8 -29 8 -72t-8 -72h-459v-473q-65 -19 -164 -8z" />
    <glyph glyph-name="G" unicode="G" horiz-adv-x="1150" 
d="M616 -29q-265 0 -405.5 157t-140.5 421q0 275 150 425t431 150q225 0 375 -94q-19 -83 -65 -143q-128 86 -326 86q-163 0 -279 -53q-110 -145 -110 -371q0 -201 102.5 -314.5t294.5 -113.5q139 0 248 45v305h-291q-6 28 -6 71.5t6 71.5h442v-528q-179 -115 -426 -115z
" />
    <glyph glyph-name="H" unicode="H" horiz-adv-x="1157" 
d="M858 1077q88 32 176 29v-1104q-65 -19 -164 -8q0 315 -2 483h-575v-473q-65 -19 -164 -8q-4 702 -12 1083q89 32 176 29v-485h573q-4 303 -8 454z" />
    <glyph glyph-name="I" unicode="I" horiz-adv-x="413" 
d="M129 -4q-4 702 -12 1083q89 32 176 29v-1104q-65 -19 -164 -8z" />
    <glyph glyph-name="J" unicode="J" horiz-adv-x="538" 
d="M94 -98q-30 21 -55 58.5t-31 74.5q44 18 61.5 25.5t50 23t45 26.5t33 31t28 40.5t17 50.5t12.5 66.5t3 82.5q0 437 -10 698q88 32 178 29v-752q0 -66 -6.5 -115t-27 -101.5t-56 -92.5t-96.5 -78t-146 -67z" />
    <glyph glyph-name="K" unicode="K" horiz-adv-x="989" 
d="M793 -14l-500 530v-514q-65 -19 -164 -8q-4 702 -12 1083q89 32 176 29v-533l475 535q91 0 172 -33l-469 -508l514 -551q-86 -33 -192 -30z" />
    <glyph glyph-name="L" unicode="L" horiz-adv-x="827" 
d="M129 0q-4 700 -12 1079q89 32 176 29v-965h498q6 -29 6 -71.5t-6 -71.5h-662z" />
    <glyph glyph-name="M" unicode="M" horiz-adv-x="1308" 
d="M993 1108q111 0 193 -29v-1077q-22 -7 -64 -10t-98 2q0 473 -6 872l-309 -491q-53 -12 -105 0l-313 493v-864q-65 -19 -162 -8q-4 702 -12 1083q38 14 99 22.5t108 6.5l335 -533z" />
    <glyph glyph-name="N" unicode="N" horiz-adv-x="1159" 
d="M868 1077q89 32 168 29v-1104q-22 -9 -73.5 -11t-81.5 3l-598 846v-838q-72 -17 -154 -6q-4 702 -12 1083q88 32 182 29l582 -819q-1 67 -5.5 348.5t-7.5 439.5z" />
    <glyph glyph-name="O" unicode="O" horiz-adv-x="1239" 
d="M616 -29q-263 0 -404.5 157t-141.5 421q0 273 145.5 424t407.5 151q264 0 405 -156t141 -419q0 -275 -145.5 -426.5t-407.5 -151.5zM641 117q137 0 238 53q114 158 114 379q0 202 -105.5 317t-289.5 115q-130 0 -238 -53q-114 -162 -114 -379q0 -203 105 -317.5
t290 -114.5z" />
    <glyph glyph-name="P" unicode="P" horiz-adv-x="954" 
d="M129 -4q-4 696 -12 1085q175 35 366 35q206 0 317 -88.5t111 -255.5q0 -354 -448 -354h-170v-414q-65 -19 -164 -8zM293 559h184q132 0 199 33q59 62 59 176q0 99 -72.5 152t-203.5 53q-44 0 -85.5 -2t-61.5 -4l-19 -2v-406z" />
    <glyph glyph-name="Q" unicode="Q" horiz-adv-x="1239" 
d="M817 0q59 -78 149.5 -115t239.5 -37q-14 -90 -53 -153q-181 0 -294 70.5t-177 207.5q-20 -2 -66 -2q-263 0 -404.5 157t-141.5 421q0 273 145.5 424t407.5 151q264 0 405 -156t141 -419q0 -216 -91 -357t-261 -192zM246 549q0 -203 105 -317.5t290 -114.5q137 0 238 53
q114 158 114 379q0 202 -105.5 317t-289.5 115q-130 0 -238 -53q-114 -162 -114 -379z" />
    <glyph glyph-name="R" unicode="R" horiz-adv-x="985" 
d="M129 -4q-4 696 -12 1085q175 35 366 35q196 0 306 -85t110 -238q0 -261 -291 -308l363 -462q-37 -15 -92 -24t-91 -7l-352 471h-143v-459q-65 -19 -164 -8zM293 598h192q117 0 191 33q49 52 49 157q0 89 -69 137t-195 48q-45 0 -87 -2t-62 -4l-19 -2v-367z" />
    <glyph glyph-name="S" unicode="S" horiz-adv-x="929" 
d="M430 -29q-107 0 -202.5 23.5t-155.5 62.5q3 36 18 78t35 68q60 -39 149 -60.5t177 -21.5q122 0 194 37q41 44 41 116q0 63 -42.5 105t-145.5 80l-127 49q-139 49 -206 120t-67 181q0 147 106.5 232t291.5 85q184 0 317 -77q-19 -92 -61 -140q-117 66 -275 66
q-94 0 -164 -23q-45 -39 -45 -110q0 -62 37 -104t129 -76l129 -50q150 -54 220.5 -125t70.5 -182q0 -164 -114 -249t-310 -85z" />
    <glyph glyph-name="T" unicode="T" horiz-adv-x="944" 
d="M395 -4q0 478 -10 956h-348q-6 29 -6 72t6 72h870q7 -29 7 -72t-7 -72h-348v-948q-65 -19 -164 -8z" />
    <glyph glyph-name="U" unicode="U" horiz-adv-x="1126" 
d="M559 -29q-431 0 -434 377q0 151 -10 731q88 32 176 29v-743q0 -248 289 -248q260 0 266 250q2 183 -10 712q88 32 176 29l-6 -725q-1 -202 -116 -307t-331 -105z" />
    <glyph glyph-name="V" unicode="V" horiz-adv-x="1062" 
d="M877 1108q81 3 165 -31l-409 -1075q-41 -8 -100.5 -8t-102.5 8l-410 1075q36 15 86 24t87 7l348 -930z" />
    <glyph glyph-name="W" unicode="W" horiz-adv-x="1548" 
d="M1350 1110q78 3 166 -33l-293 -1073q-106 -17 -209 0l-242 856l-242 -856q-99 -17 -204 0l-293 1073q89 36 172 33l237 -903l238 872q94 27 188 27l246 -905z" />
    <glyph glyph-name="X" unicode="X" horiz-adv-x="1015" 
d="M172 -8q-39 0 -88 8t-76 20l402 535l-385 524q37 13 89 22t89 7l315 -422l309 424q102 -4 164 -31l-385 -514l404 -545q-38 -13 -90 -21.5t-89 -6.5l-331 442z" />
    <glyph glyph-name="Y" unicode="Y" horiz-adv-x="983" 
d="M799 1108q37 2 86.5 -7t85.5 -24l-398 -684v-389q-22 -7 -64.5 -10t-96.5 2q0 247 -2 397l-398 684q36 15 85.5 24t86.5 7l312 -557z" />
    <glyph glyph-name="Z" unicode="Z" horiz-adv-x="950" 
d="M879 143q7 -29 7 -71.5t-7 -71.5h-816q-12 70 0 147l621 805h-567q-6 29 -5.5 72t7.5 72h751q15 -71 0 -148l-620 -805h629z" />
    <glyph glyph-name="bracketleft" unicode="[" horiz-adv-x="741" 
d="M213 -471v1839h381q3 -63 0 -135h-223v-1571h227q3 -64 0 -133h-385z" />
    <glyph glyph-name="backslash" unicode="\" horiz-adv-x="935" 
d="M799 -459l-742 1776q67 42 142 63l745 -1775q-64 -44 -145 -64z" />
    <glyph glyph-name="bracketright" unicode="]" horiz-adv-x="741" 
d="M528 -471h-385q-3 69 0 133h228v1571h-224q-3 72 0 135h381v-1839z" />
    <glyph glyph-name="asciicircum" unicode="^" horiz-adv-x="962" 
d="M569 1200l310 -573q-71 -22 -152 0l-246 444l-245 -444q-81 -22 -152 0l309 573q34 15 88 15t88 -15z" />
    <glyph glyph-name="underscore" unicode="_" horiz-adv-x="1024" 
d="M106 -266q3 64 31 141h781q-2 -61 -31 -141h-781z" />
    <glyph glyph-name="grave" unicode="`" horiz-adv-x="522" 
d="M436 866l-391 183q33 90 94 129l338 -248q-11 -34 -41 -64z" />
    <glyph glyph-name="a" unicode="a" horiz-adv-x="886" 
d="M426 -29q-162 0 -248 68t-86 186q0 236 373 236q91 0 156 -12v34q0 86 -52.5 122t-165.5 36q-64 0 -135.5 -18t-111.5 -43q-19 19 -34 56.5t-20 72.5q151 77 340 77q338 0 338 -294v-488q-78 -14 -137 -8l-8 65q-136 -90 -209 -90zM461 104q78 0 164 35l-2 201
q-78 8 -152 8q-135 0 -205 -37q-16 -32 -16 -69q0 -70 59 -104t152 -34z" />
    <glyph glyph-name="b" unicode="b" horiz-adv-x="929" 
d="M424 -29q-175 0 -303 49q-3 649 -19 1154q82 45 177 45v-510q124 77 182 77q187 0 294 -109t107 -290q0 -200 -113 -308t-325 -108zM451 113q105 0 184 37q63 71 63 212q0 136 -76 205.5t-210 69.5q-55 0 -133 -33v-463q70 -28 172 -28z" />
    <glyph glyph-name="c" unicode="c" horiz-adv-x="776" 
d="M483 -29q-203 0 -309 111.5t-106 296.5q0 188 103.5 296.5t295.5 108.5q150 0 250 -53q-6 -71 -43 -133q-81 49 -217 49q-98 0 -172 -33q-62 -82 -62 -204q-3 -137 73 -217t206 -80q106 0 188 45q34 -63 37 -133q-114 -54 -244 -54z" />
    <glyph glyph-name="d" unicode="d" horiz-adv-x="927" 
d="M469 -29q-187 0 -294 109.5t-107 290.5q0 201 113 308t327 107q70 0 137 -20l-8 408q82 45 174 45v-1215q-77 -14 -139 -8l-6 63q-136 -88 -197 -88zM518 121q57 0 135 33l-4 460q-76 31 -168 31q-107 0 -186 -37q-62 -70 -62 -213q0 -136 75.5 -205t209.5 -69z" />
    <glyph glyph-name="e" unicode="e" horiz-adv-x="876" 
d="M465 786q171 0 264.5 -112.5t75.5 -313.5h-586q10 -119 86.5 -181t202.5 -62q64 0 134 16t116 43q27 -47 39 -137q-133 -68 -310 -68q-199 0 -309 109t-110 301q0 187 102 296t295 109zM221 473h424q-1 90 -58.5 135t-150.5 45q-94 0 -155 -30q-47 -60 -60 -150z" />
    <glyph glyph-name="f" unicode="f" horiz-adv-x="655" 
d="M217 -4l-6 625h-191q-16 68 0 137h191v35q0 101 38.5 183t103 133t143.5 80t166 34q44 -51 51 -154q-178 -15 -259 -84t-81 -203v-24h284q16 -69 0 -137h-284v-617q-20 -7 -62 -10t-94 2z" />
    <glyph glyph-name="g" unicode="g" horiz-adv-x="927" 
d="M395 -422q-159 0 -276 62q7 91 45 141q43 -29 109 -47.5t133 -18.5q135 0 210 52q43 81 43 202v97q-125 -84 -190 -84q-186 0 -293.5 108t-107.5 281q0 201 112.5 308t327.5 107q168 0 301 -53l2 -758q0 -397 -416 -397zM518 131q57 0 135 33l-6 450q-67 31 -166 31
q-108 0 -186 -35q-62 -68 -62 -215q0 -129 75.5 -196.5t209.5 -67.5z" />
    <glyph glyph-name="h" unicode="h" horiz-adv-x="925" 
d="M121 -4q-3 668 -19 1178q82 45 177 45v-510q125 77 196 77q164 0 254 -78t90 -257v-447q-17 -7 -58.5 -10t-96.5 2l-5 399q-1 137 -53.5 190.5t-169.5 53.5q-64 0 -157 -35v-600q-61 -19 -158 -8z" />
    <glyph glyph-name="i" unicode="i" horiz-adv-x="395" 
d="M174 936l-121 158q72 69 162 120q25 -32 55 -72t47 -64l17 -25zM121 -4q0 372 -12 741q85 32 170 29v-762q-61 -19 -158 -8z" />
    <glyph glyph-name="j" unicode="j" horiz-adv-x="403" 
d="M182 934l-121 160q70 69 160 120q25 -32 55 -72t47 -64l17 -25zM-109 -422q-33 17 -58.5 50.5t-35.5 72.5q330 99 330 426q0 352 -12 610q85 32 172 29v-633q0 -411 -396 -555z" />
    <glyph glyph-name="k" unicode="k" horiz-adv-x="808" 
d="M121 -4q-3 668 -19 1178q82 45 177 45v-789l352 340q103 -4 166 -31l-348 -323l370 -398q-35 -14 -90.5 -23t-91.5 -7l-358 387v-371q-61 -19 -158 -8z" />
    <glyph glyph-name="l" unicode="l" horiz-adv-x="395" 
d="M121 -4q-3 668 -19 1178q82 45 177 45v-1215q-61 -19 -158 -8z" />
    <glyph glyph-name="m" unicode="m" horiz-adv-x="1409" 
d="M121 -4q0 372 -12 741q78 31 157 31q0 -45 -2 -74q129 92 199 92q193 0 270 -110q151 110 244 110q326 0 326 -335v-447q-20 -7 -61 -10t-97 2l-4 399q0 136 -49 190t-156 54q-74 0 -170 -49q25 -54 25 -133v-453q-60 -19 -160 -8l-2 399q0 136 -49 190t-156 54
q-63 0 -145 -35v-600q-61 -19 -158 -8z" />
    <glyph glyph-name="n" unicode="n" horiz-adv-x="925" 
d="M121 -4q0 372 -12 741q78 31 157 31q0 -45 -2 -74q143 92 211 92q344 0 344 -335v-447q-60 -19 -157 -8l-3 399q-1 136 -54.5 190t-168.5 54q-64 0 -157 -35v-600q-61 -19 -158 -8z" />
    <glyph glyph-name="o" unicode="o" horiz-adv-x="942" 
d="M467 -29q-187 0 -293 112.5t-106 297.5q0 188 109 296.5t298 108.5q187 0 293 -111.5t106 -293.5q0 -189 -109 -299.5t-298 -110.5zM487 106q59 0 125 17q42 33 68.5 102.5t26.5 155.5q0 128 -69.5 199t-182.5 71q-63 0 -125 -16q-41 -33 -67.5 -101.5t-26.5 -152.5
q0 -131 69 -203t182 -72z" />
    <glyph glyph-name="p" unicode="p" horiz-adv-x="929" 
d="M123 -428q0 570 -14 1165q78 31 157 31q0 -45 -2 -74q129 92 197 92q187 0 294 -109t107 -290q0 -200 -113 -308t-325 -108q-74 0 -145 21l8 -389q-76 -28 -164 -31zM451 113q105 0 184 37q63 71 63 212q0 136 -76 205.5t-210 69.5q-54 0 -133 -33v-461q82 -30 172 -30z
" />
    <glyph glyph-name="q" unicode="q" horiz-adv-x="927" 
d="M647 -428l6 477q-120 -78 -184 -78q-187 0 -294 109.5t-107 290.5q0 201 114 308t326 107q168 0 301 -53l2 -1130q-23 -10 -70.5 -20t-93.5 -11zM518 121q55 0 133 33l-6 460q-70 31 -164 31q-107 0 -186 -37q-62 -70 -62 -213q0 -136 75.5 -205t209.5 -69z" />
    <glyph glyph-name="r" unicode="r" horiz-adv-x="589" 
d="M121 -4q0 372 -12 741q78 31 157 31q0 -53 -2 -90q90 79 113 88q50 18 104 18q53 0 103 -12q7 -80 -11 -149q-58 16 -137 16q-70 0 -157 -55v-580q-61 -19 -158 -8z" />
    <glyph glyph-name="s" unicode="s" horiz-adv-x="720" 
d="M338 -29q-173 0 -279 70q11 84 43 135q88 -63 250 -63q99 0 156 26q10 27 10 54q0 36 -29.5 62t-91.5 48l-78 29q-143 53 -195 97t-52 132q0 108 87.5 166.5t243.5 58.5q144 0 228 -43q0 -79 -35 -141q-75 39 -215 43q-95 3 -145 -16q-15 -26 -15 -51q0 -35 29 -58
t100 -49l78 -29q128 -47 183 -95.5t55 -137.5q0 -116 -88.5 -177t-239.5 -61z" />
    <glyph glyph-name="t" unicode="t" horiz-adv-x="698" 
d="M481 -20q-148 0 -210 72.5t-62 201.5l-4 367h-187q-16 68 0 137h185l-8 235q77 41 170 41v-276h294q13 -68 0 -137h-294v-324q0 -91 33.5 -131.5t115.5 -40.5q57 0 119 20q18 -61 18 -143q-83 -22 -170 -22z" />
    <glyph glyph-name="u" unicode="u" horiz-adv-x="927" 
d="M455 -29q-168 0 -256.5 78.5t-92.5 255.5l-8 432q82 32 170 29v-408q0 -131 53.5 -185t172.5 -54q73 0 159 35l-14 583q85 32 172 29v-762q-78 -14 -141 -8l-6 65q-136 -90 -209 -90z" />
    <glyph glyph-name="v" unicode="v" horiz-adv-x="823" 
d="M651 770q96 -4 162 -31l-309 -735q-37 -8 -92 -8t-95 8l-307 735q36 13 87.5 22t82.5 7l240 -598z" />
    <glyph glyph-name="w" unicode="w" horiz-adv-x="1224" 
d="M1047 770q94 -4 161 -31l-241 -737q-38 -8 -91.5 -8t-93.5 8l-174 557l-168 -557q-37 -8 -90.5 -8t-91.5 8l-242 737q36 13 87.5 22t82.5 7l174 -614l172 587q76 27 162 27l176 -618z" />
    <glyph glyph-name="x" unicode="x" horiz-adv-x="813" 
d="M174 -12q-89 0 -162 30l299 363l-284 358q36 13 87.5 22t82.5 7l217 -268l213 270q94 -4 161 -31l-284 -348l299 -373q-37 -14 -88.5 -23t-83.5 -7l-232 284z" />
    <glyph glyph-name="y" unicode="y" horiz-adv-x="835" 
d="M653 770q96 -4 162 -31q-62 -192 -141.5 -389t-155.5 -330q-207 -359 -477 -450q-33 17 -58.5 50.5t-35.5 72.5q114 36 202.5 108.5t172.5 192.5l-310 745q36 13 87.5 22t82.5 7l246 -633q146 306 225 635z" />
    <glyph glyph-name="z" unicode="z" horiz-adv-x="778" 
d="M717 137q16 -68 0 -137h-658q-14 67 0 141l455 480h-432q-16 68 0 137h620q6 -28 6 -69.5t-6 -72.5l-452 -479h467z" />
    <glyph glyph-name="braceleft" unicode="{" horiz-adv-x="888" 
d="M684 -338h59q3 -68 0 -133h-90q-146 0 -215 74.5t-69 208.5v317q0 133 -51 199.5t-142 66.5h-43q-6 70 0 137h43q193 0 193 269v254q0 161 71 237t240 76h63q4 -66 0 -135h-59q-156 0 -156 -170v-279q-2 -123 -46.5 -205t-129.5 -112q85 -30 130.5 -114t45.5 -203v-316
q0 -172 156 -172z" />
    <glyph glyph-name="bar" unicode="|" horiz-adv-x="530" 
d="M186 -471v1835q76 10 158 0v-1835q-82 -10 -158 0z" />
    <glyph glyph-name="braceright" unicode="}" horiz-adv-x="888" 
d="M756 532q6 -67 0 -137h-43q-91 0 -142 -66.5t-51 -199.5v-317q0 -134 -69 -208.5t-215 -74.5h-91q-3 65 0 133h60q155 0 155 172v316q0 119 46 203t131 114q-85 30 -130 112t-47 205v279q0 170 -155 170h-60q-4 69 0 135h64q169 0 240 -76t71 -237v-254q0 -269 193 -269
h43z" />
    <glyph glyph-name="asciitilde" unicode="~" horiz-adv-x="1026" 
d="M713 268q-30 0 -62.5 8t-49 14.5t-56 25.5t-49.5 24q-14 6 -49.5 22.5t-52.5 24t-42.5 14.5t-44.5 7q-78 0 -151 -80q-60 18 -99 69q44 70 111 107t139 37q25 0 47 -3t49 -12.5t38 -13.5t46 -20t41 -19q15 -7 48.5 -23.5t51 -24t43 -15t46.5 -7.5q38 0 68.5 12t48.5 27
t47 45q57 -22 88 -75q-55 -82 -117 -113t-139 -31z" />
    <glyph glyph-name="uni00A0" unicode="&#xa0;" horiz-adv-x="415" 
 />
    <glyph glyph-name="exclamdown" unicode="&#xa1;" horiz-adv-x="540" 
d="M264 786l148 -145q-64 -81 -150 -147q-31 28 -67.5 65t-56.5 59l-21 23zM346 389q3 -393 21 -784q-89 -32 -177 -29v805q20 7 62 10t94 -2z" />
    <glyph glyph-name="cent" unicode="&#xa2;" horiz-adv-x="870" 
d="M799 25q-110 -49 -238 -54v-141q-41 -14 -96 -8v153q-183 18 -280 126.5t-97 277.5q0 173 94.5 279.5t272.5 123.5q0 97 -2 146q55 20 108 20v-166q140 -6 225 -51q-3 -71 -43 -133q-67 37 -182 47v-532q123 3 199 45q36 -58 39 -133zM244 410q-1 -114 57 -189.5
t162 -99.5q0 168 -4 524q-85 -6 -142 -31q-70 -80 -73 -204z" />
    <glyph glyph-name="sterling" unicode="&#xa3;" horiz-adv-x="1032" 
d="M915 186q35 -56 50 -137q-109 -72 -254 -72q-62 0 -178 25t-175 25q-132 0 -227 -45q-38 48 -45 120q84 52 190 66l-6 338h-164q-14 70 0 141h154l-2 98q-1 58 5.5 106.5t30.5 101.5t65 89t113.5 60t170.5 24q182 0 315 -77q-14 -87 -61 -140q-117 66 -272 66
q-87 0 -152 -23q-47 -83 -47 -223v-82h301q14 -71 0 -141h-301v-336q41 -4 138 -22.5t149 -18.5q102 0 202 57z" />
    <glyph glyph-name="currency" unicode="&#xa4;" horiz-adv-x="931" 
d="M188 49q-31 4 -52.5 29t-26.5 51l86 88q-58 81 -58 184t56 183l-84 86q3 24 30 49.5t49 28.5l82 -82q83 61 193 61q107 0 196 -63l86 84q23 -3 49 -30.5t29 -47.5l-86 -90q54 -79 54 -179q0 -97 -56 -182l88 -90q-13 -72 -78 -80l-90 88q-79 -61 -192 -61q-109 0 -191 57
zM461 209q89 0 143.5 52.5t54.5 137.5t-54.5 140t-143.5 55q-82 0 -135.5 -55t-53.5 -140q0 -84 53.5 -137t135.5 -53z" />
    <glyph glyph-name="yen" unicode="&#xa5;" horiz-adv-x="1038" 
d="M846 395h-244v-123h244q13 -49 0 -102h-244v-166q-22 -7 -65 -10t-99 2q0 26 1 84t1 90h-245q-13 53 0 102h243q0 82 -2 123h-241q-13 50 0 103h186l-340 579q36 15 85.5 24t86.5 7l311 -549l301 549q38 2 87.5 -7t86.5 -24l-340 -579h187q13 -53 0 -103z" />
    <glyph glyph-name="brokenbar" unicode="&#xa6;" horiz-adv-x="530" 
d="M186 643v721q76 10 158 0v-721q-82 -10 -158 0zM186 -471v721q76 10 158 0v-721q-82 -10 -158 0z" />
    <glyph glyph-name="section" unicode="&#xa7;" horiz-adv-x="886" 
d="M399 -434q-173 0 -295 76q12 78 60 139q112 -68 252 -68q84 0 151 25q39 39 39 104q0 47 -34.5 82.5t-120.5 71.5l-115 49q-141 55 -207 124.5t-66 178.5q0 87 47.5 159t127.5 109q-123 81 -123 205q0 138 99.5 221.5t272.5 83.5q171 0 295 -77q-13 -79 -59 -138
q-112 68 -252 68q-85 0 -152 -25q-38 -38 -38 -104q0 -47 34.5 -82.5t120.5 -71.5l115 -49q141 -56 206.5 -125.5t65.5 -177.5q0 -87 -47 -159t-127 -109q123 -81 123 -207q0 -137 -100 -220t-273 -83zM539 131q116 56 116 172q0 70 -37.5 112.5t-132.5 82.5l-137 63
q-117 -60 -117 -172q0 -70 37.5 -112t132.5 -84l111 -50z" />
    <glyph glyph-name="dieresis" unicode="&#xa8;" horiz-adv-x="749" 
d="M180 903l-117 150q68 67 154 116q24 -30 52 -69t43 -62l16 -24zM535 905l-115 150q65 67 153 114q24 -30 51.5 -68.5t43.5 -61.5l16 -23z" />
    <glyph glyph-name="copyright" unicode="&#xa9;" horiz-adv-x="1294" 
d="M655 -20q-155 0 -284 72.5t-204 202.5t-75 290q0 159 75 291t204.5 207t283.5 75q155 0 285 -75t205.5 -207t75.5 -291q0 -160 -75.5 -290t-205 -202.5t-285.5 -72.5zM655 70q198 0 333.5 136.5t135.5 338.5q0 205 -135 343t-334 138q-128 0 -235 -62.5t-168.5 -173
t-61.5 -245.5q0 -202 134.5 -338.5t330.5 -136.5zM672 209q-152 0 -236 93.5t-84 246.5q0 149 83.5 244.5t248.5 95.5q110 0 180 -43q-11 -48 -39 -96q-65 32 -159 32q-86 0 -129 -26q-30 -33 -49 -88t-19 -119q0 -107 57.5 -170.5t157.5 -63.5q88 0 147 33q29 -52 39 -88
q-82 -51 -198 -51z" />
    <glyph glyph-name="ordfeminine" unicode="&#xaa;" horiz-adv-x="468" 
d="M225 664q-77 0 -126.5 38t-49.5 101q0 61 51 93t140 32q48 0 86 -6v20q0 42 -24 62t-83 20q-61 0 -121 -31q-13 10 -23.5 35t-13.5 47q86 39 183 39q184 0 184 -162v-272q-47 -7 -86 -4l-8 41q-69 -53 -109 -53zM246 745q40 0 82 25v88q-69 6 -88 6q-50 0 -82 -14
q-8 -13 -8 -37q0 -30 27.5 -49t68.5 -19z" />
    <glyph glyph-name="guillemotleft" unicode="&#xab;" horiz-adv-x="1089" 
d="M451 20l-322 306q-12 58 0 114l320 301q53 -35 90 -77l-242 -285l242 -285q-44 -50 -88 -74zM885 29l-342 321q-6 35 0 70l338 313q53 -33 90 -78l-236 -276l236 -277q-34 -39 -86 -73z" />
    <glyph glyph-name="logicalnot" unicode="&#xac;" horiz-adv-x="903" 
d="M692 88v252h-614q-12 25 -12.5 67t12.5 66h749v-383q-24 -13 -67.5 -13.5t-67.5 11.5z" />
    <glyph glyph-name="uni00AD" unicode="&#xad;" horiz-adv-x="724" 
d="M104 367q3 67 29 141h488q-3 -64 -31 -141h-486z" />
    <glyph glyph-name="registered" unicode="&#xae;" horiz-adv-x="1294" 
d="M655 -20q-155 0 -284 72.5t-204 202.5t-75 290q0 159 75 291t204.5 207t283.5 75q155 0 285 -75t205.5 -207t75.5 -291q0 -160 -75.5 -290t-205 -202.5t-285.5 -72.5zM655 70q198 0 333.5 136.5t135.5 338.5q0 205 -135 343t-334 138q-128 0 -235 -62.5t-168.5 -173
t-61.5 -245.5q0 -202 134.5 -338.5t330.5 -136.5zM457 227q-4 500 -8 643q116 25 213 25q114 0 178.5 -49t64.5 -137q0 -156 -164 -191l181 -264q-54 -26 -97 -29l-184 283h-84v-279q-41 -9 -100 -2zM557 594h107q67 0 104 18q25 35 25 88q0 47 -37 75t-99 28q-47 0 -100 -6
v-203z" />
    <glyph glyph-name="macron" unicode="&#xaf;" horiz-adv-x="724" 
d="M66 958q-13 65 0 127h591q16 -62 0 -127h-591z" />
    <glyph glyph-name="degree" unicode="&#xb0;" horiz-adv-x="673" 
d="M336 690q-108 0 -186 78t-78 186t78 185.5t186 77.5q110 0 188 -77t78 -186t-78 -186.5t-188 -77.5zM336 801q66 0 107.5 42.5t41.5 110.5q0 65 -42 108.5t-107 43.5t-106.5 -43.5t-41.5 -108.5q0 -68 41 -110.5t107 -42.5z" />
    <glyph glyph-name="plusminus" unicode="&#xb1;" horiz-adv-x="905" 
d="M387 229v279h-307q-12 25 -12 66t12 67h307v283q26 10 68 10t67 -10v-283h305q12 -26 12 -67t-12 -66h-305v-277q-25 -12 -66.5 -13t-68.5 11zM78 0q-12 25 -12 67.5t12 65.5h747q11 -23 11 -65.5t-11 -67.5h-747z" />
    <glyph glyph-name="uni00B2" unicode="&#xb2;" horiz-adv-x="540" 
d="M489 561q11 -51 0 -102h-446q-6 55 2 104l100 82q50 42 77 67t60 61t47.5 69t14.5 67q0 103 -115 103q-81 0 -143 -49q-40 46 -43 92q83 61 207 61q105 0 162 -48.5t57 -135.5q0 -50 -17 -95.5t-52 -88t-70.5 -75.5t-89.5 -75l-45 -37h294z" />
    <glyph glyph-name="uni00B3" unicode="&#xb3;" horiz-adv-x="555" 
d="M240 442q-130 0 -203 52q4 60 37 98q77 -45 172 -45q76 0 112 20q21 34 21 66q0 106 -184 106h-33q-10 49 0 99h37q74 0 117.5 27.5t43.5 72.5q0 35 -28 54.5t-80 19.5q-87 0 -152 -49q-40 40 -43 92q87 61 215 61q102 0 154.5 -42.5t52.5 -108.5q0 -115 -131 -162
q70 -13 112 -52.5t42 -103.5q0 -97 -69 -151t-193 -54z" />
    <glyph glyph-name="acute" unicode="&#xb4;" horiz-adv-x="522" 
d="M88 866q-29 29 -43 64l340 248q63 -40 92 -129z" />
    <glyph glyph-name="uni00B5" unicode="&#xb5;" horiz-adv-x="909" 
d="M111 -428q-1 173 -13 1165q82 32 170 29v-408q0 -131 53 -185t171 -54q71 0 157 35l-14 583q85 32 172 29v-762q-78 -14 -141 -8l-7 65q-54 -37 -110 -63.5t-86 -26.5q-142 0 -199 76q2 -176 10 -444q-76 -28 -163 -31z" />
    <glyph glyph-name="paragraph" unicode="&#xb6;" horiz-adv-x="1142" 
d="M504 -418q0 469 -6 844h-29q-188 0 -293.5 91.5t-105.5 254.5q0 154 109 239t304 85h580q6 -29 6 -72t-6 -72h-129v-1358q-51 -15 -127 -12q-4 809 -14 1370h-162v-1358q-48 -16 -127 -12z" />
    <glyph glyph-name="periodcentered" unicode="&#xb7;" horiz-adv-x="509" 
d="M256 389l-147 146q61 81 147 149q31 -29 67.5 -66.5t56.5 -59.5l21 -23z" />
    <glyph glyph-name="cedilla" unicode="&#xb8;" horiz-adv-x="354" 
d="M170 -369q-66 -15 -123 0q61 62 78 92q47 77 12 181q69 13 125 0q27 -81 -3 -154t-89 -119z" />
    <glyph glyph-name="uni00B9" unicode="&#xb9;" horiz-adv-x="395" 
d="M180 455q-1 89 -2 252.5t-2 250.5l-129 -63q-30 43 -35 90q203 121 269 121h18v-643q-48 -17 -119 -8z" />
    <glyph glyph-name="ordmasculine" unicode="&#xba;" horiz-adv-x="532" 
d="M264 666q-105 0 -163 61.5t-58 161.5t60 162.5t165 62.5q104 0 162.5 -62t58.5 -163q0 -99 -60 -161t-165 -62zM272 752q50 0 78 14q35 46 35 123q0 65 -33.5 102t-89.5 37q-50 0 -82 -14q-33 -47 -33 -125q0 -64 34 -100.5t91 -36.5z" />
    <glyph glyph-name="guillemotright" unicode="&#xbb;" horiz-adv-x="1089" 
d="M639 741l322 -305q12 -58 0 -114l-320 -302q-51 33 -90 78l242 285l-242 285q42 48 88 73zM205 733l342 -321q6 -35 0 -70l-338 -313q-55 34 -90 77l235 277l-235 276q36 41 86 74z" />
    <glyph glyph-name="onequarter" unicode="&#xbc;" horiz-adv-x="1212" 
d="M119 53l799 1061q68 -20 100 -70l-797 -1062q-72 21 -102 71zM180 455q-1 89 -2 252.5t-2 250.5l-129 -63q-30 43 -35 90q203 121 269 121h18v-643q-48 -17 -119 -8zM969 -4l-2 135h-332q-10 52 0 111l299 381q26 12 72 19t86 5v-416h90q7 -52 0 -100h-90v-129
q-12 -5 -47.5 -7.5t-75.5 1.5zM745 231h222l-2 273z" />
    <glyph glyph-name="onehalf" unicode="&#xbd;" horiz-adv-x="1282" 
d="M918 1114q68 -20 100 -70l-797 -1062q-72 21 -102 71zM180 455q-1 89 -2 252.5t-2 250.5l-129 -63q-30 43 -35 90q203 121 269 121h18v-643q-48 -17 -119 -8zM1233 102q11 -51 0 -102h-447q-6 55 2 104l101 82q49 41 76.5 67t60 62t47 69t14.5 67q0 102 -114 102
q-82 0 -144 -49q-40 46 -43 92q83 61 207 61q105 0 162 -48.5t57 -135.5q0 -50 -17 -95.5t-52 -88t-70.5 -75.5t-89.5 -75l-45 -37h295z" />
    <glyph glyph-name="threequarters" unicode="&#xbe;" horiz-adv-x="1353" 
d="M240 442q-130 0 -203 52q4 60 37 98q77 -45 172 -45q76 0 112 20q21 34 21 66q0 106 -184 106h-33q-10 49 0 99h37q74 0 117.5 27.5t43.5 72.5q0 35 -28 54.5t-80 19.5q-87 0 -152 -49q-40 40 -43 92q87 61 215 61q102 0 154.5 -42.5t52.5 -108.5q0 -115 -131 -162
q70 -13 112 -52.5t42 -103.5q0 -97 -69 -151t-193 -54zM266 53l799 1061q68 -20 100 -70l-796 -1062q-73 21 -103 71zM1110 -4l-2 135h-332q-10 52 0 111l299 381q26 12 72 19t86 5v-416h90q7 -52 0 -100h-90v-129q-12 -5 -47.5 -7.5t-75.5 1.5zM887 231h221l-2 273z" />
    <glyph glyph-name="questiondown" unicode="&#xbf;" horiz-adv-x="708" 
d="M432 780l148 -145q-64 -82 -150 -148q-31 29 -67.5 66t-56.5 59l-21 23zM520 383q36 -259 -90 -315q-126 -60 -184 -109t-58 -115q0 -56 54.5 -90.5t154.5 -34.5q150 0 265 74q53 -57 59 -125q-65 -41 -155.5 -67.5t-190.5 -26.5q-169 0 -260.5 66.5t-91.5 181.5
q0 57 21.5 107.5t54 86t80.5 67t91.5 51t96.5 38.5q9 87 -9 201q64 22 162 10z" />
    <glyph glyph-name="Agrave" unicode="&#xc0;" horiz-adv-x="1062" 
d="M729 1292q-9 -38 -35 -71l-407 141q24 94 78 139zM641 1096l401 -1082q-96 -35 -172 -32l-112 311h-463l-109 -311q-71 -3 -166 32l402 1082q44 8 109.5 8t109.5 -8zM344 430h365l-187 510z" />
    <glyph glyph-name="Aacute" unicode="&#xc1;" horiz-adv-x="1062" 
d="M756 1364l-408 -141q-25 33 -35 73l365 207q54 -45 78 -139zM641 1096l401 -1082q-96 -35 -172 -32l-112 311h-463l-109 -311q-71 -3 -166 32l402 1082q44 8 109.5 8t109.5 -8zM344 430h365l-187 510z" />
    <glyph glyph-name="Acircumflex" unicode="&#xc2;" horiz-adv-x="1062" 
d="M264 1212q-32 22 -49 60l244 219q75 18 147 0l244 -219q-19 -37 -49 -60l-269 162zM641 1096l401 -1082q-96 -35 -172 -32l-112 311h-463l-109 -311q-71 -3 -166 32l402 1082q44 8 109.5 8t109.5 -8zM344 430h365l-187 510z" />
    <glyph glyph-name="Atilde" unicode="&#xc3;" horiz-adv-x="1062" 
d="M285 1284q-42 9 -70 41q23 75 72 118.5t112 43.5q50 0 98 -24t90.5 -48t78.5 -24q66 0 112 75q42 -9 72 -39q-25 -76 -75.5 -119.5t-115.5 -43.5q-47 0 -94 24t-90.5 48t-81.5 24q-34 0 -58.5 -18.5t-49.5 -57.5zM641 1096l401 -1082q-96 -35 -172 -32l-112 311h-463
l-109 -311q-71 -3 -166 32l402 1082q44 8 109.5 8t109.5 -8zM344 430h365l-187 510z" />
    <glyph glyph-name="Adieresis" unicode="&#xc4;" horiz-adv-x="1062" 
d="M469 1352l-147 -111l-117 150q67 67 153 116q24 -30 52 -69t44 -62zM858 1354l-149 -111l-115 150q66 67 154 114q24 -30 51.5 -68.5t42.5 -61.5zM641 1096l401 -1082q-96 -35 -172 -32l-112 311h-463l-109 -311q-71 -3 -166 32l402 1082q44 8 109.5 8t109.5 -8zM344 430
h365l-187 510z" />
    <glyph glyph-name="Aring" unicode="&#xc5;" horiz-adv-x="1062" 
d="M532 1188q-75 0 -125.5 50t-50.5 126q0 75 50.5 125.5t125.5 50.5q76 0 127.5 -50.5t51.5 -125.5q0 -76 -51 -126t-128 -50zM532 1456q-41 0 -65.5 -25.5t-24.5 -66.5q0 -42 24.5 -68t65.5 -26t67 26.5t26 67.5t-26 66.5t-67 25.5zM641 1096l401 -1082q-96 -35 -172 -32
l-112 311h-463l-109 -311q-71 -3 -166 32l402 1082q44 8 109.5 8t109.5 -8zM344 430h365l-187 510z" />
    <glyph glyph-name="AE" unicode="&#xc6;" horiz-adv-x="1439" 
d="M1378 143q8 -29 8 -71.5t-8 -71.5h-716q0 142 -3 295h-329l-154 -311q-80 -3 -166 32l543 1059q53 21 154 21h659q6 -29 6 -72t-6 -72h-541v-327h465q14 -70 0 -140h-465v-342h553zM397 432h262l-6 516z" />
    <glyph glyph-name="Ccedilla" unicode="&#xc7;" horiz-adv-x="989" 
d="M606 -29q-257 0 -396.5 157.5t-139.5 420.5q0 273 145.5 424t405.5 151q193 0 317 -77q-13 -81 -64 -142q-118 68 -266 68q-146 0 -252 -53q-110 -145 -110 -371q0 -200 100.5 -314t288.5 -114q143 0 252 69q42 -62 57 -131q-62 -42 -151.5 -65t-186.5 -23zM494 -369
q-66 -15 -123 0q61 62 78 92q47 77 12 181q69 13 125 0q27 -81 -3 -154t-89 -119z" />
    <glyph glyph-name="Egrave" unicode="&#xc8;" horiz-adv-x="907" 
d="M651 1221l-407 141q24 94 78 139l364 -209q-9 -38 -35 -71zM129 0q-4 702 -12 1075q76 21 217 21h500q6 -29 6 -72t-6 -72h-541v-327h465q14 -70 0 -140h-465v-342h553q8 -29 8 -71.5t-8 -71.5h-717z" />
    <glyph glyph-name="Eacute" unicode="&#xc9;" horiz-adv-x="907" 
d="M305 1223q-25 33 -35 73l365 207q54 -45 78 -139zM129 0q-4 702 -12 1075q76 21 217 21h500q6 -29 6 -72t-6 -72h-541v-327h465q14 -70 0 -140h-465v-342h553q8 -29 8 -71.5t-8 -71.5h-717z" />
    <glyph glyph-name="Ecircumflex" unicode="&#xca;" horiz-adv-x="907" 
d="M221 1212q-32 22 -49 60l244 219q75 18 147 0l244 -219q-19 -37 -49 -60l-269 162zM129 0q-4 702 -12 1075q76 21 217 21h500q6 -29 6 -72t-6 -72h-541v-327h465q14 -70 0 -140h-465v-342h553q8 -29 8 -71.5t-8 -71.5h-717z" />
    <glyph glyph-name="Edieresis" unicode="&#xcb;" horiz-adv-x="907" 
d="M279 1241l-117 150q67 67 153 116q24 -30 52 -69t43 -62l16 -24zM666 1243l-115 150q66 67 154 114q24 -30 51.5 -68.5t43.5 -61.5l15 -23zM129 0q-4 702 -12 1075q76 21 217 21h500q6 -29 6 -72t-6 -72h-541v-327h465q14 -70 0 -140h-465v-342h553q8 -29 8 -71.5
t-8 -71.5h-717z" />
    <glyph glyph-name="Igrave" unicode="&#xcc;" horiz-adv-x="413" 
d="M365 1221l-408 141q24 94 78 139l364 -209q-9 -39 -34 -71zM129 -4q-4 702 -12 1083q89 32 176 29v-1104q-65 -19 -164 -8z" />
    <glyph glyph-name="Iacute" unicode="&#xcd;" horiz-adv-x="413" 
d="M18 1223q-24 31 -34 73l364 207q54 -45 78 -139zM129 -4q-4 702 -12 1083q89 32 176 29v-1104q-65 -19 -164 -8z" />
    <glyph glyph-name="Icircumflex" unicode="&#xce;" horiz-adv-x="413" 
d="M-66 1212q-32 22 -49 60l244 219q75 18 147 0l244 -219q-19 -37 -49 -60l-268 162zM129 -4q-4 702 -12 1083q89 32 176 29v-1104q-65 -19 -164 -8z" />
    <glyph glyph-name="Idieresis" unicode="&#xcf;" horiz-adv-x="413" 
d="M-8 1241l-117 150q68 67 154 116q24 -30 51.5 -69t43.5 -62l15 -24zM379 1243l-115 150q66 67 154 114q24 -30 51.5 -68.5t42.5 -61.5l16 -23zM129 -4q-4 702 -12 1083q89 32 176 29v-1104q-65 -19 -164 -8z" />
    <glyph glyph-name="Eth" unicode="&#xd0;" horiz-adv-x="1196" 
d="M545 1116q285 0 433 -144t148 -417q0 -270 -144 -412.5t-419 -142.5h-375q0 322 -2 494h-153q-14 70 0 143h151q-4 295 -8 444q178 35 369 35zM838 195q112 135 112 360q0 204 -106.5 311t-315.5 107q-45 0 -90 -2t-68 -4l-22 -2v-328h316q14 -73 0 -143h-316v-351h227
q159 0 263 52z" />
    <glyph glyph-name="Ntilde" unicode="&#xd1;" horiz-adv-x="1159" 
d="M340 1284q-42 9 -70 41q23 75 72.5 118.5t112.5 43.5q50 0 97.5 -24t90 -48t78.5 -24q67 0 113 75q41 -9 71 -39q-25 -76 -75 -119.5t-115 -43.5q-47 0 -94 24t-90.5 48t-81.5 24q-61 0 -109 -76zM868 1077q89 32 168 29v-1104q-22 -9 -73.5 -11t-81.5 3l-598 846v-838
q-72 -17 -154 -6q-4 702 -12 1083q88 32 182 29l582 -819q-1 67 -5.5 348.5t-7.5 439.5z" />
    <glyph glyph-name="Ograve" unicode="&#xd2;" horiz-adv-x="1239" 
d="M782 1221l-407 141q24 94 78 139l364 -209q-9 -38 -35 -71zM616 -29q-263 0 -404.5 157t-141.5 421q0 273 145.5 424t407.5 151q264 0 405 -156t141 -419q0 -275 -145.5 -426.5t-407.5 -151.5zM641 117q137 0 238 53q114 158 114 379q0 202 -105.5 317t-289.5 115
q-130 0 -238 -53q-114 -162 -114 -379q0 -203 105 -317.5t290 -114.5z" />
    </font>
</defs>
</svg>
