<?xml version="1.0" standalone="no"?>
<!DOCTYPE svg PUBLIC "-//W3C//DTD SVG 1.1//EN" "http://www.w3.org/Graphics/SVG/1.1/DTD/svg11.dtd" >
<svg xmlns="http://www.w3.org/2000/svg" xmlns:xlink="http://www.w3.org/1999/xlink" version="1.1">
<metadata>
Created by FontForge 20170731 at Tue May  1 17:44:40 2018
 By Aleksey,,,
Copyright (c) 2017 by 29Letters / 29LT. All rights reserved.
</metadata>
<defs>
<font id="29LTAzer-Slanted" horiz-adv-x="0" >
  <font-face 
    font-family="29LT Azer"
    font-weight="400"
    font-style="oblique"
    font-stretch="normal"
    units-per-em="1000"
    panose-1="0 0 5 0 0 0 0 0 0 0"
    ascent="800"
    descent="-200"
    x-height="370"
    cap-height="541"
    bbox="-330 -501 2194 1036"
    underline-thickness="50"
    underline-position="-200"
    slope="10"
    unicode-range="U+000D-FEFC"
  />
<missing-glyph horiz-adv-x="500" 
 />
    <glyph glyph-name="fi" unicode="fi" horiz-adv-x="472" 
d="M146 0q-15 -91 -64.5 -145.5t-123.5 -70.5q-25 34 -28 68q58 12 93 51t48 114l48 286h-91q-2 35 12 67h91l3 17q20 104 102.5 155t209.5 55q14 -27 11 -74q-111 -3 -171 -36.5t-75 -105.5l-2 -11h102q2 -32 -12 -67h-101zM304 -2q33 188 58 362q42 16 86 14l-66 -372
q-30 -10 -78 -4z" />
    <glyph glyph-name="fl" unicode="fl" horiz-adv-x="473" 
d="M146 0q-15 -91 -64.5 -145.5t-123.5 -70.5q-25 34 -28 68q58 12 93 51t48 114l48 286h-91q-2 35 12 67h91l3 17q21 104 88.5 156.5t204.5 52.5l60 -4l-104 -590q-31 -10 -78 -4q59 343 86 523q-90 0 -128 -33t-52 -106l-3 -12h100q2 -35 -12 -67h-98z" />
    <glyph glyph-name="uniFC43" unicode="&#xfedf;&#xfef0;" horiz-adv-x="622" arabic-form="isolated" 
d="M589 -46q3 -24 -17.5 -55.5t-58 -60t-97.5 -48.5t-127 -20q-160 0 -272 69q4 41 24 78q116 -73 248 -72q151 0 246 104q-78 53 -215 114q5 41 15 74q76 -13 138 3q-15 70 -48 228.5t-48 230.5q37 27 84 27q12 -70 31.5 -184t26.5 -160q20 -116 16 -143q-1 -10 -5 -18
q-16 -37 -123 -35v-2q174 -75 182 -130z" />
    <glyph glyph-name="uniFC86" unicode="&#xfee0;&#xfef0;" horiz-adv-x="732" arabic-form="final" 
d="M771 7q1 -7 -6 -7q-77 0 -116 23t-52 76q-2 10 -4 17q-51 -24 -106 -27q-40 -6 -80 -3v-2q174 -75 182 -130q3 -24 -17.5 -55.5t-58 -60t-97.5 -48.5t-127 -20q-160 0 -272 69q4 41 24 78q116 -73 248 -72q151 0 246 104q-78 53 -215 114q6 53 15 83q73 -8 132 0
q59 5 113 33q-17 82 -46.5 221t-42.5 199q38 24 84 27l90 -532q31 -14 87 -14q6 0 7 -5z" />
    <glyph glyph-name="uniFEF5" unicode="&#xfedf;&#xfe82;" horiz-adv-x="518" arabic-form="isolated" 
d="M66 -57q-12 39 -13 82q218 17 351 51l-121 549q37 27 85 27l92 -548q6 -37 -8 -65.5t-42 -35.5q-141 -39 -344 -60zM-50 550q-14 13 -24 29q40 45 90 68q52 -25 89 -25q47 0 85 13q7 -19 10 -37q-49 -26 -101 -26q-46 0 -87 26q-32 -17 -62 -48zM241 88l-192 385
q25 36 67 46l165 -380q-12 -26 -29 -49z" />
    <glyph glyph-name="uniFEF6" unicode="&#xfee0;&#xfe82;" horiz-adv-x="537" arabic-form="final" 
d="M214 600q-49 -26 -101 -26q-46 0 -87 26q-32 -17 -62 -48q-14 13 -24 29q40 45 90 68q52 -25 89 -25q47 0 85 13q7 -19 10 -37zM575 7q1 -7 -6 -7q-109 0 -142 42q-148 -50 -365 -73q-13 43 -14 82q125 11 203 23l-195 398q26 37 66 49l170 -399q-15 -35 -21 -45
q73 11 130 24q-21 105 -60 282.5t-51 235.5q35 24 84 27l95 -552q31 -14 87 -14q6 0 7 -5z" />
    <glyph glyph-name="uniFEF7" unicode="&#xfedf;&#xfe84;" horiz-adv-x="518" arabic-form="isolated" 
d="M104 628q28 3 59 3q-2 -32 -8 -54q-98 0 -167 -21q-11 19 -11 40q28 12 51 17q-32 17 -32 53q0 31 32 60.5t84 41.5q10 -27 12 -48q-63 -21 -89 -53q15 -39 69 -39zM66 -57q-12 39 -13 82q218 17 351 51l-121 549q37 27 85 27l92 -548q6 -37 -8 -65.5t-42 -35.5
q-141 -39 -344 -60zM241 88l-192 385q25 36 67 46l165 -380q-12 -26 -29 -49z" />
    <glyph glyph-name="uniFEF8" unicode="&#xfee0;&#xfe84;" horiz-adv-x="537" arabic-form="final" 
d="M177 633q-2 -32 -8 -54q-98 0 -167 -21q-11 19 -11 40q28 12 51 17q-32 17 -32 53q0 31 32 60.5t84 41.5q10 -27 12 -48q-63 -21 -89 -53q15 -39 69 -39q29 3 59 3zM575 7q1 -7 -6 -7q-109 0 -142 42q-148 -50 -365 -73q-13 43 -14 82q125 11 203 23l-195 398
q26 37 66 49l170 -399q-15 -35 -21 -45q73 11 130 24q-21 105 -60 282.5t-51 235.5q35 24 84 27l95 -552q31 -14 87 -14q6 0 7 -5z" />
    <glyph glyph-name="uniFEF9" unicode="&#xfedf;&#xfe88;" horiz-adv-x="518" arabic-form="isolated" 
d="M66 -57q-12 39 -13 82q218 17 351 51l-121 549q37 27 85 27l92 -548q6 -37 -8 -65.5t-42 -35.5q-141 -39 -344 -60zM241 88l-192 385q25 36 67 46l165 -380q-12 -26 -29 -49zM358 -206q28 3 59 3q-2 -32 -8 -54q-98 0 -167 -21q-11 19 -11 40q28 12 51 17q-32 17 -32 53
q0 31 32 60.5t84 41.5q10 -27 12 -48q-63 -21 -89 -53q15 -39 69 -39z" />
    <glyph glyph-name="uniFEFA" unicode="&#xfee0;&#xfe88;" horiz-adv-x="537" arabic-form="final" 
d="M575 7q1 -7 -6 -7q-109 0 -142 42q-148 -50 -365 -73q-13 43 -14 82q125 11 203 23l-195 398q26 37 66 49l170 -399q-15 -35 -21 -45q73 11 130 24q-21 105 -60 282.5t-51 235.5q35 24 84 27l95 -552q31 -14 87 -14q6 0 7 -5zM295 -163q15 -39 69 -39q29 3 59 3
q-2 -32 -8 -54q-98 0 -167 -21q-11 19 -11 40q28 12 51 17q-32 17 -32 53q0 31 32 60.5t84 41.5q10 -27 12 -48q-63 -21 -89 -53z" />
    <glyph glyph-name="uniFEFB" unicode="&#xfedf;&#xfe8e;" horiz-adv-x="518" arabic-form="isolated" 
d="M66 -57q-12 39 -13 82q218 17 351 51l-121 549q37 27 85 27l92 -548q6 -37 -8 -65.5t-42 -35.5q-141 -39 -344 -60zM241 88l-192 385q25 36 67 46l165 -380q-12 -26 -29 -49z" />
    <glyph glyph-name="uniFEFC" unicode="&#xfee0;&#xfe8e;" horiz-adv-x="537" arabic-form="final" 
d="M575 7q1 -7 -6 -7q-109 0 -142 42q-148 -50 -365 -73q-13 43 -14 82q125 11 203 23l-195 398q26 37 66 49l170 -399q-15 -35 -21 -45q73 11 130 24q-21 105 -60 282.5t-51 235.5q35 24 84 27l95 -552q31 -14 87 -14q6 0 7 -5z" />
    <glyph glyph-name="T_T" unicode="TT" horiz-adv-x="787" 
d="M837 535q2 -35 -13 -70h-167l-82 -463q-32 -10 -80 -4q71 429 77 467h-252l-82 -463q-30 -10 -80 -4q16 88 78 467h-168q-2 37 12 70h757z" />
    <glyph glyph-name="f_b" unicode="fb" horiz-adv-x="717" 
d="M487 592l-50 -269q77 61 109 61q61 0 100.5 -45.5t39.5 -116.5q0 -107 -62 -171.5t-174 -64.5q-88 0 -143 24q46 269 84 511q-90 0 -128 -33t-52 -106l-3 -12h100q2 -35 -12 -67h-98l-52 -303q-15 -91 -64.5 -145.5t-123.5 -70.5q-25 34 -28 68q58 12 93 51t48 114
l48 286h-91q-2 35 12 67h91l3 17q21 104 88.5 156.5t204.5 52.5zM470 55q43 0 82 17q51 54 51 135q0 46 -23.5 74t-59.5 28q-33 0 -91 -44l-34 -195q29 -15 75 -15z" />
    <glyph glyph-name="f_h" unicode="fh" horiz-adv-x="713" 
d="M487 592l-50 -269q77 61 109 61q66 0 99.5 -49t16.5 -142l-34 -191q-29 -10 -78 -4l31 182q11 63 -6 96t-56 33q-32 0 -90 -44l-46 -263q-31 -10 -78 -4q48 283 86 523q-90 0 -128 -33t-52 -106l-3 -12h100q2 -35 -12 -67h-98l-52 -303q-15 -91 -64.5 -145.5
t-123.5 -70.5q-25 34 -28 68q58 12 93 51t48 114l48 286h-91q-2 35 12 67h91l3 17q21 104 88.5 156.5t204.5 52.5z" />
    <glyph glyph-name="f_k" unicode="fk" horiz-adv-x="666" 
d="M487 592l-67 -374q106 74 185 158q54 -2 85 -15q-95 -95 -192 -161l142 -191q-44 -17 -85 -15l-139 197l-34 -189q-30 -10 -78 -4q62 353 87 523q-90 0 -128 -33t-52 -106l-3 -12h100q2 -35 -12 -67h-98l-52 -303q-15 -91 -64.5 -145.5t-123.5 -70.5q-25 34 -28 68
q58 12 93 51t48 114l48 286h-91q-2 35 12 67h91l3 17q21 104 88.5 156.5t204.5 52.5z" />
    <glyph glyph-name="f_t" unicode="ft" horiz-adv-x="580" 
d="M442 303l-28 -162q-14 -80 52 -80q30 0 63 10q2 -33 -5 -70q-40 -11 -81 -11q-131 0 -107 142l29 171h-167l-52 -303q-15 -91 -64.5 -145.5t-123.5 -70.5q-25 34 -28 68q58 12 93 51t48 114l48 286h-91q-2 35 12 67h90l4 20q15 97 79 149t152 58q15 -28 13 -73
q-149 -12 -167 -142l-1 -12h164l15 102q40 24 88 29l-23 -131h139q2 -32 -12 -67h-139z" />
    <glyph glyph-name="uni06440671" unicode="&#xfedf;&#xfb51;" horiz-adv-x="518" 
d="M152 731q29 0 47 -17.5t18 -46.5q0 -35 -24 -75q-42 -20 -96 -20q-50 0 -85 21q-30 -15 -64 -44q-13 10 -24 28q38 42 90 67q15 -8 26 -12q59 99 112 99zM167 628q7 16 7 27q0 13 -9.5 22t-23.5 9q-30 0 -70 -64q18 -3 38 -3q31 0 58 9zM66 -57q-12 39 -13 82
q218 17 351 51l-121 549q37 27 85 27l92 -548q6 -37 -8 -65.5t-42 -35.5q-141 -39 -344 -60zM241 88l-192 385q25 36 67 46l165 -380q-12 -26 -29 -49z" />
    <glyph glyph-name="uni06440671.fina" unicode="&#xfee0;&#xfb51;" horiz-adv-x="537" 
d="M207 594q-42 -20 -96 -20q-50 0 -85 21q-30 -15 -64 -44q-13 10 -24 28q38 42 90 67q15 -8 26 -12q59 99 112 99q29 0 47 -17.5t18 -46.5q0 -35 -24 -75zM155 688q-30 0 -70 -64q18 -3 38 -3q31 0 58 9q7 16 7 27q0 13 -9.5 22t-23.5 9zM575 7q1 -7 -6 -7q-109 0 -142 42
q-148 -50 -365 -73q-13 43 -14 82q125 11 203 23l-195 398q26 37 66 49l170 -399q-15 -35 -21 -45q73 11 130 24q-21 105 -60 282.5t-51 235.5q35 24 84 27l95 -552q31 -14 87 -14q6 0 7 -5z" />
    <glyph glyph-name="uni066E.init" unicode="&#x66e;" horiz-adv-x="265" 
d="M33 0q-7 0 -8 6l-11 68q-1 6 6 6q74 0 116 17q5 43 -7 100q-13 54 -43 112q32 28 76 35q23 -54 38 -122q11 -37 8.5 -92t-22.5 -80q-38 -50 -153 -50z" />
    <glyph glyph-name="uni066E.medi" unicode="&#x66e;" horiz-adv-x="278" 
d="M316 7q1 -7 -5 -7q-99 0 -169 54q-17 -26 -47.5 -40t-62.5 -14q-6 0 -7 6l-12 69q-2 5 5 5q44 0 76 17q19 71 21 181q39 2 78 -14q-3 -81 -26 -153q51 -31 129 -31q7 0 8 -5z" />
    <glyph glyph-name="uni066E.fina" unicode="&#x66e;" horiz-adv-x="800" 
d="M838 7q1 -7 -5 -7q-98 0 -170 54q-44 -54 -191 -54q-195 0 -432 77q5 47 27 85q207 -82 402 -82q103 0 147 17q20 73 20 181q40 2 79 -14q-5 -82 -27 -154q54 -30 130 -30q7 0 8 -5z" />
    <glyph glyph-name="uni066F.fina" unicode="&#x66f;" horiz-adv-x="582" 
d="M620 8q2 -8 -5 -8h-87q2 -90 -24 -130q-22 -32 -80.5 -55.5t-130.5 -23.5q-144 0 -281 72q4 42 25 78q146 -77 258 -77q102 0 167 37q7 37 2 99q-134 2 -204.5 40t-80.5 99q-7 47 10.5 98.5t53.5 86.5t76 35q70 0 126 -82.5t76 -196.5h80q7 0 7 -5zM230 162
q43 -80 223 -87q-18 84 -58 145.5t-84 61.5q-30 0 -54.5 -36.5t-26.5 -83.5z" />
    <glyph glyph-name="uni06A1.init" unicode="&#x6a1;" horiz-adv-x="427" 
d="M372 199q9 -93 -45 -147q-53 -52 -294 -52q-7 0 -8 6l-12 68q0 6 6 6q61 0 138 5q-96 48 -107 105q-14 63 29.5 131t112.5 69q70 1 121 -55.5t59 -135.5zM104 194q67 -65 165 -92q12 3 21 8q18 32 13 77q-6 52 -38 90.5t-76 38.5q-35 -2 -61.5 -39t-23.5 -83z" />
    <glyph glyph-name="uni06A1.medi" unicode="&#x6a1;" horiz-adv-x="420" 
d="M458 7q1 -7 -5 -7q-96 0 -171 28q-83 -28 -249 -28q-7 0 -8 6l-12 68q0 6 6 6q61 0 138 5q-96 48 -107 105q-14 63 29.5 131t112.5 69q70 1 121 -55.5t59 -135.5q6 -69 -21 -115q33 -4 87 -4q7 0 8 -5zM104 194q67 -65 165 -92q12 3 21 8q18 32 13 77q-6 52 -38 90.5
t-76 38.5q-35 -2 -61.5 -39t-23.5 -83z" />
    <glyph glyph-name="uni06A1.fina" unicode="&#x6a1;" horiz-adv-x="869" 
d="M908 7q1 -7 -5 -7q-96 0 -171 28q-81 -28 -246 -28h-1h-2q-207 0 -443 77q5 47 27 85q206 -82 403 -82q62 0 137 5q-96 48 -107 105q-14 63 29.5 131t112.5 69q70 1 121 -55.5t59 -135.5q6 -69 -21 -115q33 -4 87 -4q7 0 8 -5zM554 194q67 -65 165 -92q12 3 21 8
q18 32 13 77q-6 52 -38 90.5t-76 38.5q-35 -2 -61.5 -39t-23.5 -83z" />
    <glyph glyph-name="uni06C2.fina" unicode="&#x6c2;" horiz-adv-x="435" 
d="M231 389q29 3 59 3q-2 -32 -8 -54q-98 0 -167 -21q-11 19 -11 40q28 12 51 17q-32 17 -32 53q0 31 32 60.5t84 41.5q10 -27 12 -48q-63 -21 -89 -53q15 -39 69 -39zM467 0h-40q-125 0 -139 152q-117 -17 -240 -99q-15 43 -12 88q46 31 124.5 59.5t133.5 32.5
q27 -21 40 -38q9 -115 108 -115h12q7 0 7 -5l11 -67q2 -8 -5 -8z" />
    <glyph glyph-name="uni06C3.fina" unicode="&#x6c3;" horiz-adv-x="435" 
d="M86 320q-1 34 5 65q96 27 205 32l-5 -65q-95 -4 -205 -32zM467 0h-40q-125 0 -139 152q-117 -17 -240 -99q-15 43 -12 88q46 31 124.5 59.5t133.5 32.5q27 -21 40 -38q9 -115 108 -115h12q7 0 7 -5l11 -67q2 -8 -5 -8z" />
    <glyph glyph-name="uniFB51" unicode="&#x671;" horiz-adv-x="224" arabic-form="final" 
d="M113 768q29 0 47 -17.5t18 -46.5q0 -35 -24 -75q-42 -20 -96 -20q-50 0 -85 21q-30 -15 -64 -44q-13 10 -24 28q38 42 90 67q15 -8 26 -12q59 99 112 99zM128 665q7 16 7 27q0 13 -9.5 22t-23.5 9q-30 0 -70 -64q18 -3 38 -3q31 0 58 9zM256 0q-82 0 -118 21t-50 78
l-91 434q36 24 81 27l78 -466q31 -14 87 -14q6 0 7 -5l12 -68q1 -7 -6 -7z" />
    <glyph glyph-name="uniFB57" unicode="&#x67e;" horiz-adv-x="800" arabic-form="final" 
d="M838 7q1 -7 -5 -7q-98 0 -170 54q-44 -54 -191 -54q-195 0 -432 77q5 47 27 85q207 -82 402 -82q103 0 147 17q20 73 20 181q40 2 79 -14q-5 -82 -27 -154q54 -30 130 -30q7 0 8 -5zM439 -103h28q11 -5 50.5 -23.5t57.5 -27.5l-15 -60q-81 38 -112 50q-40 -25 -94 -65
q-5 29 -5 65q21 15 90 61z" />
    <glyph glyph-name="uniFB58" unicode="&#x67e;" horiz-adv-x="296" arabic-form="initial" 
d="M33 0q-7 0 -8 6l-11 68q-1 6 6 6h16q89 0 131 17q5 44 -8 100q-12 52 -42 112q30 28 76 35q25 -61 38 -122q11 -37 8 -92.5t-22 -79.5q-39 -50 -163 -50h-21zM77 -229q-5 29 -5 65q21 15 90 61h28q11 -5 50.5 -23.5t57.5 -27.5l-15 -60q-81 38 -112 50q-40 -25 -94 -65z
" />
    <glyph glyph-name="uniFB59" unicode="&#x67e;" horiz-adv-x="310" arabic-form="medial" 
d="M349 7q1 -7 -5 -7q-100 0 -170 54q-39 -54 -142 -54q-6 0 -7 6l-12 69q-2 5 5 5q64 0 108 17q21 71 21 181q41 2 78 -14q-3 -80 -26 -154q52 -30 130 -30q7 0 8 -5zM189 -103h28q11 -5 50.5 -23.5t57.5 -27.5l-15 -60q-81 38 -112 50q-40 -25 -94 -65q-5 29 -5 65
q21 15 90 61z" />
    <glyph glyph-name="uniFB67" unicode="&#x679;" horiz-adv-x="800" arabic-form="final" 
d="M493 348q-67 -10 -117 -10q-58 0 -116 9q0 31 8 52l41 -9q8 16 13 23l-41 159q18 15 46 17l20 -138q46 57 91 57q30 0 48 -20t22 -54q3 -45 -15 -86zM421 462q-35 0 -76 -76q24 -2 35 -2q45 0 87 6q2 11 0 32q-9 40 -46 40zM838 7q1 -7 -5 -7q-98 0 -170 54
q-44 -54 -191 -54q-195 0 -432 77q5 47 27 85q207 -82 402 -82q103 0 147 17q20 73 20 181q40 2 79 -14q-5 -82 -27 -154q54 -30 130 -30q7 0 8 -5z" />
    <glyph glyph-name="uniFB68" unicode="&#x679;" horiz-adv-x="296" arabic-form="initial" 
d="M250 521q3 -45 -15 -86q-67 -10 -117 -10q-58 0 -116 9q0 31 8 52l41 -9q8 16 13 23l-41 159q18 15 46 17l20 -138q46 57 91 57q30 0 48 -20t22 -54zM209 477q2 11 0 32q-9 40 -46 40q-35 0 -76 -76q24 -2 35 -2q45 0 87 6zM33 0q-7 0 -8 6l-11 68q-1 6 6 6h16
q89 0 131 17q5 44 -8 100q-12 52 -42 112q30 28 76 35q25 -61 38 -122q11 -37 8 -92.5t-22 -79.5q-39 -50 -163 -50h-21z" />
    <glyph glyph-name="uniFB69" unicode="&#x679;" horiz-adv-x="310" arabic-form="medial" 
d="M258 390q-67 -10 -117 -10q-57 0 -116 9q0 31 8 52l41 -9q8 16 13 23l-41 159q18 15 46 17l20 -138q46 57 91 57q30 0 48 -20t22 -54q3 -45 -15 -86zM186 504q-35 0 -76 -76q24 -2 35 -2q45 0 87 6q2 11 0 32q-9 40 -46 40zM349 7q1 -7 -5 -7q-100 0 -170 54
q-39 -54 -142 -54q-6 0 -7 6l-12 69q-2 5 5 5q64 0 108 17q21 71 21 181q41 2 78 -14q-3 -80 -26 -154q52 -30 130 -30q7 0 8 -5z" />
    <glyph glyph-name="uniFB6B" unicode="&#x6a4;" horiz-adv-x="869" arabic-form="final" 
d="M606 522q-40 -25 -94 -65q-5 29 -5 65q21 15 90 61h28q11 -5 50.5 -23.5t57.5 -27.5l-15 -60q-81 38 -112 50zM908 7q1 -7 -5 -7q-96 0 -171 28q-81 -28 -246 -28h-1h-2q-207 0 -443 77q5 47 27 85q206 -82 403 -82q62 0 137 5q-96 48 -107 105q-14 63 29.5 131t112.5 69
q70 1 121 -55.5t59 -135.5q6 -69 -21 -115q33 -4 87 -4q7 0 8 -5zM554 194q67 -65 165 -92q12 3 21 8q18 32 13 77q-6 52 -38 90.5t-76 38.5q-35 -2 -61.5 -39t-23.5 -83z" />
    <glyph glyph-name="uniFB6C" unicode="&#x6a4;" horiz-adv-x="427" arabic-form="initial" 
d="M156 522q-40 -25 -94 -65q-5 29 -5 65q21 15 90 61h28q11 -5 50.5 -23.5t57.5 -27.5l-15 -60q-81 38 -112 50zM372 199q9 -93 -45 -147q-53 -52 -294 -52q-7 0 -8 6l-12 68q0 6 6 6q61 0 138 5q-96 48 -107 105q-14 63 29.5 131t112.5 69q70 1 121 -55.5t59 -135.5z
M104 194q67 -65 165 -92q12 3 21 8q18 32 13 77q-6 52 -38 90.5t-76 38.5q-35 -2 -61.5 -39t-23.5 -83z" />
    <glyph glyph-name="uniFB6D" unicode="&#x6a4;" horiz-adv-x="420" arabic-form="medial" 
d="M156 522q-40 -25 -94 -65q-5 29 -5 65q21 15 90 61h28q11 -5 50.5 -23.5t57.5 -27.5l-15 -60q-81 38 -112 50zM458 7q1 -7 -5 -7q-96 0 -171 28q-83 -28 -249 -28q-7 0 -8 6l-12 68q0 6 6 6q61 0 138 5q-96 48 -107 105q-14 63 29.5 131t112.5 69q70 1 121 -55.5
t59 -135.5q6 -69 -21 -115q33 -4 87 -4q7 0 8 -5zM104 194q67 -65 165 -92q12 3 21 8q18 32 13 77q-6 52 -38 90.5t-76 38.5q-35 -2 -61.5 -39t-23.5 -83z" />
    <glyph glyph-name="uniFB7B" unicode="&#x686;" horiz-adv-x="565" arabic-form="final" 
d="M603 7q1 -7 -5 -7q-111 0 -191 59q-150 -51 -252 -123q18 -62 45.5 -109t79.5 -107q-30 -23 -73 -37q-54 64 -85 131.5t-31 116.5q0 131 322 208q-43 71 -111.5 114.5t-171.5 69.5q9 41 31 77q232 -62 306 -223q23 -43 3 -78q50 -19 113 -19q7 0 8 -5zM377 -104h28
q11 -5 50.5 -23.5t57.5 -27.5l-15 -60q-81 38 -112 50q-40 -25 -94 -65q-5 29 -5 65q21 15 90 61z" />
    <glyph glyph-name="uniFB7C" unicode="&#x686;" horiz-adv-x="423" arabic-form="initial" 
d="M85 385q138 -37 220 -109t82 -130q0 -65 -80 -105.5t-224 -40.5h-50q-7 0 -8 6l-11 67q-2 7 6 7h50q182 0 254 67q-74 108 -270 162q8 43 31 76zM203 -103h28q11 -5 50.5 -23.5t57.5 -27.5l-15 -60q-81 38 -112 50q-40 -25 -94 -65q-5 29 -5 65q21 15 90 61z" />
    <glyph glyph-name="uniFB7D" unicode="&#x686;" horiz-adv-x="476" arabic-form="medial" 
d="M514 7q1 -7 -5 -7q-109 0 -181 52q-81 -52 -245 -52h-50q-7 0 -8 6l-11 67q-2 7 6 7h50q182 0 254 67q-74 108 -270 162q8 43 31 76q138 -37 220 -109t82 -130q0 -25 -12 -46q51 -20 120 -20q7 0 8 -5zM203 -103h28q11 -5 50.5 -23.5t57.5 -27.5l-15 -60q-81 38 -112 50
q-40 -25 -94 -65q-5 29 -5 65q21 15 90 61z" />
    <glyph glyph-name="uniFB89" unicode="&#x688;" horiz-adv-x="449" arabic-form="final" 
d="M362 513q-67 -10 -117 -10q-57 0 -116 9q0 31 8 52l41 -9q8 16 13 23l-41 159q18 15 46 17l20 -138q46 57 91 57q30 0 48 -20t22 -54q3 -45 -15 -86zM290 627q-35 0 -76 -76q24 -2 35 -2q45 0 87 6q2 11 0 32q-9 40 -46 40zM487 7q1 -7 -6 -7q-51 0 -79.5 7.5t-48.5 27.5
q-84 -35 -174 -35q-69 0 -125 13q-15 44 -12 88q67 -20 152 -20q62 0 123 16q-47 111 -87 288q32 25 83 25q39 -213 76 -316q31 -14 79 -14q6 0 7 -5z" />
    <glyph glyph-name="uniFB8B" unicode="&#x698;" horiz-adv-x="355" arabic-form="final" 
d="M103 467q-40 -25 -94 -65q-5 29 -5 65q21 15 90 61h28q11 -5 50.5 -23.5t57.5 -27.5l-15 -60q-81 38 -112 50zM393 8q1 -8 -6 -8q-71 0 -115 25q-22 -56 -83.5 -131t-129.5 -137q-36 16 -65 56q95 86 144.5 139t88.5 110q-45 108 -131 231q28 31 72 44q32 -50 65 -121.5
t45 -118.5q41 -17 95 -17q7 0 8 -5z" />
    <glyph glyph-name="uniFB8D" unicode="&#x691;" horiz-adv-x="355" arabic-form="final" 
d="M224 435q-67 -10 -117 -10q-58 0 -116 9q0 31 8 52l41 -9q8 16 13 23l-41 159q18 15 46 17l20 -138q46 57 91 57q30 0 48 -20t22 -54q3 -45 -15 -86zM152 549q-35 0 -76 -76q24 -2 35 -2q45 0 87 6q2 11 0 32q-9 40 -46 40zM393 8q1 -8 -6 -8q-71 0 -115 25
q-22 -56 -83.5 -131t-129.5 -137q-36 16 -65 56q95 86 144.5 139t88.5 110q-45 108 -131 231q28 31 72 44q32 -50 65 -121.5t45 -118.5q41 -17 95 -17q7 0 8 -5z" />
    <glyph glyph-name="uniFB8F" unicode="&#x6a9;" horiz-adv-x="772" arabic-form="final" 
d="M806 7q1 -7 -5 -7q-151 0 -225 53q-97 -53 -240 -53q-141 0 -291 49q3 46 26 85q137 -54 254 -54q73 0 145 18t116 49q-19 28 -45 53q-55 52 -128 89q-24 -2 -36 -5q-23 16 -38 55q52 75 135 160.5t167 150.5q39 -6 74 -49q-151 -106 -277 -237q93 -50 154 -112
q57 -59 57 -106q0 -24 -18 -48q59 -18 155 -18q7 0 8 -5z" />
    <glyph glyph-name="uniFB90" unicode="&#x6a9;" horiz-adv-x="408" arabic-form="initial" 
d="M274 282q38 -31 66.5 -68.5t28.5 -67.5q0 -60 -97 -103t-239 -43q-7 0 -8 6l-11 67q-2 7 6 7q187 0 287 67q-27 44 -86 83q-45 29 -109 59q-32 0 -55 -5q-23 16 -38 55q52 75 135 160.5t167 150.5q39 -6 74 -49q-151 -106 -273 -233q92 -42 152 -86z" />
    <glyph glyph-name="uniFB91" unicode="&#x6a9;" horiz-adv-x="464" arabic-form="medial" 
d="M502 7q1 -7 -5 -7q-144 0 -216 47q-101 -47 -248 -47q-7 0 -8 6l-11 67q-2 7 6 7q187 0 287 67q-27 44 -86 83q-45 29 -109 59q-32 0 -55 -5q-23 16 -38 55q52 75 135 160.5t167 150.5q39 -6 74 -49q-151 -106 -273 -233q92 -42 152 -86q38 -31 66.5 -68.5t28.5 -67.5
q0 -27 -23 -53q55 -13 136 -13q7 0 8 -5z" />
    <glyph glyph-name="uniFB93" unicode="&#x6af;" horiz-adv-x="772" arabic-form="final" 
d="M263 368q-21 17 -26 24q50 71 129 159t163 160q22 -9 40 -24q-163 -135 -306 -319zM806 7q1 -7 -5 -7q-151 0 -225 53q-97 -53 -240 -53q-141 0 -291 49q3 46 26 85q137 -54 254 -54q73 0 145 18t116 49q-19 28 -45 53q-55 52 -128 89q-24 -2 -36 -5q-23 16 -38 55
q52 75 135 160.5t167 150.5q39 -6 74 -49q-151 -106 -277 -237q93 -50 154 -112q57 -59 57 -106q0 -24 -18 -48q59 -18 155 -18q7 0 8 -5z" />
    <glyph glyph-name="uniFB94" unicode="&#x6af;" horiz-adv-x="408" arabic-form="initial" 
d="M248 687q-163 -135 -306 -319q-21 17 -26 24q50 71 129 159t163 160q22 -9 40 -24zM274 282q38 -31 66.5 -68.5t28.5 -67.5q0 -60 -97 -103t-239 -43q-7 0 -8 6l-11 67q-2 7 6 7q187 0 287 67q-27 44 -86 83q-45 29 -109 59q-32 0 -55 -5q-23 16 -38 55q52 75 135 160.5
t167 150.5q39 -6 74 -49q-151 -106 -273 -233q92 -42 152 -86z" />
    <glyph glyph-name="uniFB95" unicode="&#x6af;" horiz-adv-x="464" arabic-form="medial" 
d="M248 687q-163 -135 -306 -319q-21 17 -26 24q50 71 129 159t163 160q22 -9 40 -24zM502 7q1 -7 -5 -7q-144 0 -216 47q-101 -47 -248 -47q-7 0 -8 6l-11 67q-2 7 6 7q187 0 287 67q-27 44 -86 83q-45 29 -109 59q-32 0 -55 -5q-23 16 -38 55q52 75 135 160.5t167 150.5
q39 -6 74 -49q-151 -106 -273 -233q92 -42 152 -86q38 -31 66.5 -68.5t28.5 -67.5q0 -27 -23 -53q55 -13 136 -13q7 0 8 -5z" />
    <glyph glyph-name="uniFB9F" unicode="&#x6ba;" horiz-adv-x="594" arabic-form="final" 
d="M632 8q1 -8 -6 -8q-57 0 -99 17q7 -97 -23 -147q-22 -32 -80.5 -55.5t-130.5 -23.5q-144 0 -281 72q4 42 25 78q146 -77 258 -77q102 0 167 37q10 67 -7 148q-18 88 -63 195q31 27 73 34q31 -80 51 -181q41 -17 96 -17q7 0 8 -5z" />
    <glyph glyph-name="uniFBA5" unicode="&#x6c0;" horiz-adv-x="444" arabic-form="final" 
d="M135 433q-11 19 -11 40q28 12 51 17q-32 17 -32 53q0 31 32 60.5t84 41.5q10 -27 12 -48q-63 -21 -89 -53q15 -39 69 -39q29 3 59 3q-2 -32 -8 -54q-98 0 -167 -21zM482 7q1 -7 -6 -7q-107 0 -143 39q-23 -20 -69 -39q-71 0 -133 37t-71 91q-10 57 52 131.5t150 110.5
q38 -8 70 -25l45 -251q31 -14 86 -14q7 0 8 -5zM262 80q27 0 47 4q-2 4 -4 14q-6 27 -21 98.5t-23 108.5q-52 -24 -93 -64t-58 -84q21 -36 68.5 -56.5t83.5 -20.5z" />
    <glyph glyph-name="uniFBA7" unicode="&#x6c1;" horiz-adv-x="435" arabic-form="final" 
d="M467 0h-40q-125 0 -139 152q-117 -17 -240 -99q-15 43 -12 88q46 31 124.5 59.5t133.5 32.5q27 -21 40 -38q9 -115 108 -115h12q7 0 7 -5l11 -67q2 -8 -5 -8z" />
    <glyph glyph-name="uniFBA8" unicode="&#x6c1;" horiz-adv-x="265" arabic-form="initial" 
d="M33 0q-7 0 -8 6l-11 68q-1 6 6 6q74 0 116 17q5 43 -7 100q-13 54 -43 112q32 28 76 35q23 -54 38 -122q11 -37 8.5 -92t-22.5 -80q-38 -50 -153 -50zM126 -244q-24 11 -38 33t-14 51q0 31 22 62.5t61 51.5q11 -4 16 -13q-39 -32 -39 -72q0 -46 54 -65q-30 -35 -62 -48z
" />
    <glyph glyph-name="uniFBA9" unicode="&#x6c1;" horiz-adv-x="582" arabic-form="medial" 
d="M621 8q2 -8 -5 -8h-117q-67 0 -103 -11q-14 -35 -6 -83q6 -42 23 -84q-11 -30 -35 -57q-225 63 -262 257q-40 -22 -83 -22q-7 0 -8 6l-11 67q-1 7 6 7q44 0 86 24q-1 39 0 77q29 3 68 -5q-7 -64 3 -123q23 -159 183 -209q-26 49 -29 99q-4 57 30 95t112 42h2h127
q7 0 7 -5zM527 -134q0 -46 54 -65q-30 -35 -62 -48q-24 11 -38 33t-14 51q0 31 22 62.5t61 51.5q11 -4 16 -13q-39 -32 -39 -72z" />
    <glyph glyph-name="uniFBAB" unicode="&#x6be;" horiz-adv-x="586" arabic-form="final" 
d="M624 8q2 -8 -5 -8q-54 0 -90 -11q-8 -26 -5 -64q2 -38 27 -87q-9 -23 -44 -65q-114 5 -195.5 59.5t-115.5 146.5l-131 -39q-10 38 -10 85q23 7 64 18.5t58 16.5q-21 148 30 241.5t120 92.5q68 -1 112.5 -70t51.5 -156q5 -41 -12 -71.5t-51 -43.5q-109 -37 -165 -54
q28 -61 89.5 -101.5t132.5 -45.5q-27 56 -27 107q0 121 134 121h14q6 0 7 -5zM322 319q-16 0 -32.5 -15t-30.5 -45t-19 -75t2 -105q61 18 186 58q-8 70 -36.5 126t-69.5 56z" />
    <glyph glyph-name="uniFBAC" unicode="&#x6be;" horiz-adv-x="541" arabic-form="initial" 
d="M486 163q13 -56 9 -136q-17 -33 -50 -61q-125 0 -249 56q-57 -22 -165 -22q-5 0 -6 5l-12 70q-3 5 5 5q21 0 48 0.5t34 0.5q-46 41 -50 74q-11 61 24.5 111t90.5 51q53 1 92 -32t49 -90q11 -66 -40 -125q79 -25 159 -28q0 74 -10 113q-26 105 -101 163.5t-208 74.5
q0 54 16 80q164 -25 249.5 -103t114.5 -207zM167 252q-28 -2 -46.5 -26.5t-22.5 -61.5q25 -31 92 -64q61 31 52 85q-5 31 -25.5 49.5t-49.5 17.5z" />
    <glyph glyph-name="uniFBAD" unicode="&#x6be;" horiz-adv-x="467" arabic-form="medial" 
d="M504 8q2 -8 -5 -8q-67 0 -103 -11q-14 -35 -6 -83q6 -42 23 -84q-11 -30 -35 -57q-225 63 -262 257q-40 -22 -83 -22q-7 0 -8 6l-11 67q-1 7 6 7q44 0 86 24q-1 39 0 77q29 3 68 -5q-7 -64 3 -123q23 -159 183 -209q-26 49 -29 99q-4 60 33 98.5t122 38.5q7 0 7 -5z" />
    <glyph glyph-name="uniFBAF" unicode="&#x6d2;" horiz-adv-x="425" arabic-form="final" 
d="M458 0h-42q-91 0 -146 -20.5t-112 -70.5q85 -62 202 -62q50 0 78 4q7 -30 10 -75q-58 -6 -96 -6q-170 0 -275 96q3 47 15 78q72 64 112 87q88 49 216 49h24q6 0 7 -5l12 -67q2 -8 -5 -8z" />
    <glyph glyph-name="uniFBB1" unicode="&#x6d3;" horiz-adv-x="425" arabic-form="final" 
d="M259 234q29 3 59 3q-2 -32 -8 -54q-98 0 -167 -21q-11 19 -11 40q28 12 51 17q-32 17 -32 53q0 31 32 60.5t84 41.5q10 -27 12 -48q-63 -21 -89 -53q15 -39 69 -39zM458 0h-42q-91 0 -146 -20.5t-112 -70.5q85 -62 202 -62q50 0 78 4q7 -30 10 -75q-58 -6 -96 -6
q-170 0 -275 96q3 47 15 78q72 64 112 87q88 49 216 49h24q6 0 7 -5l12 -67q2 -8 -5 -8z" />
    <glyph glyph-name="uniFBE8" unicode="&#x649;" horiz-adv-x="265" arabic-form="initial" 
d="M33 0q-7 0 -8 6l-11 68q-1 6 6 6q74 0 116 17q5 43 -7 100q-13 54 -43 112q32 28 76 35q23 -54 38 -122q11 -37 8.5 -92t-22.5 -80q-38 -50 -153 -50z" />
    <glyph glyph-name="uniFBE9" unicode="&#x649;" horiz-adv-x="278" arabic-form="medial" 
d="M316 7q1 -7 -5 -7q-99 0 -169 54q-17 -26 -47.5 -40t-62.5 -14q-6 0 -7 6l-12 69q-2 5 5 5q44 0 76 17q19 71 21 181q39 2 78 -14q-3 -81 -26 -153q51 -31 129 -31q7 0 8 -5z" />
    <glyph glyph-name="uniFBFD" unicode="&#x6cc;" horiz-adv-x="590" arabic-form="final" 
d="M289 -230q-160 0 -272 69q4 41 24 78q116 -73 248 -72q155 0 250 106q-55 59 -187 129q14 43 38 77q66 -41 114 -59t105 -18q7 0 8 -5l11 -67q2 -8 -5 -8h-44l-60 24l-1 -3q76 -43 76 -80q0 -18 -22.5 -46t-60 -56.5t-97.5 -48.5t-125 -20z" />
    <glyph glyph-name="uniFBFE" unicode="&#x6cc;" horiz-adv-x="296" arabic-form="initial" 
d="M33 0q-7 0 -8 6l-11 68q-1 6 6 6h16q89 0 131 17q5 44 -8 100q-12 52 -42 112q30 28 76 35q25 -61 38 -122q11 -37 8 -92.5t-22 -79.5q-39 -50 -163 -50h-21zM67 -195q-1 34 5 65q96 27 205 32l-5 -65q-95 -4 -205 -32z" />
    <glyph glyph-name="uniFBFF" unicode="&#x6cc;" horiz-adv-x="310" arabic-form="medial" 
d="M349 7q1 -7 -5 -7q-100 0 -170 54q-39 -54 -142 -54q-6 0 -7 6l-12 69q-2 5 5 5q64 0 108 17q21 71 21 181q41 2 78 -14q-3 -80 -26 -154q52 -30 130 -30q7 0 8 -5zM94 -195q-1 34 5 65q96 27 205 32l-5 -65q-95 -4 -205 -32z" />
    <glyph glyph-name="uniFC03" unicode="&#xfc03;" horiz-adv-x="610" arabic-form="isolated" 
d="M340 449q-11 19 -11 40q28 12 51 17q-32 17 -32 53q0 31 32 60.5t84 41.5q10 -27 12 -48q-63 -21 -89 -53q15 -39 69 -39q28 3 59 3q-2 -32 -8 -54q-98 0 -167 -21zM589 -46q3 -24 -17.5 -55.5t-58 -60t-97.5 -48.5t-127 -20q-160 0 -272 69q4 41 24 78q116 -73 248 -72
q151 0 246 104q-78 53 -215 114q5 41 15 74q75 -12 136 2q-4 56 -12 90q-15 61 -42 116q30 28 75 35q19 -45 36 -120q21 -99 0 -142q-18 -34 -121 -32v-2q174 -75 182 -130z" />
    <glyph glyph-name="uniFC04" unicode="&#xfc04;" horiz-adv-x="610" arabic-form="isolated" 
d="M340 449q-11 19 -11 40q28 12 51 17q-32 17 -32 53q0 31 32 60.5t84 41.5q10 -27 12 -48q-63 -21 -89 -53q15 -39 69 -39q28 3 59 3q-2 -32 -8 -54q-98 0 -167 -21zM589 -46q3 -24 -17.5 -55.5t-58 -60t-97.5 -48.5t-127 -20q-160 0 -272 69q4 41 24 78q116 -73 248 -72
q151 0 246 104q-78 53 -215 114q5 41 15 74q75 -12 136 2q-4 56 -12 90q-15 61 -42 116q30 28 75 35q19 -45 36 -120q21 -99 0 -142q-18 -34 -121 -32v-2q174 -75 182 -130zM205 -376q-1 34 5 65q96 27 205 32l-5 -65q-95 -4 -205 -32z" />
    <glyph glyph-name="uniFC09" unicode="&#xfc09;" horiz-adv-x="610" arabic-form="isolated" 
d="M589 -46q3 -24 -17.5 -55.5t-58 -60t-97.5 -48.5t-127 -20q-160 0 -272 69q4 41 24 78q116 -73 248 -72q151 0 246 104q-78 53 -215 114q5 41 15 74q75 -12 136 2q-4 56 -12 90q-15 61 -42 116q30 28 75 35q19 -45 36 -120q21 -99 0 -142q-18 -34 -121 -32v-2
q174 -75 182 -130zM560 -252q46 -26 77 -49l-44 -66q-38 26 -80 49q22 38 47 66z" />
    <glyph glyph-name="uniFC0A" unicode="&#xfc0a;" horiz-adv-x="610" arabic-form="isolated" 
d="M589 -46q3 -24 -17.5 -55.5t-58 -60t-97.5 -48.5t-127 -20q-160 0 -272 69q4 41 24 78q116 -73 248 -72q151 0 246 104q-78 53 -215 114q5 41 15 74q75 -12 136 2q-4 56 -12 90q-15 61 -42 116q30 28 75 35q19 -45 36 -120q21 -99 0 -142q-18 -34 -121 -32v-2
q174 -75 182 -130zM560 -252q46 -26 77 -49l-44 -66q-38 26 -80 49q22 38 47 66zM139 -376q-1 34 5 65q96 27 205 32l-5 -65q-95 -4 -205 -32z" />
    <glyph glyph-name="uniFC0F" unicode="&#xfc0f;" horiz-adv-x="610" arabic-form="isolated" 
d="M516 484q-95 -4 -205 -32q-1 34 5 65q96 27 205 32zM589 -46q3 -24 -17.5 -55.5t-58 -60t-97.5 -48.5t-127 -20q-160 0 -272 69q4 41 24 78q116 -73 248 -72q151 0 246 104q-78 53 -215 114q5 41 15 74q75 -12 136 2q-4 56 -12 90q-15 61 -42 116q30 28 75 35
q19 -45 36 -120q21 -99 0 -142q-18 -34 -121 -32v-2q174 -75 182 -130z" />
    <glyph glyph-name="uniFC10" unicode="&#xfc10;" horiz-adv-x="610" arabic-form="isolated" 
d="M516 484q-95 -4 -205 -32q-1 34 5 65q96 27 205 32zM589 -46q3 -24 -17.5 -55.5t-58 -60t-97.5 -48.5t-127 -20q-160 0 -272 69q4 41 24 78q116 -73 248 -72q151 0 246 104q-78 53 -215 114q5 41 15 74q75 -12 136 2q-4 56 -12 90q-15 61 -42 116q30 28 75 35
q19 -45 36 -120q21 -99 0 -142q-18 -34 -121 -32v-2q174 -75 182 -130zM205 -376q-1 34 5 65q96 27 205 32l-5 -65q-95 -4 -205 -32z" />
    <glyph glyph-name="uniFC13" unicode="&#xfc13;" horiz-adv-x="610" arabic-form="isolated" 
d="M414 501q-40 -25 -94 -65q-5 29 -5 65q21 15 90 61h28q11 -5 50.5 -23.5t57.5 -27.5l-15 -60q-81 38 -112 50zM589 -46q3 -24 -17.5 -55.5t-58 -60t-97.5 -48.5t-127 -20q-160 0 -272 69q4 41 24 78q116 -73 248 -72q151 0 246 104q-78 53 -215 114q5 41 15 74
q75 -12 136 2q-4 56 -12 90q-15 61 -42 116q30 28 75 35q19 -45 36 -120q21 -99 0 -142q-18 -34 -121 -32v-2q174 -75 182 -130z" />
    <glyph glyph-name="uniFC14" unicode="&#xfc14;" horiz-adv-x="610" arabic-form="isolated" 
d="M414 501q-40 -25 -94 -65q-5 29 -5 65q21 15 90 61h28q11 -5 50.5 -23.5t57.5 -27.5l-15 -60q-81 38 -112 50zM589 -46q3 -24 -17.5 -55.5t-58 -60t-97.5 -48.5t-127 -20q-160 0 -272 69q4 41 24 78q116 -73 248 -72q151 0 246 104q-78 53 -215 114q5 41 15 74
q75 -12 136 2q-4 56 -12 90q-15 61 -42 116q30 28 75 35q19 -45 36 -120q21 -99 0 -142q-18 -34 -121 -32v-2q174 -75 182 -130zM205 -376q-1 34 5 65q96 27 205 32l-5 -65q-95 -4 -205 -32z" />
    <glyph glyph-name="uniFC31" unicode="&#xfc31;" horiz-adv-x="607" arabic-form="isolated" 
d="M358 687l-44 -66q-38 26 -80 49q22 39 47 66q46 -26 77 -49zM589 -46q3 -24 -17.5 -55.5t-58 -60t-97.5 -48.5t-127 -20q-160 0 -272 69q4 41 24 78q116 -73 248 -72q151 0 246 104q-88 59 -226 115q6 44 16 75q80 -16 141 -1q2 45 0 78q-30 -10 -69 -10
q-76 0 -133.5 33.5t-63.5 92.5q-6 68 30.5 134.5t101.5 66.5q68 0 118.5 -70t70.5 -170q25 -126 -6 -176q-22 -33 -108 -31v-2q174 -75 182 -130zM395 270q33 0 63 9q-15 77 -51.5 131t-81.5 54q-35 0 -55.5 -37t-18.5 -92q52 -65 144 -65z" />
    <glyph glyph-name="uniFC32" unicode="&#xfc32;" horiz-adv-x="607" arabic-form="isolated" 
d="M358 687l-44 -66q-38 26 -80 49q22 39 47 66q46 -26 77 -49zM589 -46q3 -24 -17.5 -55.5t-58 -60t-97.5 -48.5t-127 -20q-160 0 -272 69q4 41 24 78q116 -73 248 -72q151 0 246 104q-88 59 -226 115q6 44 16 75q80 -16 141 -1q2 45 0 78q-30 -10 -69 -10
q-76 0 -133.5 33.5t-63.5 92.5q-6 68 30.5 134.5t101.5 66.5q68 0 118.5 -70t70.5 -170q25 -126 -6 -176q-22 -33 -108 -31v-2q174 -75 182 -130zM395 270q33 0 63 9q-15 77 -51.5 131t-81.5 54q-35 0 -55.5 -37t-18.5 -92q52 -65 144 -65zM198 -393q-1 34 5 65
q96 27 205 32l-5 -65q-95 -4 -205 -32z" />
    <glyph glyph-name="uniFC35" unicode="&#xfc35;" horiz-adv-x="607" arabic-form="isolated" 
d="M402 641q-95 -4 -205 -32q-1 34 5 65q96 27 205 32zM589 -46q3 -24 -17.5 -55.5t-58 -60t-97.5 -48.5t-127 -20q-160 0 -272 69q4 41 24 78q116 -73 248 -72q151 0 246 104q-88 59 -226 115q6 44 16 75q80 -16 141 -1q2 45 0 78q-30 -10 -69 -10q-76 0 -133.5 33.5
t-63.5 92.5q-6 68 30.5 134.5t101.5 66.5q68 0 118.5 -70t70.5 -170q25 -126 -6 -176q-22 -33 -108 -31v-2q174 -75 182 -130zM395 270q33 0 63 9q-15 77 -51.5 131t-81.5 54q-35 0 -55.5 -37t-18.5 -92q52 -65 144 -65z" />
    <glyph glyph-name="uniFC36" unicode="&#xfc36;" horiz-adv-x="607" arabic-form="isolated" 
d="M402 641q-95 -4 -205 -32q-1 34 5 65q96 27 205 32zM589 -46q3 -24 -17.5 -55.5t-58 -60t-97.5 -48.5t-127 -20q-160 0 -272 69q4 41 24 78q116 -73 248 -72q151 0 246 104q-88 59 -226 115q6 44 16 75q80 -16 141 -1q2 45 0 78q-30 -10 -69 -10q-76 0 -133.5 33.5
t-63.5 92.5q-6 68 30.5 134.5t101.5 66.5q68 0 118.5 -70t70.5 -170q25 -126 -6 -176q-22 -33 -108 -31v-2q174 -75 182 -130zM395 270q33 0 63 9q-15 77 -51.5 131t-81.5 54q-35 0 -55.5 -37t-18.5 -92q52 -65 144 -65zM198 -393q-1 34 5 65q96 27 205 32l-5 -65
q-95 -4 -205 -32z" />
    <glyph glyph-name="uniFC3D" unicode="&#xfc3d;" horiz-adv-x="912" arabic-form="isolated" 
d="M779 282q37 -30 65.5 -68t28.5 -68q0 -53 -75 -99.5t-175 -46.5h-44l-60 24l-1 -3q76 -43 76 -80q0 -18 -22.5 -46t-60 -56.5t-97.5 -48.5t-125 -20q-160 0 -272 69q4 41 24 78q116 -73 248 -72q155 0 250 106q-55 59 -187 129q14 43 38 77q66 -41 114 -59t105 -18
q117 0 202 67q-28 47 -86 83q-45 29 -109 59q-31 0 -55 -5q-25 19 -37 55q51 75 134 160t167 151q41 -6 74 -49q-154 -109 -272 -232q92 -43 152 -87z" />
    <glyph glyph-name="uniFC3E" unicode="&#xfc3e;" horiz-adv-x="912" arabic-form="isolated" 
d="M779 282q37 -30 65.5 -68t28.5 -68q0 -53 -75 -99.5t-175 -46.5h-44l-60 24l-1 -3q76 -43 76 -80q0 -18 -22.5 -46t-60 -56.5t-97.5 -48.5t-125 -20q-160 0 -272 69q4 41 24 78q116 -73 248 -72q155 0 250 106q-55 59 -187 129q14 43 38 77q66 -41 114 -59t105 -18
q117 0 202 67q-28 47 -86 83q-45 29 -109 59q-31 0 -55 -5q-25 19 -37 55q51 75 134 160t167 151q41 -6 74 -49q-154 -109 -272 -232q92 -43 152 -87zM187 -380q-1 34 5 65q96 27 205 32l-5 -65q-95 -4 -205 -32z" />
    <glyph glyph-name="uniFC44" unicode="&#xfc44;" horiz-adv-x="622" arabic-form="isolated" 
d="M589 -46q3 -24 -17.5 -55.5t-58 -60t-97.5 -48.5t-127 -20q-160 0 -272 69q4 41 24 78q116 -73 248 -72q151 0 246 104q-78 53 -215 114q5 41 15 74q76 -13 138 3q-15 70 -48 228.5t-48 230.5q37 27 84 27q12 -70 31.5 -184t26.5 -160q20 -116 16 -143q-1 -10 -5 -18
q-16 -37 -123 -35v-2q174 -75 182 -130zM198 -393q-1 34 5 65q96 27 205 32l-5 -65q-95 -4 -205 -32z" />
    <glyph glyph-name="uniFC4F" unicode="&#xfc4f;" horiz-adv-x="610" arabic-form="isolated" 
d="M472 530l-44 -66q-38 26 -80 49q22 39 47 66q46 -26 77 -49zM589 -46q3 -24 -17.5 -55.5t-58 -60t-97.5 -48.5t-127 -20q-160 0 -272 69q4 41 24 78q116 -73 248 -72q151 0 246 104q-78 53 -215 114q5 41 15 74q75 -12 136 2q-4 56 -12 90q-15 61 -42 116q30 28 75 35
q19 -45 36 -120q21 -99 0 -142q-18 -34 -121 -32v-2q174 -75 182 -130z" />
    <glyph glyph-name="uniFC50" unicode="&#xfc50;" horiz-adv-x="610" arabic-form="isolated" 
d="M472 530l-44 -66q-38 26 -80 49q22 39 47 66q46 -26 77 -49zM589 -46q3 -24 -17.5 -55.5t-58 -60t-97.5 -48.5t-127 -20q-160 0 -272 69q4 41 24 78q116 -73 248 -72q151 0 246 104q-78 53 -215 114q5 41 15 74q75 -12 136 2q-4 56 -12 90q-15 61 -42 116q30 28 75 35
q19 -45 36 -120q21 -99 0 -142q-18 -34 -121 -32v-2q174 -75 182 -130zM205 -376q-1 34 5 65q96 27 205 32l-5 -65q-95 -4 -205 -32z" />
    <glyph glyph-name="uniFC59" unicode="&#xfc59;" horiz-adv-x="610" arabic-form="isolated" 
d="M589 -46q3 -24 -17.5 -55.5t-58 -60t-97.5 -48.5t-127 -20q-160 0 -272 69q4 41 24 78q116 -73 248 -72q151 0 246 104q-78 53 -215 114q5 41 15 74q75 -12 136 2q-4 56 -12 90q-15 61 -42 116q30 28 75 35q19 -45 36 -120q21 -99 0 -142q-18 -34 -121 -32v-2
q174 -75 182 -130zM469 -279q96 27 205 32l-5 -65q-95 -4 -205 -32q-1 34 5 65z" />
    <glyph glyph-name="uniFC5A" unicode="&#xfc5a;" horiz-adv-x="610" arabic-form="isolated" 
d="M589 -46q3 -24 -17.5 -55.5t-58 -60t-97.5 -48.5t-127 -20q-160 0 -272 69q4 41 24 78q116 -73 248 -72q151 0 246 104q-78 53 -215 114q5 41 15 74q75 -12 136 2q-4 56 -12 90q-15 61 -42 116q30 28 75 35q19 -45 36 -120q21 -99 0 -142q-18 -34 -121 -32v-2
q174 -75 182 -130zM469 -279q96 27 205 32l-5 -65q-95 -4 -205 -32q-1 34 5 65zM139 -376q-1 34 5 65q96 27 205 32l-5 -65q-95 -4 -205 -32z" />
    <glyph glyph-name="uniFC64" unicode="&#xfc64;" horiz-adv-x="615" arabic-form="final" 
d="M345 445q-11 19 -11 40q28 12 51 17q-32 17 -32 53q0 31 32 60.5t84 41.5q10 -27 12 -48q-63 -21 -89 -53q15 -39 69 -39q29 3 59 3q-2 -32 -8 -54q-98 0 -167 -21zM653 8q2 -8 -5 -8q-176 0 -226 182q-5 20 -10 78q-35 -76 -103 -79q-35 -1 -66 9q39 -89 39 -123
q0 -52 -69 -142t-154 -168q-36 16 -65 56q95 86 144.5 139t88.5 110q-41 101 -108 201q26 25 59 38q44 -51 118 -51q43 0 71 30t40 78q22 7 59 7q-2 -71 8 -125q27 -160 159 -160q7 0 8 -5z" />
    <glyph glyph-name="uniFC65" unicode="&#xfc65;" horiz-adv-x="615" arabic-form="final" 
d="M345 445q-11 19 -11 40q28 12 51 17q-32 17 -32 53q0 31 32 60.5t84 41.5q10 -27 12 -48q-63 -21 -89 -53q15 -39 69 -39q29 3 59 3q-2 -32 -8 -54q-98 0 -167 -21zM151 456l-44 -66q-38 26 -80 49q22 39 47 66q46 -26 77 -49zM653 8q2 -8 -5 -8q-176 0 -226 182
q-5 20 -10 78q-35 -76 -103 -79q-35 -1 -66 9q39 -89 39 -123q0 -52 -69 -142t-154 -168q-36 16 -65 56q95 86 144.5 139t88.5 110q-41 101 -108 201q26 25 59 38q44 -51 118 -51q43 0 71 30t40 78q22 7 59 7q-2 -71 8 -125q27 -160 159 -160q7 0 8 -5z" />
    <glyph glyph-name="uniFC67" unicode="&#xfc67;" horiz-adv-x="850" arabic-form="final" 
d="M558 455q-11 19 -11 40q28 12 51 17q-32 17 -32 53q0 31 32 60.5t84 41.5q10 -27 12 -48q-63 -21 -89 -53q15 -39 69 -39q28 3 59 3q-2 -32 -8 -54q-98 0 -167 -21zM888 8q2 -8 -5 -8q-184 0 -226 173q-8 38 -10 66q-13 -32 -39.5 -52.5t-59.5 -21.5q-31 -2 -61 10
q27 -58 36 -112q21 -130 -19 -194q-21 -31 -79.5 -55t-130.5 -24q-146 0 -281 73q4 43 24 78q146 -77 258 -77q104 0 167 36q10 66 -6 148q-20 95 -78 194q27 25 60 38q41 -46 97 -46q40 0 68.5 31t39.5 72q26 9 59 7q-3 -51 7 -113q14 -78 53 -114.5t107 -36.5q7 0 8 -5z
M262 147l-44 -66q-38 26 -80 49q22 39 47 66q46 -26 77 -49z" />
    <glyph glyph-name="uniFC68" unicode="&#xfc68;" horiz-adv-x="762" arabic-form="final" 
d="M400 437q-11 19 -11 40q28 12 51 17q-32 17 -32 53q0 31 32 60.5t84 41.5q10 -27 12 -48q-63 -21 -89 -53q15 -39 69 -39q29 3 59 3q-2 -32 -8 -54q-98 0 -167 -21zM800 8q2 -8 -5 -8q-112 0 -177 65t-92 198q-68 -12 -119 -47t-72 -83q29 -19 96 -51t107 -57t40 -49
q0 -66 -82 -136t-215 -70q-152 0 -264 69q4 41 24 78q114 -72 248 -72q162 0 245 115q-17 9 -90 38t-121 57t-51 54q-6 69 64.5 139t182.5 92q35 -20 65 -52q18 -104 64.5 -156t132.5 -52q7 0 8 -5z" />
    <glyph glyph-name="uniFC69" unicode="&#xfc69;" horiz-adv-x="762" arabic-form="final" 
d="M400 437q-11 19 -11 40q28 12 51 17q-32 17 -32 53q0 31 32 60.5t84 41.5q10 -27 12 -48q-63 -21 -89 -53q15 -39 69 -39q29 3 59 3q-2 -32 -8 -54q-98 0 -167 -21zM800 8q2 -8 -5 -8q-112 0 -177 65t-92 198q-68 -12 -119 -47t-72 -83q29 -19 96 -51t107 -57t40 -49
q0 -66 -82 -136t-215 -70q-152 0 -264 69q4 41 24 78q114 -72 248 -72q162 0 245 115q-17 9 -90 38t-121 57t-51 54q-6 69 64.5 139t182.5 92q35 -20 65 -52q18 -104 64.5 -156t132.5 -52q7 0 8 -5zM165 -380q-1 34 5 65q96 27 205 32l-5 -65q-95 -4 -205 -32z" />
    <glyph glyph-name="uniFC6A" unicode="&#xfc6a;" horiz-adv-x="615" arabic-form="final" 
d="M653 8q2 -8 -5 -8q-176 0 -226 182q-5 20 -10 78q-35 -76 -103 -79q-35 -1 -66 9q39 -89 39 -123q0 -52 -69 -142t-154 -168q-36 16 -65 56q95 86 144.5 139t88.5 110q-41 101 -108 201q26 25 59 38q44 -51 118 -51q43 0 71 30t40 78q22 7 59 7q-2 -71 8 -125
q27 -160 159 -160q7 0 8 -5zM354 -169q22 38 47 66q46 -26 77 -49l-44 -66q-38 26 -80 49z" />
    <glyph glyph-name="uniFC6B" unicode="&#xfc6b;" horiz-adv-x="615" arabic-form="final" 
d="M151 456l-44 -66q-38 26 -80 49q22 39 47 66q46 -26 77 -49zM653 8q2 -8 -5 -8q-176 0 -226 182q-5 20 -10 78q-35 -76 -103 -79q-35 -1 -66 9q39 -89 39 -123q0 -52 -69 -142t-154 -168q-36 16 -65 56q95 86 144.5 139t88.5 110q-41 101 -108 201q26 25 59 38
q44 -51 118 -51q43 0 71 30t40 78q22 7 59 7q-2 -71 8 -125q27 -160 159 -160q7 0 8 -5zM354 -169q22 38 47 66q46 -26 77 -49l-44 -66q-38 26 -80 49z" />
    <glyph glyph-name="uniFC6D" unicode="&#xfc6d;" horiz-adv-x="850" arabic-form="final" 
d="M888 8q2 -8 -5 -8q-184 0 -226 173q-8 38 -10 66q-13 -32 -39.5 -52.5t-59.5 -21.5q-31 -2 -61 10q27 -58 36 -112q21 -130 -19 -194q-21 -31 -79.5 -55t-130.5 -24q-146 0 -281 73q4 43 24 78q146 -77 258 -77q104 0 167 36q10 66 -6 148q-20 95 -78 194q27 25 60 38
q41 -46 97 -46q40 0 68.5 31t39.5 72q26 9 59 7q-3 -51 7 -113q14 -78 53 -114.5t107 -36.5q7 0 8 -5zM262 147l-44 -66q-38 26 -80 49q22 39 47 66q46 -26 77 -49zM619 -170q22 38 47 66q46 -26 77 -49l-44 -66q-38 26 -80 49z" />
    <glyph glyph-name="uniFC6E" unicode="&#xfc6e;" horiz-adv-x="762" arabic-form="final" 
d="M800 8q2 -8 -5 -8q-112 0 -177 65t-92 198q-68 -12 -119 -47t-72 -83q29 -19 96 -51t107 -57t40 -49q0 -66 -82 -136t-215 -70q-152 0 -264 69q4 41 24 78q114 -72 248 -72q162 0 245 115q-17 9 -90 38t-121 57t-51 54q-6 69 64.5 139t182.5 92q35 -20 65 -52
q18 -104 64.5 -156t132.5 -52q7 0 8 -5zM637 -169q22 38 47 66q46 -26 77 -49l-44 -66q-38 26 -80 49z" />
    <glyph glyph-name="uniFC6F" unicode="&#xfc6f;" horiz-adv-x="762" arabic-form="final" 
d="M800 8q2 -8 -5 -8q-112 0 -177 65t-92 198q-68 -12 -119 -47t-72 -83q29 -19 96 -51t107 -57t40 -49q0 -66 -82 -136t-215 -70q-152 0 -264 69q4 41 24 78q114 -72 248 -72q162 0 245 115q-17 9 -90 38t-121 57t-51 54q-6 69 64.5 139t182.5 92q35 -20 65 -52
q18 -104 64.5 -156t132.5 -52q7 0 8 -5zM637 -169q22 38 47 66q46 -26 77 -49l-44 -66q-38 26 -80 49zM165 -380q-1 34 5 65q96 27 205 32l-5 -65q-95 -4 -205 -32z" />
    <glyph glyph-name="uniFC70" unicode="&#xfc70;" horiz-adv-x="615" arabic-form="final" 
d="M521 480q-95 -4 -205 -32q-1 34 5 65q96 27 205 32zM653 8q2 -8 -5 -8q-176 0 -226 182q-5 20 -10 78q-35 -76 -103 -79q-35 -1 -66 9q39 -89 39 -123q0 -52 -69 -142t-154 -168q-36 16 -65 56q95 86 144.5 139t88.5 110q-41 101 -108 201q26 25 59 38q44 -51 118 -51
q43 0 71 30t40 78q22 7 59 7q-2 -71 8 -125q27 -160 159 -160q7 0 8 -5z" />
    <glyph glyph-name="uniFC71" unicode="&#xfc71;" horiz-adv-x="615" arabic-form="final" 
d="M521 480q-95 -4 -205 -32q-1 34 5 65q96 27 205 32zM151 456l-44 -66q-38 26 -80 49q22 39 47 66q46 -26 77 -49zM653 8q2 -8 -5 -8q-176 0 -226 182q-5 20 -10 78q-35 -76 -103 -79q-35 -1 -66 9q39 -89 39 -123q0 -52 -69 -142t-154 -168q-36 16 -65 56
q95 86 144.5 139t88.5 110q-41 101 -108 201q26 25 59 38q44 -51 118 -51q43 0 71 30t40 78q22 7 59 7q-2 -71 8 -125q27 -160 159 -160q7 0 8 -5z" />
    <glyph glyph-name="uniFC73" unicode="&#xfc73;" horiz-adv-x="850" arabic-form="final" 
d="M734 490q-95 -4 -205 -32q-1 34 5 65q96 27 205 32zM888 8q2 -8 -5 -8q-184 0 -226 173q-8 38 -10 66q-13 -32 -39.5 -52.5t-59.5 -21.5q-31 -2 -61 10q27 -58 36 -112q21 -130 -19 -194q-21 -31 -79.5 -55t-130.5 -24q-146 0 -281 73q4 43 24 78q146 -77 258 -77
q104 0 167 36q10 66 -6 148q-20 95 -78 194q27 25 60 38q41 -46 97 -46q40 0 68.5 31t39.5 72q26 9 59 7q-3 -51 7 -113q14 -78 53 -114.5t107 -36.5q7 0 8 -5zM262 147l-44 -66q-38 26 -80 49q22 39 47 66q46 -26 77 -49z" />
    <glyph glyph-name="uniFC74" unicode="&#xfc74;" horiz-adv-x="762" arabic-form="final" 
d="M576 472q-95 -4 -205 -32q-1 34 5 65q96 27 205 32zM800 8q2 -8 -5 -8q-112 0 -177 65t-92 198q-68 -12 -119 -47t-72 -83q29 -19 96 -51t107 -57t40 -49q0 -66 -82 -136t-215 -70q-152 0 -264 69q4 41 24 78q114 -72 248 -72q162 0 245 115q-17 9 -90 38t-121 57t-51 54
q-6 69 64.5 139t182.5 92q35 -20 65 -52q18 -104 64.5 -156t132.5 -52q7 0 8 -5z" />
    <glyph glyph-name="uniFC75" unicode="&#xfc75;" horiz-adv-x="762" arabic-form="final" 
d="M576 472q-95 -4 -205 -32q-1 34 5 65q96 27 205 32zM800 8q2 -8 -5 -8q-112 0 -177 65t-92 198q-68 -12 -119 -47t-72 -83q29 -19 96 -51t107 -57t40 -49q0 -66 -82 -136t-215 -70q-152 0 -264 69q4 41 24 78q114 -72 248 -72q162 0 245 115q-17 9 -90 38t-121 57t-51 54
q-6 69 64.5 139t182.5 92q35 -20 65 -52q18 -104 64.5 -156t132.5 -52q7 0 8 -5zM165 -380q-1 34 5 65q96 27 205 32l-5 -65q-95 -4 -205 -32z" />
    <glyph glyph-name="uniFC76" unicode="&#xfc76;" horiz-adv-x="615" arabic-form="final" 
d="M419 497q-40 -25 -94 -65q-5 29 -5 65q21 15 90 61h28q11 -5 50.5 -23.5t57.5 -27.5l-15 -60q-81 38 -112 50zM653 8q2 -8 -5 -8q-176 0 -226 182q-5 20 -10 78q-35 -76 -103 -79q-35 -1 -66 9q39 -89 39 -123q0 -52 -69 -142t-154 -168q-36 16 -65 56q95 86 144.5 139
t88.5 110q-41 101 -108 201q26 25 59 38q44 -51 118 -51q43 0 71 30t40 78q22 7 59 7q-2 -71 8 -125q27 -160 159 -160q7 0 8 -5z" />
    <glyph glyph-name="uniFC77" unicode="&#xfc77;" horiz-adv-x="615" arabic-form="final" 
d="M419 497q-40 -25 -94 -65q-5 29 -5 65q21 15 90 61h28q11 -5 50.5 -23.5t57.5 -27.5l-15 -60q-81 38 -112 50zM151 456l-44 -66q-38 26 -80 49q22 39 47 66q46 -26 77 -49zM653 8q2 -8 -5 -8q-176 0 -226 182q-5 20 -10 78q-35 -76 -103 -79q-35 -1 -66 9q39 -89 39 -123
q0 -52 -69 -142t-154 -168q-36 16 -65 56q95 86 144.5 139t88.5 110q-41 101 -108 201q26 25 59 38q44 -51 118 -51q43 0 71 30t40 78q22 7 59 7q-2 -71 8 -125q27 -160 159 -160q7 0 8 -5z" />
    <glyph glyph-name="uniFC79" unicode="&#xfc79;" horiz-adv-x="850" arabic-form="final" 
d="M632 507q-40 -25 -94 -65q-5 29 -5 65q21 15 90 61h28q11 -5 50.5 -23.5t57.5 -27.5l-15 -60q-81 38 -112 50zM888 8q2 -8 -5 -8q-184 0 -226 173q-8 38 -10 66q-13 -32 -39.5 -52.5t-59.5 -21.5q-31 -2 -61 10q27 -58 36 -112q21 -130 -19 -194q-21 -31 -79.5 -55
t-130.5 -24q-146 0 -281 73q4 43 24 78q146 -77 258 -77q104 0 167 36q10 66 -6 148q-20 95 -78 194q27 25 60 38q41 -46 97 -46q40 0 68.5 31t39.5 72q26 9 59 7q-3 -51 7 -113q14 -78 53 -114.5t107 -36.5q7 0 8 -5zM262 147l-44 -66q-38 26 -80 49q22 39 47 66
q46 -26 77 -49z" />
    <glyph glyph-name="uniFC7A" unicode="&#xfc7a;" horiz-adv-x="762" arabic-form="final" 
d="M474 489q-40 -25 -94 -65q-5 29 -5 65q21 15 90 61h28q11 -5 50.5 -23.5t57.5 -27.5l-15 -60q-81 38 -112 50zM800 8q2 -8 -5 -8q-112 0 -177 65t-92 198q-68 -12 -119 -47t-72 -83q29 -19 96 -51t107 -57t40 -49q0 -66 -82 -136t-215 -70q-152 0 -264 69q4 41 24 78
q114 -72 248 -72q162 0 245 115q-17 9 -90 38t-121 57t-51 54q-6 69 64.5 139t182.5 92q35 -20 65 -52q18 -104 64.5 -156t132.5 -52q7 0 8 -5z" />
    <glyph glyph-name="uniFC7B" unicode="&#xfc7b;" horiz-adv-x="762" arabic-form="final" 
d="M474 489q-40 -25 -94 -65q-5 29 -5 65q21 15 90 61h28q11 -5 50.5 -23.5t57.5 -27.5l-15 -60q-81 38 -112 50zM800 8q2 -8 -5 -8q-112 0 -177 65t-92 198q-68 -12 -119 -47t-72 -83q29 -19 96 -51t107 -57t40 -49q0 -66 -82 -136t-215 -70q-152 0 -264 69q4 41 24 78
q114 -72 248 -72q162 0 245 115q-17 9 -90 38t-121 57t-51 54q-6 69 64.5 139t182.5 92q35 -20 65 -52q18 -104 64.5 -156t132.5 -52q7 0 8 -5zM165 -380q-1 34 5 65q96 27 205 32l-5 -65q-95 -4 -205 -32z" />
    <glyph glyph-name="uniFC83" unicode="&#xfc83;" horiz-adv-x="974" arabic-form="final" 
d="M1011 7q1 -7 -5 -7q-140 0 -211 45q-75 -45 -172 -45h-44l-60 24l-1 -3q76 -43 76 -80q0 -18 -22.5 -46t-60 -56.5t-97.5 -48.5t-125 -20q-160 0 -272 69q4 41 24 78q116 -73 248 -72q155 0 250 106q-55 59 -187 129q14 43 38 77q66 -41 114 -59t105 -18q117 0 202 67
q-28 47 -86 83q-45 29 -109 59q-31 0 -55 -5q-25 19 -37 55q51 75 134 160t167 151q41 -6 74 -49q-154 -109 -272 -232q92 -43 152 -87q37 -30 65.5 -68t28.5 -68q0 -26 -20 -52q53 -14 139 -14q7 0 8 -5z" />
    <glyph glyph-name="uniFC84" unicode="&#xfc84;" horiz-adv-x="974" arabic-form="final" 
d="M1011 7q1 -7 -5 -7q-140 0 -211 45q-75 -45 -172 -45h-44l-60 24l-1 -3q76 -43 76 -80q0 -18 -22.5 -46t-60 -56.5t-97.5 -48.5t-125 -20q-160 0 -272 69q4 41 24 78q116 -73 248 -72q155 0 250 106q-55 59 -187 129q14 43 38 77q66 -41 114 -59t105 -18q117 0 202 67
q-28 47 -86 83q-45 29 -109 59q-31 0 -55 -5q-25 19 -37 55q51 75 134 160t167 151q41 -6 74 -49q-154 -109 -272 -232q92 -43 152 -87q37 -30 65.5 -68t28.5 -68q0 -26 -20 -52q53 -14 139 -14q7 0 8 -5zM187 -380q-1 34 5 65q96 27 205 32l-5 -65q-95 -4 -205 -32z" />
    <glyph glyph-name="uniFC87" unicode="&#xfc87;" horiz-adv-x="732" arabic-form="final" 
d="M771 7q1 -7 -6 -7q-77 0 -116 23t-52 76q-2 10 -4 17q-51 -24 -106 -27q-40 -6 -80 -3v-2q174 -75 182 -130q3 -24 -17.5 -55.5t-58 -60t-97.5 -48.5t-127 -20q-160 0 -272 69q4 41 24 78q116 -73 248 -72q151 0 246 104q-78 53 -215 114q6 53 15 83q73 -8 132 0
q59 5 113 33q-17 82 -46.5 221t-42.5 199q38 24 84 27l90 -532q31 -14 87 -14q6 0 7 -5zM216 -384q-1 34 5 65q96 27 205 32l-5 -65q-95 -4 -205 -32z" />
    <glyph glyph-name="uniFC8A" unicode="&#xfc8a;" horiz-adv-x="615" arabic-form="final" 
d="M477 526l-44 -66q-38 26 -80 49q22 39 47 66q46 -26 77 -49zM653 8q2 -8 -5 -8q-176 0 -226 182q-5 20 -10 78q-35 -76 -103 -79q-35 -1 -66 9q39 -89 39 -123q0 -52 -69 -142t-154 -168q-36 16 -65 56q95 86 144.5 139t88.5 110q-41 101 -108 201q26 25 59 38
q44 -51 118 -51q43 0 71 30t40 78q22 7 59 7q-2 -71 8 -125q27 -160 159 -160q7 0 8 -5z" />
    <glyph glyph-name="uniFC8B" unicode="&#xfc8b;" horiz-adv-x="615" arabic-form="final" 
d="M477 526l-44 -66q-38 26 -80 49q22 39 47 66q46 -26 77 -49zM151 456l-44 -66q-38 26 -80 49q22 39 47 66q46 -26 77 -49zM653 8q2 -8 -5 -8q-176 0 -226 182q-5 20 -10 78q-35 -76 -103 -79q-35 -1 -66 9q39 -89 39 -123q0 -52 -69 -142t-154 -168q-36 16 -65 56
q95 86 144.5 139t88.5 110q-41 101 -108 201q26 25 59 38q44 -51 118 -51q43 0 71 30t40 78q22 7 59 7q-2 -71 8 -125q27 -160 159 -160q7 0 8 -5z" />
    <glyph glyph-name="uniFC8D" unicode="&#xfc8d;" horiz-adv-x="850" arabic-form="final" 
d="M690 536l-44 -66q-38 26 -80 49q22 38 47 66q46 -26 77 -49zM888 8q2 -8 -5 -8q-184 0 -226 173q-8 38 -10 66q-13 -32 -39.5 -52.5t-59.5 -21.5q-31 -2 -61 10q27 -58 36 -112q21 -130 -19 -194q-21 -31 -79.5 -55t-130.5 -24q-146 0 -281 73q4 43 24 78
q146 -77 258 -77q104 0 167 36q10 66 -6 148q-20 95 -78 194q27 25 60 38q41 -46 97 -46q40 0 68.5 31t39.5 72q26 9 59 7q-3 -51 7 -113q14 -78 53 -114.5t107 -36.5q7 0 8 -5zM262 147l-44 -66q-38 26 -80 49q22 39 47 66q46 -26 77 -49z" />
    <glyph glyph-name="uniFC8E" unicode="&#xfc8e;" horiz-adv-x="762" arabic-form="final" 
d="M532 518l-44 -66q-38 26 -80 49q22 38 47 66q46 -26 77 -49zM800 8q2 -8 -5 -8q-112 0 -177 65t-92 198q-68 -12 -119 -47t-72 -83q29 -19 96 -51t107 -57t40 -49q0 -66 -82 -136t-215 -70q-152 0 -264 69q4 41 24 78q114 -72 248 -72q162 0 245 115q-17 9 -90 38
t-121 57t-51 54q-6 69 64.5 139t182.5 92q35 -20 65 -52q18 -104 64.5 -156t132.5 -52q7 0 8 -5z" />
    <glyph glyph-name="uniFC8F" unicode="&#xfc8f;" horiz-adv-x="762" arabic-form="final" 
d="M532 518l-44 -66q-38 26 -80 49q22 38 47 66q46 -26 77 -49zM800 8q2 -8 -5 -8q-112 0 -177 65t-92 198q-68 -12 -119 -47t-72 -83q29 -19 96 -51t107 -57t40 -49q0 -66 -82 -136t-215 -70q-152 0 -264 69q4 41 24 78q114 -72 248 -72q162 0 245 115q-17 9 -90 38
t-121 57t-51 54q-6 69 64.5 139t182.5 92q35 -20 65 -52q18 -104 64.5 -156t132.5 -52q7 0 8 -5zM165 -380q-1 34 5 65q96 27 205 32l-5 -65q-95 -4 -205 -32z" />
    <glyph glyph-name="uniFC91" unicode="&#xfc91;" horiz-adv-x="615" arabic-form="final" 
d="M653 8q2 -8 -5 -8q-176 0 -226 182q-5 20 -10 78q-35 -76 -103 -79q-35 -1 -66 9q39 -89 39 -123q0 -52 -69 -142t-154 -168q-36 16 -65 56q95 86 144.5 139t88.5 110q-41 101 -108 201q26 25 59 38q44 -51 118 -51q43 0 71 30t40 78q22 7 59 7q-2 -71 8 -125
q27 -160 159 -160q7 0 8 -5zM305 -195q-1 34 5 65q96 27 205 32l-5 -65q-95 -4 -205 -32z" />
    <glyph glyph-name="uniFC92" unicode="&#xfc92;" horiz-adv-x="615" arabic-form="final" 
d="M151 456l-44 -66q-38 26 -80 49q22 39 47 66q46 -26 77 -49zM653 8q2 -8 -5 -8q-176 0 -226 182q-5 20 -10 78q-35 -76 -103 -79q-35 -1 -66 9q39 -89 39 -123q0 -52 -69 -142t-154 -168q-36 16 -65 56q95 86 144.5 139t88.5 110q-41 101 -108 201q26 25 59 38
q44 -51 118 -51q43 0 71 30t40 78q22 7 59 7q-2 -71 8 -125q27 -160 159 -160q7 0 8 -5zM305 -195q-1 34 5 65q96 27 205 32l-5 -65q-95 -4 -205 -32z" />
    <glyph glyph-name="uniFC94" unicode="&#xfc94;" horiz-adv-x="850" arabic-form="final" 
d="M888 8q2 -8 -5 -8q-184 0 -226 173q-8 38 -10 66q-13 -32 -39.5 -52.5t-59.5 -21.5q-31 -2 -61 10q27 -58 36 -112q21 -130 -19 -194q-21 -31 -79.5 -55t-130.5 -24q-146 0 -281 73q4 43 24 78q146 -77 258 -77q104 0 167 36q10 66 -6 148q-20 95 -78 194q27 25 60 38
q41 -46 97 -46q40 0 68.5 31t39.5 72q26 9 59 7q-3 -51 7 -113q14 -78 53 -114.5t107 -36.5q7 0 8 -5zM262 147l-44 -66q-38 26 -80 49q22 39 47 66q46 -26 77 -49zM570 -196q-1 34 5 65q96 27 205 32l-5 -65q-95 -4 -205 -32z" />
    <glyph glyph-name="uniFC95" unicode="&#xfc95;" horiz-adv-x="762" arabic-form="final" 
d="M800 8q2 -8 -5 -8q-112 0 -177 65t-92 198q-68 -12 -119 -47t-72 -83q29 -19 96 -51t107 -57t40 -49q0 -66 -82 -136t-215 -70q-152 0 -264 69q4 41 24 78q114 -72 248 -72q162 0 245 115q-17 9 -90 38t-121 57t-51 54q-6 69 64.5 139t182.5 92q35 -20 65 -52
q18 -104 64.5 -156t132.5 -52q7 0 8 -5zM588 -195q-1 34 5 65q96 27 205 32l-5 -65q-95 -4 -205 -32z" />
    <glyph glyph-name="uniFC96" unicode="&#xfc96;" horiz-adv-x="762" arabic-form="final" 
d="M800 8q2 -8 -5 -8q-112 0 -177 65t-92 198q-68 -12 -119 -47t-72 -83q29 -19 96 -51t107 -57t40 -49q0 -66 -82 -136t-215 -70q-152 0 -264 69q4 41 24 78q114 -72 248 -72q162 0 245 115q-17 9 -90 38t-121 57t-51 54q-6 69 64.5 139t182.5 92q35 -20 65 -52
q18 -104 64.5 -156t132.5 -52q7 0 8 -5zM588 -195q-1 34 5 65q96 27 205 32l-5 -65q-95 -4 -205 -32zM165 -380q-1 34 5 65q96 27 205 32l-5 -65q-95 -4 -205 -32z" />
    <glyph glyph-name="uniFC9B" unicode="&#xfc9b;" horiz-adv-x="670" arabic-form="initial" 
d="M355 413q-11 19 -11 40q28 12 51 17q-32 17 -32 53q0 31 32 60.5t84 41.5q10 -27 12 -48q-63 -21 -89 -53q15 -39 69 -39q28 3 59 3q-2 -32 -8 -54q-98 0 -167 -21zM479 327q57 2 125 -30q-5 -41 -20 -77q-58 26 -108 26q-54 0 -82 -32.5t-28 -91.5q0 -65 25.5 -135.5
t65.5 -126.5q-15 -34 -42 -61q-109 23 -185 80.5t-109 145.5q-43 -25 -88 -25q-7 0 -8 6l-11 66q-2 8 5 8q43 0 83 21q-13 89 -8 159q28 4 68 -3q-8 -72 5 -146q17 -93 76 -152.5t143 -80.5q-41 52 -64.5 119.5t-23.5 129.5q0 87 48.5 142t132.5 58z" />
    <glyph glyph-name="uniFCA0" unicode="&#xfca0;" horiz-adv-x="670" arabic-form="initial" 
d="M476 246q-54 0 -82 -32.5t-28 -91.5q0 -65 25.5 -135.5t65.5 -126.5q-15 -34 -42 -61q-109 23 -185 80.5t-109 145.5q-43 -25 -88 -25q-7 0 -8 6l-11 66q-2 8 5 8q43 0 83 21q-13 89 -8 159q28 4 68 -3q-8 -72 5 -146q17 -93 76 -152.5t143 -80.5q-41 52 -64.5 119.5
t-23.5 129.5q0 87 48.5 142t132.5 58q57 2 125 -30q-5 -41 -20 -77q-58 26 -108 26zM535 121q46 -26 77 -49l-44 -66q-38 26 -80 49q22 38 47 66z" />
    <glyph glyph-name="uniFCA5" unicode="&#xfca5;" horiz-adv-x="670" arabic-form="initial" 
d="M531 448q-95 -4 -205 -32q-1 34 5 65q96 27 205 32zM479 327q57 2 125 -30q-5 -41 -20 -77q-58 26 -108 26q-54 0 -82 -32.5t-28 -91.5q0 -65 25.5 -135.5t65.5 -126.5q-15 -34 -42 -61q-109 23 -185 80.5t-109 145.5q-43 -25 -88 -25q-7 0 -8 6l-11 66q-2 8 5 8
q43 0 83 21q-13 89 -8 159q28 4 68 -3q-8 -72 5 -146q17 -93 76 -152.5t143 -80.5q-41 52 -64.5 119.5t-23.5 129.5q0 87 48.5 142t132.5 58z" />
    <glyph glyph-name="uniFCCC" unicode="&#xfccc;" horiz-adv-x="317" arabic-form="initial" 
d="M288 -39q-114 39 -208 39h-47q-7 0 -8 6l-11 67q-2 7 6 7h7q70 0 109 -9q-47 28 -59 77q-71 353 -92 451q33 27 84 27l89 -510q52 -43 153 -72q-6 -45 -23 -83z" />
    <glyph glyph-name="uniFCD6" unicode="&#xfcd6;" horiz-adv-x="670" arabic-form="initial" 
d="M487 494l-44 -66q-38 26 -80 49q22 39 47 66q46 -26 77 -49zM479 327q57 2 125 -30q-5 -41 -20 -77q-58 26 -108 26q-54 0 -82 -32.5t-28 -91.5q0 -65 25.5 -135.5t65.5 -126.5q-15 -34 -42 -61q-109 23 -185 80.5t-109 145.5q-43 -25 -88 -25q-7 0 -8 6l-11 66q-2 8 5 8
q43 0 83 21q-13 89 -8 159q28 4 68 -3q-8 -72 5 -146q17 -93 76 -152.5t143 -80.5q-41 52 -64.5 119.5t-23.5 129.5q0 87 48.5 142t132.5 58z" />
    <glyph glyph-name="uniFCDE" unicode="&#xfcde;" horiz-adv-x="670" arabic-form="initial" 
d="M476 246q-54 0 -82 -32.5t-28 -91.5q0 -65 25.5 -135.5t65.5 -126.5q-15 -34 -42 -61q-109 23 -185 80.5t-109 145.5q-43 -25 -88 -25q-7 0 -8 6l-11 66q-2 8 5 8q43 0 83 21q-13 89 -8 159q28 4 68 -3q-8 -72 5 -146q17 -93 76 -152.5t143 -80.5q-41 52 -64.5 119.5
t-23.5 129.5q0 87 48.5 142t132.5 58q57 2 125 -30q-5 -41 -20 -77q-58 26 -108 26zM616 74l-44 -63q-46 29 -80 47q21 36 47 63q39 -21 77 -47zM559 4q39 -21 77 -47l-44 -63q-46 29 -80 47q21 36 47 63z" />
    <glyph glyph-name="uniFCE0" unicode="&#xfce0;" horiz-adv-x="674" arabic-form="medial" 
d="M351 425q-11 19 -11 40q28 12 51 17q-32 17 -32 53q0 31 32 60.5t84 41.5q10 -27 12 -48q-63 -21 -89 -53q15 -39 69 -39q28 3 59 3q-2 -32 -8 -54q-98 0 -167 -21zM712 8q2 -8 -6 -8q-102 0 -159.5 63.5t-85.5 190.5q-59 -19 -79 -79t-8 -128q17 -98 83 -187
q-15 -34 -42 -61q-109 23 -185 80.5t-109 145.5q-43 -25 -88 -25q-7 0 -8 6l-11 67q-1 7 5 7q43 0 83 21q-13 78 -8 159q22 4 68 -3q-7 -74 5 -146q17 -93 76 -152.5t143 -80.5q-64 80 -80 171q-17 102 22.5 179.5t134.5 105.5q35 -18 65 -49q37 -205 164 -205q7 0 8 -5z
" />
    <glyph glyph-name="uniFCE2" unicode="&#xfce2;" horiz-adv-x="674" arabic-form="medial" 
d="M712 8q2 -8 -6 -8q-102 0 -159.5 63.5t-85.5 190.5q-59 -19 -79 -79t-8 -128q17 -98 83 -187q-15 -34 -42 -61q-109 23 -185 80.5t-109 145.5q-43 -25 -88 -25q-7 0 -8 6l-11 67q-1 7 5 7q43 0 83 21q-13 78 -8 159q22 4 68 -3q-7 -74 5 -146q17 -93 76 -152.5t143 -80.5
q-64 80 -80 171q-17 102 22.5 179.5t134.5 105.5q35 -18 65 -49q37 -205 164 -205q7 0 8 -5zM542 -169q22 38 47 66q46 -26 77 -49l-44 -66q-38 26 -80 49z" />
    <glyph glyph-name="uniFCE4" unicode="&#xfce4;" horiz-adv-x="674" arabic-form="medial" 
d="M527 460q-95 -4 -205 -32q-1 34 5 65q96 27 205 32zM712 8q2 -8 -6 -8q-102 0 -159.5 63.5t-85.5 190.5q-59 -19 -79 -79t-8 -128q17 -98 83 -187q-15 -34 -42 -61q-109 23 -185 80.5t-109 145.5q-43 -25 -88 -25q-7 0 -8 6l-11 67q-1 7 5 7q43 0 83 21q-13 78 -8 159
q22 4 68 -3q-7 -74 5 -146q17 -93 76 -152.5t143 -80.5q-64 80 -80 171q-17 102 22.5 179.5t134.5 105.5q35 -18 65 -49q37 -205 164 -205q7 0 8 -5z" />
    <glyph glyph-name="uniFCE6" unicode="&#xfce6;" horiz-adv-x="674" arabic-form="medial" 
d="M425 477q-40 -25 -94 -65q-5 29 -5 65q21 15 90 61h28q11 -5 50.5 -23.5t57.5 -27.5l-15 -60q-81 38 -112 50zM712 8q2 -8 -6 -8q-102 0 -159.5 63.5t-85.5 190.5q-59 -19 -79 -79t-8 -128q17 -98 83 -187q-15 -34 -42 -61q-109 23 -185 80.5t-109 145.5q-43 -25 -88 -25
q-7 0 -8 6l-11 67q-1 7 5 7q43 0 83 21q-13 78 -8 159q22 4 68 -3q-7 -74 5 -146q17 -93 76 -152.5t143 -80.5q-64 80 -80 171q-17 102 22.5 179.5t134.5 105.5q35 -18 65 -49q37 -205 164 -205q7 0 8 -5z" />
    <glyph glyph-name="uniFCE8" unicode="&#xfce8;" horiz-adv-x="1149" arabic-form="medial" 
d="M1188 7q1 -7 -5 -7q-100 0 -170 60q-38 -60 -135 -60q-54 0 -113 28q-35 -28 -81 -28q-181 0 -223 254q-59 -19 -78.5 -78.5t-8.5 -128.5q17 -98 83 -187q-15 -34 -42 -61q-109 23 -185 80.5t-109 145.5q-43 -25 -88 -25q-7 0 -8 6l-11 67q-1 7 5 7q43 0 83 21
q-13 78 -8 159q22 4 68 -3q-7 -74 5 -146q17 -93 76 -152.5t143 -80.5q-64 80 -80 171q-17 102 22.5 179.5t134.5 105.5q35 -18 65 -49q25 -205 150 -205q31 0 59 15q33 81 51 194q43 -2 79 -19q-20 -96 -59 -179q33 -11 65 -11q54 0 88 17q37 86 54 209q42 0 79 -19
q-17 -86 -53 -171q51 -36 127 -36q7 0 8 -5z" />
    <glyph glyph-name="uniFCEA" unicode="&#xfcea;" horiz-adv-x="1149" arabic-form="medial" 
d="M776 437q-40 -25 -94 -65q-5 29 -5 65q21 15 90 61h28q11 -5 50.5 -23.5t57.5 -27.5l-15 -60q-81 38 -112 50zM1188 7q1 -7 -5 -7q-100 0 -170 60q-38 -60 -135 -60q-54 0 -113 28q-35 -28 -81 -28q-181 0 -223 254q-59 -19 -78.5 -78.5t-8.5 -128.5q17 -98 83 -187
q-15 -34 -42 -61q-109 23 -185 80.5t-109 145.5q-43 -25 -88 -25q-7 0 -8 6l-11 67q-1 7 5 7q43 0 83 21q-13 78 -8 159q22 4 68 -3q-7 -74 5 -146q17 -93 76 -152.5t143 -80.5q-64 80 -80 171q-17 102 22.5 179.5t134.5 105.5q35 -18 65 -49q25 -205 150 -205q31 0 59 15
q33 81 51 194q43 -2 79 -19q-20 -96 -59 -179q33 -11 65 -11q54 0 88 17q37 86 54 209q42 0 79 -19q-17 -86 -53 -171q51 -36 127 -36q7 0 8 -5z" />
    <glyph glyph-name="uniFCEF" unicode="&#xfcef;" horiz-adv-x="674" arabic-form="medial" 
d="M483 506l-44 -66q-38 26 -80 49q22 39 47 66q46 -26 77 -49zM712 8q2 -8 -6 -8q-102 0 -159.5 63.5t-85.5 190.5q-59 -19 -79 -79t-8 -128q17 -98 83 -187q-15 -34 -42 -61q-109 23 -185 80.5t-109 145.5q-43 -25 -88 -25q-7 0 -8 6l-11 67q-1 7 5 7q43 0 83 21
q-13 78 -8 159q22 4 68 -3q-7 -74 5 -146q17 -93 76 -152.5t143 -80.5q-64 80 -80 171q-17 102 22.5 179.5t134.5 105.5q35 -18 65 -49q37 -205 164 -205q7 0 8 -5z" />
    <glyph glyph-name="uniFCF1" unicode="&#xfcf1;" horiz-adv-x="674" arabic-form="medial" 
d="M712 8q2 -8 -6 -8q-102 0 -159.5 63.5t-85.5 190.5q-59 -19 -79 -79t-8 -128q17 -98 83 -187q-15 -34 -42 -61q-109 23 -185 80.5t-109 145.5q-43 -25 -88 -25q-7 0 -8 6l-11 67q-1 7 5 7q43 0 83 21q-13 78 -8 159q22 4 68 -3q-7 -74 5 -146q17 -93 76 -152.5t143 -80.5
q-64 80 -80 171q-17 102 22.5 179.5t134.5 105.5q35 -18 65 -49q37 -205 164 -205q7 0 8 -5zM670 -150l-44 -63q-46 29 -80 47q21 36 47 63q39 -21 77 -47zM566 -283q21 36 47 63q39 -21 77 -47l-44 -63q-46 29 -80 47z" />
    <glyph glyph-name="uniFCFB" unicode="&#xfcfb;" horiz-adv-x="1240" arabic-form="isolated" 
d="M1175 220q11 -41 9 -93t-19 -74q-37 -53 -136 -53q-73 0 -151 44q-38 -44 -108 -44q-93 0 -155.5 66t-88.5 197q-68 -12 -119 -47t-72 -83q29 -19 96 -51t107 -57t40 -49q0 -66 -82 -136t-215 -70q-152 0 -264 69q4 41 24 78q114 -72 248 -72q160 0 241 116q-17 9 -89 38
t-119 56.5t-50 53.5q-6 69 64.5 139t182.5 92q35 -20 65 -52q17 -101 62 -154.5t117 -53.5q50 0 74 17q31 78 49 182q42 -2 78 -19q-18 -84 -52 -157q58 -23 107 -23q53 0 93 17q6 41 -10 108q-16 73 -60 149q30 26 76 35q40 -93 57 -169z" />
    <glyph glyph-name="uniFCFC" unicode="&#xfcfc;" horiz-adv-x="1240" arabic-form="isolated" 
d="M1175 220q11 -41 9 -93t-19 -74q-37 -53 -136 -53q-73 0 -151 44q-38 -44 -108 -44q-93 0 -155.5 66t-88.5 197q-68 -12 -119 -47t-72 -83q29 -19 96 -51t107 -57t40 -49q0 -66 -82 -136t-215 -70q-152 0 -264 69q4 41 24 78q114 -72 248 -72q160 0 241 116q-17 9 -89 38
t-119 56.5t-50 53.5q-6 69 64.5 139t182.5 92q35 -20 65 -52q17 -101 62 -154.5t117 -53.5q50 0 74 17q31 78 49 182q42 -2 78 -19q-18 -84 -52 -157q58 -23 107 -23q53 0 93 17q6 41 -10 108q-16 73 -60 149q30 26 76 35q40 -93 57 -169zM233 -380q-1 34 5 65q96 27 205 32
l-5 -65q-95 -4 -205 -32z" />
    <glyph glyph-name="uniFCFD" unicode="&#xfcfd;" horiz-adv-x="1240" arabic-form="isolated" 
d="M842 436q-40 -25 -94 -65q-5 29 -5 65q21 15 90 61h28q11 -5 50.5 -23.5t57.5 -27.5l-15 -60q-81 38 -112 50zM1175 220q11 -41 9 -93t-19 -74q-37 -53 -136 -53q-73 0 -151 44q-38 -44 -108 -44q-93 0 -155.5 66t-88.5 197q-68 -12 -119 -47t-72 -83q29 -19 96 -51
t107 -57t40 -49q0 -66 -82 -136t-215 -70q-152 0 -264 69q4 41 24 78q114 -72 248 -72q160 0 241 116q-17 9 -89 38t-119 56.5t-50 53.5q-6 69 64.5 139t182.5 92q35 -20 65 -52q17 -101 62 -154.5t117 -53.5q50 0 74 17q31 78 49 182q42 -2 78 -19q-18 -84 -52 -157
q58 -23 107 -23q53 0 93 17q6 41 -10 108q-16 73 -60 149q30 26 76 35q40 -93 57 -169z" />
    <glyph glyph-name="uniFCFE" unicode="&#xfcfe;" horiz-adv-x="1240" arabic-form="isolated" 
d="M842 436q-40 -25 -94 -65q-5 29 -5 65q21 15 90 61h28q11 -5 50.5 -23.5t57.5 -27.5l-15 -60q-81 38 -112 50zM1175 220q11 -41 9 -93t-19 -74q-37 -53 -136 -53q-73 0 -151 44q-38 -44 -108 -44q-93 0 -155.5 66t-88.5 197q-68 -12 -119 -47t-72 -83q29 -19 96 -51
t107 -57t40 -49q0 -66 -82 -136t-215 -70q-152 0 -264 69q4 41 24 78q114 -72 248 -72q160 0 241 116q-17 9 -89 38t-119 56.5t-50 53.5q-6 69 64.5 139t182.5 92q35 -20 65 -52q17 -101 62 -154.5t117 -53.5q50 0 74 17q31 78 49 182q42 -2 78 -19q-18 -84 -52 -157
q58 -23 107 -23q53 0 93 17q6 41 -10 108q-16 73 -60 149q30 26 76 35q40 -93 57 -169zM233 -380q-1 34 5 65q96 27 205 32l-5 -65q-95 -4 -205 -32z" />
    <glyph glyph-name="uniFD05" unicode="&#xfd05;" horiz-adv-x="1281" arabic-form="isolated" 
d="M1229 218q3 -40 -7.5 -84t-31.5 -63q-79 -71 -395 -71q-112 0 -177 65t-92 198q-68 -12 -119 -47t-72 -83q29 -19 96 -51t107 -57t40 -49q0 -66 -82 -136t-215 -70q-152 0 -264 69q4 41 24 78q114 -72 248 -72q162 0 245 115q-17 9 -90 38t-121 57t-51 54q-6 69 64.5 139
t182.5 92q35 -20 65 -52q27 -152 113 -192q131 168 213 224q79 57 155 57q69 0 113.5 -44t50.5 -115zM1145 124q16 44 10 86q-5 42 -33 68t-71 26q-58 0 -117 -43q-71 -51 -181 -180q9 -1 28 -1h1q258 0 363 44z" />
    <glyph glyph-name="uniFD06" unicode="&#xfd06;" horiz-adv-x="1281" arabic-form="isolated" 
d="M1229 218q3 -40 -7.5 -84t-31.5 -63q-79 -71 -395 -71q-112 0 -177 65t-92 198q-68 -12 -119 -47t-72 -83q29 -19 96 -51t107 -57t40 -49q0 -66 -82 -136t-215 -70q-152 0 -264 69q4 41 24 78q114 -72 248 -72q162 0 245 115q-17 9 -90 38t-121 57t-51 54q-6 69 64.5 139
t182.5 92q35 -20 65 -52q27 -152 113 -192q131 168 213 224q79 57 155 57q69 0 113.5 -44t50.5 -115zM1145 124q16 44 10 86q-5 42 -33 68t-71 26q-58 0 -117 -43q-71 -51 -181 -180q9 -1 28 -1h1q258 0 363 44zM233 -380q-1 34 5 65q96 27 205 32l-5 -65q-95 -4 -205 -32z
" />
    <glyph glyph-name="uniFD07" unicode="&#xfd07;" horiz-adv-x="1281" arabic-form="isolated" 
d="M912 490l-44 -66q-38 26 -80 49q22 39 47 66q46 -26 77 -49zM1229 218q3 -40 -7.5 -84t-31.5 -63q-79 -71 -395 -71q-112 0 -177 65t-92 198q-68 -12 -119 -47t-72 -83q29 -19 96 -51t107 -57t40 -49q0 -66 -82 -136t-215 -70q-152 0 -264 69q4 41 24 78q114 -72 248 -72
q162 0 245 115q-17 9 -90 38t-121 57t-51 54q-6 69 64.5 139t182.5 92q35 -20 65 -52q27 -152 113 -192q131 168 213 224q79 57 155 57q69 0 113.5 -44t50.5 -115zM1145 124q16 44 10 86q-5 42 -33 68t-71 26q-58 0 -117 -43q-71 -51 -181 -180q9 -1 28 -1h1q258 0 363 44z
" />
    <glyph glyph-name="uniFD08" unicode="&#xfd08;" horiz-adv-x="1281" arabic-form="isolated" 
d="M912 490l-44 -66q-38 26 -80 49q22 39 47 66q46 -26 77 -49zM1229 218q3 -40 -7.5 -84t-31.5 -63q-79 -71 -395 -71q-112 0 -177 65t-92 198q-68 -12 -119 -47t-72 -83q29 -19 96 -51t107 -57t40 -49q0 -66 -82 -136t-215 -70q-152 0 -264 69q4 41 24 78q114 -72 248 -72
q162 0 245 115q-17 9 -90 38t-121 57t-51 54q-6 69 64.5 139t182.5 92q35 -20 65 -52q27 -152 113 -192q131 168 213 224q79 57 155 57q69 0 113.5 -44t50.5 -115zM1145 124q16 44 10 86q-5 42 -33 68t-71 26q-58 0 -117 -43q-71 -51 -181 -180q9 -1 28 -1h1q258 0 363 44z
M233 -380q-1 34 5 65q96 27 205 32l-5 -65q-95 -4 -205 -32z" />
    <glyph glyph-name="uniFD0D" unicode="&#xfd0d;" horiz-adv-x="1045" arabic-form="isolated" 
d="M651 436q-40 -25 -94 -65q-5 29 -5 65q21 15 90 61h28q11 -5 50.5 -23.5t57.5 -27.5l-15 -60q-81 38 -112 50zM980 220q11 -42 9.5 -93.5t-18.5 -73.5q-39 -53 -136 -53q-75 0 -152 44q-39 -44 -102 -44q-157 0 -200 214q-80 -10 -159 -46q59 -52 59 -100
q0 -52 -68.5 -141.5t-153.5 -168.5q-38 17 -66 56q95 86 144.5 139t88.5 110q-10 23 -33 44.5t-46 34.5q1 36 8 61q102 57 222 85q37 -21 64 -44q27 -164 135 -164q42 0 67 17q32 80 48 182q43 -2 78 -19q-19 -88 -51 -157q56 -23 106 -23q52 0 94 17q5 46 -10 108
q-20 78 -60 149q30 27 75 35q38 -85 57 -169z" />
    <glyph glyph-name="uniFD0E" unicode="&#xfd0e;" horiz-adv-x="1045" arabic-form="isolated" 
d="M980 220q11 -42 9.5 -93.5t-18.5 -73.5q-39 -53 -136 -53q-75 0 -152 44q-39 -44 -102 -44q-157 0 -200 214q-80 -10 -159 -46q59 -52 59 -100q0 -52 -68.5 -141.5t-153.5 -168.5q-38 17 -66 56q95 86 144.5 139t88.5 110q-10 23 -33 44.5t-46 34.5q1 36 8 61
q102 57 222 85q37 -21 64 -44q27 -164 135 -164q42 0 67 17q32 80 48 182q43 -2 78 -19q-19 -88 -51 -157q56 -23 106 -23q52 0 94 17q5 46 -10 108q-20 78 -60 149q30 27 75 35q38 -85 57 -169z" />
    <glyph glyph-name="uniFD0F" unicode="&#xfd0f;" horiz-adv-x="1089" arabic-form="isolated" 
d="M1037 218q3 -40 -7.5 -84t-31.5 -63q-78 -70 -384 -71h-1h-3h-7h-3q-97 4 -147.5 56t-72.5 158q-79 -10 -158 -46q59 -52 59 -100q0 -52 -68.5 -141.5t-153.5 -168.5q-38 17 -66 56q95 86 144.5 139t88.5 110q-10 23 -33 44.5t-46 34.5q1 36 8 61q102 57 222 85
q37 -21 64 -44q17 -110 68 -143q124 160 209 219q79 57 155 57q69 0 113.5 -44t50.5 -115zM953 124q16 44 10 86q-5 42 -33 68t-71 26q-58 0 -117 -43q-68 -49 -180 -178q16 -3 36 -3q256 1 355 44z" />
    <glyph glyph-name="uniFD10" unicode="&#xfd10;" horiz-adv-x="1089" arabic-form="isolated" 
d="M723 490l-44 -66q-38 26 -80 49q22 39 47 66q46 -26 77 -49zM1037 218q3 -40 -7.5 -84t-31.5 -63q-78 -70 -384 -71h-1h-3h-7h-3q-97 4 -147.5 56t-72.5 158q-79 -10 -158 -46q59 -52 59 -100q0 -52 -68.5 -141.5t-153.5 -168.5q-38 17 -66 56q95 86 144.5 139t88.5 110
q-10 23 -33 44.5t-46 34.5q1 36 8 61q102 57 222 85q37 -21 64 -44q17 -110 68 -143q124 160 209 219q79 57 155 57q69 0 113.5 -44t50.5 -115zM953 124q16 44 10 86q-5 42 -33 68t-71 26q-58 0 -117 -43q-68 -49 -180 -178q16 -3 36 -3q256 1 355 44z" />
    <glyph glyph-name="uniFD17" unicode="&#xfd17;" horiz-adv-x="1240" arabic-form="final" 
d="M1278 6q1 -6 -5 -6q-101 0 -169 60q-38 -60 -135 -60q-55 0 -112 27q-34 -27 -87 -27q-93 0 -155.5 66t-88.5 197q-68 -12 -119 -47t-72 -83q29 -19 96 -51t107 -57t40 -49q0 -66 -82 -136t-215 -70q-152 0 -264 69q4 41 24 78q114 -72 248 -72q159 0 242 115
q-18 10 -89.5 39t-119 56.5t-50.5 53.5q-6 69 64.5 139t182.5 92q35 -20 65 -52q17 -101 62 -154.5t117 -53.5q40 0 64 14q34 79 52 194q41 0 78 -19q-21 -100 -58 -178q33 -11 65 -11q53 0 87 17q38 90 55 209q42 -2 78 -19q-17 -88 -53 -172q52 -35 127 -35q7 0 8 -5z" />
    <glyph glyph-name="uniFD18" unicode="&#xfd18;" horiz-adv-x="1240" arabic-form="final" 
d="M1278 6q1 -6 -5 -6q-101 0 -169 60q-38 -60 -135 -60q-55 0 -112 27q-34 -27 -87 -27q-93 0 -155.5 66t-88.5 197q-68 -12 -119 -47t-72 -83q29 -19 96 -51t107 -57t40 -49q0 -66 -82 -136t-215 -70q-152 0 -264 69q4 41 24 78q114 -72 248 -72q159 0 242 115
q-18 10 -89.5 39t-119 56.5t-50.5 53.5q-6 69 64.5 139t182.5 92q35 -20 65 -52q17 -101 62 -154.5t117 -53.5q40 0 64 14q34 79 52 194q41 0 78 -19q-21 -100 -58 -178q33 -11 65 -11q53 0 87 17q38 90 55 209q42 -2 78 -19q-17 -88 -53 -172q52 -35 127 -35q7 0 8 -5z
M233 -380q-1 34 5 65q96 27 205 32l-5 -65q-95 -4 -205 -32z" />
    <glyph glyph-name="uniFD19" unicode="&#xfd19;" horiz-adv-x="1240" arabic-form="final" 
d="M867 437q-40 -25 -94 -65q-5 29 -5 65q21 15 90 61h28q11 -5 50.5 -23.5t57.5 -27.5l-15 -60q-81 38 -112 50zM1278 6q1 -6 -5 -6q-101 0 -169 60q-38 -60 -135 -60q-55 0 -112 27q-34 -27 -87 -27q-93 0 -155.5 66t-88.5 197q-68 -12 -119 -47t-72 -83q29 -19 96 -51
t107 -57t40 -49q0 -66 -82 -136t-215 -70q-152 0 -264 69q4 41 24 78q114 -72 248 -72q159 0 242 115q-18 10 -89.5 39t-119 56.5t-50.5 53.5q-6 69 64.5 139t182.5 92q35 -20 65 -52q17 -101 62 -154.5t117 -53.5q40 0 64 14q34 79 52 194q41 0 78 -19q-21 -100 -58 -178
q33 -11 65 -11q53 0 87 17q38 90 55 209q42 -2 78 -19q-17 -88 -53 -172q52 -35 127 -35q7 0 8 -5z" />
    <glyph glyph-name="uniFD1A" unicode="&#xfd1a;" horiz-adv-x="1240" arabic-form="final" 
d="M867 437q-40 -25 -94 -65q-5 29 -5 65q21 15 90 61h28q11 -5 50.5 -23.5t57.5 -27.5l-15 -60q-81 38 -112 50zM1278 6q1 -6 -5 -6q-101 0 -169 60q-38 -60 -135 -60q-55 0 -112 27q-34 -27 -87 -27q-93 0 -155.5 66t-88.5 197q-68 -12 -119 -47t-72 -83q29 -19 96 -51
t107 -57t40 -49q0 -66 -82 -136t-215 -70q-152 0 -264 69q4 41 24 78q114 -72 248 -72q159 0 242 115q-18 10 -89.5 39t-119 56.5t-50.5 53.5q-6 69 64.5 139t182.5 92q35 -20 65 -52q17 -101 62 -154.5t117 -53.5q40 0 64 14q34 79 52 194q41 0 78 -19q-21 -100 -58 -178
q33 -11 65 -11q53 0 87 17q38 90 55 209q42 -2 78 -19q-17 -88 -53 -172q52 -35 127 -35q7 0 8 -5zM233 -380q-1 34 5 65q96 27 205 32l-5 -65q-95 -4 -205 -32z" />
    <glyph glyph-name="uniFD21" unicode="&#xfd21;" horiz-adv-x="1314" arabic-form="final" 
d="M1352 7q1 -7 -5 -7q-118 0 -191 49q-101 -49 -361 -49q-112 0 -177 65t-92 198q-68 -12 -119 -47t-72 -83q29 -19 96 -51t107 -57t40 -49q0 -66 -82 -136t-215 -70q-152 0 -264 69q4 41 24 78q114 -72 248 -72q162 0 245 115q-17 9 -90 38t-121 57t-51 54q-6 69 64.5 139
t182.5 92q35 -20 65 -52q27 -152 113 -192q131 168 213 224q79 57 155 57q69 0 113.5 -44t50.5 -115q5 -67 -20 -121q51 -17 123 -17q7 0 8 -5zM934 261q-71 -51 -181 -180q9 -1 28 -1h1q258 0 363 44q16 44 10 86q-5 42 -33 68t-71 26q-58 0 -117 -43z" />
    <glyph glyph-name="uniFD22" unicode="&#xfd22;" horiz-adv-x="1314" arabic-form="final" 
d="M1352 7q1 -7 -5 -7q-118 0 -191 49q-101 -49 -361 -49q-112 0 -177 65t-92 198q-68 -12 -119 -47t-72 -83q29 -19 96 -51t107 -57t40 -49q0 -66 -82 -136t-215 -70q-152 0 -264 69q4 41 24 78q114 -72 248 -72q162 0 245 115q-17 9 -90 38t-121 57t-51 54q-6 69 64.5 139
t182.5 92q35 -20 65 -52q27 -152 113 -192q131 168 213 224q79 57 155 57q69 0 113.5 -44t50.5 -115q5 -67 -20 -121q51 -17 123 -17q7 0 8 -5zM934 261q-71 -51 -181 -180q9 -1 28 -1h1q258 0 363 44q16 44 10 86q-5 42 -33 68t-71 26q-58 0 -117 -43zM233 -380q-1 34 5 65
q96 27 205 32l-5 -65q-95 -4 -205 -32z" />
    <glyph glyph-name="uniFD23" unicode="&#xfd23;" horiz-adv-x="1314" arabic-form="final" 
d="M912 490l-44 -66q-38 26 -80 49q22 39 47 66q46 -26 77 -49zM1352 7q1 -7 -5 -7q-118 0 -191 49q-101 -49 -361 -49q-112 0 -177 65t-92 198q-68 -12 -119 -47t-72 -83q29 -19 96 -51t107 -57t40 -49q0 -66 -82 -136t-215 -70q-152 0 -264 69q4 41 24 78q114 -72 248 -72
q162 0 245 115q-17 9 -90 38t-121 57t-51 54q-6 69 64.5 139t182.5 92q35 -20 65 -52q27 -152 113 -192q131 168 213 224q79 57 155 57q69 0 113.5 -44t50.5 -115q5 -67 -20 -121q51 -17 123 -17q7 0 8 -5zM934 261q-71 -51 -181 -180q9 -1 28 -1h1q258 0 363 44
q16 44 10 86q-5 42 -33 68t-71 26q-58 0 -117 -43z" />
    <glyph glyph-name="uniFD24" unicode="&#xfd24;" horiz-adv-x="1314" arabic-form="final" 
d="M912 490l-44 -66q-38 26 -80 49q22 39 47 66q46 -26 77 -49zM1352 7q1 -7 -5 -7q-118 0 -191 49q-101 -49 -361 -49q-112 0 -177 65t-92 198q-68 -12 -119 -47t-72 -83q29 -19 96 -51t107 -57t40 -49q0 -66 -82 -136t-215 -70q-152 0 -264 69q4 41 24 78q114 -72 248 -72
q162 0 245 115q-17 9 -90 38t-121 57t-51 54q-6 69 64.5 139t182.5 92q35 -20 65 -52q27 -152 113 -192q131 168 213 224q79 57 155 57q69 0 113.5 -44t50.5 -115q5 -67 -20 -121q51 -17 123 -17q7 0 8 -5zM934 261q-71 -51 -181 -180q9 -1 28 -1h1q258 0 363 44
q16 44 10 86q-5 42 -33 68t-71 26q-58 0 -117 -43zM233 -380q-1 34 5 65q96 27 205 32l-5 -65q-95 -4 -205 -32z" />
    <glyph glyph-name="uniFD29" unicode="&#xfd29;" horiz-adv-x="1044" arabic-form="final" 
d="M668 437q-40 -25 -94 -65q-5 29 -5 65q21 15 90 61h28q11 -5 50.5 -23.5t57.5 -27.5l-15 -60q-81 38 -112 50zM1082 7q1 -7 -5 -7q-102 0 -170 60q-39 -60 -134 -60q-54 0 -113 28q-35 -28 -79 -28q-157 0 -200 214q-80 -10 -159 -46q59 -52 59 -100q0 -52 -68.5 -141.5
t-153.5 -168.5q-38 17 -66 56q95 86 144.5 139t88.5 110q-10 23 -33 44.5t-46 34.5q1 36 8 61q102 57 222 85q37 -21 64 -44q26 -164 134 -164q34 0 56 15q34 80 52 194q43 -2 78 -19q-19 -92 -58 -179q33 -11 65 -11q53 0 87 17q38 90 55 209q42 0 79 -19q-17 -86 -53 -171
q50 -36 127 -36q7 0 8 -5z" />
    <glyph glyph-name="uniFD2A" unicode="&#xfd2a;" horiz-adv-x="1044" arabic-form="final" 
d="M1082 7q1 -7 -5 -7q-102 0 -170 60q-39 -60 -134 -60q-54 0 -113 28q-35 -28 -79 -28q-157 0 -200 214q-80 -10 -159 -46q59 -52 59 -100q0 -52 -68.5 -141.5t-153.5 -168.5q-38 17 -66 56q95 86 144.5 139t88.5 110q-10 23 -33 44.5t-46 34.5q1 36 8 61q102 57 222 85
q37 -21 64 -44q26 -164 134 -164q34 0 56 15q34 80 52 194q43 -2 78 -19q-19 -92 -58 -179q33 -11 65 -11q53 0 87 17q38 90 55 209q42 0 79 -19q-17 -86 -53 -171q50 -36 127 -36q7 0 8 -5z" />
    <glyph glyph-name="uniFD2B" unicode="&#xfd2b;" horiz-adv-x="1118" arabic-form="final" 
d="M1156 7q1 -7 -5 -7q-119 0 -189 48q-100 -47 -348 -48h-1h-3h-7h-3q-97 4 -147.5 56t-72.5 158q-79 -10 -158 -46q59 -52 59 -100q0 -52 -68.5 -141.5t-153.5 -168.5q-38 17 -66 56q95 86 144.5 139t88.5 110q-10 23 -33 44.5t-46 34.5q1 36 8 61q102 57 222 85
q37 -21 64 -44q17 -110 68 -143q124 160 209 219q79 57 155 57q69 0 113.5 -44t50.5 -115q5 -69 -21 -122q53 -16 120 -16q7 0 8 -5zM742 261q-68 -49 -180 -178q16 -3 36 -3q256 1 355 44q16 44 10 86q-5 42 -33 68t-71 26q-58 0 -117 -43z" />
    <glyph glyph-name="uniFD2C" unicode="&#xfd2c;" horiz-adv-x="1118" arabic-form="final" 
d="M723 490l-44 -66q-38 26 -80 49q22 39 47 66q46 -26 77 -49zM1156 7q1 -7 -5 -7q-119 0 -189 48q-100 -47 -348 -48h-1h-3h-7h-3q-97 4 -147.5 56t-72.5 158q-79 -10 -158 -46q59 -52 59 -100q0 -52 -68.5 -141.5t-153.5 -168.5q-38 17 -66 56q95 86 144.5 139t88.5 110
q-10 23 -33 44.5t-46 34.5q1 36 8 61q102 57 222 85q37 -21 64 -44q17 -110 68 -143q124 160 209 219q79 57 155 57q69 0 113.5 -44t50.5 -115q5 -69 -21 -122q53 -16 120 -16q7 0 8 -5zM742 261q-68 -49 -180 -178q16 -3 36 -3q256 1 355 44q16 44 10 86q-5 42 -33 68
t-71 26q-58 0 -117 -43z" />
    <glyph glyph-name="uniFD31" unicode="&#xfd31;" horiz-adv-x="1151" arabic-form="initial" 
d="M1086 220q11 -42 9.5 -93.5t-18.5 -73.5q-39 -53 -137 -53q-74 0 -151 44q-36 -44 -105 -44q-181 0 -223 254q-59 -19 -79 -79t-8 -128q17 -98 83 -187q-15 -34 -42 -61q-109 23 -185 80.5t-109 145.5q-43 -25 -88 -25q-7 0 -8 6l-11 67q-1 7 5 7q43 0 83 21
q-13 78 -8 159q22 4 68 -3q-7 -74 5 -146q17 -93 76 -152.5t143 -80.5q-64 80 -80 171q-17 102 22.5 179.5t134.5 105.5q35 -18 65 -49q25 -205 156 -205q40 0 64 17q33 84 49 182q42 -2 78 -19q-18 -84 -52 -157q58 -23 107 -23q52 0 94 17q5 46 -10 108q-20 80 -61 149
q32 27 76 35q38 -85 57 -169z" />
    <glyph glyph-name="uniFD32" unicode="&#xfd32;" horiz-adv-x="1151" arabic-form="initial" 
d="M754 436q-40 -25 -94 -65q-5 29 -5 65q21 15 90 61h28q11 -5 50.5 -23.5t57.5 -27.5l-15 -60q-81 38 -112 50zM1086 220q11 -42 9.5 -93.5t-18.5 -73.5q-39 -53 -137 -53q-74 0 -151 44q-36 -44 -105 -44q-181 0 -223 254q-59 -19 -79 -79t-8 -128q17 -98 83 -187
q-15 -34 -42 -61q-109 23 -185 80.5t-109 145.5q-43 -25 -88 -25q-7 0 -8 6l-11 67q-1 7 5 7q43 0 83 21q-13 78 -8 159q22 4 68 -3q-7 -74 5 -146q17 -93 76 -152.5t143 -80.5q-64 80 -80 171q-17 102 22.5 179.5t134.5 105.5q35 -18 65 -49q25 -205 156 -205q40 0 64 17
q33 84 49 182q42 -2 78 -19q-18 -84 -52 -157q58 -23 107 -23q52 0 94 17q5 46 -10 108q-20 80 -61 149q32 27 76 35q38 -85 57 -169z" />
    <glyph glyph-name="uniFE82" unicode="&#x622;" horiz-adv-x="224" arabic-form="final" 
d="M-89 587q-14 13 -24 29q40 45 90 68q52 -25 89 -25q47 0 85 13q7 -19 10 -37q-49 -26 -101 -26q-46 0 -87 26q-32 -17 -62 -48zM256 0q-82 0 -118 21t-50 78l-91 434q36 24 81 27l78 -466q31 -14 87 -14q6 0 7 -5l12 -68q1 -7 -6 -7z" />
    <glyph glyph-name="uniFE84" unicode="&#x623;" horiz-adv-x="224" arabic-form="final" 
d="M65 665q29 3 59 3q-2 -32 -8 -54q-98 0 -167 -21q-11 19 -11 40q28 12 51 17q-32 17 -32 53q0 31 32 60.5t84 41.5q10 -27 12 -48q-63 -21 -89 -53q15 -39 69 -39zM256 0q-82 0 -118 21t-50 78l-91 434q36 24 81 27l78 -466q31 -14 87 -14q6 0 7 -5l12 -68q1 -7 -6 -7z
" />
    <glyph glyph-name="uniFE86" unicode="&#x624;" horiz-adv-x="449" arabic-form="final" 
d="M96 421q-11 19 -11 40q28 12 51 17q-32 17 -32 53q0 31 32 60.5t84 41.5q10 -27 12 -48q-63 -21 -89 -53q15 -39 69 -39q29 3 59 3q-2 -32 -8 -54q-98 0 -167 -21zM487 8q2 -8 -5 -8h-109q-49 -102 -200 -243q-36 16 -65 56q141 128 188 188q-97 5 -157.5 43t-69.5 95
q-11 74 34 147t107 73q73 0 129.5 -84t56.5 -188v-7h72q7 0 7 -5zM120 162q42 -83 217 -88v5q-10 77 -50 140t-86 63q-30 0 -54.5 -36.5t-26.5 -83.5z" />
    <glyph glyph-name="uniFE88" unicode="&#x625;" horiz-adv-x="227" arabic-form="final" 
d="M259 0q-77 0 -116 23t-52 76q-21 100 -55.5 262t-50.5 238q38 24 84 27l90 -532q31 -14 87 -14q6 0 7 -5l12 -68q1 -7 -6 -7zM223 -183q28 3 59 3q-2 -32 -8 -54q-98 0 -167 -21q-11 19 -11 40q28 12 51 17q-32 17 -32 53q0 31 32 60.5t84 41.5q10 -27 12 -48
q-63 -21 -89 -53q15 -39 69 -39z" />
    <glyph glyph-name="uniFE8A" unicode="&#x626;" horiz-adv-x="590" arabic-form="final" 
d="M138 77q29 3 59 3q-2 -32 -8 -54q-98 0 -167 -21q-11 19 -11 40q28 12 51 17q-32 17 -32 53q0 31 32 60.5t84 41.5q10 -27 12 -48q-63 -21 -89 -53q15 -39 69 -39zM289 -230q-160 0 -272 69q4 41 24 78q116 -73 248 -72q155 0 250 106q-55 59 -187 129q14 43 38 77
q66 -41 114 -59t105 -18q7 0 8 -5l11 -67q2 -8 -5 -8h-44l-60 24l-1 -3q76 -43 76 -80q0 -18 -22.5 -46t-60 -56.5t-97.5 -48.5t-125 -20z" />
    <glyph glyph-name="uniFE8B" unicode="&#x626;" horiz-adv-x="265" arabic-form="initial" 
d="M124 487q28 3 59 3q-2 -32 -8 -54q-98 0 -167 -21q-11 19 -11 40q28 12 51 17q-32 17 -32 53q0 31 32 60.5t84 41.5q10 -27 12 -48q-63 -21 -89 -53q15 -39 69 -39zM33 0q-7 0 -8 6l-11 68q-1 6 6 6q74 0 116 17q5 43 -7 100q-13 54 -43 112q32 28 76 35q23 -54 38 -122
q11 -37 8.5 -92t-22.5 -80q-38 -50 -153 -50z" />
    <glyph glyph-name="uniFE8C" unicode="&#x626;" horiz-adv-x="278" arabic-form="medial" 
d="M38 363q-11 19 -11 40q28 12 51 17q-32 17 -32 53q0 31 32 60.5t84 41.5q10 -27 12 -48q-63 -21 -89 -53q15 -39 69 -39q29 3 59 3q-2 -32 -8 -54q-98 0 -167 -21zM316 7q1 -7 -5 -7q-99 0 -169 54q-17 -26 -47.5 -40t-62.5 -14q-6 0 -7 6l-12 69q-2 5 5 5q44 0 76 17
q19 71 21 181q39 2 78 -14q-3 -81 -26 -153q51 -31 129 -31q7 0 8 -5z" />
    <glyph glyph-name="uniFE8E" unicode="&#x627;" horiz-adv-x="227" arabic-form="final" 
d="M259 0q-77 0 -116 23t-52 76q-21 100 -55.5 262t-50.5 238q38 24 84 27l90 -532q31 -14 87 -14q6 0 7 -5l12 -68q1 -7 -6 -7z" />
    <glyph glyph-name="uniFE90" unicode="&#x628;" horiz-adv-x="800" arabic-form="final" 
d="M838 7q1 -7 -5 -7q-98 0 -170 54q-44 -54 -191 -54q-195 0 -432 77q5 47 27 85q207 -82 402 -82q103 0 147 17q20 73 20 181q40 2 79 -14q-5 -82 -27 -154q54 -30 130 -30q7 0 8 -5zM393 -169q22 38 47 66q46 -26 77 -49l-44 -66q-38 26 -80 49z" />
    <glyph glyph-name="uniFE91" unicode="&#x628;" horiz-adv-x="265" arabic-form="initial" 
d="M33 0q-7 0 -8 6l-11 68q-1 6 6 6q74 0 116 17q5 43 -7 100q-13 54 -43 112q32 28 76 35q23 -54 38 -122q11 -37 8.5 -92t-22.5 -80q-38 -50 -153 -50zM160 -218q-38 26 -80 49q22 38 47 66q46 -26 77 -49z" />
    <glyph glyph-name="uniFE92" unicode="&#x628;" horiz-adv-x="278" arabic-form="medial" 
d="M316 7q1 -7 -5 -7q-99 0 -169 54q-17 -26 -47.5 -40t-62.5 -14q-6 0 -7 6l-12 69q-2 5 5 5q44 0 76 17q19 71 21 181q39 2 78 -14q-3 -81 -26 -153q51 -31 129 -31q7 0 8 -5zM126 -169q22 38 47 66q46 -26 77 -49l-44 -66q-38 26 -80 49z" />
    <glyph glyph-name="uniFE94" unicode="&#x629;" horiz-adv-x="444" arabic-form="final" 
d="M311 468q-95 -4 -205 -32q-1 34 5 65q96 27 205 32zM482 7q1 -7 -6 -7q-107 0 -143 39q-23 -20 -69 -39q-71 0 -133 37t-71 91q-10 57 52 131.5t150 110.5q38 -8 70 -25l45 -251q31 -14 86 -14q7 0 8 -5zM262 80q27 0 47 4q-2 4 -4 14q-6 27 -21 98.5t-23 108.5
q-52 -24 -93 -64t-58 -84q21 -36 68.5 -56.5t83.5 -20.5z" />
    <glyph glyph-name="uniFE96" unicode="&#x62a;" horiz-adv-x="800" arabic-form="final" 
d="M474 363q-95 -4 -205 -32q-1 34 5 65q96 27 205 32zM838 7q1 -7 -5 -7q-98 0 -170 54q-44 -54 -191 -54q-195 0 -432 77q5 47 27 85q207 -82 402 -82q103 0 147 17q20 73 20 181q40 2 79 -14q-5 -82 -27 -154q54 -30 130 -30q7 0 8 -5z" />
    <glyph glyph-name="uniFE97" unicode="&#x62a;" horiz-adv-x="296" arabic-form="initial" 
d="M11 418q-1 34 5 65q96 27 205 32l-5 -65q-95 -4 -205 -32zM33 0q-7 0 -8 6l-11 68q-1 6 6 6h16q89 0 131 17q5 44 -8 100q-12 52 -42 112q30 28 76 35q25 -61 38 -122q11 -37 8 -92.5t-22 -79.5q-39 -50 -163 -50h-21z" />
    <glyph glyph-name="uniFE98" unicode="&#x62a;" horiz-adv-x="310" arabic-form="medial" 
d="M239 405q-95 -4 -205 -32q-1 34 5 65q96 27 205 32zM349 7q1 -7 -5 -7q-100 0 -170 54q-39 -54 -142 -54q-6 0 -7 6l-12 69q-2 5 5 5q64 0 108 17q21 71 21 181q41 2 78 -14q-3 -80 -26 -154q52 -30 130 -30q7 0 8 -5z" />
    <glyph glyph-name="uniFE9A" unicode="&#x62b;" horiz-adv-x="800" arabic-form="final" 
d="M372 380q-40 -25 -94 -65q-5 29 -5 65q21 15 90 61h28q11 -5 50.5 -23.5t57.5 -27.5l-15 -60q-81 38 -112 50zM838 7q1 -7 -5 -7q-98 0 -170 54q-44 -54 -191 -54q-195 0 -432 77q5 47 27 85q207 -82 402 -82q103 0 147 17q20 73 20 181q40 2 79 -14q-5 -82 -27 -154
q54 -30 130 -30q7 0 8 -5z" />
    <glyph glyph-name="uniFE9B" unicode="&#x62b;" horiz-adv-x="296" arabic-form="initial" 
d="M20 402q-5 29 -5 65q21 15 90 61h28q11 -5 50.5 -23.5t57.5 -27.5l-15 -60q-81 38 -112 50q-40 -25 -94 -65zM33 0q-7 0 -8 6l-11 68q-1 6 6 6h16q89 0 131 17q5 44 -8 100q-12 52 -42 112q30 28 76 35q25 -61 38 -122q11 -37 8 -92.5t-22 -79.5q-39 -50 -163 -50h-21z
" />
    <glyph glyph-name="uniFE9C" unicode="&#x62b;" horiz-adv-x="310" arabic-form="medial" 
d="M137 422q-40 -25 -94 -65q-5 29 -5 65q21 15 90 61h28q11 -5 50.5 -23.5t57.5 -27.5l-15 -60q-81 38 -112 50zM349 7q1 -7 -5 -7q-100 0 -170 54q-39 -54 -142 -54q-6 0 -7 6l-12 69q-2 5 5 5q64 0 108 17q21 71 21 181q41 2 78 -14q-3 -80 -26 -154q52 -30 130 -30
q7 0 8 -5z" />
    <glyph glyph-name="uniFE9E" unicode="&#x62c;" horiz-adv-x="565" arabic-form="final" 
d="M603 7q1 -7 -5 -7q-111 0 -191 59q-150 -51 -252 -123q18 -62 45.5 -109t79.5 -107q-30 -23 -73 -37q-54 64 -85 131.5t-31 116.5q0 131 322 208q-43 71 -111.5 114.5t-171.5 69.5q9 41 31 77q232 -62 306 -223q23 -43 3 -78q50 -19 113 -19q7 0 8 -5zM322 -171
q24 40 48 66q46 -26 77 -49l-45 -66q-36 26 -80 49z" />
    <glyph glyph-name="uniFE9F" unicode="&#x62c;" horiz-adv-x="423" arabic-form="initial" 
d="M85 385q138 -37 220 -109t82 -130q0 -65 -80 -105.5t-224 -40.5h-50q-7 0 -8 6l-11 67q-2 7 6 7h50q182 0 254 67q-74 108 -270 162q8 43 31 76zM157 -169q22 38 47 66q46 -26 77 -49l-44 -66q-38 26 -80 49z" />
    <glyph glyph-name="uniFEA0" unicode="&#x62c;" horiz-adv-x="476" arabic-form="medial" 
d="M514 7q1 -7 -5 -7q-109 0 -181 52q-81 -52 -245 -52h-50q-7 0 -8 6l-11 67q-2 7 6 7h50q182 0 254 67q-74 108 -270 162q8 43 31 76q138 -37 220 -109t82 -130q0 -25 -12 -46q51 -20 120 -20q7 0 8 -5zM157 -169q22 38 47 66q46 -26 77 -49l-44 -66q-38 26 -80 49z" />
    <glyph glyph-name="uniFEA2" unicode="&#x62d;" horiz-adv-x="549" arabic-form="final" 
d="M587 7q1 -7 -5 -7q-112 0 -192 58q-143 -49 -235 -122q18 -62 45.5 -109t79.5 -107q-30 -23 -73 -37q-54 64 -85 131.5t-31 116.5q0 127 305 208q-80 132 -284 184q8 42 31 77q232 -63 308 -223q22 -42 2 -78q51 -19 114 -19q7 0 8 -5z" />
    <glyph glyph-name="uniFEA3" unicode="&#x62d;" horiz-adv-x="423" arabic-form="initial" 
d="M85 385q138 -37 220 -109t82 -130q0 -65 -80 -105.5t-224 -40.5h-50q-7 0 -8 6l-11 67q-2 7 6 7h50q182 0 254 67q-74 108 -270 162q8 43 31 76z" />
    <glyph glyph-name="uniFEA4" unicode="&#x62d;" horiz-adv-x="476" arabic-form="medial" 
d="M514 7q1 -7 -5 -7q-109 0 -181 52q-81 -52 -245 -52h-50q-7 0 -8 6l-11 67q-2 7 6 7h50q182 0 254 67q-74 108 -270 162q8 43 31 76q138 -37 220 -109t82 -130q0 -25 -12 -46q51 -20 120 -20q7 0 8 -5z" />
    <glyph glyph-name="uniFEA6" unicode="&#x62e;" horiz-adv-x="549" arabic-form="final" 
d="M401 511l-44 -66q-38 26 -80 49q22 38 47 66q46 -26 77 -49zM587 7q1 -7 -5 -7q-112 0 -192 58q-143 -49 -235 -122q18 -62 45.5 -109t79.5 -107q-30 -23 -73 -37q-54 64 -85 131.5t-31 116.5q0 127 305 208q-80 132 -284 184q8 42 31 77q232 -63 308 -223q22 -42 2 -78
q51 -19 114 -19q7 0 8 -5z" />
    <glyph glyph-name="uniFEA7" unicode="&#x62e;" horiz-adv-x="423" arabic-form="initial" 
d="M340 484l-44 -66q-38 26 -80 49q22 38 47 66q46 -26 77 -49zM85 385q138 -37 220 -109t82 -130q0 -65 -80 -105.5t-224 -40.5h-50q-7 0 -8 6l-11 67q-2 7 6 7h50q182 0 254 67q-74 108 -270 162q8 43 31 76z" />
    <glyph glyph-name="uniFEA8" unicode="&#x62e;" horiz-adv-x="476" arabic-form="medial" 
d="M340 484l-44 -66q-38 26 -80 49q22 38 47 66q46 -26 77 -49zM514 7q1 -7 -5 -7q-109 0 -181 52q-81 -52 -245 -52h-50q-7 0 -8 6l-11 67q-2 7 6 7h50q182 0 254 67q-74 108 -270 162q8 43 31 76q138 -37 220 -109t82 -130q0 -25 -12 -46q51 -20 120 -20q7 0 8 -5z" />
    <glyph glyph-name="uniFEAA" unicode="&#x62f;" horiz-adv-x="449" arabic-form="final" 
d="M487 7q1 -7 -6 -7q-51 0 -79.5 7.5t-48.5 27.5q-84 -35 -174 -35q-69 0 -125 13q-15 44 -12 88q67 -20 152 -20q62 0 123 16q-47 111 -87 288q32 25 83 25q39 -213 76 -316q31 -14 79 -14q6 0 7 -5z" />
    <glyph glyph-name="uniFEAC" unicode="&#x630;" horiz-adv-x="449" arabic-form="final" 
d="M299 574l-44 -66q-38 26 -80 49q22 39 47 66q46 -26 77 -49zM487 7q1 -7 -6 -7q-51 0 -79.5 7.5t-48.5 27.5q-84 -35 -174 -35q-69 0 -125 13q-15 44 -12 88q67 -20 152 -20q62 0 123 16q-47 111 -87 288q32 25 83 25q39 -213 76 -316q31 -14 79 -14q6 0 7 -5z" />
    <glyph glyph-name="uniFEAE" unicode="&#x631;" horiz-adv-x="355" arabic-form="final" 
d="M393 8q1 -8 -6 -8q-71 0 -115 25q-22 -56 -83.5 -131t-129.5 -137q-36 16 -65 56q95 86 144.5 139t88.5 110q-45 108 -131 231q28 31 72 44q32 -50 65 -121.5t45 -118.5q41 -17 95 -17q7 0 8 -5z" />
    <glyph glyph-name="uniFEB0" unicode="&#x632;" horiz-adv-x="355" arabic-form="final" 
d="M161 496l-44 -66q-38 26 -80 49q22 38 47 66q46 -26 77 -49zM393 8q1 -8 -6 -8q-71 0 -115 25q-22 -56 -83.5 -131t-129.5 -137q-36 16 -65 56q95 86 144.5 139t88.5 110q-45 108 -131 231q28 31 72 44q32 -50 65 -121.5t45 -118.5q41 -17 95 -17q7 0 8 -5z" />
    <glyph glyph-name="uniFEB2" unicode="&#x633;" horiz-adv-x="1074" arabic-form="final" 
d="M1112 7q1 -7 -5 -7q-102 0 -170 60q-39 -60 -134 -60q-55 0 -117 30q-41 -30 -107 -30q-24 0 -51 6q3 -92 -24 -136q-22 -32 -80.5 -55.5t-130.5 -23.5q-144 0 -281 72q4 42 25 78q146 -77 258 -77q102 0 167 37q10 67 -7 148q-18 88 -63 195q31 27 73 34q33 -85 53 -190
q30 -8 56 -8q53 0 87 17q33 84 49 182q42 -2 78 -19q-20 -95 -57 -168q33 -12 67 -12q53 0 88 17q38 92 54 209q42 0 79 -19q-17 -86 -53 -171q50 -36 127 -36q7 0 8 -5z" />
    <glyph glyph-name="uniFEB3" unicode="&#x633;" horiz-adv-x="750" arabic-form="initial" 
d="M685 220q11 -41 9 -93t-19 -74q-37 -53 -136 -53q-83 0 -161 44q-41 -44 -122 -44q-54 0 -116 30q-40 -30 -108 -30q-6 0 -7 5l-12 70q0 5 6 5q62 0 96 17q27 73 44 167q44 -2 78 -20q-23 -86 -53 -152q33 -12 69 -12q51 0 85 17q35 81 52 192q42 -2 78 -19
q-19 -89 -54 -165q63 -25 115 -25q53 0 93 17q6 41 -10 108q-16 73 -60 149q30 26 76 35q40 -93 57 -169z" />
    <glyph glyph-name="uniFEB4" unicode="&#x633;" horiz-adv-x="751" arabic-form="medial" 
d="M789 7q1 -7 -5 -7q-102 0 -170 60q-39 -60 -134 -60q-57 0 -117 30q-41 -30 -107 -30q-54 0 -116 30q-40 -30 -108 -30q-6 0 -7 5l-12 70q0 5 6 5q62 0 96 17q27 73 44 167q44 -2 78 -20q-23 -86 -53 -152q33 -12 69 -12q51 0 85 17q35 81 52 192q42 -2 78 -19
q-19 -92 -60 -178q32 -12 67 -12q53 0 87 17q38 90 55 209q41 0 78 -19q-17 -86 -53 -171q51 -36 127 -36q7 0 8 -5z" />
    <glyph glyph-name="uniFEB6" unicode="&#x634;" horiz-adv-x="1074" arabic-form="final" 
d="M711 436q-40 -25 -94 -65q-5 29 -5 65q21 15 90 61h28q11 -5 50.5 -23.5t57.5 -27.5l-15 -60q-81 38 -112 50zM1112 7q1 -7 -5 -7q-102 0 -170 60q-39 -60 -134 -60q-55 0 -117 30q-41 -30 -107 -30q-24 0 -51 6q3 -92 -24 -136q-22 -32 -80.5 -55.5t-130.5 -23.5
q-144 0 -281 72q4 42 25 78q146 -77 258 -77q102 0 167 37q10 67 -7 148q-18 88 -63 195q31 27 73 34q33 -85 53 -190q30 -8 56 -8q53 0 87 17q33 84 49 182q42 -2 78 -19q-20 -95 -57 -168q33 -12 67 -12q53 0 88 17q38 92 54 209q42 0 79 -19q-17 -86 -53 -171
q50 -36 127 -36q7 0 8 -5z" />
    <glyph glyph-name="uniFEB7" unicode="&#x634;" horiz-adv-x="750" arabic-form="initial" 
d="M374 446q-40 -25 -94 -65q-5 29 -5 65q21 15 90 61h28q11 -5 50.5 -23.5t57.5 -27.5l-15 -60q-81 38 -112 50zM685 220q11 -41 9 -93t-19 -74q-37 -53 -136 -53q-83 0 -161 44q-41 -44 -122 -44q-54 0 -116 30q-40 -30 -108 -30q-6 0 -7 5l-12 70q0 5 6 5q62 0 96 17
q27 73 44 167q44 -2 78 -20q-23 -86 -53 -152q33 -12 69 -12q51 0 85 17q35 81 52 192q42 -2 78 -19q-19 -89 -54 -165q63 -25 115 -25q53 0 93 17q6 41 -10 108q-16 73 -60 149q30 26 76 35q40 -93 57 -169z" />
    <glyph glyph-name="uniFEB8" unicode="&#x634;" horiz-adv-x="751" arabic-form="medial" 
d="M383 437q-40 -25 -94 -65q-5 29 -5 65q21 15 90 61h28q11 -5 50.5 -23.5t57.5 -27.5l-15 -60q-81 38 -112 50zM789 7q1 -7 -5 -7q-102 0 -170 60q-39 -60 -134 -60q-57 0 -117 30q-41 -30 -107 -30q-54 0 -116 30q-40 -30 -108 -30q-6 0 -7 5l-12 70q0 5 6 5q62 0 96 17
q27 73 44 167q44 -2 78 -20q-23 -86 -53 -152q33 -12 69 -12q51 0 85 17q35 81 52 192q42 -2 78 -19q-19 -92 -60 -178q32 -12 67 -12q53 0 87 17q38 90 55 209q41 0 78 -19q-17 -86 -53 -171q51 -36 127 -36q7 0 8 -5z" />
    <glyph glyph-name="uniFEBA" unicode="&#x635;" horiz-adv-x="1127" arabic-form="final" 
d="M1166 7q1 -7 -5 -7q-116 0 -190 48q-108 -47 -443 -48q3 -88 -24 -130q-22 -32 -80.5 -55.5t-130.5 -23.5q-144 0 -281 72q4 42 25 78q146 -77 258 -77q102 0 167 37q10 67 -7 148q-18 88 -63 195q31 27 73 34q33 -89 50 -177q116 147 203 212q83 62 164 62
q70 0 114 -43.5t50 -114.5q5 -67 -20 -121q51 -16 120 -16q7 0 8 -5zM750 258q-71 -52 -183 -178q291 0 395 42q16 44 10 87q-5 42 -33 68t-71 26q-57 0 -118 -45z" />
    <glyph glyph-name="uniFEBB" unicode="&#x635;" horiz-adv-x="754" arabic-form="initial" 
d="M702 217q3 -40 -7.5 -84t-31.5 -63q-75 -67 -458 -70h-1h-172q-6 0 -7 5l-12 70q-1 2 1 3.5t5 1.5h101q-17 67 -57 153q32 25 73 32q31 -90 40 -142l-6 -24q110 142 204 214q83 62 164 62q70 0 114 -43.5t50 -114.5zM618 122q16 44 10 87q-5 42 -33 68t-71 26
q-57 0 -118 -45q-71 -52 -183 -178q291 0 395 42z" />
    <glyph glyph-name="uniFEBC" unicode="&#x635;" horiz-adv-x="782" arabic-form="medial" 
d="M820 7q1 -7 -5 -7q-118 0 -189 48q-105 -45 -421 -48h-1h-172q-6 0 -7 5l-12 70q-1 2 1 3.5t5 1.5h101q-17 67 -57 153q32 25 73 32q31 -90 40 -142l-6 -24q110 142 204 214q83 62 164 62q70 0 114 -43.5t50 -114.5q6 -69 -21 -121q53 -16 119 -16q7 0 8 -5zM406 258
q-71 -52 -183 -178q291 0 395 42q16 44 10 87q-5 42 -33 68t-71 26q-57 0 -118 -45z" />
    <glyph glyph-name="uniFEBE" unicode="&#x636;" horiz-adv-x="1127" arabic-form="final" 
d="M712 490l-44 -66q-38 26 -80 49q22 39 47 66q46 -26 77 -49zM1166 7q1 -7 -5 -7q-116 0 -190 48q-108 -47 -443 -48q3 -88 -24 -130q-22 -32 -80.5 -55.5t-130.5 -23.5q-144 0 -281 72q4 42 25 78q146 -77 258 -77q102 0 167 37q10 67 -7 148q-18 88 -63 195q31 27 73 34
q33 -89 50 -177q116 147 203 212q83 62 164 62q70 0 114 -43.5t50 -114.5q5 -67 -20 -121q51 -16 120 -16q7 0 8 -5zM750 258q-71 -52 -183 -178q291 0 395 42q16 44 10 87q-5 42 -33 68t-71 26q-57 0 -118 -45z" />
    <glyph glyph-name="uniFEBF" unicode="&#x636;" horiz-adv-x="754" arabic-form="initial" 
d="M387 490l-44 -66q-38 26 -80 49q22 39 47 66q46 -26 77 -49zM702 217q3 -40 -7.5 -84t-31.5 -63q-75 -67 -458 -70h-1h-172q-6 0 -7 5l-12 70q-1 2 1 3.5t5 1.5h101q-17 67 -57 153q32 25 73 32q31 -90 40 -142l-6 -24q110 142 204 214q83 62 164 62q70 0 114 -43.5
t50 -114.5zM618 122q16 44 10 87q-5 42 -33 68t-71 26q-57 0 -118 -45q-71 -52 -183 -178q291 0 395 42z" />
    <glyph glyph-name="uniFEC0" unicode="&#x636;" horiz-adv-x="782" arabic-form="medial" 
d="M387 490l-44 -66q-38 26 -80 49q22 39 47 66q46 -26 77 -49zM820 7q1 -7 -5 -7q-118 0 -189 48q-105 -45 -421 -48h-1h-172q-6 0 -7 5l-12 70q-1 2 1 3.5t5 1.5h101q-17 67 -57 153q32 25 73 32q31 -90 40 -142l-6 -24q110 142 204 214q83 62 164 62q70 0 114 -43.5
t50 -114.5q6 -69 -21 -121q53 -16 119 -16q7 0 8 -5zM406 258q-71 -52 -183 -178q291 0 395 42q16 44 10 87q-5 42 -33 68t-71 26q-57 0 -118 -45z" />
    <glyph glyph-name="uniFEC2" unicode="&#x637;" horiz-adv-x="804" arabic-form="final" 
d="M842 7q1 -7 -5 -7q-116 0 -190 48q-106 -48 -336 -48q-168 0 -259 16q-14 49 -9 88q60 -14 134 -20q30 40 54 68q-66 322 -93 447q35 27 84 27l64 -412q53 59 106 99q84 62 164 62q70 0 114 -43.5t50 -114.5q5 -67 -20 -120q51 -17 122 -17q7 0 8 -5zM294 80
q236 0 342 42q16 44 10 87q-5 42 -33 68t-71 26q-57 0 -118 -45q-70 -52 -181 -177q17 -1 51 -1z" />
    <glyph glyph-name="uniFEC3" unicode="&#x637;" horiz-adv-x="701" arabic-form="initial" 
d="M649 217q3 -40 -7.5 -84t-31.5 -63q-72 -66 -450 -70h-1h-126q-7 0 -8 6l-11 68q-1 6 4 6h84q31 41 56 70q-34 180 -92 449q35 27 84 27l63 -413q60 65 108 100q83 62 164 62q70 0 114 -43.5t50 -114.5zM565 122q16 44 10 87q-5 42 -33 68t-71 26q-57 0 -118 -45
q-71 -52 -183 -178q291 0 395 42z" />
    <glyph glyph-name="uniFEC4" unicode="&#x637;" horiz-adv-x="727" arabic-form="medial" 
d="M765 7q1 -7 -5 -7q-117 0 -189 47q-105 -44 -411 -47h-1h-126q-7 0 -8 6l-11 68q-1 6 4 6h84q31 41 56 70q-34 180 -92 449q35 27 84 27l63 -413q60 65 108 100q83 62 164 62q70 0 114 -43.5t50 -114.5q5 -69 -21 -122q48 -15 117 -15q7 0 8 -5zM353 258
q-71 -52 -183 -178q291 0 395 42q16 44 10 87q-5 42 -33 68t-71 26q-57 0 -118 -45z" />
    <glyph glyph-name="uniFEC6" unicode="&#x638;" horiz-adv-x="804" arabic-form="final" 
d="M842 7q1 -7 -5 -7q-116 0 -190 48q-106 -48 -336 -48q-168 0 -259 16q-14 49 -9 88q60 -14 134 -20q30 40 54 68q-66 322 -93 447q35 27 84 27l64 -412q53 59 106 99q84 62 164 62q70 0 114 -43.5t50 -114.5q5 -67 -20 -120q51 -17 122 -17q7 0 8 -5zM519 518l-44 -66
q-38 26 -80 49q22 38 47 66q46 -26 77 -49zM294 80q236 0 342 42q16 44 10 87q-5 42 -33 68t-71 26q-57 0 -118 -45q-70 -52 -181 -177q17 -1 51 -1z" />
    <glyph glyph-name="uniFEC7" unicode="&#x638;" horiz-adv-x="701" arabic-form="initial" 
d="M649 217q3 -40 -7.5 -84t-31.5 -63q-72 -66 -450 -70h-1h-126q-7 0 -8 6l-11 68q-1 6 4 6h84q31 41 56 70q-34 180 -92 449q35 27 84 27l63 -413q60 65 108 100q83 62 164 62q70 0 114 -43.5t50 -114.5zM444 518l-44 -66q-38 26 -80 49q22 38 47 66q46 -26 77 -49z
M565 122q16 44 10 87q-5 42 -33 68t-71 26q-57 0 -118 -45q-71 -52 -183 -178q291 0 395 42z" />
    <glyph glyph-name="uniFEC8" unicode="&#x638;" horiz-adv-x="727" arabic-form="medial" 
d="M765 7q1 -7 -5 -7q-117 0 -189 47q-105 -44 -411 -47h-1h-126q-7 0 -8 6l-11 68q-1 6 4 6h84q31 41 56 70q-34 180 -92 449q35 27 84 27l63 -413q60 65 108 100q83 62 164 62q70 0 114 -43.5t50 -114.5q5 -69 -21 -122q48 -15 117 -15q7 0 8 -5zM444 518l-44 -66
q-38 26 -80 49q22 38 47 66q46 -26 77 -49zM353 258q-71 -52 -183 -178q291 0 395 42q16 44 10 87q-5 42 -33 68t-71 26q-57 0 -118 -45z" />
    <glyph glyph-name="uniFECA" unicode="&#x639;" horiz-adv-x="471" arabic-form="final" 
d="M509 9q2 -9 -5 -9h-39q-99 0 -194 46q-73 -66 -100 -118q20 -62 46.5 -104t77.5 -104q-28 -22 -73 -37q-53 64 -83.5 129t-30.5 109q0 69 109 156q-89 61 -178 179q0 49 9 76q80 56 180 56q83 0 130.5 -40.5t47.5 -103.5q0 -73 -76 -147q65 -17 131 -17h29q7 0 7 -5z
M97 284q81 -123 172 -167q68 61 68 115q0 38 -32 60.5t-84 22.5q-59 0 -124 -31z" />
    <glyph glyph-name="uniFECB" unicode="&#x639;" horiz-adv-x="456" arabic-form="initial" 
d="M320 87q56 4 104 14q-1 -45 -15 -86q-76 -15 -287 -15h-89q-7 0 -8 6l-11 67q-2 7 6 7h102h16q-73 46 -73 125q0 53 62 101.5t169 82.5q14 -37 16 -79q-144 -51 -187 -109q11 -58 63 -87t132 -27z" />
    <glyph glyph-name="uniFECC" unicode="&#x639;" horiz-adv-x="467" arabic-form="medial" 
d="M505 9q2 -9 -5 -9h-39q-105 0 -202 50q-85 -50 -218 -50h-8q-7 0 -8 6l-11 67q-2 7 6 7h29q87 0 142 13q-77 59 -156 163q0 49 9 76q80 56 180 56q83 0 130.5 -40.5t47.5 -103.5q0 -73 -80 -146q70 -18 135 -18h29q7 0 7 -5zM93 284q75 -116 164 -163q36 21 56 51t20 60
q0 38 -32 60.5t-84 22.5q-59 0 -124 -31z" />
    <glyph glyph-name="uniFECE" unicode="&#x63a;" horiz-adv-x="471" arabic-form="final" 
d="M258 548l-44 -66q-38 26 -80 49q22 39 47 66q46 -26 77 -49zM509 9q2 -9 -5 -9h-39q-99 0 -194 46q-73 -66 -100 -118q20 -62 46.5 -104t77.5 -104q-28 -22 -73 -37q-53 64 -83.5 129t-30.5 109q0 69 109 156q-89 61 -178 179q0 49 9 76q80 56 180 56q83 0 130.5 -40.5
t47.5 -103.5q0 -73 -76 -147q65 -17 131 -17h29q7 0 7 -5zM97 284q81 -123 172 -167q68 61 68 115q0 38 -32 60.5t-84 22.5q-59 0 -124 -31z" />
    <glyph glyph-name="uniFECF" unicode="&#x63a;" horiz-adv-x="456" arabic-form="initial" 
d="M192 503l-44 -66q-38 26 -80 49q22 38 47 66q46 -26 77 -49zM320 87q56 4 104 14q-1 -45 -15 -86q-76 -15 -287 -15h-89q-7 0 -8 6l-11 67q-2 7 6 7h102h16q-73 46 -73 125q0 53 62 101.5t169 82.5q14 -37 16 -79q-144 -51 -187 -109q11 -58 63 -87t132 -27z" />
    <glyph glyph-name="uniFED0" unicode="&#x63a;" horiz-adv-x="467" arabic-form="medial" 
d="M253 548l-44 -66q-38 26 -80 49q22 39 47 66q46 -26 77 -49zM505 9q2 -9 -5 -9h-39q-105 0 -202 50q-85 -50 -218 -50h-8q-7 0 -8 6l-11 67q-2 7 6 7h29q87 0 142 13q-77 59 -156 163q0 49 9 76q80 56 180 56q83 0 130.5 -40.5t47.5 -103.5q0 -73 -80 -146
q70 -18 135 -18h29q7 0 7 -5zM93 284q75 -116 164 -163q36 21 56 51t20 60q0 38 -32 60.5t-84 22.5q-59 0 -124 -31z" />
    <glyph glyph-name="uniFED2" unicode="&#x641;" horiz-adv-x="869" arabic-form="final" 
d="M664 551l-44 -66q-38 26 -80 49q22 38 47 66q46 -26 77 -49zM908 7q1 -7 -5 -7q-96 0 -171 28q-81 -28 -246 -28h-1h-2q-207 0 -443 77q5 47 27 85q206 -82 403 -82q62 0 137 5q-96 48 -107 105q-14 63 29.5 131t112.5 69q70 1 121 -55.5t59 -135.5q6 -69 -21 -115
q33 -4 87 -4q7 0 8 -5zM554 194q67 -65 165 -92q12 3 21 8q18 32 13 77q-6 52 -38 90.5t-76 38.5q-35 -2 -61.5 -39t-23.5 -83z" />
    <glyph glyph-name="uniFED3" unicode="&#x641;" horiz-adv-x="427" arabic-form="initial" 
d="M214 551l-44 -66q-38 26 -80 49q22 38 47 66q46 -26 77 -49zM372 199q9 -93 -45 -147q-53 -52 -294 -52q-7 0 -8 6l-12 68q0 6 6 6q61 0 138 5q-96 48 -107 105q-14 63 29.5 131t112.5 69q70 1 121 -55.5t59 -135.5zM104 194q67 -65 165 -92q12 3 21 8q18 32 13 77
q-6 52 -38 90.5t-76 38.5q-35 -2 -61.5 -39t-23.5 -83z" />
    <glyph glyph-name="uniFED4" unicode="&#x641;" horiz-adv-x="420" arabic-form="medial" 
d="M214 551l-44 -66q-38 26 -80 49q22 38 47 66q46 -26 77 -49zM458 7q1 -7 -5 -7q-96 0 -171 28q-83 -28 -249 -28q-7 0 -8 6l-12 68q0 6 6 6q61 0 138 5q-96 48 -107 105q-14 63 29.5 131t112.5 69q70 1 121 -55.5t59 -135.5q6 -69 -21 -115q33 -4 87 -4q7 0 8 -5z
M104 194q67 -65 165 -92q12 3 21 8q18 32 13 77q-6 52 -38 90.5t-76 38.5q-35 -2 -61.5 -39t-23.5 -83z" />
    <glyph glyph-name="uniFED6" unicode="&#x642;" horiz-adv-x="582" arabic-form="final" 
d="M386 474q-95 -4 -205 -32q-1 34 5 65q96 27 205 32zM620 8q2 -8 -5 -8h-87q2 -90 -24 -130q-22 -32 -80.5 -55.5t-130.5 -23.5q-144 0 -281 72q4 42 25 78q146 -77 258 -77q102 0 167 37q7 37 2 99q-134 2 -204.5 40t-80.5 99q-7 47 10.5 98.5t53.5 86.5t76 35
q70 0 126 -82.5t76 -196.5h80q7 0 7 -5zM230 162q43 -80 223 -87q-18 84 -58 145.5t-84 61.5q-30 0 -54.5 -36.5t-26.5 -83.5z" />
    <glyph glyph-name="uniFED7" unicode="&#x642;" horiz-adv-x="427" arabic-form="initial" 
d="M258 505q-95 -4 -205 -32q-1 34 5 65q96 27 205 32zM372 199q9 -93 -45 -147q-53 -52 -294 -52q-7 0 -8 6l-12 68q0 6 6 6q61 0 138 5q-96 48 -107 105q-14 63 29.5 131t112.5 69q70 1 121 -55.5t59 -135.5zM104 194q67 -65 165 -92q12 3 21 8q18 32 13 77
q-6 52 -38 90.5t-76 38.5q-35 -2 -61.5 -39t-23.5 -83z" />
    <glyph glyph-name="uniFED8" unicode="&#x642;" horiz-adv-x="420" arabic-form="medial" 
d="M258 505q-95 -4 -205 -32q-1 34 5 65q96 27 205 32zM458 7q1 -7 -5 -7q-96 0 -171 28q-83 -28 -249 -28q-7 0 -8 6l-12 68q0 6 6 6q61 0 138 5q-96 48 -107 105q-14 63 29.5 131t112.5 69q70 1 121 -55.5t59 -135.5q6 -69 -21 -115q33 -4 87 -4q7 0 8 -5zM104 194
q67 -65 165 -92q12 3 21 8q18 32 13 77q-6 52 -38 90.5t-76 38.5q-35 -2 -61.5 -39t-23.5 -83z" />
    <glyph glyph-name="uniFEDA" unicode="&#x643;" horiz-adv-x="756" arabic-form="final" 
d="M794 7q1 -7 -6 -7q-88 0 -127 30q-98 -30 -209 -30q-195 0 -411 73q3 42 26 85q199 -78 382 -78q86 0 171 18v1q-21 100 -55.5 262t-50.5 238q38 24 84 27l90 -532q31 -14 87 -14q6 0 7 -5zM330 236q-48 0 -95 13q-1 25 10 55q46 -12 79 -12q39 0 66 12q-10 12 -23 23
t-37 27l-21 -4q-12 10 -31 40q49 62 103 114q31 -16 52 -44q-47 -35 -71 -58q33 -25 51 -46q25 -32 25 -54q0 -29 -31.5 -47.5t-76.5 -18.5z" />
    <glyph glyph-name="uniFEDB" unicode="&#x643;" horiz-adv-x="408" arabic-form="initial" 
d="M274 282q38 -31 66.5 -68.5t28.5 -67.5q0 -60 -97 -103t-239 -43q-7 0 -8 6l-11 67q-2 7 6 7q187 0 287 67q-27 44 -86 83q-45 29 -109 59q-32 0 -55 -5q-23 16 -38 55q52 75 135 160.5t167 150.5q39 -6 74 -49q-151 -106 -273 -233q92 -42 152 -86z" />
    <glyph glyph-name="uniFEDC" unicode="&#x643;" horiz-adv-x="464" arabic-form="medial" 
d="M502 7q1 -7 -5 -7q-144 0 -216 47q-101 -47 -248 -47q-7 0 -8 6l-11 67q-2 7 6 7q187 0 287 67q-27 44 -86 83q-45 29 -109 59q-32 0 -55 -5q-23 16 -38 55q52 75 135 160.5t167 150.5q39 -6 74 -49q-151 -106 -273 -233q92 -42 152 -86q38 -31 66.5 -68.5t28.5 -67.5
q0 -27 -23 -53q55 -13 136 -13q7 0 8 -5z" />
    <glyph glyph-name="uniFEDE" unicode="&#x644;" horiz-adv-x="599" arabic-form="final" 
d="M637 8q1 -8 -6 -8q-61 0 -106 20q5 -115 -17 -150q-21 -32 -81.5 -55.5t-133.5 -23.5q-144 0 -281 72q4 42 25 78q146 -77 258 -77q106 0 170 37q9 62 -19 217q-17 90 -32 160t-35 159t-36 162q34 27 87 27l80 -471q6 -38 8 -56q42 -19 99 -19q7 0 8 -5z" />
    <glyph glyph-name="uniFEDF" unicode="&#x644;" horiz-adv-x="237" arabic-form="initial" 
d="M33 0q-7 0 -8 5l-11 68q-2 7 7 7q45 0 88 15q-4 43 -25 149q-12 62 -76 355q38 27 84 27l63 -368q29 -171 3 -210q-15 -22 -50.5 -35t-74.5 -13z" />
    <glyph glyph-name="uniFEE0" unicode="&#x644;" horiz-adv-x="248" arabic-form="medial" 
d="M286 7q1 -7 -6 -7q-95 0 -135 37q-51 -37 -114 -37q-5 0 -6 5l-11 67q-3 8 7 8q50 0 91 18v1q-21 100 -55.5 262t-50.5 238q38 24 84 27l90 -532q31 -14 87 -14q6 0 7 -5z" />
    <glyph glyph-name="uniFEE2" unicode="&#x645;" horiz-adv-x="676" arabic-form="final" 
d="M714 9q2 -9 -5 -9q-56 0 -93 23q-2 -15 -8 -35q-164 3 -258 32q-22 8 -38 23q-81 -72 -233 -125q-17 28 -25 83q80 20 128 41t103 60q0 12 1 18q7 48 16 82t26 71t45.5 57t67.5 20q52 0 85.5 -36.5t57.5 -110.5q22 -75 43 -99t67 -24q7 0 8 -5zM345 103q82 -30 231 -41
q-24 34 -40 87q-19 67 -40 96.5t-57 29.5q-18 0 -31.5 -7t-23 -22t-16 -28t-11 -36t-6.5 -35.5t-5 -35.5q-1 -5 -1 -8z" />
    <glyph glyph-name="uniFEE3" unicode="&#x645;" horiz-adv-x="448" arabic-form="initial" 
d="M404 189q11 -38 11.5 -79t-12.5 -65q-15 -22 -56.5 -35.5t-90.5 -13.5q-85 -2 -152 23q-29 -19 -71 -19q-7 0 -8 6l-11 67q-2 7 6 7q63 0 74 58q20 112 56 163.5t93 51.5q52 0 96 -43t65 -121zM240 72q63 0 108 18q-4 50 -14 85q-14 51 -38 77t-53 26q-37 0 -59 -42.5
t-39 -146.5q0 -1 -0.5 -3t-0.5 -3q44 -11 96 -11z" />
    <glyph glyph-name="uniFEE4" unicode="&#x645;" horiz-adv-x="483" arabic-form="medial" 
d="M521 9q2 -9 -5 -9q-56 0 -93 23q-2 -15 -8 -35q-164 3 -258 32q-19 5 -36 21q-35 -41 -88 -41q-7 0 -8 6l-11 67q-2 7 6 7q66 0 73 36q1 1 1 4q7 47 15.5 81.5t25.5 71.5t45.5 57t67.5 20q52 0 85.5 -36.5t57.5 -110.5q22 -75 43 -99t68 -24q7 0 8 -5zM152 103
q82 -30 231 -41q-24 34 -40 87q-19 67 -40 96.5t-57 29.5q-18 0 -31.5 -7t-23 -22t-16 -28t-11 -36t-6.5 -35.5t-5 -35.5q-1 -5 -1 -8z" />
    <glyph glyph-name="uniFEE6" unicode="&#x646;" horiz-adv-x="594" arabic-form="final" 
d="M632 8q1 -8 -6 -8q-57 0 -99 17q7 -97 -23 -147q-22 -32 -80.5 -55.5t-130.5 -23.5q-144 0 -281 72q4 42 25 78q146 -77 258 -77q102 0 167 37q10 67 -7 148q-18 88 -63 195q31 27 73 34q31 -80 51 -181q41 -17 96 -17q7 0 8 -5zM288 147l-44 -66q-38 26 -80 49
q22 39 47 66q46 -26 77 -49z" />
    <glyph glyph-name="uniFEE7" unicode="&#x646;" horiz-adv-x="265" arabic-form="initial" 
d="M96 430q-38 26 -80 49q22 38 47 66q46 -26 77 -49zM33 0q-7 0 -8 6l-11 68q-1 6 6 6q74 0 116 17q5 43 -7 100q-13 54 -43 112q32 28 76 35q23 -54 38 -122q11 -37 8.5 -92t-22.5 -80q-38 -50 -153 -50z" />
    <glyph glyph-name="uniFEE8" unicode="&#x646;" horiz-adv-x="278" arabic-form="medial" 
d="M170 444l-44 -66q-38 26 -80 49q22 39 47 66q46 -26 77 -49zM316 7q1 -7 -5 -7q-99 0 -169 54q-17 -26 -47.5 -40t-62.5 -14q-6 0 -7 6l-12 69q-2 5 5 5q44 0 76 17q19 71 21 181q39 2 78 -14q-3 -81 -26 -153q51 -31 129 -31q7 0 8 -5z" />
    <glyph glyph-name="uniFEE9" unicode="&#x647;" horiz-adv-x="631" arabic-form="isolated" 
d="M577 161q12 -56 8 -134q-20 -35 -50 -61q-122 0 -245 54q-51 -25 -128 -25q-53 0 -109 10q-11 48 -7 93q65 -19 115 -19q21 0 31 1q-46 40 -52 75q-11 61 24.5 111t90.5 51q53 1 92 -32t49 -90q11 -66 -41 -125q81 -25 160 -28q0 72 -9 111q-25 106 -100.5 165t-210.5 75
q0 52 17 80q165 -25 251.5 -104t113.5 -208zM257 252q-28 -2 -46.5 -26.5t-22.5 -61.5q25 -31 93 -65q58 34 51 86q-5 32 -26 50t-49 17z" />
    <glyph glyph-name="uniFEEA" unicode="&#x647;" horiz-adv-x="444" arabic-form="final" 
d="M482 7q1 -7 -6 -7q-107 0 -143 39q-23 -20 -69 -39q-71 0 -133 37t-71 91q-10 57 52 131.5t150 110.5q38 -8 70 -25l45 -251q31 -14 86 -14q7 0 8 -5zM262 80q27 0 47 4q-2 4 -4 14q-6 27 -21 98.5t-23 108.5q-52 -24 -93 -64t-58 -84q21 -36 68.5 -56.5t83.5 -20.5z" />
    <glyph glyph-name="uniFEEB" unicode="&#x647;" horiz-adv-x="541" arabic-form="initial" 
d="M486 163q13 -56 9 -136q-17 -33 -50 -61q-125 0 -249 56q-57 -22 -165 -22q-5 0 -6 5l-12 70q-3 5 5 5q21 0 48 0.5t34 0.5q-46 41 -50 74q-11 61 24.5 111t90.5 51q53 1 92 -32t49 -90q11 -66 -40 -125q79 -25 159 -28q0 74 -10 113q-26 105 -101 163.5t-208 74.5
q0 54 16 80q164 -25 249.5 -103t114.5 -207zM167 252q-28 -2 -46.5 -26.5t-22.5 -61.5q25 -31 92 -64q61 31 52 85q-5 31 -25.5 49.5t-49.5 17.5z" />
    <glyph glyph-name="uniFEEC" unicode="&#x647;" horiz-adv-x="490" arabic-form="medial" 
d="M527 8q2 -8 -5 -8q-54 0 -90 -11q-8 -26 -5 -64t27 -87q-8 -23 -43 -65q-121 5 -205.5 66t-113.5 162q-19 -1 -59 -1q-7 0 -8 6l-11 67q-1 7 6 7q38 0 57 1q-13 140 37 227t117 86q69 -1 113.5 -71t52.5 -159q4 -31 -9 -58.5t-41 -44.5q-81 -42 -185 -54
q27 -64 89.5 -107t136.5 -48q-26 57 -26 107q0 121 133 121h14q7 0 7 -5zM225 319q-36 -1 -65 -64t-16 -169q112 13 187 52q-7 70 -36 125.5t-70 55.5z" />
    <glyph glyph-name="uniFEEE" unicode="&#x648;" horiz-adv-x="449" arabic-form="final" 
d="M487 8q2 -8 -5 -8h-109q-49 -102 -200 -243q-36 16 -65 56q141 128 188 188q-97 5 -157.5 43t-69.5 95q-11 74 34 147t107 73q73 0 129.5 -84t56.5 -188v-7h72q7 0 7 -5zM120 162q42 -83 217 -88v5q-10 77 -50 140t-86 63q-30 0 -54.5 -36.5t-26.5 -83.5z" />
    <glyph glyph-name="uniFEF0" unicode="&#x649;" horiz-adv-x="590" arabic-form="final" 
d="M289 -230q-160 0 -272 69q4 41 24 78q116 -73 248 -72q155 0 250 106q-55 59 -187 129q14 43 38 77q66 -41 114 -59t105 -18q7 0 8 -5l11 -67q2 -8 -5 -8h-44l-60 24l-1 -3q76 -43 76 -80q0 -18 -22.5 -46t-60 -56.5t-97.5 -48.5t-125 -20z" />
    <glyph glyph-name="uniFEF2" unicode="&#x64a;" horiz-adv-x="590" arabic-form="final" 
d="M289 -230q-160 0 -272 69q4 41 24 78q116 -73 248 -72q155 0 250 106q-55 59 -187 129q14 43 38 77q66 -41 114 -59t105 -18q7 0 8 -5l11 -67q2 -8 -5 -8h-44l-60 24l-1 -3q76 -43 76 -80q0 -18 -22.5 -46t-60 -56.5t-97.5 -48.5t-125 -20zM187 -380q-1 34 5 65
q96 27 205 32l-5 -65q-95 -4 -205 -32z" />
    <glyph glyph-name="uniFEF3" unicode="&#x64a;" horiz-adv-x="296" arabic-form="initial" 
d="M33 0q-7 0 -8 6l-11 68q-1 6 6 6h16q89 0 131 17q5 44 -8 100q-12 52 -42 112q30 28 76 35q25 -61 38 -122q11 -37 8 -92.5t-22 -79.5q-39 -50 -163 -50h-21zM67 -195q-1 34 5 65q96 27 205 32l-5 -65q-95 -4 -205 -32z" />
    <glyph glyph-name="uniFEF4" unicode="&#x64a;" horiz-adv-x="310" arabic-form="medial" 
d="M349 7q1 -7 -5 -7q-100 0 -170 54q-39 -54 -142 -54q-6 0 -7 6l-12 69q-2 5 5 5q64 0 108 17q21 71 21 181q41 2 78 -14q-3 -80 -26 -154q52 -30 130 -30q7 0 8 -5zM94 -195q-1 34 5 65q96 27 205 32l-5 -65q-95 -4 -205 -32z" />
    <glyph glyph-name=".notdef" horiz-adv-x="500" 
 />
    <glyph glyph-name=".null" 
 />
    <glyph glyph-name="glyph2" horiz-adv-x="333" 
 />
    <glyph glyph-name="nonmarkingreturn" unicode="&#xd;" 
 />
    <glyph glyph-name="space" unicode=" " horiz-adv-x="203" 
 />
    <glyph glyph-name="exclam" unicode="!" horiz-adv-x="269" 
d="M85 180q41 241 63 400q44 16 88 14l-73 -410q-30 -10 -78 -4zM106 -14l-62 69q35 39 77 74l62 -72z" />
    <glyph glyph-name="quotedbl" unicode="&#x22;" horiz-adv-x="409" 
d="M115 355l28 232q42 7 83 0l-53 -232q-31 -6 -58 0zM296 355l28 232q42 7 83 0l-53 -232q-31 -6 -58 0z" />
    <glyph glyph-name="numbersign" unicode="#" horiz-adv-x="552" 
d="M549 326h-100l-64 -118h101q2 -27 -10 -57h-122l-87 -160q-35 3 -55 20l76 140h-131l-87 -160q-35 3 -55 20l76 140h-78q-2 27 10 57h99l64 118h-100q0 31 10 58h121l88 162q34 -3 55 -19l-77 -143h131l88 162q33 -3 56 -19l-78 -143h79q2 -31 -10 -58zM319 208l64 118
h-132l-64 -118h132z" />
    <glyph glyph-name="dollar" unicode="$" horiz-adv-x="457" 
d="M405 445q-43 24 -102 27l-29 -165q28 -13 47 -24.5t39 -29.5t30.5 -42t10.5 -54q0 -72 -48.5 -116.5t-134.5 -52.5l-15 -86q-23 -7 -47 -4q7 46 15 88q-98 3 -148 42q14 50 32 71q47 -37 129 -40q4 25 14.5 86t15.5 95q-29 14 -46.5 24.5t-38 28t-30.5 40.5t-10 51
q0 68 47 109.5t129 49.5q6 45 12 77q32 10 54 10l-15 -85q70 -3 122 -31q-9 -39 -33 -69zM165 402q0 -39 64 -73q14 86 24 142q-32 -3 -61 -12q-27 -20 -27 -57zM326 139q0 44 -67 79l-28 -158q44 5 67 15q28 25 28 64z" />
    <glyph glyph-name="percent" unicode="%" horiz-adv-x="789" 
d="M186 217q-54 0 -83 34.5t-29 94.5q0 93 44.5 147t123.5 54q54 0 83 -34.5t29 -94.5q0 -91 -45 -146t-123 -55zM142 26l473 518q29 -9 43 -35l-473 -519q-31 11 -43 36zM197 268q31 0 55 13q40 53 40 130q0 85 -61 85q-27 0 -55 -13q-40 -53 -40 -131q0 -84 61 -84z
M573 -11q-54 0 -83 34.5t-29 94.5q0 93 44.5 147t123.5 54q54 0 83 -34.5t29 -94.5q0 -91 -45 -146t-123 -55zM584 40q31 0 55 13q40 53 40 130q0 85 -61 85q-27 0 -55 -13q-40 -53 -40 -131q0 -84 61 -84z" />
    <glyph glyph-name="ampersand" unicode="&#x26;" horiz-adv-x="547" 
d="M205 -12q-75 0 -129 35.5t-54 101.5q0 57 42.5 99t117.5 65q-62 32 -62 104q0 68 51.5 109.5t138.5 41.5q58 0 92.5 -26t34.5 -70q0 -72 -81 -115h213q2 -33 -12 -67h-94l-14 -77q-33 -201 -244 -201zM266 333h9q89 35 89 97q0 26 -20 40.5t-54 14.5q-29 0 -62 -11
q-29 -34 -29 -71q0 -31 18.5 -50.5t48.5 -19.5zM237 57q42 0 78 17q45 41 60 127l10 65h-114h-11h-10l-5 1q-136 -45 -136 -126q0 -43 34.5 -63.5t93.5 -20.5z" />
    <glyph glyph-name="quotesingle" unicode="'" horiz-adv-x="228" 
d="M115 355l28 232q42 7 83 0l-53 -232q-31 -6 -58 0z" />
    <glyph glyph-name="parenleft" unicode="(" horiz-adv-x="369" 
d="M192 -230q-73 163 -73 334q0 288 232 564q26 -10 48 -32q-199 -273 -199 -542q0 -144 53 -293q-34 -23 -61 -31z" />
    <glyph glyph-name="parenright" unicode=")" horiz-adv-x="368" 
d="M254 667q73 -163 73 -334q0 -288 -232 -564q-26 10 -48 32q199 273 199 542q0 144 -53 293q34 23 61 31z" />
    <glyph glyph-name="asterisk" unicode="*" horiz-adv-x="317" 
d="M153 320l27 104l-90 -62q-17 27 -21 53l102 43l-87 40q13 28 39 53l70 -62l7 104q33 5 60 0l-30 -104l92 62q12 -15 21 -53l-101 -40l86 -43q-13 -24 -39 -53l-71 62l-6 -104q-34 -6 -59 0z" />
    <glyph glyph-name="plus" unicode="+" horiz-adv-x="418" 
d="M147 27l25 139h-145q-4 12 -0.5 33t11.5 32h145l25 140q14 6 34 6t31 -6l-25 -140h148q2 -12 -1.5 -32.5t-10.5 -32.5h-147l-24 -139q-13 -6 -34 -6t-32 6z" />
    <glyph glyph-name="comma" unicode="," horiz-adv-x="226" 
d="M-32 -137l102 215q49 9 92 0l-133 -215q-33 -7 -61 0z" />
    <glyph glyph-name="hyphen" unicode="-" horiz-adv-x="345" 
d="M49 179q9 36 27 69h230q-9 -38 -27 -69h-230z" />
    <glyph glyph-name="period" unicode="." horiz-adv-x="244" 
d="M101 -14l-62 69q35 39 77 74l62 -72z" />
    <glyph glyph-name="slash" unicode="/" horiz-adv-x="447" 
d="M27 -224q-37 10 -65 31l507 867q34 -10 64 -31z" />
    <glyph glyph-name="zero" unicode="0" horiz-adv-x="537" 
d="M235 -12q-94 0 -142 53.5t-48 154.5q0 157 76.5 252.5t209.5 95.5q189 0 189 -208q0 -157 -76.5 -252.5t-208.5 -95.5zM250 58q51 0 96 22q87 102 87 248q0 70 -30 108t-87 38q-50 0 -97 -22q-87 -102 -87 -248q0 -70 30 -108t88 -38z" />
    <glyph glyph-name="one" unicode="1" horiz-adv-x="302" 
d="M111 -2q40 225 73 433l-105 -48q-17 38 -20 71q94 46 137.5 64.5t66.5 18.5h23l-94 -535q-34 -10 -81 -4z" />
    <glyph glyph-name="two" unicode="2" horiz-adv-x="414" 
d="M147 103l-47 -33h255q0 -39 -13 -70h-362q0 29 12 72l91 64q59 42 89.5 66.5t68 60t53.5 67.5t16 66q0 75 -89 75q-69 0 -130 -37q-18 25 -18 63q76 47 172 47q75 0 114.5 -33t39.5 -95q0 -45 -18 -86t-57 -81t-76.5 -70.5t-100.5 -75.5z" />
    <glyph glyph-name="three" unicode="3" horiz-adv-x="417" 
d="M145 -12q-100 0 -156 37q12 46 34 70q55 -35 135 -35q64 0 100 19q31 31 31 76q0 86 -147 86h-21q0 40 12 69h23q76 0 119 27.5t43 71.5q0 29 -22 45.5t-62 16.5q-68 0 -128 -37q-23 29 -19 63q77 47 171 47q68 0 107 -31t39 -84q0 -55 -35.5 -93t-98.5 -56
q52 -9 79.5 -39t27.5 -77q0 -81 -63.5 -128.5t-168.5 -47.5z" />
    <glyph glyph-name="four" unicode="4" horiz-adv-x="473" 
d="M257 -2l21 122h-278q0 40 14 76l311 328q46 19 106 17l-62 -351h76q2 -37 -12 -70h-77l-20 -119q-34 -8 -79 -3zM91 190h199l42 248z" />
    <glyph glyph-name="five" unicode="5" horiz-adv-x="416" 
d="M141 -12q-96 0 -152 39q11 47 31 70q56 -37 134 -37q61 0 105 22q37 41 37 94q0 109 -229 99l78 260h290q0 -32 -19 -70h-219l-38 -120q106 -2 165.5 -41.5t59.5 -111.5q0 -92 -67 -148t-176 -56z" />
    <glyph glyph-name="six" unicode="6" horiz-adv-x="476" 
d="M461 484q-267 -14 -323 -205q35 22 75.5 37.5t57.5 15.5q76 0 118.5 -39.5t42.5 -109.5q0 -87 -60 -141.5t-157 -53.5q-81 1 -126 49t-45 131q0 51 12 100.5t42 100.5t75 90t116.5 65.5t160.5 30.5q14 -29 11 -71zM246 265q-51 0 -118 -31q-4 -23 -4 -55q0 -123 103 -123
q40 0 72 13q47 43 47 105q0 43 -26.5 67t-73.5 24z" />
    <glyph glyph-name="seven" unicode="7" horiz-adv-x="412" 
d="M81 535h383q-2 -41 -13 -72q-237 -199 -310 -460q-33 -13 -87 -5q85 279 302 467h-288q-4 35 13 70z" />
    <glyph glyph-name="eight" unicode="8" horiz-adv-x="497" 
d="M335 290q109 -49 109 -133q0 -81 -64 -125t-166 -44q-79 0 -127.5 33.5t-48.5 94.5q0 109 150 160q-75 37 -75 113q0 71 57.5 113t155.5 42q65 0 102.5 -30t37.5 -77q0 -96 -131 -147zM225 462q-28 -26 -28 -65q0 -48 70 -79l11 -4q55 25 80 49.5t25 56.5q0 26 -20 41
t-57 15q-45 0 -81 -14zM323 73q35 29 35 75q0 31 -25.5 53.5t-81.5 46.5l-3 2q-61 -24 -91.5 -53t-30.5 -69q0 -34 26.5 -53t76.5 -19q54 0 94 17z" />
    <glyph glyph-name="nine" unicode="9" horiz-adv-x="476" 
d="M290 547q81 -1 126 -49t45 -131q0 -51 -12 -100.5t-42 -100.5t-75 -90t-116.5 -65.5t-160.5 -30.5q-14 29 -11 71q267 14 323 205q-35 -22 -75.5 -37.5t-57.5 -15.5q-76 0 -118.5 39.5t-42.5 109.5q0 87 60 141.5t157 53.5zM259 270q51 0 118 31q4 23 4 55
q0 123 -103 123q-40 0 -72 -13q-47 -43 -47 -105q0 -43 26.5 -67t73.5 -24z" />
    <glyph glyph-name="colon" unicode=":" horiz-adv-x="228" 
d="M139 225l-59 66q33 38 74 71l59 -69zM97 -13l-59 66q33 38 74 71l59 -69z" />
    <glyph glyph-name="semicolon" unicode=";" horiz-adv-x="243" 
d="M142 217l-62 69q35 39 77 74l62 -72zM-32 -137l102 215q49 9 92 0l-133 -215q-33 -7 -61 0z" />
    <glyph glyph-name="less" unicode="&#x3c;" horiz-adv-x="406" 
d="M307 -11l-273 163q-5 14 -1.5 35.5t13.5 34.5l330 163q9 -8 16 -28t5 -34l-287 -139l235 -138q-4 -14 -15.5 -31.5t-22.5 -25.5z" />
    <glyph glyph-name="equal" unicode="=" horiz-adv-x="432" 
d="M45 224q-4 11 -0.5 32t11.5 32h357q3 -12 -0.5 -32.5t-10.5 -31.5h-357zM22 92q-4 12 -0.5 33t11.5 32h357q4 -11 0 -31.5t-11 -33.5h-357z" />
    <glyph glyph-name="greater" unicode="&#x3e;" horiz-adv-x="406" 
d="M70 386l273 -163q5 -14 1.5 -35.5t-13.5 -34.5l-330 -163q-9 8 -16 28t-5 34l287 139l-235 138q10 36 38 57z" />
    <glyph glyph-name="question" unicode="?" horiz-adv-x="354" 
d="M97 181q2 37 6 63.5t20.5 57.5t44.5 44q73 35 104.5 60.5t31.5 61.5q0 25 -21.5 40t-63.5 15q-74 0 -134 -37q-22 28 -18 63q76 47 169 47q72 0 112 -30t40 -81q0 -40 -17.5 -72.5t-50.5 -56t-61 -38t-68 -29.5q-13 -48 -15 -104q-32 -11 -79 -4zM112 -14l-62 69
q35 39 77 74l62 -72z" />
    <glyph glyph-name="at" unicode="@" horiz-adv-x="644" 
d="M298 -15q-117 0 -181.5 60.5t-64.5 164.5q0 145 90 239.5t243 94.5q111 0 178 -58.5t67 -153.5q0 -96 -52 -161t-122 -65q-64 0 -79 45q-56 -39 -87 -39q-46 0 -73 30t-27 83q0 79 47 140.5t132 61.5q60 0 112 -23l-53 -197q-16 -61 37 -61q43 0 78.5 50t35.5 128
q0 82 -55.5 128t-153.5 46q-118 0 -191.5 -80t-73.5 -199q0 -90 53.5 -139.5t147.5 -49.5q67 0 141 27q9 -19 12 -45q-77 -27 -161 -27zM309 157q29 0 65 26l48 187q-30 12 -67 12q-34 0 -67 -19q-44 -57 -44 -132q0 -36 17 -55t48 -19z" />
    <glyph glyph-name="A" unicode="A" horiz-adv-x="511" 
d="M371 535l100 -528q-49 -17 -84 -16l-27 154h-220l-80 -154q-37 -2 -82 16l287 528q53 9 106 0zM175 212h173l-44 247z" />
    <glyph glyph-name="B" unicode="B" horiz-adv-x="491" 
d="M395 294q62 -28 62 -103q0 -89 -62 -140t-171 -51h-194q47 271 87 528q77 17 173 17q173 0 173 -123q0 -77 -68 -128zM193 472l-28 -159h120h51q47 38 47 91q0 72 -106 72zM336 89q37 39 37 91q0 69 -76 69h-143l-31 -179h114q57 0 99 19z" />
    <glyph glyph-name="C" unicode="C" horiz-adv-x="479" 
d="M266 -14q-109 0 -164.5 60.5t-55.5 165.5q0 153 85 245t229 92q87 0 140 -36q-11 -41 -34 -71q-50 33 -119 33t-124 -26q-89 -93 -89 -228q0 -76 38.5 -119t112.5 -43q68 0 128 34q15 -30 17 -64q-69 -43 -164 -43z" />
    <glyph glyph-name="D" unicode="D" horiz-adv-x="551" 
d="M31 0q46 264 86 528q87 17 177 17q116 0 178.5 -57t62.5 -162q0 -153 -84.5 -239.5t-237.5 -86.5h-182zM123 70h106q77 0 129 25q90 96 90 222q0 77 -43 117.5t-127 40.5l-84 -4z" />
    <glyph glyph-name="E" unicode="E" horiz-adv-x="435" 
d="M30 0q44 255 86 525q39 10 107 10h238q0 -39 -13 -70h-256l-29 -160h221q2 -35 -12 -68h-221l-29 -167h263q2 -33 -12 -70h-343z" />
    <glyph glyph-name="F" unicode="F" horiz-adv-x="419" 
d="M30 -2q48 280 86 527q39 10 107 10h234q0 -39 -13 -70h-252l-29 -162h218q2 -33 -12 -70h-218l-41 -231q-32 -10 -80 -4z" />
    <glyph glyph-name="G" unicode="G" horiz-adv-x="558" 
d="M270 -14q-109 0 -166.5 60t-57.5 163q0 158 86.5 249t245.5 91q109 0 171 -45q-15 -39 -36 -69q-56 40 -150 40q-80 0 -140 -26q-90 -96 -90 -228q0 -76 40.5 -119t117.5 -43q66 0 121 22l26 149h-138q0 39 12 70h213l-46 -261q-94 -53 -209 -53z" />
    <glyph glyph-name="H" unicode="H" horiz-adv-x="557" 
d="M471 526q44 16 88 14l-95 -539q-32 -10 -80 -4q19 101 40 236h-273l-41 -231q-32 -10 -80 -4q46 266 87 529q45 16 88 14l-42 -237h273q2 10 35 222z" />
    <glyph glyph-name="I" unicode="I" horiz-adv-x="202" 
d="M29 -2q42 236 88 529q45 16 88 14l-95 -539q-32 -10 -81 -4z" />
    <glyph glyph-name="J" unicode="J" horiz-adv-x="255" 
d="M5 -48q-26 26 -31 65q38 15 57 24.5t39 26.5t29.5 41t16.5 62q34 183 58 356q45 16 88 14l-65 -367q-7 -41 -17.5 -69.5t-30.5 -58.5t-56 -53t-88 -41z" />
    <glyph glyph-name="K" unicode="K" horiz-adv-x="474" 
d="M354 -8l-199 262l-45 -252q-30 -10 -81 -4q42 236 88 529q45 16 88 14l-45 -256l269 256q46 0 83 -16l-271 -254l200 -264q-45 -16 -87 -15z" />
    <glyph glyph-name="L" unicode="L" horiz-adv-x="396" 
d="M30 0q44 251 87 527q45 16 88 14l-83 -471h236q0 -39 -13 -70h-315z" />
    <glyph glyph-name="M" unicode="M" horiz-adv-x="631" 
d="M537 541q58 0 94 -14l-92 -526q-32 -10 -80 -4q42 244 73 427l-190 -241q-27 -6 -51 0l-107 242l-74 -423q-34 -10 -80 -4q46 266 87 529q44 16 101 14l114 -259z" />
    <glyph glyph-name="N" unicode="N" horiz-adv-x="558" 
d="M477 526q44 16 84 14l-95 -539q-30 -11 -77 -4l-210 420l-73 -416q-37 -8 -76 -3q46 266 87 529q45 16 92 14l204 -408q24 146 64 393z" />
    <glyph glyph-name="O" unicode="O" horiz-adv-x="605" 
d="M271 -14q-108 0 -166.5 62.5t-58.5 165.5q0 151 86 243t232 92q108 0 166 -62.5t58 -165.5q0 -151 -85.5 -243t-231.5 -92zM290 57q60 0 119 26q91 98 91 230q0 78 -40.5 122t-115.5 44q-62 0 -119 -27q-91 -97 -91 -230q0 -78 40.5 -121.5t115.5 -43.5z" />
    <glyph glyph-name="P" unicode="P" horiz-adv-x="461" 
d="M30 -2q39 217 87 530q87 17 177 17q86 0 133 -37.5t47 -103.5q0 -95 -62 -147.5t-179 -52.5h-87l-36 -202q-30 -10 -80 -4zM158 273h87q59 0 97 16q44 40 44 103q0 83 -114 83l-78 -4z" />
    <glyph glyph-name="Q" unicode="Q" horiz-adv-x="605" 
d="M366 -2q21 -37 59.5 -54.5t109.5 -17.5q-13 -47 -30 -75q-169 0 -207 136q-9 -1 -27 -1q-108 0 -166.5 62.5t-58.5 165.5q0 151 86 243t232 92q108 0 166 -62.5t58 -165.5q0 -124 -58.5 -209.5t-163.5 -113.5zM134 222q0 -78 40.5 -121.5t115.5 -43.5q60 0 119 26
q91 98 91 230q0 78 -40.5 122t-115.5 44q-62 0 -119 -27q-91 -97 -91 -230z" />
    <glyph glyph-name="R" unicode="R" horiz-adv-x="470" 
d="M30 -2q39 217 87 530q87 17 176 17q84 0 131 -35.5t47 -99.5q0 -70 -44 -115.5t-123 -57.5l129 -226q-42 -15 -86 -15l-125 230h-72l-39 -224q-32 -10 -81 -4zM162 292h91q54 0 94 16q38 34 38 91q0 37 -29 56.5t-82 19.5l-80 -4z" />
    <glyph glyph-name="S" unicode="S" horiz-adv-x="424" 
d="M170 -14q-103 0 -158 42q14 50 32 71q52 -40 137 -40q59 0 97 16q27 24 27 64q0 29 -24 52t-57.5 40t-67.5 36t-58 50t-24 72q0 74 57 117.5t154 43.5q81 0 139 -32q-12 -40 -34 -68q-49 26 -116 26q-50 0 -87 -12q-28 -20 -28 -57q0 -32 36.5 -58t79.5 -44t79.5 -56.5
t36.5 -91.5q0 -80 -59.5 -125.5t-161.5 -45.5z" />
    <glyph glyph-name="T" unicode="T" horiz-adv-x="448" 
d="M157 -2q41 240 77 467h-166q-2 37 12 70h418q0 -39 -13 -70h-166l-82 -463q-32 -10 -80 -4z" />
    <glyph glyph-name="U" unicode="U" horiz-adv-x="542" 
d="M240 -14q-89 0 -136 39t-47 114q0 22 8 72.5t24 144t27 171.5q49 16 89 14l-60 -338q-6 -39 -6 -54q0 -92 116 -92q124 0 148 122q25 130 57 348q47 16 88 14l-67 -362q-34 -193 -241 -193z" />
    <glyph glyph-name="V" unicode="V" horiz-adv-x="511" 
d="M481 541q43 2 80 -15l-289 -525q-50 -9 -99 0l-103 525q42 17 84 15l86 -455z" />
    <glyph glyph-name="W" unicode="W" horiz-adv-x="748" 
d="M712 542q41 2 80 -16l-234 -524q-54 -9 -102 0l-42 417l-189 -417q-50 -8 -100 0l-49 524q46 18 85 16l36 -442l189 427q46 13 95 13l40 -442z" />
    <glyph glyph-name="X" unicode="X" horiz-adv-x="488" 
d="M54 -7q-54 2 -81 15l240 265l-140 254q44 16 85 14l115 -205l184 206q52 -2 81 -15l-231 -252l147 -267q-45 -16 -85 -14l-122 218z" />
    <glyph glyph-name="Y" unicode="Y" horiz-adv-x="472" 
d="M441 541q48 2 85 -15l-249 -334l-33 -190q-34 -10 -80 -4q18 100 33 194l-131 334q42 17 83 15l101 -270z" />
    <glyph glyph-name="Z" unicode="Z" horiz-adv-x="457" 
d="M480 535q0 -36 -13 -72l-358 -393h293q0 -39 -13 -70h-391q0 33 14 72l357 393h-263q-2 35 13 70h361z" />
    <glyph glyph-name="bracketleft" unicode="[" horiz-adv-x="352" 
d="M64 -230l157 898h177q-3 -29 -12 -66h-99l-135 -767h101q-1 -10 -11 -65h-178z" />
    <glyph glyph-name="backslash" unicode="\" horiz-adv-x="447" 
d="M340 -224l-199 867q37 21 75 31l200 -867q-32 -21 -76 -31z" />
    <glyph glyph-name="bracketright" unicode="]" horiz-adv-x="352" 
d="M365 667l-157 -898h-177q3 29 12 66h99l135 767h-101q1 10 11 65h178z" />
    <glyph glyph-name="asciicircum" unicode="^" horiz-adv-x="462" 
d="M344 586l99 -280q-37 -9 -75 0l-78 216l-154 -216q-41 -9 -74 0l197 280q18 7 43.5 7t41.5 -7z" />
    <glyph glyph-name="underscore" unicode="_" horiz-adv-x="500" 
d="M-3 -130q7 33 27 69h381q-9 -36 -27 -69h-381z" />
    <glyph glyph-name="grave" unicode="`" horiz-adv-x="241" 
d="M234 423l-163 88q22 42 48 63l138 -119q-9 -18 -23 -32z" />
    <glyph glyph-name="a" unicode="a" horiz-adv-x="438" 
d="M279 -2l5 53q-30 -26 -63 -45.5t-50 -19.5q-61 0 -100.5 45.5t-39.5 116.5q0 107 62 171.5t175 64.5q84 0 143 -26l-63 -356q-38 -7 -69 -4zM198 61q31 0 91 43l30 196q-27 15 -72 15t-82 -17q-50 -54 -50 -135q0 -47 23 -74.5t60 -27.5z" />
    <glyph glyph-name="b" unicode="b" horiz-adv-x="437" 
d="M170 -14q-86 0 -143 24q55 310 92 563q42 22 89 22l-51 -272q79 61 110 61q60 0 99.5 -45.5t39.5 -116.5q0 -107 -61.5 -171.5t-174.5 -64.5zM190 55q43 0 82 17q51 54 51 135q0 46 -23.5 74t-59.5 28q-34 0 -90 -44l-35 -195q30 -15 75 -15z" />
    <glyph glyph-name="c" unicode="c" horiz-adv-x="369" 
d="M198 -14q-82 0 -124 44.5t-42 120.5q0 104 60 168t162 64q64 0 106 -24q-11 -39 -25 -64q-32 21 -89 21q-49 0 -84 -16q-50 -58 -50 -139q0 -51 26.5 -78.5t76.5 -27.5q53 0 92 22q10 -28 7 -65q-56 -26 -116 -26z" />
    <glyph glyph-name="d" unicode="d" horiz-adv-x="439" 
d="M173 -14q-62 0 -102 45t-40 117q0 107 62 171.5t175 64.5q39 0 67 -8l30 197q44 22 89 22l-104 -593q-38 -7 -69 -4l5 53q-29 -25 -62.5 -45t-50.5 -20zM200 61q34 0 91 43l32 197q-29 14 -73 14q-48 0 -85 -17q-50 -53 -50 -134q0 -47 23.5 -75t61.5 -28z" />
    <glyph glyph-name="e" unicode="e" horiz-adv-x="404" 
d="M176 167q-26 0 -68 2v-7q0 -54 29.5 -82t81.5 -28q67 0 122 29q10 -24 8 -63q-70 -32 -146 -32q-83 0 -127 44.5t-44 120.5q0 104 57 168.5t164 64.5q58 0 93 -27t35 -69q0 -60 -54.5 -90.5t-150.5 -30.5zM234 325q-38 0 -72 -16q-40 -40 -49 -91q29 -3 63 -3
q126 0 126 61q0 23 -18.5 36t-49.5 13z" />
    <glyph glyph-name="f" unicode="f" horiz-adv-x="312" 
d="M-42 -216q-25 34 -28 68q58 12 93 51t48 114l48 286h-91q-2 35 12 67h90l6 28q18 92 85.5 142t162.5 57q16 -24 13 -75q-87 -7 -131.5 -41t-54.5 -99l-1 -12h134q2 -32 -12 -67h-134l-52 -303q-15 -91 -64.5 -145.5t-123.5 -70.5z" />
    <glyph glyph-name="g" unicode="g" horiz-adv-x="439" 
d="M129 -206q-79 0 -127 30q5 40 27 69q37 -32 105 -32q65 0 102 25q25 36 36 99l14 71q-79 -65 -114 -65q-61 0 -101 44.5t-40 112.5q0 107 62 171.5t175 64.5q85 0 144 -26l-66 -377q-17 -98 -69 -142.5t-148 -44.5zM200 66q31 0 91 43l29 191q-27 15 -72 15
q-46 0 -83 -17q-50 -54 -50 -132q0 -45 24 -72.5t61 -27.5z" />
    <glyph glyph-name="h" unicode="h" horiz-adv-x="433" 
d="M25 -2q57 325 94 575q44 22 89 22l-51 -272q79 61 109 61q66 0 99.5 -49t16.5 -142l-33 -191q-31 -10 -78 -4l31 182q10 63 -7 96t-56 33q-33 0 -89 -44l-47 -263q-30 -10 -78 -4z" />
    <glyph glyph-name="i" unicode="i" horiz-adv-x="194" 
d="M148 457l-59 66q33 37 73 70q13 -14 28 -31t23 -28l8 -10zM26 -2q33 188 58 362q42 16 86 14l-66 -372q-30 -10 -78 -4z" />
    <glyph glyph-name="j" unicode="j" horiz-adv-x="198" 
d="M152 457l-59 66q33 37 74 70l58 -69zM-117 -206q-24 21 -32 60q161 47 190 208q13 72 47 298q42 16 86 14l-57 -319q-33 -190 -234 -261z" />
    <glyph glyph-name="k" unicode="k" horiz-adv-x="387" 
d="M25 -2q67 394 94 575q42 22 89 22l-67 -377q109 78 185 158q54 -2 85 -15q-91 -91 -192 -161l142 -191q-45 -17 -86 -15l-139 197l-33 -189q-30 -10 -78 -4z" />
    <glyph glyph-name="l" unicode="l" horiz-adv-x="192" 
d="M25 -2q67 394 94 575q42 22 89 22l-105 -593q-30 -10 -78 -4z" />
    <glyph glyph-name="m" unicode="m" horiz-adv-x="674" 
d="M26 -2q33 188 58 362q40 15 80 15q-1 -8 -12 -57q84 66 114 66q87 0 111 -78q37 32 74.5 55t56.5 23q65 0 98.5 -49t16.5 -142l-34 -191q-31 -10 -78 -4l30 182q11 62 -5.5 95.5t-54.5 33.5q-32 0 -97 -50q3 -28 -4 -66l-33 -191q-31 -10 -78 -4l30 182q10 63 -6 96
t-54 33q-33 0 -88 -44l-47 -263q-30 -10 -78 -4z" />
    <glyph glyph-name="n" unicode="n" horiz-adv-x="434" 
d="M26 -2q33 188 58 362q40 15 80 15q-6 -30 -12 -57q82 66 115 66q66 0 99.5 -49t16.5 -142l-34 -191q-29 -10 -78 -4l31 182q11 63 -6 96t-56 33q-32 0 -90 -44l-46 -263q-30 -10 -78 -4z" />
    <glyph glyph-name="o" unicode="o" horiz-adv-x="452" 
d="M193 -14q-76 0 -119 45.5t-43 118.5q0 105 62.5 169.5t165.5 64.5q76 0 119 -45.5t43 -118.5q0 -105 -62.5 -169.5t-165.5 -64.5zM211 52q28 0 60 9q27 22 46.5 66t19.5 89q0 48 -26 75t-70 27q-28 0 -60 -9q-28 -21 -47 -64.5t-19 -89.5q0 -49 26 -76t70 -27z" />
    <glyph glyph-name="p" unicode="p" horiz-adv-x="438" 
d="M-9 -209q51 293 93 569q40 15 80 15q-6 -30 -12 -57q79 66 116 66q60 0 99.5 -45t39.5 -117q0 -107 -61 -171.5t-174 -64.5q-40 0 -70 8l-28 -188q-39 -14 -83 -15zM191 55q43 0 82 17q51 54 51 135q0 46 -23.5 74t-59.5 28q-34 0 -90 -44l-35 -196q31 -14 75 -14z" />
    <glyph glyph-name="q" unicode="q" horiz-adv-x="438" 
d="M231 -209l53 260q-77 -65 -113 -65q-61 0 -100.5 45.5t-39.5 116.5q0 107 62 171.5t175 64.5q84 0 143 -26l-97 -552q-34 -13 -83 -15zM198 61q31 0 91 43l30 196q-27 15 -72 15t-82 -17q-50 -54 -50 -135q0 -47 23 -74.5t60 -27.5z" />
    <glyph glyph-name="r" unicode="r" horiz-adv-x="279" 
d="M26 -2q33 188 58 362q40 15 80 15q-9 -45 -15 -67q25 28 58 52t52 25q28 0 49 -12q-2 -36 -14 -70q-19 9 -47 9q-39 0 -98 -53l-45 -257q-30 -10 -78 -4z" />
    <glyph glyph-name="s" unicode="s" horiz-adv-x="335" 
d="M126 -14q-76 0 -123 30q8 37 23 59q36 -26 108 -26q34 0 63 13q15 15 15 37q0 23 -26 42.5t-56.5 33t-56.5 38.5t-26 57q0 55 44 84.5t122 29.5q62 0 100 -18q-5 -36 -21 -64q-36 19 -91 19q-32 1 -59 -8q-16 -16 -16 -36q0 -18 26 -35.5t56.5 -31t56.5 -41t26 -64.5
q0 -59 -45 -89t-120 -30z" />
    <glyph glyph-name="t" unicode="t" horiz-adv-x="333" 
d="M197 -10q-130 0 -108 142l29 171h-88q-2 32 12 67h87l16 115q42 20 87 20l-24 -135h138q3 -30 -11 -67h-139l-29 -162q-6 -41 6 -60.5t46 -19.5q31 0 63 10q3 -31 -4 -70q-40 -11 -81 -11z" />
    <glyph glyph-name="u" unicode="u" horiz-adv-x="435" 
d="M167 -14q-66 0 -98.5 47.5t-18.5 139.5l29 187q42 16 86 14l-34 -189q-11 -61 7.5 -92.5t57.5 -31.5q34 0 90 43l39 256q42 16 86 14l-66 -372q-38 -7 -69 -4l5 53q-83 -65 -114 -65z" />
    <glyph glyph-name="v" unicode="v" horiz-adv-x="385" 
d="M323 376q54 -2 81 -15q-77 -185 -204 -359q-46 -9 -92 0l-77 359q46 16 81 14l57 -296q96 143 154 297z" />
    <glyph glyph-name="w" unicode="w" horiz-adv-x="594" 
d="M529 376q50 -2 78 -15q-68 -190 -179 -360q-44 -9 -89 0l-33 274l-130 -274q-46 -9 -90 0l-50 360q46 16 83 14l28 -299l135 286q39 13 82 13l29 -306q87 149 136 307z" />
    <glyph glyph-name="x" unicode="x" horiz-adv-x="389" 
d="M408 361q-73 -94 -165 -177l109 -175q-44 -17 -80 -15l-91 145q-75 -71 -130 -145q-45 0 -77 15q68 88 173 183l-104 169q45 16 80 14l87 -137q75 70 120 138q50 -2 78 -15z" />
    <glyph glyph-name="y" unicode="y" horiz-adv-x="393" 
d="M327 376q54 -2 80 -15q-78 -197 -192 -351q-131 -173 -276 -220q-21 19 -27 60q101 31 200 146l-84 365q46 16 81 14l64 -312q98 148 154 313z" />
    <glyph glyph-name="z" unicode="z" horiz-adv-x="373" 
d="M369 370q0 -35 -12 -69l-249 -233q116 5 213 -4q3 -31 -11 -68q-164 12 -314 4q0 32 13 69l250 234h-198q-3 32 12 67h296z" />
    <glyph glyph-name="braceleft" unicode="{" horiz-adv-x="424" 
d="M435 668h35q-2 -31 -11 -66h-27q-74 0 -88 -83l-23 -131q-22 -128 -111 -159q60 -25 60 -111q0 -24 -4 -44l-27 -152q-4 -24 -4 -33q0 -54 58 -54h31q-4 -35 -12 -65h-41q-115 0 -115 106q0 14 5 47l25 143q4 23 4 44q1 83 -71 83h-20q3 34 12 67h20q89 0 113 135l23 127
q14 77 53 111.5t115 34.5z" />
    <glyph glyph-name="bar" unicode="|" horiz-adv-x="259" 
d="M50 -230l158 896q39 5 77 0l-158 -896q-40 -5 -77 0z" />
    <glyph glyph-name="braceright" unicode="}" horiz-adv-x="424" 
d="M383 244h20q-3 -34 -12 -67h-20q-89 0 -113 -135l-23 -127q-14 -77 -53 -111.5t-115 -34.5h-35q2 31 11 66h27q74 0 88 83l23 131q22 128 111 159q-60 26 -60 111q0 24 4 44l27 152q4 24 4 33q0 54 -58 54h-31q4 35 12 65h41q115 0 115 -106q0 -14 -5 -47l-25 -143
q-4 -23 -4 -44q-1 -83 71 -83z" />
    <glyph glyph-name="asciitilde" unicode="~" horiz-adv-x="493" 
d="M333 131q-15 0 -30.5 4t-21.5 6.5t-26 13t-21 11.5q-4 2 -16.5 9t-18.5 9.5t-15.5 7t-17.5 6t-16 1.5q-37 0 -78 -39q-29 9 -43 34q57 70 133 70q14 0 29.5 -4t22.5 -6.5t26 -12t22 -10.5q5 -3 20.5 -11.5t23 -12t19 -7t21.5 -3.5q41 0 85 41q27 -11 37 -37
q-60 -70 -135 -70z" />
    <glyph glyph-name="uni00A0" unicode="&#xa0;" horiz-adv-x="203" 
 />
    <glyph glyph-name="exclamdown" unicode="&#xa1;" horiz-adv-x="259" 
d="M157 384l62 -70q-35 -38 -77 -73l-62 72zM168 190q-33 -195 -58 -383q-45 -16 -88 -14l69 393q32 10 77 4z" />
    <glyph glyph-name="cent" unicode="&#xa2;" horiz-adv-x="419" 
d="M374 294q-31 18 -79 21l-46 -260q56 3 96 22q11 -26 9 -65q-58 -24 -117 -26l-12 -69q-22 -7 -47 -4q9 56 13 75q-74 7 -111.5 51t-37.5 114q0 99 56 160.5t158 68.5q2 11 5.5 35t5.5 36q28 10 54 10l-14 -81q54 -3 91 -23q-8 -38 -24 -65zM122 162q0 -89 81 -104
q7 44 21.5 131.5t20.5 125.5q-42 -3 -69 -15q-54 -57 -54 -138z" />
    <glyph glyph-name="sterling" unicode="&#xa3;" horiz-adv-x="494" 
d="M277 465q-29 -41 -41 -109l-6 -40h143q0 -38 -13 -69h-143l-29 -164q20 -2 64 -11t68 -9q49 0 103 28q14 -31 12 -67q-57 -35 -128 -35q-29 0 -82.5 12t-81.5 12q-63 0 -114 -22q-14 28 -11 59q47 25 97 32l26 165h-77q-2 36 12 69h73l7 48q6 38 17 67t33 58t63.5 45
t99.5 16q85 0 141 -34q-12 -40 -34 -69q-51 29 -120 29q-47 0 -79 -11z" />
    <glyph glyph-name="currency" unicode="&#xa4;" horiz-adv-x="448" 
d="M64 24q-15 2 -23 14t-9 25l48 43q-14 30 -14 65q0 59 45 114l-33 42q4 11 20 23.5t26 14.5l32 -40q44 30 97 30q50 0 88 -31l48 41q11 -1 21 -14.5t10 -23.5l-49 -44q12 -25 12 -61q0 -60 -44 -115l35 -44q-16 -35 -45 -39l-35 43q-44 -30 -97 -30q-51 0 -87 28zM207 102
q47 0 79 31.5t32 78.5q0 34 -21 56t-57 22q-43 0 -74.5 -32.5t-31.5 -78.5q0 -34 20 -55.5t53 -21.5z" />
    <glyph glyph-name="yen" unicode="&#xa5;" horiz-adv-x="500" 
d="M326 243h91q1 -24 -9 -50h-118l-10 -60h117q2 -26 -9 -50h-117l-14 -81q-32 -10 -80 -4q2 9 7.5 38.5t8.5 46.5h-117q-3 23 8 50h117q6 40 10 60h-116q-2 24 8 50h89l-112 283q42 17 83 15l101 -267l191 267q46 2 85 -15z" />
    <glyph glyph-name="brokenbar" unicode="&#xa6;" horiz-adv-x="259" 
d="M146 314l62 352q39 5 77 0l-62 -352q-40 -5 -77 0zM50 -230l63 352q37 5 76 0l-62 -352q-40 -5 -77 0z" />
    <glyph glyph-name="section" unicode="&#xa7;" horiz-adv-x="426" 
d="M131 -212q-82 0 -138 32q6 39 29 68q51 -28 121 -28q43 0 76 13q25 25 25 57q0 23 -13 37.5t-50 31.5l-49 24q-57 26 -80.5 57t-23.5 77q0 48 29.5 86t79.5 60q-42 36 -42 96q0 63 53 107t141 44q83 0 138 -33q-9 -41 -30 -67q-50 28 -120 28q-39 0 -76 -13
q-25 -25 -25 -57q0 -23 13 -37.5t50 -31.5l49 -24q56 -26 80 -57t24 -77q0 -48 -29.5 -86t-79.5 -60q42 -36 42 -96q0 -63 -53 -107t-141 -44zM235 66q34 14 53 39t19 55q0 27 -15 46t-52 38l-48 24q-4 3 -8 4q-71 -30 -71 -94q0 -27 15 -46t51 -38l49 -25z" />
    <glyph glyph-name="dieresis" unicode="&#xa8;" horiz-adv-x="352" 
d="M140 442l-53 62q32 37 71 66l50 -64zM308 442l-52 62q32 37 70 66q12 -12 24.5 -28t19.5 -26l7 -10z" />
    <glyph glyph-name="copyright" unicode="&#xa9;" horiz-adv-x="633" 
d="M296 -10q-106 0 -171.5 67.5t-65.5 175.5q0 138 90 225.5t225 87.5q105 0 171 -69.5t66 -177.5q0 -139 -90 -224t-225 -85zM303 34q114 0 187 71t73 188q0 92 -54 150t-143 58q-113 0 -186 -72t-73 -190q0 -91 54 -148t142 -57zM312 102q-60 0 -93.5 37.5t-33.5 98.5
q0 82 48 139t141 57q46 0 79 -18q-11 -31 -21 -49q-32 15 -72 15q-45 0 -65 -13q-52 -48 -52 -125q0 -42 21.5 -66t61.5 -24q43 0 75 17q9 -23 11 -44q-44 -25 -100 -25z" />
    <glyph glyph-name="ordfeminine" unicode="&#xaa;" horiz-adv-x="221" 
d="M131 324q-31 0 -51 17.5t-20 44.5q0 31 26.5 49t71.5 18q26 0 41 -3l1 11q3 21 -5.5 30t-34.5 9q-35 0 -62 -12q-9 15 -9 39q40 17 84 17q91 0 76 -86l-23 -126q-22 -3 -41 -2v20q-36 -26 -54 -26zM148 364q18 0 38 12l8 43q-14 3 -39 3q-24 0 -39 -7q-6 -8 -6 -21
q0 -30 38 -30z" />
    <glyph glyph-name="guillemotleft" unicode="&#xab;" horiz-adv-x="523" 
d="M186 10l-128 149q0 26 10 56l179 147q21 -14 37 -38l-140 -141l91 -137q-25 -23 -49 -36zM394 14l-136 157q0 17 6 34l188 153q25 -17 38 -38l-136 -137l88 -133q-20 -20 -48 -36z" />
    <glyph glyph-name="logicalnot" unicode="&#xac;" horiz-adv-x="433" 
d="M305 43l22 123h-292q-4 12 -0.5 33t11.5 32h358l-33 -187q-13 -7 -34 -7t-32 6z" />
    <glyph glyph-name="uni00AD" unicode="&#xad;" horiz-adv-x="345" 
d="M49 179q9 36 27 69h230q-9 -38 -27 -69h-230z" />
    <glyph glyph-name="registered" unicode="&#xae;" horiz-adv-x="631" 
d="M291 -10q-105 0 -169 66.5t-64 172.5q0 136 93 226.5t226 90.5q104 0 169 -68.5t65 -174.5q0 -137 -93 -225t-227 -88zM298 34q113 0 189 74t76 189q0 91 -53 147.5t-141 56.5q-111 0 -186.5 -75t-75.5 -191q0 -89 52.5 -145t138.5 -56zM209 111q39 232 51 314
q55 12 103 12q50 0 78 -22t28 -58q0 -41 -25 -68t-72 -36l62 -129q-27 -13 -47 -14l-61 138h-44l-23 -136q-22 -5 -50 -1zM290 290h45q35 0 58 9q20 20 20 50q0 43 -57 43q-24 0 -49 -3z" />
    <glyph glyph-name="macron" unicode="&#xaf;" horiz-adv-x="346" 
d="M83 468q-2 31 10 62h281q2 -33 -10 -62h-281z" />
    <glyph glyph-name="degree" unicode="&#xb0;" horiz-adv-x="324" 
d="M195 337q-49 0 -80 32t-31 80q0 61 42 103t102 42q50 0 80.5 -31.5t30.5 -80.5q0 -60 -41.5 -102.5t-102.5 -42.5zM204 391q35 0 56.5 24t21.5 60q0 29 -16.5 47t-45.5 18q-37 0 -58 -23.5t-21 -60.5q0 -30 16.5 -47.5t46.5 -17.5z" />
    <glyph glyph-name="plusminus" unicode="&#xb1;" horiz-adv-x="433" 
d="M173 112l23 136h-146q-4 12 -0.5 32.5t12.5 32.5h146l24 138q14 5 34.5 5t31.5 -5l-24 -138h145q3 -13 -0.5 -33t-10.5 -32h-146l-24 -135q-13 -6 -33.5 -6.5t-31.5 5.5zM6 0q-4 12 -0.5 33t11.5 32h358q2 -12 -1.5 -32.5t-10.5 -32.5h-357z" />
    <glyph glyph-name="uni00B2" unicode="&#xb2;" horiz-adv-x="257" 
d="M145 274h134q2 -25 -9 -50h-209q0 26 9 51l55 41q57 43 86 74.5t29 64.5q0 39 -44 39q-38 0 -72 -24q-15 20 -12 45q43 30 103 30q42 0 65 -21t23 -56q0 -50 -33 -88t-101 -88z" />
    <glyph glyph-name="uni00B3" unicode="&#xb3;" horiz-adv-x="264" 
d="M151 216q-60 0 -91 25q7 29 26 48q32 -22 76 -22q36 0 55 10q15 15 15 40q0 44 -76 44h-15q-3 21 8 48h16q39 0 61.5 15.5t22.5 40.5q0 29 -44 29q-40 0 -74 -24q-16 19 -14 45q47 30 106 30q42 0 64.5 -19.5t22.5 -47.5q0 -63 -75 -89q58 -12 58 -64q0 -50 -38 -79.5
t-104 -29.5z" />
    <glyph glyph-name="acute" unicode="&#xb4;" horiz-adv-x="244" 
d="M87 425q-10 11 -17 33l175 117q27 -24 35 -64z" />
    <glyph glyph-name="uni00B5" unicode="&#xb5;" horiz-adv-x="428" 
d="M-15 -209q58 344 94 569q43 16 86 14l-34 -189q-11 -61 7.5 -92.5t57.5 -31.5q34 0 90 43l40 256q42 16 85 14l-66 -372q-38 -7 -69 -4l5 53q-28 -25 -60 -45t-46 -20q-56 0 -73 46q-23 -147 -34 -226q-39 -14 -83 -15z" />
    <glyph glyph-name="paragraph" unicode="&#xb6;" horiz-adv-x="550" 
d="M173 -204q51 298 70 412h-12q-78 0 -121 36.5t-43 102.5q0 88 61.5 138t167.5 50h277q0 -39 -13 -70h-62l-117 -663q-25 -8 -63 -6q50 284 112 669h-77l-117 -663q-25 -8 -63 -6z" />
    <glyph glyph-name="periodcentered" unicode="&#xb7;" horiz-adv-x="188" 
d="M100 190l-62 69q35 39 77 74l62 -72z" />
    <glyph glyph-name="cedilla" unicode="&#xb8;" horiz-adv-x="164" 
d="M17 -180q-34 -8 -59 0q40 40 51 60q15 32 10 73q36 6 60 0q5 -39 -14 -74.5t-48 -58.5z" />
    <glyph glyph-name="uni00B9" unicode="&#xb9;" horiz-adv-x="186" 
d="M121 222q14 76 42 246l-62 -31q-12 23 -11 44q104 59 135 59h10l-56 -314q-21 -9 -58 -4z" />
    <glyph glyph-name="ordmasculine" unicode="&#xba;" horiz-adv-x="254" 
d="M154 325q-42 0 -66 25t-24 65q0 56 34 92.5t91 36.5q42 0 65.5 -25.5t23.5 -64.5q0 -56 -33.5 -92.5t-90.5 -36.5zM162 367q23 0 38 7q28 35 28 76q0 24 -12.5 38t-34.5 14q-23 0 -38 -7q-28 -34 -28 -76q0 -24 12.5 -38t34.5 -14z" />
    <glyph glyph-name="guillemotright" unicode="&#xbb;" horiz-adv-x="523" 
d="M337 362l128 -149q0 -26 -10 -56l-179 -147q-21 14 -37 38l140 141l-91 137q25 23 49 36zM129 358l136 -157q0 -18 -6 -34l-188 -153q-25 17 -38 38l136 137l-88 133q19 20 48 36z" />
    <glyph glyph-name="onequarter" unicode="&#xbc;" horiz-adv-x="577" 
d="M58 26l473 518q29 -9 43 -35l-473 -519q-31 11 -43 36zM121 222q14 76 42 246l-62 -31q-12 23 -11 44q104 59 135 59h10l-56 -314q-21 -9 -58 -4zM461 -2l10 66h-156q0 28 10 54l172 186q33 14 78 12l-35 -203h42q0 -29 -9 -49h-42l-11 -63q-19 -8 -59 -3zM378 113h102
l22 132z" />
    <glyph glyph-name="onehalf" unicode="&#xbd;" horiz-adv-x="612" 
d="M531 544q29 -9 43 -35l-473 -519q-31 11 -43 36zM163 468l-62 -31q-12 23 -11 44q104 59 135 59h10l-56 -314q-21 -9 -58 -4q14 76 42 246zM460 50h134q2 -25 -9 -50h-209q0 26 9 51l55 41q57 43 86 74.5t29 64.5q0 39 -44 39q-38 0 -72 -24q-15 20 -12 45q43 30 103 30
q42 0 65 -21t23 -56q0 -50 -33 -88t-101 -88z" />
    <glyph glyph-name="threequarters" unicode="&#xbe;" horiz-adv-x="651" 
d="M151 216q-60 0 -91 25q7 29 26 48q32 -22 76 -22q36 0 55 10q15 15 15 40q0 44 -76 44h-15q-3 21 8 48h16q39 0 61.5 15.5t22.5 40.5q0 29 -44 29q-40 0 -74 -24q-16 19 -14 45q47 30 106 30q42 0 64.5 -19.5t22.5 -47.5q0 -63 -75 -89q58 -12 58 -64q0 -50 -38 -79.5
t-104 -29.5zM134 26l473 518q29 -9 43 -35l-473 -519q-31 11 -43 36zM534 -2l10 66h-156q0 28 10 54l172 186q33 14 78 12l-35 -203h42q0 -29 -9 -49h-42l-11 -63q-19 -8 -59 -3zM451 113h102l22 132z" />
    <glyph glyph-name="questiondown" unicode="&#xbf;" horiz-adv-x="336" 
d="M237 384l62 -70q-35 -38 -77 -73l-62 72zM251 187q-4 -128 -69 -156q-73 -34 -104 -58t-31 -58q0 -52 86 -52q78 0 133 30q17 -26 14 -62q-66 -39 -163 -39q-74 0 -114 28.5t-40 79.5q0 36 17.5 66.5t49 53t61 36.5t67.5 28q12 43 14 98q31 11 79 5z" />
    <glyph glyph-name="Agrave" unicode="&#xc0;" horiz-adv-x="511" 
d="M422 628q-6 -16 -22 -34l-169 74q19 46 44 68zM371 535l100 -528q-49 -17 -84 -16l-27 154h-220l-80 -154q-37 -2 -82 16l287 528q53 9 106 0zM175 212h173l-44 247z" />
    <glyph glyph-name="Aacute" unicode="&#xc1;" horiz-adv-x="511" 
d="M450 666l-198 -72q-13 20 -16 36l184 103q25 -25 30 -67zM371 535l100 -528q-49 -17 -84 -16l-27 154h-220l-80 -154q-37 -2 -82 16l287 528q53 9 106 0zM175 212h173l-44 247z" />
    <glyph glyph-name="Acircumflex" unicode="&#xc2;" horiz-adv-x="511" 
d="M387 730l98 -111q-11 -17 -30 -29l-110 82l-144 -81q-15 11 -20 30l135 109q38 7 71 0zM265 535q53 9 106 0l100 -528q-49 -17 -84 -16l-27 154h-220l-80 -154q-37 -2 -82 16zM175 212h173l-44 247z" />
    <glyph glyph-name="Atilde" unicode="&#xc3;" horiz-adv-x="511" 
d="M219 627q-19 5 -33 21q39 78 106 78q28 0 61.5 -23.5t52.5 -23.5q31 0 60 37q22 -6 32 -21q-38 -78 -105 -78q-27 0 -61 23.5t-53 23.5q-32 0 -60 -37zM265 535q53 9 106 0l100 -528q-49 -17 -84 -16l-27 154h-220l-80 -154q-37 -2 -82 16zM175 212h173l-44 247z" />
    <glyph glyph-name="Adieresis" unicode="&#xc4;" horiz-adv-x="511" 
d="M311 671l-68 -64l-53 62q32 37 71 66zM492 671l-69 -64l-53 62q33 37 71 66q12 -12 24.5 -28t19.5 -26zM265 535q53 9 106 0l100 -528q-49 -17 -84 -16l-27 154h-220l-80 -154q-37 -2 -82 16zM175 212h173l-44 247z" />
    <glyph glyph-name="Aring" unicode="&#xc5;" horiz-adv-x="511" 
d="M328 580q-32 0 -51.5 20t-19.5 54q0 41 29.5 69.5t69.5 28.5q31 0 50.5 -20.5t19.5 -53.5q0 -41 -29 -69.5t-69 -28.5zM350 711q-21 0 -35.5 -15t-14.5 -38q0 -38 34 -38q21 0 35.5 15.5t14.5 38.5q0 37 -34 37zM371 535l100 -528q-49 -17 -84 -16l-27 154h-220l-80 -154
q-37 -2 -82 16l287 528q53 9 106 0zM175 212h173l-44 247z" />
    <glyph glyph-name="AE" unicode="&#xc6;" horiz-adv-x="692" 
d="M704 465h-256l-28 -160h221q0 -37 -13 -68h-220l-29 -167h263q0 -39 -13 -70h-342q10 58 24 145h-159l-102 -153q-38 -2 -77 16l350 517q26 10 76 10h318q2 -35 -13 -70zM197 212h126l41 250z" />
    <glyph glyph-name="Ccedilla" unicode="&#xc7;" horiz-adv-x="479" 
d="M266 -14q-109 0 -164.5 60.5t-55.5 165.5q0 153 85 245t229 92q87 0 140 -36q-11 -41 -34 -71q-50 33 -119 33t-124 -26q-89 -93 -89 -228q0 -76 38.5 -119t112.5 -43q68 0 128 34q15 -30 17 -64q-69 -43 -164 -43zM196 -180q-34 -8 -59 0q40 40 51 60q15 32 10 73
q36 6 60 0q5 -39 -14 -74.5t-48 -58.5z" />
    <glyph glyph-name="Egrave" unicode="&#xc8;" horiz-adv-x="435" 
d="M369 594l-169 74q19 46 44 68l147 -108q-6 -16 -22 -34zM30 0q44 255 86 525q39 10 107 10h238q0 -39 -13 -70h-256l-29 -160h221q2 -35 -12 -68h-221l-29 -167h263q2 -33 -12 -70h-343z" />
    <glyph glyph-name="Eacute" unicode="&#xc9;" horiz-adv-x="435" 
d="M221 594q-13 20 -16 36l184 103q25 -25 30 -67zM30 0q44 255 86 525q39 10 107 10h238q0 -39 -13 -70h-256l-29 -160h221q2 -35 -12 -68h-221l-29 -167h263q2 -33 -12 -70h-343z" />
    <glyph glyph-name="Ecircumflex" unicode="&#xca;" horiz-adv-x="435" 
d="M170 591q-15 11 -20 30l135 109q38 7 71 0l98 -111q-11 -17 -30 -29l-110 82zM30 0q44 255 86 525q39 10 107 10h238q0 -39 -13 -70h-256l-29 -160h221q2 -35 -12 -68h-221l-29 -167h263q2 -33 -12 -70h-343z" />
    <glyph glyph-name="Edieresis" unicode="&#xcb;" horiz-adv-x="435" 
d="M212 607l-53 62q32 37 71 66l50 -64zM392 607l-53 62q33 37 71 66q12 -12 24.5 -28t19.5 -26l7 -10zM30 0q44 255 86 525q39 10 107 10h238q0 -39 -13 -70h-256l-29 -160h221q2 -35 -12 -68h-221l-29 -167h263q2 -33 -12 -70h-343z" />
    <glyph glyph-name="Igrave" unicode="&#xcc;" horiz-adv-x="202" 
d="M243 594l-169 74q19 46 44 68l147 -108q-6 -16 -22 -34zM29 -2q42 236 88 529q45 16 88 14l-95 -539q-32 -10 -81 -4z" />
    <glyph glyph-name="Iacute" unicode="&#xcd;" horiz-adv-x="202" 
d="M95 594q-13 20 -16 36l184 103q25 -25 30 -67zM29 -2q42 236 88 529q45 16 88 14l-95 -539q-32 -10 -81 -4z" />
    <glyph glyph-name="Icircumflex" unicode="&#xce;" horiz-adv-x="202" 
d="M44 591q-15 11 -20 30l135 109q38 7 71 0l98 -111q-11 -17 -30 -29l-110 82zM29 -2q42 236 88 529q45 16 88 14l-95 -539q-32 -10 -81 -4z" />
    <glyph glyph-name="Idieresis" unicode="&#xcf;" horiz-adv-x="202" 
d="M86 607l-53 62q32 37 71 66l50 -64zM266 607l-53 62q33 37 71 66q12 -12 24.5 -28t19.5 -26l7 -10zM29 -2q42 236 88 529q45 16 88 14l-95 -539q-32 -10 -81 -4z" />
    <glyph glyph-name="Eth" unicode="&#xd0;" horiz-adv-x="579" 
d="M321 545q117 0 179.5 -57t62.5 -162q0 -153 -84.5 -239.5t-237.5 -86.5h-182l41 241h-74q-2 37 13 70h72q33 207 34 217q87 17 176 17zM386 95q90 96 90 222q0 158 -171 158l-85 -4l-28 -160h150q0 -39 -13 -70h-150l-30 -171h108q77 0 129 25z" />
    <glyph glyph-name="Ntilde" unicode="&#xd1;" horiz-adv-x="558" 
d="M241 627q-19 5 -33 21q39 78 106 78q28 0 61.5 -23.5t52.5 -23.5q31 0 60 37q22 -6 32 -21q-38 -78 -105 -78q-27 0 -61 23.5t-53 23.5q-32 0 -60 -37zM477 526q44 16 84 14l-95 -539q-30 -11 -77 -4l-210 420l-73 -416q-37 -8 -76 -3q46 266 87 529q45 16 92 14
l204 -408q24 146 64 393z" />
    <glyph glyph-name="Ograve" unicode="&#xd2;" horiz-adv-x="605" 
d="M440 594l-169 74q19 46 44 68l147 -108q-6 -16 -22 -34zM271 -14q-108 0 -166.5 62.5t-58.5 165.5q0 151 86 243t232 92q108 0 166 -62.5t58 -165.5q0 -151 -85.5 -243t-231.5 -92zM290 57q60 0 119 26q91 98 91 230q0 78 -40.5 122t-115.5 44q-62 0 -119 -27
q-91 -97 -91 -230q0 -78 40.5 -121.5t115.5 -43.5z" />
    <glyph glyph-name="Oacute" unicode="&#xd3;" horiz-adv-x="605" 
d="M292 594q-13 20 -16 36l184 103q25 -25 30 -67zM271 -14q-108 0 -166.5 62.5t-58.5 165.5q0 151 86 243t232 92q108 0 166 -62.5t58 -165.5q0 -151 -85.5 -243t-231.5 -92zM290 57q60 0 119 26q91 98 91 230q0 78 -40.5 122t-115.5 44q-62 0 -119 -27q-91 -97 -91 -230
q0 -78 40.5 -121.5t115.5 -43.5z" />
    <glyph glyph-name="Ocircumflex" unicode="&#xd4;" horiz-adv-x="605" 
d="M241 591q-15 11 -20 30l135 109q38 7 71 0l98 -111q-11 -17 -30 -29l-110 82zM271 -14q-108 0 -166.5 62.5t-58.5 165.5q0 151 86 243t232 92q108 0 166 -62.5t58 -165.5q0 -151 -85.5 -243t-231.5 -92zM290 57q60 0 119 26q91 98 91 230q0 78 -40.5 122t-115.5 44
q-62 0 -119 -27q-91 -97 -91 -230q0 -78 40.5 -121.5t115.5 -43.5z" />
    <glyph glyph-name="Otilde" unicode="&#xd5;" horiz-adv-x="605" 
d="M433 617q-27 0 -61 23.5t-53 23.5q-32 0 -60 -37q-19 5 -33 21q39 78 106 78q28 0 61.5 -23.5t52.5 -23.5q31 0 60 37q22 -6 32 -21q-38 -78 -105 -78zM271 -14q-108 0 -166.5 62.5t-58.5 165.5q0 151 86 243t232 92q108 0 166 -62.5t58 -165.5q0 -151 -85.5 -243
t-231.5 -92zM290 57q60 0 119 26q91 98 91 230q0 78 -40.5 122t-115.5 44q-62 0 -119 -27q-91 -97 -91 -230q0 -78 40.5 -121.5t115.5 -43.5z" />
    <glyph glyph-name="Odieresis" unicode="&#xd6;" horiz-adv-x="605" 
d="M283 607l-53 62q32 37 71 66l50 -64zM463 607l-53 62q33 37 71 66q12 -12 24.5 -28t19.5 -26l7 -10zM271 -14q-108 0 -166.5 62.5t-58.5 165.5q0 151 86 243t232 92q108 0 166 -62.5t58 -165.5q0 -151 -85.5 -243t-231.5 -92zM290 57q60 0 119 26q91 98 91 230
q0 78 -40.5 122t-115.5 44q-62 0 -119 -27q-91 -97 -91 -230q0 -78 40.5 -121.5t115.5 -43.5z" />
    <glyph glyph-name="multiply" unicode="&#xd7;" horiz-adv-x="367" 
d="M52 50q-13 4 -26.5 19.5t-14.5 29.5l130 114l-91 116q6 14 21 27t29 16l92 -117l134 117q12 -4 25 -20t15 -28l-134 -117l92 -116q-5 -14 -20 -26.5t-30 -16.5l-92 116z" />
    <glyph glyph-name="Oslash" unicode="&#xd8;" horiz-adv-x="605" 
d="M618 558l-77 -84q47 -59 47 -153q0 -151 -85.5 -243t-231.5 -92q-87 0 -143 42l-80 -86q-23 9 -39 36l81 88q-44 58 -44 148q0 151 86 243t232 92q83 0 138 -39l77 83q25 -10 39 -35zM134 222q0 -54 19 -89l292 315q-39 31 -101 31t-119 -27q-91 -97 -91 -230zM500 313
q0 56 -21 95l-294 -317q40 -34 105 -34q60 0 119 26q91 98 91 230z" />
    <glyph glyph-name="Ugrave" unicode="&#xd9;" horiz-adv-x="542" 
d="M415 594l-169 74q19 46 44 68l147 -108q-6 -16 -22 -34zM240 -14q-89 0 -136 39t-47 114q0 22 8 72.5t24 144t27 171.5q49 16 89 14l-60 -338q-6 -39 -6 -54q0 -92 116 -92q124 0 148 122q25 130 57 348q47 16 88 14l-67 -362q-34 -193 -241 -193z" />
    <glyph glyph-name="Uacute" unicode="&#xda;" horiz-adv-x="542" 
d="M267 594q-13 20 -16 36l184 103q25 -25 30 -67zM240 -14q-89 0 -136 39t-47 114q0 22 8 72.5t24 144t27 171.5q49 16 89 14l-60 -338q-6 -39 -6 -54q0 -92 116 -92q124 0 148 122q25 130 57 348q47 16 88 14l-67 -362q-34 -193 -241 -193z" />
    <glyph glyph-name="Ucircumflex" unicode="&#xdb;" horiz-adv-x="542" 
d="M216 591q-15 11 -20 30l135 109q38 7 71 0l98 -111q-11 -17 -30 -29l-110 82zM240 -14q-89 0 -136 39t-47 114q0 22 8 72.5t24 144t27 171.5q49 16 89 14l-60 -338q-6 -39 -6 -54q0 -92 116 -92q124 0 148 122q25 130 57 348q47 16 88 14l-67 -362q-34 -193 -241 -193z
" />
    <glyph glyph-name="Udieresis" unicode="&#xdc;" horiz-adv-x="542" 
d="M258 607l-53 62q32 37 71 66l50 -64zM438 607l-53 62q33 37 71 66q12 -12 24.5 -28t19.5 -26l7 -10zM240 -14q-89 0 -136 39t-47 114q0 22 8 72.5t24 144t27 171.5q49 16 89 14l-60 -338q-6 -39 -6 -54q0 -92 116 -92q124 0 148 122q25 130 57 348q47 16 88 14l-67 -362
q-34 -193 -241 -193z" />
    <glyph glyph-name="Yacute" unicode="&#xdd;" horiz-adv-x="472" 
d="M427 666l-198 -72q-13 20 -16 36l184 103q25 -25 30 -67zM441 541q48 2 85 -15l-249 -334l-33 -190q-34 -10 -80 -4q18 100 33 194l-131 334q42 17 83 15l101 -270z" />
    <glyph glyph-name="Thorn" unicode="&#xde;" horiz-adv-x="460" 
d="M30 -2q46 266 87 529q45 16 88 14l-19 -106q34 5 88 5q86 0 133.5 -37.5t47.5 -103.5q0 -95 -61.5 -147t-179.5 -52h-87l-17 -98q-32 -10 -80 -4zM139 168h87q60 0 97 17q44 38 44 102q0 40 -29.5 62t-84.5 22q-38 0 -78 -4z" />
    <glyph glyph-name="germandbls" unicode="&#xdf;" horiz-adv-x="487" 
d="M289 -14q-75 0 -126 30q8 34 23 59q37 -26 111 -26q42 0 70 13q15 15 15 43q0 17 -12.5 29.5t-42.5 28.5l-30 16q-77 41 -77 109q0 107 140 149q10 17 10 43q0 53 -65 53q-105 0 -130 -142l-66 -391q-32 -182 -189 -216q-24 32 -27 68q117 24 140 165l63 371
q17 98 72 154.5t152 56.5q63 0 98.5 -28t35.5 -72q0 -31 -16.5 -60t-47.5 -44q-50 -21 -72 -41t-22 -48q0 -37 49 -62l30 -16q84 -44 84 -112q0 -60 -45 -95t-125 -35z" />
    <glyph glyph-name="agrave" unicode="&#xe0;" horiz-adv-x="438" 
d="M335 423l-163 88q22 42 48 63l138 -119q-9 -18 -23 -32zM279 -2l5 53q-30 -26 -63 -45.5t-50 -19.5q-61 0 -100.5 45.5t-39.5 116.5q0 107 62 171.5t175 64.5q84 0 143 -26l-63 -356q-38 -7 -69 -4zM198 61q31 0 91 43l30 196q-27 15 -72 15t-82 -17q-50 -54 -50 -135
q0 -47 23 -74.5t60 -27.5z" />
    <glyph glyph-name="aacute" unicode="&#xe1;" horiz-adv-x="438" 
d="M183 425q-10 11 -17 33l175 117q27 -24 35 -64zM279 -2l5 53q-30 -26 -63 -45.5t-50 -19.5q-61 0 -100.5 45.5t-39.5 116.5q0 107 62 171.5t175 64.5q84 0 143 -26l-63 -356q-38 -7 -69 -4zM198 61q31 0 91 43l30 196q-27 15 -72 15t-82 -17q-50 -54 -50 -135
q0 -47 23 -74.5t60 -27.5z" />
    <glyph glyph-name="acircumflex" unicode="&#xe2;" horiz-adv-x="438" 
d="M141 426q-14 10 -19 29l129 110q38 7 71 0l92 -113q-12 -16 -29 -27l-105 82zM279 -2l5 53q-30 -26 -63 -45.5t-50 -19.5q-61 0 -100.5 45.5t-39.5 116.5q0 107 62 171.5t175 64.5q84 0 143 -26l-63 -356q-38 -7 -69 -4zM198 61q31 0 91 43l30 196q-27 15 -72 15t-82 -17
q-50 -54 -50 -135q0 -47 23 -74.5t60 -27.5z" />
    <glyph glyph-name="atilde" unicode="&#xe3;" horiz-adv-x="438" 
d="M326 452q-27 0 -59 23.5t-51 23.5q-30 0 -58 -37q-20 5 -31 20q39 79 102 79q27 0 59 -23.5t51 -23.5q29 0 58 37q21 -5 30 -19q-17 -37 -44 -58.5t-57 -21.5zM279 -2l5 53q-30 -26 -63 -45.5t-50 -19.5q-61 0 -100.5 45.5t-39.5 116.5q0 107 62 171.5t175 64.5
q84 0 143 -26l-63 -356q-38 -7 -69 -4zM198 61q31 0 91 43l30 196q-27 15 -72 15t-82 -17q-50 -54 -50 -135q0 -47 23 -74.5t60 -27.5z" />
    <glyph glyph-name="adieresis" unicode="&#xe4;" horiz-adv-x="438" 
d="M185 442l-53 62q32 37 71 66l50 -64zM353 442l-52 62q32 37 70 66q12 -12 24.5 -28t19.5 -26l7 -10zM279 -2l5 53q-30 -26 -63 -45.5t-50 -19.5q-61 0 -100.5 45.5t-39.5 116.5q0 107 62 171.5t175 64.5q84 0 143 -26l-63 -356q-38 -7 -69 -4zM198 61q31 0 91 43l30 196
q-27 15 -72 15t-82 -17q-50 -54 -50 -135q0 -47 23 -74.5t60 -27.5z" />
    <glyph glyph-name="aring" unicode="&#xe5;" horiz-adv-x="438" 
d="M265 431q-30 0 -49.5 20t-19.5 51q0 40 28.5 68t67.5 28q30 0 49.5 -20t19.5 -51q0 -40 -28.5 -68t-67.5 -28zM271 471q20 0 34 14.5t14 36.5q0 36 -33 36q-21 0 -35 -14.5t-14 -37.5q0 -35 34 -35zM279 -2l5 53q-30 -26 -63 -45.5t-50 -19.5q-61 0 -100.5 45.5
t-39.5 116.5q0 107 62 171.5t175 64.5q84 0 143 -26l-63 -356q-38 -7 -69 -4zM198 61q31 0 91 43l30 196q-27 15 -72 15t-82 -17q-50 -54 -50 -135q0 -47 23 -74.5t60 -27.5z" />
    <glyph glyph-name="ae" unicode="&#xe6;" horiz-adv-x="655" 
d="M428 164q-25 0 -69 2v-4q0 -54 30 -82t82 -28q66 0 121 29q10 -24 8 -63q-70 -32 -146 -32q-103 0 -146 70q-96 -70 -144 -70q-64 0 -100 30.5t-36 80.5q0 59 47.5 91t137.5 32q38 0 78 -6l3 15q20 90 -83 90q-69 0 -125 -30q-14 22 -16 57q78 38 167 38q92 0 114 -62
q56 62 155 62q57 0 91.5 -27t34.5 -69q0 -60 -54 -92t-150 -32zM487 325q-39 0 -73 -16q-42 -42 -51 -94q30 -3 65 -3q58 0 91.5 17t33.5 47q0 23 -18 36t-48 13zM186 52q42 0 104 45q-9 27 -6 68q-28 5 -67 5q-62 0 -98 -18q-12 -18 -12 -41q0 -28 22 -43.5t57 -15.5z" />
    <glyph glyph-name="ccedilla" unicode="&#xe7;" horiz-adv-x="369" 
d="M198 -14q-82 0 -124 44.5t-42 120.5q0 104 60 168t162 64q64 0 106 -24q-11 -39 -25 -64q-32 21 -89 21q-49 0 -84 -16q-50 -58 -50 -139q0 -51 26.5 -78.5t76.5 -27.5q53 0 92 22q10 -28 7 -65q-56 -26 -116 -26zM135 -180q-34 -8 -59 0q40 40 51 60q15 32 10 73
q36 6 60 0q5 -39 -14 -74.5t-48 -58.5z" />
    <glyph glyph-name="egrave" unicode="&#xe8;" horiz-adv-x="404" 
d="M335 455q-9 -18 -23 -32l-163 88q22 42 48 63zM176 167q-26 0 -68 2v-7q0 -54 29.5 -82t81.5 -28q67 0 122 29q10 -24 8 -63q-70 -32 -146 -32q-83 0 -127 44.5t-44 120.5q0 104 57 168.5t164 64.5q58 0 93 -27t35 -69q0 -60 -54.5 -90.5t-150.5 -30.5zM234 325
q-38 0 -72 -16q-40 -40 -49 -91q29 -3 63 -3q126 0 126 61q0 23 -18.5 36t-49.5 13z" />
    <glyph glyph-name="eacute" unicode="&#xe9;" horiz-adv-x="404" 
d="M353 511l-193 -86q-10 11 -17 33l175 117q27 -24 35 -64zM176 167q-26 0 -68 2v-7q0 -54 29.5 -82t81.5 -28q67 0 122 29q10 -24 8 -63q-70 -32 -146 -32q-83 0 -127 44.5t-44 120.5q0 104 57 168.5t164 64.5q58 0 93 -27t35 -69q0 -60 -54.5 -90.5t-150.5 -30.5z
M234 325q-38 0 -72 -16q-40 -40 -49 -91q29 -3 63 -3q126 0 126 61q0 23 -18.5 36t-49.5 13z" />
    <glyph glyph-name="ecircumflex" unicode="&#xea;" horiz-adv-x="404" 
d="M118 426q-14 10 -19 29l129 110q38 7 71 0l92 -113q-12 -16 -29 -27l-105 82zM253 384q58 0 93 -27t35 -69q0 -60 -54.5 -90.5t-150.5 -30.5q-26 0 -68 2v-7q0 -54 29.5 -82t81.5 -28q67 0 122 29q10 -24 8 -63q-70 -32 -146 -32q-83 0 -127 44.5t-44 120.5
q0 104 57 168.5t164 64.5zM176 215q126 0 126 61q0 23 -18.5 36t-49.5 13q-38 0 -72 -16q-40 -40 -49 -91q29 -3 63 -3z" />
    <glyph glyph-name="edieresis" unicode="&#xeb;" horiz-adv-x="404" 
d="M230 506l-68 -64l-53 62q32 37 71 66zM399 506l-69 -64l-52 62q32 37 70 66q12 -12 24.5 -28t19.5 -26zM253 384q58 0 93 -27t35 -69q0 -60 -54.5 -90.5t-150.5 -30.5q-26 0 -68 2v-7q0 -54 29.5 -82t81.5 -28q67 0 122 29q10 -24 8 -63q-70 -32 -146 -32
q-83 0 -127 44.5t-44 120.5q0 104 57 168.5t164 64.5zM176 215q126 0 126 61q0 23 -18.5 36t-49.5 13q-38 0 -72 -16q-40 -40 -49 -91q29 -3 63 -3z" />
    <glyph glyph-name="igrave" unicode="&#xec;" horiz-adv-x="194" 
d="M207 423l-163 88q22 42 48 63l138 -119q-9 -18 -23 -32zM26 -2q33 188 58 362q42 16 86 14l-66 -372q-30 -10 -78 -4z" />
    <glyph glyph-name="iacute" unicode="&#xed;" horiz-adv-x="194" 
d="M55 425q-10 11 -17 33l175 117q27 -24 35 -64zM26 -2q33 188 58 362q42 16 86 14l-66 -372q-30 -10 -78 -4z" />
    <glyph glyph-name="icircumflex" unicode="&#xee;" horiz-adv-x="194" 
d="M13 426q-14 10 -19 29l129 110q38 7 71 0l92 -113q-12 -16 -29 -27l-105 82zM26 -2q33 188 58 362q42 16 86 14l-66 -372q-30 -10 -78 -4z" />
    <glyph glyph-name="idieresis" unicode="&#xef;" horiz-adv-x="194" 
d="M57 442l-53 62q32 37 71 66l50 -64zM225 442l-52 62q32 37 70 66q12 -12 24.5 -28t19.5 -26l7 -10zM26 -2q33 188 58 362q42 16 86 14l-66 -372q-30 -10 -78 -4z" />
    <glyph glyph-name="eth" unicode="&#xf0;" horiz-adv-x="458" 
d="M348 519q82 -89 82 -234q0 -149 -60.5 -224t-174.5 -75q-77 0 -120.5 45.5t-43.5 118.5q0 101 62 164.5t159 63.5q69 0 100 -46q-13 92 -70 148l-81 -48q-15 8 -31 28l79 46q-34 23 -81 35q11 37 35 62q67 -18 115 -56l77 45q17 -9 30 -28zM272 61q27 25 45.5 65t18.5 84
q0 48 -26 75.5t-70 27.5q-28 0 -60 -9q-28 -21 -46.5 -61.5t-18.5 -87.5q0 -49 26 -76t70 -27q27 0 61 9z" />
    <glyph glyph-name="ntilde" unicode="&#xf1;" horiz-adv-x="434" 
d="M315 452q-27 0 -59 23.5t-51 23.5q-30 0 -58 -37q-20 5 -31 20q39 79 102 79q28 0 60 -23.5t50 -23.5q29 0 58 37q21 -5 30 -19q-17 -37 -44 -58.5t-57 -21.5zM26 -2q33 188 58 362q40 15 80 15q-6 -30 -12 -57q82 66 115 66q66 0 99.5 -49t16.5 -142l-34 -191
q-29 -10 -78 -4l31 182q11 63 -6 96t-56 33q-32 0 -90 -44l-46 -263q-30 -10 -78 -4z" />
    <glyph glyph-name="ograve" unicode="&#xf2;" horiz-adv-x="452" 
d="M334 423l-163 88q22 42 48 63l138 -119q-9 -18 -23 -32zM193 -14q-76 0 -119 45.5t-43 118.5q0 105 62.5 169.5t165.5 64.5q76 0 119 -45.5t43 -118.5q0 -105 -62.5 -169.5t-165.5 -64.5zM211 52q28 0 60 9q27 22 46.5 66t19.5 89q0 48 -26 75t-70 27q-28 0 -60 -9
q-28 -21 -47 -64.5t-19 -89.5q0 -49 26 -76t70 -27z" />
    <glyph glyph-name="oacute" unicode="&#xf3;" horiz-adv-x="452" 
d="M182 425q-10 11 -17 33l175 117q27 -24 35 -64zM193 -14q-76 0 -119 45.5t-43 118.5q0 105 62.5 169.5t165.5 64.5q76 0 119 -45.5t43 -118.5q0 -105 -62.5 -169.5t-165.5 -64.5zM211 52q28 0 60 9q27 22 46.5 66t19.5 89q0 48 -26 75t-70 27q-28 0 -60 -9
q-28 -21 -47 -64.5t-19 -89.5q0 -49 26 -76t70 -27z" />
    <glyph glyph-name="ocircumflex" unicode="&#xf4;" horiz-adv-x="452" 
d="M140 426q-14 10 -19 29l129 110q38 7 71 0l92 -113q-12 -16 -29 -27l-105 82zM193 -14q-76 0 -119 45.5t-43 118.5q0 105 62.5 169.5t165.5 64.5q76 0 119 -45.5t43 -118.5q0 -105 -62.5 -169.5t-165.5 -64.5zM211 52q28 0 60 9q27 22 46.5 66t19.5 89q0 48 -26 75
t-70 27q-28 0 -60 -9q-28 -21 -47 -64.5t-19 -89.5q0 -49 26 -76t70 -27z" />
    <glyph glyph-name="otilde" unicode="&#xf5;" horiz-adv-x="452" 
d="M325 452q-27 0 -59 23.5t-51 23.5q-30 0 -58 -37q-20 5 -31 20q39 79 102 79q28 0 60 -23.5t50 -23.5q29 0 58 37q21 -5 30 -19q-17 -37 -44 -58.5t-57 -21.5zM193 -14q-76 0 -119 45.5t-43 118.5q0 105 62.5 169.5t165.5 64.5q76 0 119 -45.5t43 -118.5
q0 -105 -62.5 -169.5t-165.5 -64.5zM211 52q28 0 60 9q27 22 46.5 66t19.5 89q0 48 -26 75t-70 27q-28 0 -60 -9q-28 -21 -47 -64.5t-19 -89.5q0 -49 26 -76t70 -27z" />
    <glyph glyph-name="odieresis" unicode="&#xf6;" horiz-adv-x="452" 
d="M184 442l-53 62q32 37 71 66l50 -64zM352 442l-52 62q32 37 70 66q12 -12 24.5 -28t19.5 -26l7 -10zM193 -14q-76 0 -119 45.5t-43 118.5q0 105 62.5 169.5t165.5 64.5q76 0 119 -45.5t43 -118.5q0 -105 -62.5 -169.5t-165.5 -64.5zM211 52q28 0 60 9q27 22 46.5 66
t19.5 89q0 48 -26 75t-70 27q-28 0 -60 -9q-28 -21 -47 -64.5t-19 -89.5q0 -49 26 -76t70 -27z" />
    <glyph glyph-name="divide" unicode="&#xf7;" horiz-adv-x="418" 
d="M216 274l-39 69q36 31 79 54l37 -72zM28 170q-4 12 -0.5 33t11.5 32h358q2 -12 -1.5 -32.5t-10.5 -32.5h-357zM163 9l-39 70q35 30 78 53l37 -71z" />
    <glyph glyph-name="oslash" unicode="&#xf8;" horiz-adv-x="464" 
d="M445 388l-52 -57q39 -44 39 -112q0 -105 -64 -169t-169 -64q-56 0 -97 25l-53 -58q-22 10 -30 30l51 56q-38 44 -38 112q0 105 63.5 169t168.5 64q58 0 98 -26l53 59q21 -10 30 -29zM115 155q0 -31 12 -54l182 200q-26 17 -62 17q-30 0 -64 -9q-29 -21 -48.5 -64
t-19.5 -90zM348 215q0 30 -11 54l-182 -200q25 -17 62 -17q30 0 64 9q28 21 47.5 64.5t19.5 89.5z" />
    <glyph glyph-name="ugrave" unicode="&#xf9;" horiz-adv-x="435" 
d="M336 423l-163 88q22 42 48 63l138 -119q-9 -18 -23 -32zM167 -14q-66 0 -98.5 47.5t-18.5 139.5l29 187q42 16 86 14l-34 -189q-11 -61 7.5 -92.5t57.5 -31.5q34 0 90 43l39 256q42 16 86 14l-66 -372q-38 -7 -69 -4l5 53q-83 -65 -114 -65z" />
    <glyph glyph-name="uacute" unicode="&#xfa;" horiz-adv-x="435" 
d="M184 425q-10 11 -17 33l175 117q27 -24 35 -64zM167 -14q-66 0 -98.5 47.5t-18.5 139.5l29 187q42 16 86 14l-34 -189q-11 -61 7.5 -92.5t57.5 -31.5q34 0 90 43l39 256q42 16 86 14l-66 -372q-38 -7 -69 -4l5 53q-83 -65 -114 -65z" />
    <glyph glyph-name="ucircumflex" unicode="&#xfb;" horiz-adv-x="435" 
d="M142 426q-14 10 -19 29l129 110q38 7 71 0l92 -113q-12 -16 -29 -27l-105 82zM167 -14q-66 0 -98.5 47.5t-18.5 139.5l29 187q42 16 86 14l-34 -189q-11 -61 7.5 -92.5t57.5 -31.5q34 0 90 43l39 256q42 16 86 14l-66 -372q-38 -7 -69 -4l5 53q-83 -65 -114 -65z" />
    <glyph glyph-name="udieresis" unicode="&#xfc;" horiz-adv-x="435" 
d="M186 442l-53 62q32 37 71 66l50 -64zM354 442l-52 62q32 37 70 66q12 -12 24.5 -28t19.5 -26l7 -10zM167 -14q-66 0 -98.5 47.5t-18.5 139.5l29 187q42 16 86 14l-34 -189q-11 -61 7.5 -92.5t57.5 -31.5q34 0 90 43l39 256q42 16 86 14l-66 -372q-38 -7 -69 -4l5 53
q-83 -65 -114 -65z" />
    <glyph glyph-name="yacute" unicode="&#xfd;" horiz-adv-x="393" 
d="M339 511l-193 -86q-10 11 -17 33l175 117q27 -24 35 -64zM327 376q54 -2 80 -15q-78 -197 -192 -351q-131 -173 -276 -220q-21 19 -27 60q101 31 200 146l-84 365q46 16 81 14l64 -312q98 148 154 313z" />
    <glyph glyph-name="thorn" unicode="&#xfe;" horiz-adv-x="441" 
d="M-7 -209q94 554 128 782q44 22 89 22l-51 -272q79 61 110 61q61 0 100.5 -45t39.5 -117q0 -107 -61.5 -171.5t-175.5 -64.5q-34 0 -68 8l-28 -188q-39 -14 -83 -15zM193 55q42 0 83 17q50 53 50 135q0 47 -23.5 74.5t-60.5 27.5q-32 0 -90 -44l-34 -196q31 -14 75 -14z
" />
    <glyph glyph-name="ydieresis" unicode="&#xff;" horiz-adv-x="393" 
d="M216 506l-68 -64l-53 62q32 37 71 66zM385 506l-69 -64l-52 62q32 37 70 66q12 -12 24.5 -28t19.5 -26zM327 376q54 -2 80 -15q-78 -197 -192 -351q-131 -173 -276 -220q-21 19 -27 60q101 31 200 146l-84 365q46 16 81 14l64 -312q98 148 154 313z" />
    <glyph glyph-name="Amacron" unicode="&#x100;" horiz-adv-x="511" 
d="M486 695q2 -33 -10 -62h-281q-2 31 10 62h281zM265 535q53 9 106 0l100 -528q-49 -17 -84 -16l-27 154h-220l-80 -154q-37 -2 -82 16zM175 212h173l-44 247z" />
    <glyph glyph-name="amacron" unicode="&#x101;" horiz-adv-x="438" 
d="M130 468q-2 31 10 62h281q2 -33 -10 -62h-281zM279 -2l5 53q-30 -26 -63 -45.5t-50 -19.5q-61 0 -100.5 45.5t-39.5 116.5q0 107 62 171.5t175 64.5q84 0 143 -26l-63 -356q-38 -7 -69 -4zM198 61q31 0 91 43l30 196q-27 15 -72 15t-82 -17q-50 -54 -50 -135
q0 -47 23 -74.5t60 -27.5z" />
    <glyph glyph-name="Abreve" unicode="&#x102;" horiz-adv-x="511" 
d="M331 595q-61 0 -90 38.5t-20 95.5q28 4 49 1q-2 -36 15.5 -55.5t52.5 -19.5q76 0 99 75q22 3 48 -1q-12 -58 -52 -96t-102 -38zM265 535q53 9 106 0l100 -528q-49 -17 -84 -16l-27 154h-220l-80 -154q-37 -2 -82 16zM175 212h173l-44 247z" />
    <glyph glyph-name="abreve" unicode="&#x103;" horiz-adv-x="438" 
d="M266 430q-58 0 -85.5 38t-19.5 96q27 4 46 1q-3 -76 66 -76q73 0 96 76q21 3 46 -1q-13 -59 -51 -96.5t-98 -37.5zM279 -2l5 53q-30 -26 -63 -45.5t-50 -19.5q-61 0 -100.5 45.5t-39.5 116.5q0 107 62 171.5t175 64.5q84 0 143 -26l-63 -356q-38 -7 -69 -4zM198 61
q31 0 91 43l30 196q-27 15 -72 15t-82 -17q-50 -54 -50 -135q0 -47 23 -74.5t60 -27.5z" />
    <glyph glyph-name="Aogonek" unicode="&#x104;" horiz-adv-x="511" 
d="M363 -120q0 -38 40 -38q12 0 28 4q0 -28 -7 -48q-20 -5 -41 -5q-37 0 -59 19t-22 52q0 67 87 127h-2l-27 154h-220l-80 -154q-37 -2 -82 16l287 528q53 9 106 0l100 -528l-17 -6q-49 -39 -70 -67t-21 -54zM175 212h173l-44 247z" />
    <glyph glyph-name="aogonek" unicode="&#x105;" horiz-adv-x="438" 
d="M347 2q-99 -77 -99 -128q0 -38 40 -38q12 0 28 4q0 -28 -7 -48q-20 -5 -41 -5q-37 0 -59 19t-22 52q0 73 106 139q-3 0 -7.5 0.5t-6.5 0.5l5 53q-30 -26 -63 -45.5t-50 -19.5q-61 0 -100.5 45.5t-39.5 116.5q0 107 62 171.5t175 64.5q84 0 143 -26l-63 -356h-1zM198 61
q31 0 91 43l30 196q-27 15 -72 15t-82 -17q-50 -54 -50 -135q0 -47 23 -74.5t60 -27.5z" />
    <glyph glyph-name="Cacute" unicode="&#x106;" horiz-adv-x="479" 
d="M256 594q-13 20 -16 36l184 103q25 -25 30 -67zM266 -14q-109 0 -164.5 60.5t-55.5 165.5q0 153 85 245t229 92q87 0 140 -36q-11 -41 -34 -71q-50 33 -119 33t-124 -26q-89 -93 -89 -228q0 -76 38.5 -119t112.5 -43q68 0 128 34q15 -30 17 -64q-69 -43 -164 -43z" />
    <glyph glyph-name="cacute" unicode="&#x107;" horiz-adv-x="369" 
d="M154 425q-10 11 -17 33l175 117q27 -24 35 -64zM198 -14q-82 0 -124 44.5t-42 120.5q0 104 60 168t162 64q64 0 106 -24q-11 -39 -25 -64q-32 21 -89 21q-49 0 -84 -16q-50 -58 -50 -139q0 -51 26.5 -78.5t76.5 -27.5q53 0 92 22q10 -28 7 -65q-56 -26 -116 -26z" />
    <glyph glyph-name="Ccircumflex" unicode="&#x108;" horiz-adv-x="479" 
d="M205 591q-15 11 -20 30l135 109q38 7 71 0l98 -111q-11 -17 -30 -29l-110 82zM266 -14q-109 0 -164.5 60.5t-55.5 165.5q0 153 85 245t229 92q87 0 140 -36q-11 -41 -34 -71q-50 33 -119 33t-124 -26q-89 -93 -89 -228q0 -76 38.5 -119t112.5 -43q68 0 128 34
q15 -30 17 -64q-69 -43 -164 -43z" />
    <glyph glyph-name="ccircumflex" unicode="&#x109;" horiz-adv-x="369" 
d="M112 426q-14 10 -19 29l129 110q38 7 71 0l92 -113q-12 -16 -29 -27l-105 82zM198 -14q-82 0 -124 44.5t-42 120.5q0 104 60 168t162 64q64 0 106 -24q-11 -39 -25 -64q-32 21 -89 21q-49 0 -84 -16q-50 -58 -50 -139q0 -51 26.5 -78.5t76.5 -27.5q53 0 92 22
q10 -28 7 -65q-56 -26 -116 -26z" />
    <glyph glyph-name="Cdotaccent" unicode="&#x10a;" horiz-adv-x="479" 
d="M339 608l-59 66q33 36 74 69q13 -13 27.5 -30t22.5 -27l8 -11zM266 -14q-109 0 -164.5 60.5t-55.5 165.5q0 153 85 245t229 92q87 0 140 -36q-11 -41 -34 -71q-50 33 -119 33t-124 -26q-89 -93 -89 -228q0 -76 38.5 -119t112.5 -43q68 0 128 34q15 -30 17 -64
q-69 -43 -164 -43z" />
    <glyph glyph-name="cdotaccent" unicode="&#x10b;" horiz-adv-x="369" 
d="M241 443l-59 66q33 36 74 69q13 -13 27.5 -30t22.5 -28l8 -10zM198 -14q-82 0 -124 44.5t-42 120.5q0 104 60 168t162 64q64 0 106 -24q-11 -39 -25 -64q-32 21 -89 21q-49 0 -84 -16q-50 -58 -50 -139q0 -51 26.5 -78.5t76.5 -27.5q53 0 92 22q10 -28 7 -65
q-56 -26 -116 -26z" />
    <glyph glyph-name="Ccaron" unicode="&#x10c;" horiz-adv-x="479" 
d="M298 602l-98 111q12 16 30 29l110 -82l145 81q14 -14 20 -31l-136 -108q-37 -7 -71 0zM266 -14q-109 0 -164.5 60.5t-55.5 165.5q0 153 85 245t229 92q87 0 140 -36q-11 -41 -34 -71q-50 33 -119 33t-124 -26q-89 -93 -89 -228q0 -76 38.5 -119t112.5 -43q68 0 128 34
q15 -30 17 -64q-69 -43 -164 -43z" />
    <glyph glyph-name="ccaron" unicode="&#x10d;" horiz-adv-x="369" 
d="M200 437l-91 113q8 13 28 27l105 -82l139 81q12 -11 19 -29l-129 -110q-37 -7 -71 0zM198 -14q-82 0 -124 44.5t-42 120.5q0 104 60 168t162 64q64 0 106 -24q-11 -39 -25 -64q-32 21 -89 21q-49 0 -84 -16q-50 -58 -50 -139q0 -51 26.5 -78.5t76.5 -27.5q53 0 92 22
q10 -28 7 -65q-56 -26 -116 -26z" />
    <glyph glyph-name="Dcaron" unicode="&#x10e;" horiz-adv-x="551" 
d="M280 602l-98 111q12 16 30 29l110 -82l145 81q14 -14 20 -31l-136 -108q-37 -7 -71 0zM31 0q46 264 86 528q87 17 177 17q116 0 178.5 -57t62.5 -162q0 -153 -84.5 -239.5t-237.5 -86.5h-182zM123 70h106q77 0 129 25q90 96 90 222q0 77 -43 117.5t-127 40.5l-84 -4z" />
    <glyph glyph-name="dcaron" unicode="&#x10f;" horiz-adv-x="560" 
d="M173 -14q-62 0 -102 45t-40 117q0 107 62 171.5t175 64.5q39 0 67 -8l30 197q44 22 89 22l-104 -593q-38 -7 -69 -4l5 53q-29 -25 -62.5 -45t-50.5 -20zM516 383q-20 2 -35 13l80 197q39 2 71 -19zM200 61q34 0 91 43l32 197q-29 14 -73 14q-48 0 -85 -17
q-50 -53 -50 -134q0 -47 23.5 -75t61.5 -28z" />
    <glyph glyph-name="Dcroat" unicode="&#x110;" horiz-adv-x="579" 
d="M321 545q117 0 179.5 -57t62.5 -162q0 -153 -84.5 -239.5t-237.5 -86.5h-182l41 241h-74q-2 37 13 70h72q33 207 34 217q87 17 176 17zM386 95q90 96 90 222q0 158 -171 158l-85 -4l-28 -160h150q0 -39 -13 -70h-150l-30 -171h108q77 0 129 25z" />
    <glyph glyph-name="dcroat" unicode="&#x111;" horiz-adv-x="444" 
d="M508 505q0 -27 -10 -54h-69l-79 -449q-38 -7 -69 -4l5 53q-29 -25 -62.5 -45t-50.5 -20q-62 0 -102 45t-40 117q0 107 62 171.5t175 64.5q39 0 67 -8l11 75h-115q-3 23 9 54h115l10 68q44 22 89 22l-16 -90h70zM291 104l32 197q-29 14 -73 14q-48 0 -85 -17
q-50 -53 -50 -134q0 -47 23.5 -75t61.5 -28q34 0 91 43z" />
    <glyph glyph-name="Emacron" unicode="&#x112;" horiz-adv-x="435" 
d="M164 633q-2 31 10 62h281q2 -33 -10 -62h-281zM30 0q44 255 86 525q39 10 107 10h238q0 -39 -13 -70h-256l-29 -160h221q2 -35 -12 -68h-221l-29 -167h263q2 -33 -12 -70h-343z" />
    <glyph glyph-name="emacron" unicode="&#x113;" horiz-adv-x="404" 
d="M398 530q2 -33 -10 -62h-281q-2 31 10 62h281zM253 384q58 0 93 -27t35 -69q0 -60 -54.5 -90.5t-150.5 -30.5q-26 0 -68 2v-7q0 -54 29.5 -82t81.5 -28q67 0 122 29q10 -24 8 -63q-70 -32 -146 -32q-83 0 -127 44.5t-44 120.5q0 104 57 168.5t164 64.5zM176 215
q126 0 126 61q0 23 -18.5 36t-49.5 13q-38 0 -72 -16q-40 -40 -49 -91q29 -3 63 -3z" />
    <glyph glyph-name="Ebreve" unicode="&#x114;" horiz-adv-x="435" 
d="M300 595q-61 0 -90 38.5t-20 95.5q28 4 49 1q-2 -36 15.5 -55.5t52.5 -19.5q76 0 99 75q22 3 48 -1q-12 -58 -52 -96t-102 -38zM30 0q44 255 86 525q39 10 107 10h238q0 -39 -13 -70h-256l-29 -160h221q2 -35 -12 -68h-221l-29 -167h263q2 -33 -12 -70h-343z" />
    <glyph glyph-name="ebreve" unicode="&#x115;" horiz-adv-x="404" 
d="M243 430q-58 0 -85.5 38t-19.5 96q27 4 46 1q-3 -76 66 -76q73 0 96 76q21 3 46 -1q-13 -59 -51 -96.5t-98 -37.5zM253 384q58 0 93 -27t35 -69q0 -60 -54.5 -90.5t-150.5 -30.5q-26 0 -68 2v-7q0 -54 29.5 -82t81.5 -28q67 0 122 29q10 -24 8 -63q-70 -32 -146 -32
q-83 0 -127 44.5t-44 120.5q0 104 57 168.5t164 64.5zM176 215q126 0 126 61q0 23 -18.5 36t-49.5 13q-38 0 -72 -16q-40 -40 -49 -91q29 -3 63 -3z" />
    <glyph glyph-name="Edotaccent" unicode="&#x116;" horiz-adv-x="435" 
d="M304 608l-59 66q33 36 74 69q13 -13 27.5 -30t22.5 -27l8 -11zM30 0q44 255 86 525q39 10 107 10h238q0 -39 -13 -70h-256l-29 -160h221q2 -35 -12 -68h-221l-29 -167h263q2 -33 -12 -70h-343z" />
    <glyph glyph-name="edotaccent" unicode="&#x117;" horiz-adv-x="404" 
d="M320 510l-73 -67l-59 66q33 36 74 69q13 -13 27.5 -30t22.5 -28zM176 167q-26 0 -68 2v-7q0 -54 29.5 -82t81.5 -28q67 0 122 29q10 -24 8 -63q-70 -32 -146 -32q-83 0 -127 44.5t-44 120.5q0 104 57 168.5t164 64.5q58 0 93 -27t35 -69q0 -60 -54.5 -90.5t-150.5 -30.5z
M234 325q-38 0 -72 -16q-40 -40 -49 -91q29 -3 63 -3q126 0 126 61q0 23 -18.5 36t-49.5 13z" />
    <glyph glyph-name="Eogonek" unicode="&#x118;" horiz-adv-x="435" 
d="M448 465h-256l-29 -160h221q2 -35 -12 -68h-221l-29 -167h263q2 -28 -11 -68q-1 -1 -1 -2h-2q-96 -75 -96 -126q0 -38 40 -38q12 0 28 4q0 -28 -7 -48q-20 -5 -41 -5q-37 0 -59 19t-22 52q0 75 111 142h-295q44 255 86 525q39 10 107 10h238q0 -39 -13 -70z" />
    <glyph glyph-name="eogonek" unicode="&#x119;" horiz-adv-x="404" 
d="M176 167q-26 0 -68 2v-7q0 -54 29.5 -82t81.5 -28q67 0 122 29q10 -24 8 -63q-99 -77 -99 -128q0 -38 40 -38q12 0 28 4q0 -28 -7 -48q-20 -5 -41 -5q-37 0 -59 19t-22 52q0 62 73 117q-32 -5 -59 -5q-83 0 -127 44.5t-44 120.5q0 104 57 168.5t164 64.5q58 0 93 -27
t35 -69q0 -60 -54.5 -90.5t-150.5 -30.5zM234 325q-38 0 -72 -16q-40 -40 -49 -91q29 -3 63 -3q126 0 126 61q0 23 -18.5 36t-49.5 13z" />
    <glyph glyph-name="Ecaron" unicode="&#x11a;" horiz-adv-x="435" 
d="M263 602l-98 111q12 16 30 29l110 -82l145 81q14 -14 20 -31l-136 -108q-37 -7 -71 0zM30 0q44 255 86 525q39 10 107 10h238q0 -39 -13 -70h-256l-29 -160h221q2 -35 -12 -68h-221l-29 -167h263q2 -33 -12 -70h-343z" />
    <glyph glyph-name="ecaron" unicode="&#x11b;" horiz-adv-x="404" 
d="M277 437q-37 -7 -71 0l-91 113q8 13 28 27l105 -82l139 81q12 -11 19 -29zM253 384q58 0 93 -27t35 -69q0 -60 -54.5 -90.5t-150.5 -30.5q-26 0 -68 2v-7q0 -54 29.5 -82t81.5 -28q67 0 122 29q10 -24 8 -63q-70 -32 -146 -32q-83 0 -127 44.5t-44 120.5q0 104 57 168.5
t164 64.5zM176 215q126 0 126 61q0 23 -18.5 36t-49.5 13q-38 0 -72 -16q-40 -40 -49 -91q29 -3 63 -3z" />
    <glyph glyph-name="Gcircumflex" unicode="&#x11c;" horiz-adv-x="558" 
d="M230 591q-15 11 -20 30l135 109q38 7 71 0l98 -111q-11 -17 -30 -29l-110 82zM270 -14q-109 0 -166.5 60t-57.5 163q0 158 86.5 249t245.5 91q109 0 171 -45q-15 -39 -36 -69q-56 40 -150 40q-80 0 -140 -26q-90 -96 -90 -228q0 -76 40.5 -119t117.5 -43q66 0 121 22
l26 149h-138q0 39 12 70h213l-46 -261q-94 -53 -209 -53z" />
    <glyph glyph-name="gcircumflex" unicode="&#x11d;" horiz-adv-x="439" 
d="M148 426q-14 10 -19 29l129 110q38 7 71 0l92 -113q-12 -16 -29 -27l-105 82zM129 -206q-79 0 -127 30q5 40 27 69q37 -32 105 -32q65 0 102 25q25 36 36 99l14 71q-79 -65 -114 -65q-61 0 -101 44.5t-40 112.5q0 107 62 171.5t175 64.5q85 0 144 -26l-66 -377
q-17 -98 -69 -142.5t-148 -44.5zM200 66q31 0 91 43l29 191q-27 15 -72 15q-46 0 -83 -17q-50 -54 -50 -132q0 -45 24 -72.5t61 -27.5z" />
    <glyph glyph-name="Gbreve" unicode="&#x11e;" horiz-adv-x="558" 
d="M360 595q-61 0 -90 38.5t-20 95.5q28 4 49 1q-2 -36 15.5 -55.5t52.5 -19.5q76 0 99 75q22 3 48 -1q-12 -58 -52 -96t-102 -38zM270 -14q-109 0 -166.5 60t-57.5 163q0 158 86.5 249t245.5 91q109 0 171 -45q-15 -39 -36 -69q-56 40 -150 40q-80 0 -140 -26
q-90 -96 -90 -228q0 -76 40.5 -119t117.5 -43q66 0 121 22l26 149h-138q0 39 12 70h213l-46 -261q-94 -53 -209 -53z" />
    <glyph glyph-name="gbreve" unicode="&#x11f;" horiz-adv-x="439" 
d="M273 430q-58 0 -85.5 38t-19.5 96q27 4 46 1q-3 -76 66 -76q73 0 96 76q21 3 46 -1q-13 -59 -51 -96.5t-98 -37.5zM129 -206q-79 0 -127 30q5 40 27 69q37 -32 105 -32q65 0 102 25q25 36 36 99l14 71q-79 -65 -114 -65q-61 0 -101 44.5t-40 112.5q0 107 62 171.5
t175 64.5q85 0 144 -26l-66 -377q-17 -98 -69 -142.5t-148 -44.5zM200 66q31 0 91 43l29 191q-27 15 -72 15q-46 0 -83 -17q-50 -54 -50 -132q0 -45 24 -72.5t61 -27.5z" />
    <glyph glyph-name="Gdotaccent" unicode="&#x120;" horiz-adv-x="558" 
d="M364 608l-59 66q33 36 74 69q13 -13 27.5 -30t22.5 -27l8 -11zM270 -14q-109 0 -166.5 60t-57.5 163q0 158 86.5 249t245.5 91q109 0 171 -45q-15 -39 -36 -69q-56 40 -150 40q-80 0 -140 -26q-90 -96 -90 -228q0 -76 40.5 -119t117.5 -43q66 0 121 22l26 149h-138
q0 39 12 70h213l-46 -261q-94 -53 -209 -53z" />
    <glyph glyph-name="gdotaccent" unicode="&#x121;" horiz-adv-x="439" 
d="M277 443l-59 66q33 36 74 69q13 -13 27.5 -30t22.5 -28l8 -10zM129 -206q-79 0 -127 30q5 40 27 69q37 -32 105 -32q65 0 102 25q25 36 36 99l14 71q-79 -65 -114 -65q-61 0 -101 44.5t-40 112.5q0 107 62 171.5t175 64.5q85 0 144 -26l-66 -377q-17 -98 -69 -142.5
t-148 -44.5zM200 66q31 0 91 43l29 191q-27 15 -72 15q-46 0 -83 -17q-50 -54 -50 -132q0 -45 24 -72.5t61 -27.5z" />
    <glyph glyph-name="Gcommaaccent" unicode="&#x122;" horiz-adv-x="558" 
d="M270 -14q-109 0 -166.5 60t-57.5 163q0 158 86.5 249t245.5 91q109 0 171 -45q-15 -39 -36 -69q-56 40 -150 40q-80 0 -140 -26q-90 -96 -90 -228q0 -76 40.5 -119t117.5 -43q66 0 121 22l26 149h-138q0 39 12 70h213l-46 -261q-94 -53 -209 -53zM123 -189l84 132
q39 10 73 0l-103 -132q-31 -6 -54 0z" />
    <glyph glyph-name="gcommaaccent" unicode="&#x123;" horiz-adv-x="439" 
d="M398 580l-85 -143q-42 -13 -79 0l106 143q31 8 58 0zM129 -206q-79 0 -127 30q5 40 27 69q37 -32 105 -32q65 0 102 25q25 36 36 99l14 71q-79 -65 -114 -65q-61 0 -101 44.5t-40 112.5q0 107 62 171.5t175 64.5q85 0 144 -26l-66 -377q-17 -98 -69 -142.5t-148 -44.5z
M200 66q31 0 91 43l29 191q-27 15 -72 15q-46 0 -83 -17q-50 -54 -50 -132q0 -45 24 -72.5t61 -27.5z" />
    <glyph glyph-name="Hcircumflex" unicode="&#x124;" horiz-adv-x="557" 
d="M225 591q-15 11 -20 30l135 109q38 7 71 0l98 -111q-11 -17 -30 -29l-110 82zM471 526q44 16 88 14l-95 -539q-32 -10 -80 -4q19 101 40 236h-273l-41 -231q-32 -10 -80 -4q46 266 87 529q45 16 88 14l-42 -237h273q2 10 35 222z" />
    <glyph glyph-name="hcircumflex" unicode="&#x125;" horiz-adv-x="433" 
d="M176 643q-14 10 -19 29l129 110q38 7 71 0l92 -113q-12 -16 -29 -27l-105 82zM25 -2q57 325 94 575q44 22 89 22l-51 -272q79 61 109 61q66 0 99.5 -49t16.5 -142l-33 -191q-31 -10 -78 -4l31 182q10 63 -7 96t-56 33q-33 0 -89 -44l-47 -263q-30 -10 -78 -4z" />
    <glyph glyph-name="Hbar" unicode="&#x126;" horiz-adv-x="634" 
d="M662 438q2 -32 -11 -66h-81l-65 -371q-32 -10 -81 -4l37 212h-277l-36 -207q-32 -10 -81 -4q33 185 63 374h-80q-3 30 11 66h80q3 15 7.5 45t6.5 44q44 16 88 14l-18 -103h272q3 16 7.5 45t6.5 43q45 16 88 14l-18 -102h81zM471 275q7 36 16 97h-274l-17 -97h275z" />
    <glyph glyph-name="hbar" unicode="&#x127;" horiz-adv-x="442" 
d="M275 384q66 0 99.5 -49t16.5 -142l-33 -191q-31 -10 -78 -4l31 182q10 63 -7 96t-56 33q-33 0 -89 -44l-47 -263q-30 -10 -78 -4q55 317 76 453h-71q-2 27 10 54h69q2 12 5 34.5t5 33.5q44 22 89 22l-17 -90h121q0 -31 -10 -54h-121l-24 -128q79 61 109 61z" />
    <glyph glyph-name="Itilde" unicode="&#x128;" horiz-adv-x="202" 
d="M236 617q-27 0 -61 23.5t-53 23.5q-32 0 -60 -37q-19 5 -33 21q39 78 106 78q28 0 61.5 -23.5t52.5 -23.5q31 0 60 37q22 -6 32 -21q-38 -78 -105 -78zM29 -2q42 236 88 529q45 16 88 14l-95 -539q-32 -10 -81 -4z" />
    <glyph glyph-name="itilde" unicode="&#x129;" horiz-adv-x="194" 
d="M269 551q21 -5 30 -19q-17 -37 -44 -58.5t-57 -21.5q-27 0 -59 23.5t-51 23.5q-30 0 -58 -37q-20 5 -31 20q39 79 102 79q27 0 59 -23.5t51 -23.5q29 0 58 37zM84 360q42 16 86 14l-66 -372q-30 -10 -78 -4q33 188 58 362z" />
    <glyph glyph-name="Imacron" unicode="&#x12a;" horiz-adv-x="202" 
d="M38 633q-2 31 10 62h281q2 -33 -10 -62h-281zM29 -2q42 236 88 529q45 16 88 14l-95 -539q-32 -10 -81 -4z" />
    <glyph glyph-name="imacron" unicode="&#x12b;" horiz-adv-x="194" 
d="M293 530q2 -33 -10 -62h-281q-2 31 10 62h281zM84 360q42 16 86 14l-66 -372q-30 -10 -78 -4q33 188 58 362z" />
    <glyph glyph-name="Ibreve" unicode="&#x12c;" horiz-adv-x="202" 
d="M174 595q-61 0 -90 38.5t-20 95.5q28 4 49 1q-2 -36 15.5 -55.5t52.5 -19.5q76 0 99 75q22 3 48 -1q-12 -58 -52 -96t-102 -38zM29 -2q42 236 88 529q45 16 88 14l-95 -539q-32 -10 -81 -4z" />
    <glyph glyph-name="ibreve" unicode="&#x12d;" horiz-adv-x="194" 
d="M138 430q-58 0 -85.5 38t-19.5 96q27 4 46 1q-3 -76 66 -76q73 0 96 76q21 3 46 -1q-13 -59 -51 -96.5t-98 -37.5zM26 -2q33 188 58 362q42 16 86 14l-66 -372q-30 -10 -78 -4z" />
    <glyph glyph-name="Iogonek" unicode="&#x12e;" horiz-adv-x="202" 
d="M111 2q-99 -77 -99 -128q0 -38 40 -38q12 0 28 4q0 -28 -7 -48q-20 -5 -41 -5q-37 0 -59 19t-22 52q0 72 105 138q-9 0 -27 2q42 236 88 529q45 16 88 14l-95 -539h1z" />
    <glyph glyph-name="iogonek" unicode="&#x12f;" horiz-adv-x="194" 
d="M215 510l-73 -67l-59 66q33 36 74 69q13 -13 27.5 -30t22.5 -28zM84 360q42 16 86 14l-66 -372q-99 -77 -99 -128q0 -38 40 -38q12 0 28 4q0 -28 -7 -48q-20 -5 -41 -5q-37 0 -59 19t-22 52q0 72 105 138q-4 0 -11.5 1t-11.5 1q33 188 58 362z" />
    <glyph glyph-name="Idotaccent" unicode="&#x130;" horiz-adv-x="202" 
d="M178 608l-59 66q33 36 74 69q13 -13 27.5 -30t22.5 -27l8 -11zM29 -2q42 236 88 529q45 16 88 14l-95 -539q-32 -10 -81 -4z" />
    <glyph glyph-name="dotlessi" unicode="&#x131;" horiz-adv-x="194" 
d="M26 -2q33 188 58 362q42 16 86 14l-66 -372q-30 -10 -78 -4z" />
    <glyph glyph-name="IJ" unicode="&#x132;" horiz-adv-x="457" 
d="M29 -2q42 236 88 529q45 16 88 14l-95 -539q-32 -10 -81 -4zM207 -48q-26 26 -31 65q38 15 57 24.5t39 26.5t29.5 41t16.5 62q34 183 58 356q45 16 88 14l-65 -367q-7 -41 -17.5 -69.5t-30.5 -58.5t-56 -53t-88 -41z" />
    <glyph glyph-name="ij" unicode="&#x133;" horiz-adv-x="392" 
d="M148 457l-59 66q33 37 73 70q13 -14 28 -31t23 -28l8 -10zM346 457l-59 66q33 37 74 70l58 -69zM26 -2q33 188 58 362q42 16 86 14l-66 -372q-30 -10 -78 -4zM77 -206q-24 21 -32 60q161 47 190 208q13 72 47 298q42 16 86 14l-57 -319q-33 -190 -234 -261z" />
    <glyph glyph-name="Jcircumflex" unicode="&#x134;" horiz-adv-x="255" 
d="M76 591q-15 11 -20 30l135 109q38 7 71 0l98 -111q-11 -17 -30 -29l-110 82zM5 -48q-26 26 -31 65q38 15 57 24.5t39 26.5t29.5 41t16.5 62q34 183 58 356q45 16 88 14l-65 -367q-7 -41 -17.5 -69.5t-30.5 -58.5t-56 -53t-88 -41z" />
    <glyph glyph-name="jcircumflex" unicode="&#x135;" horiz-adv-x="198" 
d="M201 565l92 -113q-12 -16 -29 -27l-105 82l-139 -81q-14 10 -19 29l129 110q38 7 71 0zM88 360q42 16 86 14l-57 -319q-33 -190 -234 -261q-24 21 -32 60q161 47 190 208q13 72 47 298z" />
    <glyph glyph-name="Kcommaaccent" unicode="&#x136;" horiz-adv-x="474" 
d="M354 -8l-199 262l-45 -252q-30 -10 -81 -4q42 236 88 529q45 16 88 14l-45 -256l269 256q46 0 83 -16l-271 -254l200 -264q-45 -16 -87 -15zM78 -189l84 132q39 10 73 0l-103 -132q-31 -6 -54 0z" />
    <glyph glyph-name="kcommaaccent" unicode="&#x137;" horiz-adv-x="387" 
d="M25 -2q67 394 94 575q42 22 89 22l-67 -377q109 78 185 158q54 -2 85 -15q-91 -91 -192 -161l142 -191q-45 -17 -86 -15l-139 197l-33 -189q-30 -10 -78 -4zM46 -189l84 132q39 10 73 0l-103 -132q-31 -6 -54 0z" />
    <glyph glyph-name="Lacute" unicode="&#x139;" horiz-adv-x="396" 
d="M197 594q-13 20 -16 36l184 103q25 -25 30 -67zM30 0q44 251 87 527q45 16 88 14l-83 -471h236q0 -39 -13 -70h-315z" />
    <glyph glyph-name="lacute" unicode="&#x13a;" horiz-adv-x="192" 
d="M94 642q-10 11 -17 33l175 117q27 -24 35 -64zM25 -2q67 394 94 575q42 22 89 22l-105 -593q-30 -10 -78 -4z" />
    <glyph glyph-name="Lcommaaccent" unicode="&#x13b;" horiz-adv-x="396" 
d="M30 0q44 251 87 527q45 16 88 14l-83 -471h236q0 -39 -13 -70h-315zM64 -189l84 132q39 10 73 0l-103 -132q-31 -6 -54 0z" />
    <glyph glyph-name="lcommaaccent" unicode="&#x13c;" horiz-adv-x="192" 
d="M25 -2q67 394 94 575q42 22 89 22l-105 -593q-30 -10 -78 -4zM-64 -189l84 132q39 10 73 0l-103 -132q-31 -6 -54 0z" />
    <glyph glyph-name="Lcaron" unicode="&#x13d;" horiz-adv-x="396" 
d="M239 602l-98 111q12 16 30 29l110 -82l145 81q14 -14 20 -31l-136 -108q-37 -7 -71 0zM30 0q44 251 87 527q45 16 88 14l-83 -471h236q0 -39 -13 -70h-315z" />
    <glyph glyph-name="lcaron" unicode="&#x13e;" horiz-adv-x="302" 
d="M25 -2q67 394 94 575q42 22 89 22l-105 -593q-30 -10 -78 -4zM258 383q-20 2 -35 13l80 197q39 2 71 -19z" />
    <glyph glyph-name="Ldot" unicode="&#x13f;" horiz-adv-x="449" 
d="M30 0q44 251 87 527q45 16 88 14l-83 -471h236q0 -39 -13 -70h-315zM326 222l-62 69q35 39 77 74l62 -72z" />
    <glyph glyph-name="ldot" unicode="&#x140;" horiz-adv-x="357" 
d="M25 -2q67 394 94 575q42 22 89 22l-105 -593q-30 -10 -78 -4zM277 190l-62 69q35 39 77 74l62 -72z" />
    <glyph glyph-name="Lslash" unicode="&#x141;" horiz-adv-x="437" 
d="M161 70h238q0 -39 -13 -70h-317l37 216l-70 -37q-20 26 -24 60l107 57q18 111 36 231q45 16 89 14l-35 -196l106 56q20 -26 24 -60l-144 -77z" />
    <glyph glyph-name="lslash" unicode="&#x142;" horiz-adv-x="252" 
d="M288 343l-107 -66l-48 -275q-30 -10 -78 -4q30 177 38 224l-71 -44q-14 19 -21 50l103 64q17 101 44 281q44 22 89 22l-44 -248l75 46q15 -22 20 -50z" />
    <glyph glyph-name="Nacute" unicode="&#x143;" horiz-adv-x="558" 
d="M472 666l-198 -72q-13 20 -16 36l184 103q25 -25 30 -67zM477 526q44 16 84 14l-95 -539q-30 -11 -77 -4l-210 420l-73 -416q-37 -8 -76 -3q46 266 87 529q45 16 92 14l204 -408q24 146 64 393z" />
    <glyph glyph-name="nacute" unicode="&#x144;" horiz-adv-x="434" 
d="M172 425q-10 11 -17 33l175 117q27 -24 35 -64zM26 -2q33 188 58 362q40 15 80 15q-6 -30 -12 -57q82 66 115 66q66 0 99.5 -49t16.5 -142l-34 -191q-29 -10 -78 -4l31 182q11 63 -6 96t-56 33q-32 0 -90 -44l-46 -263q-30 -10 -78 -4z" />
    <glyph glyph-name="Ncommaaccent" unicode="&#x145;" horiz-adv-x="558" 
d="M477 526q44 16 84 14l-95 -539q-30 -11 -77 -4l-210 420l-73 -416q-37 -8 -76 -3q46 266 87 529q45 16 92 14l204 -408q24 146 64 393zM204 -57q39 10 73 0l-103 -132q-31 -6 -54 0z" />
    <glyph glyph-name="ncommaaccent" unicode="&#x146;" horiz-adv-x="434" 
d="M26 -2q33 188 58 362q40 15 80 15q-6 -30 -12 -57q82 66 115 66q66 0 99.5 -49t16.5 -142l-34 -191q-29 -10 -78 -4l31 182q11 63 -6 96t-56 33q-32 0 -90 -44l-46 -263q-30 -10 -78 -4zM52 -189l84 132q39 10 73 0l-103 -132q-31 -6 -54 0z" />
    <glyph glyph-name="Ncaron" unicode="&#x147;" horiz-adv-x="558" 
d="M387 602q-37 -7 -71 0l-98 111q12 16 30 29l110 -82l145 81q14 -14 20 -31zM477 526q44 16 84 14l-95 -539q-30 -11 -77 -4l-210 420l-73 -416q-37 -8 -76 -3q46 266 87 529q45 16 92 14l204 -408q24 146 64 393z" />
    <glyph glyph-name="ncaron" unicode="&#x148;" horiz-adv-x="434" 
d="M218 437l-91 113q8 13 28 27l105 -82l139 81q12 -11 19 -29l-129 -110q-37 -7 -71 0zM26 -2q33 188 58 362q40 15 80 15q-6 -30 -12 -57q82 66 115 66q66 0 99.5 -49t16.5 -142l-34 -191q-29 -10 -78 -4l31 182q11 63 -6 96t-56 33q-32 0 -90 -44l-46 -263
q-30 -10 -78 -4z" />
    <glyph glyph-name="Eng" unicode="&#x14a;" horiz-adv-x="558" 
d="M477 526q44 16 84 14l-100 -567q-14 -78 -62 -125t-139 -61q-18 28 -18 66q65 13 94 35t40 79l6 32l-203 418l-73 -416q-37 -8 -76 -3q33 188 87 529q45 16 92 14l202 -418q12 74 66 403z" />
    <glyph glyph-name="eng" unicode="&#x14b;" horiz-adv-x="436" 
d="M345 -18q-19 -78 -57 -125t-108 -67q-19 27 -20 62q46 15 69 42t39 91q22 98 35 198q8 62 -8.5 94t-54.5 32q-32 0 -90 -44l-46 -263q-30 -10 -78 -4q39 221 58 362q40 15 80 15q-6 -30 -12 -57q82 66 115 66q65 0 96.5 -48.5t19.5 -142.5q-13 -104 -38 -211z" />
    <glyph glyph-name="Omacron" unicode="&#x14c;" horiz-adv-x="605" 
d="M235 633q-2 31 10 62h281q2 -33 -10 -62h-281zM271 -14q-108 0 -166.5 62.5t-58.5 165.5q0 151 86 243t232 92q108 0 166 -62.5t58 -165.5q0 -151 -85.5 -243t-231.5 -92zM290 57q60 0 119 26q91 98 91 230q0 78 -40.5 122t-115.5 44q-62 0 -119 -27q-91 -97 -91 -230
q0 -78 40.5 -121.5t115.5 -43.5z" />
    <glyph glyph-name="omacron" unicode="&#x14d;" horiz-adv-x="452" 
d="M129 468q-2 31 10 62h281q2 -33 -10 -62h-281zM193 -14q-76 0 -119 45.5t-43 118.5q0 105 62.5 169.5t165.5 64.5q76 0 119 -45.5t43 -118.5q0 -105 -62.5 -169.5t-165.5 -64.5zM211 52q28 0 60 9q27 22 46.5 66t19.5 89q0 48 -26 75t-70 27q-28 0 -60 -9
q-28 -21 -47 -64.5t-19 -89.5q0 -49 26 -76t70 -27z" />
    <glyph glyph-name="Obreve" unicode="&#x14e;" horiz-adv-x="605" 
d="M371 595q-61 0 -90 38.5t-20 95.5q28 4 49 1q-2 -36 15.5 -55.5t52.5 -19.5q76 0 99 75q22 3 48 -1q-12 -58 -52 -96t-102 -38zM271 -14q-108 0 -166.5 62.5t-58.5 165.5q0 151 86 243t232 92q108 0 166 -62.5t58 -165.5q0 -151 -85.5 -243t-231.5 -92zM290 57
q60 0 119 26q91 98 91 230q0 78 -40.5 122t-115.5 44q-62 0 -119 -27q-91 -97 -91 -230q0 -78 40.5 -121.5t115.5 -43.5z" />
    <glyph glyph-name="obreve" unicode="&#x14f;" horiz-adv-x="452" 
d="M265 430q-58 0 -85.5 38t-19.5 96q27 4 46 1q-3 -76 66 -76q73 0 96 76q21 3 46 -1q-13 -59 -51 -96.5t-98 -37.5zM193 -14q-76 0 -119 45.5t-43 118.5q0 105 62.5 169.5t165.5 64.5q76 0 119 -45.5t43 -118.5q0 -105 -62.5 -169.5t-165.5 -64.5zM211 52q28 0 60 9
q27 22 46.5 66t19.5 89q0 48 -26 75t-70 27q-28 0 -60 -9q-28 -21 -47 -64.5t-19 -89.5q0 -49 26 -76t70 -27z" />
    <glyph glyph-name="Ohungarumlaut" unicode="&#x150;" horiz-adv-x="605" 
d="M230 583q-15 10 -23 28l152 140q30 -16 44 -51zM379 588q-10 15 -13 33l175 110q24 -21 31 -66zM271 -14q-108 0 -166.5 62.5t-58.5 165.5q0 151 86 243t232 92q108 0 166 -62.5t58 -165.5q0 -151 -85.5 -243t-231.5 -92zM290 57q60 0 119 26q91 98 91 230
q0 78 -40.5 122t-115.5 44q-62 0 -119 -27q-91 -97 -91 -230q0 -78 40.5 -121.5t115.5 -43.5z" />
    <glyph glyph-name="ohungarumlaut" unicode="&#x151;" horiz-adv-x="452" 
d="M129 418q-15 10 -23 28l152 140q30 -16 44 -51zM268 423q-10 15 -13 33l175 110q24 -21 31 -66zM193 -14q-76 0 -119 45.5t-43 118.5q0 105 62.5 169.5t165.5 64.5q76 0 119 -45.5t43 -118.5q0 -105 -62.5 -169.5t-165.5 -64.5zM211 52q28 0 60 9q27 22 46.5 66t19.5 89
q0 48 -26 75t-70 27q-28 0 -60 -9q-28 -21 -47 -64.5t-19 -89.5q0 -49 26 -76t70 -27z" />
    <glyph glyph-name="OE" unicode="&#x152;" horiz-adv-x="775" 
d="M271 -14q-109 0 -167 62.5t-58 165.5q0 151 86 243t232 92q71 0 116 -20q29 6 81 6h240q0 -39 -13 -70h-260l-29 -160h225q0 -37 -13 -68h-223l-30 -167h268q0 -35 -13 -70h-338q-56 -14 -104 -14zM290 57q47 0 88 13l64 384q-37 25 -98 25q-62 0 -119 -27
q-91 -97 -91 -230q0 -77 41 -121t115 -44z" />
    <glyph glyph-name="oe" unicode="&#x153;" horiz-adv-x="709" 
d="M481 167q-24 0 -68 2v-7q0 -54 30 -82t82 -28q68 0 121 29q10 -24 8 -63q-70 -32 -146 -32q-107 0 -145 82q-57 -82 -166 -82q-77 0 -121.5 45.5t-44.5 118.5q0 105 62.5 169.5t165.5 64.5q95 0 130 -79q57 79 169 79q58 0 93 -27t35 -69q0 -60 -54 -90.5t-151 -30.5z
M539 325q-38 0 -72 -16q-40 -40 -49 -91q28 -3 63 -3q127 0 127 61q0 23 -19 36t-50 13zM271 61q27 22 46.5 65.5t19.5 88.5q0 49 -26 76t-70 27q-28 0 -60 -9q-28 -21 -47 -64.5t-19 -89.5q0 -49 26 -76t70 -27q28 0 60 9z" />
    <glyph glyph-name="Racute" unicode="&#x154;" horiz-adv-x="470" 
d="M237 594q-13 20 -16 36l184 103q25 -25 30 -67zM30 -2q39 217 87 530q87 17 176 17q84 0 131 -35.5t47 -99.5q0 -70 -44 -115.5t-123 -57.5l129 -226q-42 -15 -86 -15l-125 230h-72l-39 -224q-32 -10 -81 -4zM162 292h91q54 0 94 16q38 34 38 91q0 37 -29 56.5t-82 19.5
l-80 -4z" />
    <glyph glyph-name="racute" unicode="&#x155;" horiz-adv-x="279" 
d="M128 425q-10 11 -17 33l175 117q27 -24 35 -64zM26 -2q33 188 58 362q40 15 80 15q-9 -45 -15 -67q25 28 58 52t52 25q28 0 49 -12q-2 -36 -14 -70q-19 9 -47 9q-39 0 -98 -53l-45 -257q-30 -10 -78 -4z" />
    <glyph glyph-name="Rcommaaccent" unicode="&#x156;" horiz-adv-x="470" 
d="M30 -2q39 217 87 530q87 17 176 17q84 0 131 -35.5t47 -99.5q0 -70 -44 -115.5t-123 -57.5l129 -226q-42 -15 -86 -15l-125 230h-72l-39 -224q-32 -10 -81 -4zM162 292h91q54 0 94 16q38 34 38 91q0 37 -29 56.5t-82 19.5l-80 -4zM79 -189l84 132q39 10 73 0l-103 -132
q-31 -6 -54 0z" />
    <glyph glyph-name="rcommaaccent" unicode="&#x157;" horiz-adv-x="279" 
d="M26 -2q33 188 58 362q40 15 80 15q-9 -45 -15 -67q25 28 58 52t52 25q28 0 49 -12q-2 -36 -14 -70q-19 9 -47 9q-39 0 -98 -53l-45 -257q-30 -10 -78 -4zM-16 -189l84 132q39 10 73 0l-103 -132q-31 -6 -54 0z" />
    <glyph glyph-name="Rcaron" unicode="&#x158;" horiz-adv-x="470" 
d="M279 602l-98 111q12 16 30 29l110 -82l145 81q14 -14 20 -31l-136 -108q-37 -7 -71 0zM30 -2q39 217 87 530q87 17 176 17q84 0 131 -35.5t47 -99.5q0 -70 -44 -115.5t-123 -57.5l129 -226q-42 -15 -86 -15l-125 230h-72l-39 -224q-32 -10 -81 -4zM162 292h91q54 0 94 16
q38 34 38 91q0 37 -29 56.5t-82 19.5l-80 -4z" />
    <glyph glyph-name="rcaron" unicode="&#x159;" horiz-adv-x="279" 
d="M174 437l-91 113q8 13 28 27l105 -82l139 81q12 -11 19 -29l-129 -110q-37 -7 -71 0zM26 -2q33 188 58 362q40 15 80 15q-9 -45 -15 -67q25 28 58 52t52 25q28 0 49 -12q-2 -36 -14 -70q-19 9 -47 9q-39 0 -98 -53l-45 -257q-30 -10 -78 -4z" />
    <glyph glyph-name="Sacute" unicode="&#x15a;" horiz-adv-x="424" 
d="M209 594q-13 20 -16 36l184 103q25 -25 30 -67zM170 -14q-103 0 -158 42q14 50 32 71q52 -40 137 -40q59 0 97 16q27 24 27 64q0 29 -24 52t-57.5 40t-67.5 36t-58 50t-24 72q0 74 57 117.5t154 43.5q81 0 139 -32q-12 -40 -34 -68q-49 26 -116 26q-50 0 -87 -12
q-28 -20 -28 -57q0 -32 36.5 -58t79.5 -44t79.5 -56.5t36.5 -91.5q0 -80 -59.5 -125.5t-161.5 -45.5z" />
    <glyph glyph-name="sacute" unicode="&#x15b;" horiz-adv-x="335" 
d="M119 425q-10 11 -17 33l175 117q27 -24 35 -64zM126 -14q-76 0 -123 30q8 37 23 59q36 -26 108 -26q34 0 63 13q15 15 15 37q0 23 -26 42.5t-56.5 33t-56.5 38.5t-26 57q0 55 44 84.5t122 29.5q62 0 100 -18q-5 -36 -21 -64q-36 19 -91 19q-32 1 -59 -8q-16 -16 -16 -36
q0 -18 26 -35.5t56.5 -31t56.5 -41t26 -64.5q0 -59 -45 -89t-120 -30z" />
    <glyph glyph-name="Scircumflex" unicode="&#x15c;" horiz-adv-x="424" 
d="M158 591q-15 11 -20 30l135 109q38 7 71 0l98 -111q-11 -17 -30 -29l-110 82zM170 -14q-103 0 -158 42q14 50 32 71q52 -40 137 -40q59 0 97 16q27 24 27 64q0 29 -24 52t-57.5 40t-67.5 36t-58 50t-24 72q0 74 57 117.5t154 43.5q81 0 139 -32q-12 -40 -34 -68
q-49 26 -116 26q-50 0 -87 -12q-28 -20 -28 -57q0 -32 36.5 -58t79.5 -44t79.5 -56.5t36.5 -91.5q0 -80 -59.5 -125.5t-161.5 -45.5z" />
    <glyph glyph-name="scircumflex" unicode="&#x15d;" horiz-adv-x="335" 
d="M77 426q-14 10 -19 29l129 110q38 7 71 0l92 -113q-12 -16 -29 -27l-105 82zM126 -14q-76 0 -123 30q8 37 23 59q36 -26 108 -26q34 0 63 13q15 15 15 37q0 23 -26 42.5t-56.5 33t-56.5 38.5t-26 57q0 55 44 84.5t122 29.5q62 0 100 -18q-5 -36 -21 -64q-36 19 -91 19
q-32 1 -59 -8q-16 -16 -16 -36q0 -18 26 -35.5t56.5 -31t56.5 -41t26 -64.5q0 -59 -45 -89t-120 -30z" />
    <glyph glyph-name="Scedilla" unicode="&#x15e;" horiz-adv-x="424" 
d="M170 -14q-103 0 -158 42q14 50 32 71q52 -40 137 -40q59 0 97 16q27 24 27 64q0 29 -24 52t-57.5 40t-67.5 36t-58 50t-24 72q0 74 57 117.5t154 43.5q81 0 139 -32q-12 -40 -34 -68q-49 26 -116 26q-50 0 -87 -12q-28 -20 -28 -57q0 -32 36.5 -58t79.5 -44t79.5 -56.5
t36.5 -91.5q0 -80 -59.5 -125.5t-161.5 -45.5zM139 -180q-34 -8 -59 0q40 40 51 60q15 32 10 73q36 6 60 0q5 -39 -14 -74.5t-48 -58.5z" />
    <glyph glyph-name="scedilla" unicode="&#x15f;" horiz-adv-x="335" 
d="M126 -14q-76 0 -123 30q8 37 23 59q36 -26 108 -26q34 0 63 13q15 15 15 37q0 23 -26 42.5t-56.5 33t-56.5 38.5t-26 57q0 55 44 84.5t122 29.5q62 0 100 -18q-5 -36 -21 -64q-36 19 -91 19q-32 1 -59 -8q-16 -16 -16 -36q0 -18 26 -35.5t56.5 -31t56.5 -41t26 -64.5
q0 -59 -45 -89t-120 -30zM95 -180q-34 -8 -59 0q40 40 51 60q15 32 10 73q36 6 60 0q5 -39 -14 -74.5t-48 -58.5z" />
    <glyph glyph-name="Scaron" unicode="&#x160;" horiz-adv-x="424" 
d="M251 602l-98 111q12 16 30 29l110 -82l145 81q14 -14 20 -31l-136 -108q-37 -7 -71 0zM170 -14q-103 0 -158 42q14 50 32 71q52 -40 137 -40q59 0 97 16q27 24 27 64q0 29 -24 52t-57.5 40t-67.5 36t-58 50t-24 72q0 74 57 117.5t154 43.5q81 0 139 -32q-12 -40 -34 -68
q-49 26 -116 26q-50 0 -87 -12q-28 -20 -28 -57q0 -32 36.5 -58t79.5 -44t79.5 -56.5t36.5 -91.5q0 -80 -59.5 -125.5t-161.5 -45.5z" />
    <glyph glyph-name="scaron" unicode="&#x161;" horiz-adv-x="335" 
d="M165 437l-91 113q8 13 28 27l105 -82l139 81q12 -11 19 -29l-129 -110q-37 -7 -71 0zM126 -14q-76 0 -123 30q8 37 23 59q36 -26 108 -26q34 0 63 13q15 15 15 37q0 23 -26 42.5t-56.5 33t-56.5 38.5t-26 57q0 55 44 84.5t122 29.5q62 0 100 -18q-5 -36 -21 -64
q-36 19 -91 19q-32 1 -59 -8q-16 -16 -16 -36q0 -18 26 -35.5t56.5 -31t56.5 -41t26 -64.5q0 -59 -45 -89t-120 -30z" />
    <glyph glyph-name="uni0162" unicode="&#x162;" horiz-adv-x="448" 
d="M157 -2q41 240 77 467h-166q-2 37 12 70h418q0 -39 -13 -70h-166l-82 -463q-32 -10 -80 -4zM154 -180q-34 -8 -59 0q40 40 51 60q15 32 10 73q36 6 60 0q5 -39 -14 -74.5t-48 -58.5z" />
    <glyph glyph-name="uni0163" unicode="&#x163;" horiz-adv-x="333" 
d="M197 -10q-130 0 -108 142l29 171h-88q-2 32 12 67h87l16 115q42 20 87 20l-24 -135h138q3 -30 -11 -67h-139l-29 -162q-6 -41 6 -60.5t46 -19.5q31 0 63 10q3 -31 -4 -70q-40 -11 -81 -11zM126 -180q-34 -8 -59 0q40 40 51 60q15 32 10 73q36 6 60 0q5 -39 -14 -74.5
t-48 -58.5z" />
    <glyph glyph-name="Tcaron" unicode="&#x164;" horiz-adv-x="448" 
d="M266 602l-98 111q12 16 30 29l110 -82l145 81q14 -14 20 -31l-136 -108q-37 -7 -71 0zM157 -2q41 240 77 467h-166q-2 37 12 70h418q0 -39 -13 -70h-166l-82 -463q-32 -10 -80 -4z" />
    <glyph glyph-name="tcaron" unicode="&#x165;" horiz-adv-x="337" 
d="M303 430q-20 2 -35 13l80 197q39 2 71 -19zM197 -10q-130 0 -108 142l29 171h-88q-2 32 12 67h87l16 115q42 20 87 20l-24 -135h138q3 -30 -11 -67h-139l-29 -162q-6 -41 6 -60.5t46 -19.5q31 0 63 10q3 -31 -4 -70q-40 -11 -81 -11z" />
    <glyph glyph-name="Tbar" unicode="&#x166;" horiz-adv-x="448" 
d="M485 465h-166l-30 -170h114q2 -33 -12 -70h-115l-39 -223q-32 -10 -80 -4q1 8 16 94.5t22 132.5h-115q-2 35 12 70h115q5 31 14 88t13 82h-166q-2 37 12 70h418q0 -39 -13 -70z" />
    <glyph glyph-name="tbar" unicode="&#x167;" horiz-adv-x="344" 
d="M340 317h-138l-14 -79h108q2 -26 -9 -53h-109l-9 -52q-13 -76 53 -76q30 0 62 10q3 -32 -3 -66q-40 -11 -81 -11q-130 0 -108 138l9 57h-85q-2 26 9 53h85l13 79h-84q-1 22 9 53h83l17 115q42 20 87 20l-24 -135h138q1 -20 -9 -53z" />
    <glyph glyph-name="Utilde" unicode="&#x168;" horiz-adv-x="542" 
d="M408 617q-27 0 -61 23.5t-53 23.5q-32 0 -60 -37q-19 5 -33 21q39 78 106 78q28 0 61.5 -23.5t52.5 -23.5q31 0 60 37q22 -6 32 -21q-38 -78 -105 -78zM240 -14q-89 0 -136 39t-47 114q0 22 8 72.5t24 144t27 171.5q49 16 89 14l-60 -338q-6 -39 -6 -54q0 -92 116 -92
q124 0 148 122q25 130 57 348q47 16 88 14l-67 -362q-34 -193 -241 -193z" />
    <glyph glyph-name="utilde" unicode="&#x169;" horiz-adv-x="435" 
d="M327 452q-27 0 -59 23.5t-51 23.5q-30 0 -58 -37q-20 5 -31 20q39 79 102 79q28 0 60 -23.5t50 -23.5q29 0 58 37q21 -5 30 -19q-17 -37 -44 -58.5t-57 -21.5zM167 -14q-66 0 -98.5 47.5t-18.5 139.5l29 187q42 16 86 14l-34 -189q-11 -61 7.5 -92.5t57.5 -31.5
q34 0 90 43l39 256q42 16 86 14l-66 -372q-38 -7 -69 -4l5 53q-83 -65 -114 -65z" />
    <glyph glyph-name="Umacron" unicode="&#x16a;" horiz-adv-x="542" 
d="M210 633q-2 31 10 62h281q2 -33 -10 -62h-281zM240 -14q-89 0 -136 39t-47 114q0 22 8 72.5t24 144t27 171.5q49 16 89 14l-60 -338q-6 -39 -6 -54q0 -92 116 -92q124 0 148 122q25 130 57 348q47 16 88 14l-67 -362q-34 -193 -241 -193z" />
    <glyph glyph-name="umacron" unicode="&#x16b;" horiz-adv-x="435" 
d="M131 468q-2 31 10 62h281q2 -33 -10 -62h-281zM167 -14q-66 0 -98.5 47.5t-18.5 139.5l29 187q42 16 86 14l-34 -189q-11 -61 7.5 -92.5t57.5 -31.5q34 0 90 43l39 256q42 16 86 14l-66 -372q-38 -7 -69 -4l5 53q-83 -65 -114 -65z" />
    <glyph glyph-name="Ubreve" unicode="&#x16c;" horiz-adv-x="542" 
d="M346 595q-61 0 -90 38.5t-20 95.5q28 4 49 1q-2 -36 15.5 -55.5t52.5 -19.5q76 0 99 75q22 3 48 -1q-12 -58 -52 -96t-102 -38zM240 -14q-89 0 -136 39t-47 114q0 22 8 72.5t24 144t27 171.5q49 16 89 14l-60 -338q-6 -39 -6 -54q0 -92 116 -92q124 0 148 122
q25 130 57 348q47 16 88 14l-67 -362q-34 -193 -241 -193z" />
    <glyph glyph-name="ubreve" unicode="&#x16d;" horiz-adv-x="435" 
d="M267 430q-58 0 -85.5 38t-19.5 96q27 4 46 1q-3 -76 66 -76q73 0 96 76q21 3 46 -1q-13 -59 -51 -96.5t-98 -37.5zM167 -14q-66 0 -98.5 47.5t-18.5 139.5l29 187q42 16 86 14l-34 -189q-11 -61 7.5 -92.5t57.5 -31.5q34 0 90 43l39 256q42 16 86 14l-66 -372
q-38 -7 -69 -4l5 53q-83 -65 -114 -65z" />
    <glyph glyph-name="Uring" unicode="&#x16e;" horiz-adv-x="542" 
d="M343 580q-32 0 -51.5 20t-19.5 54q0 41 29.5 69.5t69.5 28.5q31 0 50.5 -20.5t19.5 -53.5q0 -41 -29 -69.5t-69 -28.5zM349 620q21 0 35.5 15.5t14.5 38.5q0 37 -34 37q-21 0 -35.5 -15t-14.5 -38q0 -38 34 -38zM240 -14q-89 0 -136 39t-47 114q0 22 8 72.5t24 144
t27 171.5q49 16 89 14l-60 -338q-6 -39 -6 -54q0 -92 116 -92q124 0 148 122q25 130 57 348q47 16 88 14l-67 -362q-34 -193 -241 -193z" />
    <glyph glyph-name="uring" unicode="&#x16f;" horiz-adv-x="435" 
d="M266 431q-30 0 -49.5 20t-19.5 51q0 40 28.5 68t67.5 28q30 0 49.5 -20t19.5 -51q0 -40 -28.5 -68t-67.5 -28zM272 471q20 0 34 14.5t14 36.5q0 36 -33 36q-21 0 -35 -14.5t-14 -37.5q0 -35 34 -35zM167 -14q-66 0 -98.5 47.5t-18.5 139.5l29 187q42 16 86 14l-34 -189
q-11 -61 7.5 -92.5t57.5 -31.5q34 0 90 43l39 256q42 16 86 14l-66 -372q-38 -7 -69 -4l5 53q-83 -65 -114 -65z" />
    <glyph glyph-name="Uhungarumlaut" unicode="&#x170;" horiz-adv-x="542" 
d="M205 583q-15 10 -23 28l152 140q30 -16 44 -51zM354 588q-10 15 -13 33l175 110q24 -21 31 -66zM240 -14q-89 0 -136 39t-47 114q0 22 8 72.5t24 144t27 171.5q49 16 89 14l-60 -338q-6 -39 -6 -54q0 -92 116 -92q124 0 148 122q25 130 57 348q47 16 88 14l-67 -362
q-34 -193 -241 -193z" />
    <glyph glyph-name="uhungarumlaut" unicode="&#x171;" horiz-adv-x="435" 
d="M131 418q-15 10 -23 28l152 140q30 -16 44 -51zM270 423q-10 15 -13 33l175 110q24 -21 31 -66zM167 -14q-66 0 -98.5 47.5t-18.5 139.5l29 187q42 16 86 14l-34 -189q-11 -61 7.5 -92.5t57.5 -31.5q34 0 90 43l39 256q42 16 86 14l-66 -372q-38 -7 -69 -4l5 53
q-83 -65 -114 -65z" />
    <glyph glyph-name="Uogonek" unicode="&#x172;" horiz-adv-x="542" 
d="M460 527q47 16 88 14l-67 -362q-24 -138 -139 -178q-98 -76 -98 -127q0 -38 40 -38q12 0 28 4q0 -28 -7 -48q-20 -5 -41 -5q-37 0 -59 19t-22 52q0 67 91 129q-11 -1 -34 -1q-89 0 -136 39t-47 114q0 22 8 72.5t24 144t27 171.5q49 16 89 14l-60 -338q-6 -39 -6 -54
q0 -92 116 -92q124 0 148 122q25 130 57 348z" />
    <glyph glyph-name="uogonek" unicode="&#x173;" horiz-adv-x="435" 
d="M344 2q-99 -77 -99 -128q0 -38 40 -38q12 0 28 4q0 -28 -7 -48q-20 -5 -41 -5q-37 0 -59 19t-22 52q0 73 106 139q-3 0 -7.5 0.5t-6.5 0.5l5 53q-83 -65 -114 -65q-66 0 -98.5 47.5t-18.5 139.5l29 187q42 16 86 14l-34 -189q-11 -61 7.5 -92.5t57.5 -31.5q34 0 90 43
l39 256q42 16 86 14l-66 -372h-1z" />
    <glyph glyph-name="Wcircumflex" unicode="&#x174;" horiz-adv-x="748" 
d="M318 591q-15 11 -20 30l135 109q38 7 71 0l98 -111q-11 -17 -30 -29l-110 82zM712 542q41 2 80 -16l-234 -524q-54 -9 -102 0l-42 417l-189 -417q-50 -8 -100 0l-49 524q46 18 85 16l36 -442l189 427q46 13 95 13l40 -442z" />
    <glyph glyph-name="wcircumflex" unicode="&#x175;" horiz-adv-x="594" 
d="M213 426q-14 10 -19 29l129 110q38 7 71 0l92 -113q-12 -16 -29 -27l-105 82zM529 376q50 -2 78 -15q-68 -190 -179 -360q-44 -9 -89 0l-33 274l-130 -274q-46 -9 -90 0l-50 360q46 16 83 14l28 -299l135 286q39 13 82 13l29 -306q87 149 136 307z" />
    <glyph glyph-name="Ycircumflex" unicode="&#x176;" horiz-adv-x="472" 
d="M178 591q-15 11 -20 30l135 109q38 7 71 0l98 -111q-11 -17 -30 -29l-110 82zM441 541q48 2 85 -15l-249 -334l-33 -190q-34 -10 -80 -4q18 100 33 194l-131 334q42 17 83 15l101 -270z" />
    <glyph glyph-name="ycircumflex" unicode="&#x177;" horiz-adv-x="393" 
d="M104 426q-14 10 -19 29l129 110q38 7 71 0l92 -113q-12 -16 -29 -27l-105 82zM327 376q54 -2 80 -15q-78 -197 -192 -351q-131 -173 -276 -220q-21 19 -27 60q101 31 200 146l-84 365q46 16 81 14l64 -312q98 148 154 313z" />
    <glyph glyph-name="Ydieresis" unicode="&#x178;" horiz-adv-x="472" 
d="M288 671l-68 -64l-53 62q32 37 71 66zM469 671l-69 -64l-53 62q33 37 71 66q12 -12 24.5 -28t19.5 -26zM441 541q48 2 85 -15l-249 -334l-33 -190q-34 -10 -80 -4q18 100 33 194l-131 334q42 17 83 15l101 -270z" />
    <glyph glyph-name="Zacute" unicode="&#x179;" horiz-adv-x="457" 
d="M424 666l-198 -72q-13 20 -16 36l184 103q25 -25 30 -67zM480 535q0 -36 -13 -72l-358 -393h293q0 -39 -13 -70h-391q0 33 14 72l357 393h-263q-2 35 13 70h361z" />
    <glyph glyph-name="zacute" unicode="&#x17a;" horiz-adv-x="373" 
d="M339 511l-193 -86q-10 11 -17 33l175 117q27 -24 35 -64zM369 370q0 -35 -12 -69l-249 -233q116 5 213 -4q3 -31 -11 -68q-164 12 -314 4q0 32 13 69l250 234h-198q-3 32 12 67h296z" />
    <glyph glyph-name="Zdotaccent" unicode="&#x17b;" horiz-adv-x="457" 
d="M382 675l-73 -67l-59 66q33 36 74 69q13 -13 27.5 -30t22.5 -27zM480 535q0 -36 -13 -72l-358 -393h293q0 -39 -13 -70h-391q0 33 14 72l357 393h-263q-2 35 13 70h361z" />
    <glyph glyph-name="zdotaccent" unicode="&#x17c;" horiz-adv-x="373" 
d="M306 510l-73 -67l-59 66q33 36 74 69q13 -13 27.5 -30t22.5 -28zM369 370q0 -35 -12 -69l-249 -233q116 5 213 -4q3 -31 -11 -68q-164 12 -314 4q0 32 13 69l250 234h-198q-3 32 12 67h296z" />
    <glyph glyph-name="Zcaron" unicode="&#x17d;" horiz-adv-x="457" 
d="M339 602q-37 -7 -71 0l-98 111q12 16 30 29l110 -82l145 81q14 -14 20 -31zM480 535q0 -36 -13 -72l-358 -393h293q0 -39 -13 -70h-391q0 33 14 72l357 393h-263q-2 35 13 70h361z" />
    <glyph glyph-name="zcaron" unicode="&#x17e;" horiz-adv-x="373" 
d="M263 437q-37 -7 -71 0l-91 113q8 13 28 27l105 -82l139 81q12 -11 19 -29zM61 303q-3 32 12 67h296q0 -35 -12 -69l-249 -233q116 5 213 -4q3 -31 -11 -68q-164 12 -314 4q0 32 13 69l250 234h-198z" />
    <glyph glyph-name="uni018F" unicode="&#x18f;" horiz-adv-x="600" 
d="M343 549q200 0 200 -199q0 -159 -75.5 -261.5t-216.5 -102.5q-89 0 -136.5 45.5t-47.5 126.5q0 61 29 142h358q2 30 2 43q0 132 -135 132q-81 0 -165 -34q-18 36 -21 66q95 42 208 42zM270 59q56 0 103 26q48 54 69 149h-280q-12 -36 -12 -68q0 -50 31 -78.5t89 -28.5z
" />
    </font>
</defs>
</svg>
