<?xml version="1.0" encoding="utf-8"?>
 
<svg version="1.1" id="Layer_1" xmlns="http://www.w3.org/2000/svg" xmlns:xlink="http://www.w3.org/1999/xlink" x="0px" y="0px"
	 viewBox="0 0 26.2 23.2" style="enable-background:new 0 0 26.2 23.2;" xml:space="preserve">
<style type="text/css">
	.st0{fill:#FFF200;}
</style>
<path id="XMLID_81_" class="st0" d="M13.1,22.8c1.7,0,3.1-1.2,3.4-2.8H9.7C10,21.6,11.4,22.8,13.1,22.8"/>
<path id="XMLID_4_" class="st0" d="M21.8,16.2c-1.4-1.2-2.2-2.9-2.2-4.8V8.8c0-3.3-2.4-6-5.6-6.4v-1c0-0.5-0.4-0.9-0.9-0.9
	c-0.5,0-0.9,0.4-0.9,0.9v1C9,2.8,6.6,5.5,6.6,8.8v2.6c0,1.8-0.8,3.6-2.2,4.8c-0.4,0.3-0.6,0.8-0.6,1.2c0,0.9,0.7,1.6,1.6,1.6h15.4
	c0.9,0,1.6-0.7,1.6-1.6C22.4,16.9,22.2,16.5,21.8,16.2"/>
</svg>
