<svg xmlns="http://www.w3.org/2000/svg" width="34" height="34" viewBox="0 0 34 34">
  <g id="Group_2267" data-name="Group 2267" transform="translate(-0.097)">
    <rect id="Rectangle_301" data-name="Rectangle 301" width="34" height="34" rx="6" transform="translate(0.097)" fill="#e21b1b"/>
    <path id="Icon_awesome-instagram" data-name="Icon awesome-instagram" d="M9.172,6.707a4.7,4.7,0,1,0,4.7,4.7A4.7,4.7,0,0,0,9.172,6.707Zm0,7.762a3.058,3.058,0,1,1,3.058-3.058,3.064,3.064,0,0,1-3.058,3.058Zm5.993-7.954a1.1,1.1,0,1,1-1.1-1.1A1.095,1.095,0,0,1,15.165,6.515ZM18.28,7.628A5.429,5.429,0,0,0,16.8,3.784,5.465,5.465,0,0,0,12.954,2.3c-1.515-.086-6.055-.086-7.569,0A5.457,5.457,0,0,0,1.541,3.78,5.447,5.447,0,0,0,.059,7.624c-.086,1.515-.086,6.055,0,7.569a5.429,5.429,0,0,0,1.482,3.844,5.472,5.472,0,0,0,3.844,1.482c1.515.086,6.055.086,7.569,0A5.429,5.429,0,0,0,16.8,19.037a5.465,5.465,0,0,0,1.482-3.844c.086-1.515.086-6.05,0-7.565Zm-1.957,9.19a3.1,3.1,0,0,1-1.744,1.744c-1.208.479-4.073.368-5.408.368s-4.2.106-5.408-.368A3.1,3.1,0,0,1,2.02,16.818c-.479-1.208-.368-4.073-.368-5.408S1.545,7.206,2.02,6A3.1,3.1,0,0,1,3.764,4.259c1.208-.479,4.073-.368,5.408-.368s4.2-.106,5.408.368A3.1,3.1,0,0,1,16.323,6c.479,1.208.368,4.073.368,5.408S16.8,15.615,16.323,16.818Z" transform="translate(9.025 6.118)" fill="#fff"/>
  </g>
</svg>
