<?xml version="1.0" encoding="utf-8"?>
 
<svg version="1.1" id="Layer_1" xmlns="http://www.w3.org/2000/svg" xmlns:xlink="http://www.w3.org/1999/xlink" x="0px" y="0px"
	 viewBox="0 0 26.2 23.2" style="enable-background:new 0 0 26.2 23.2;" xml:space="preserve">
<style type="text/css">
	.st0{fill:#FFF200;}
</style>
<path id="XMLID_3_" class="st0" d="M18.7,1c-1.3,0-2.5,0.4-3.6,1.2c-1,0.8-1.7,1.8-2.1,2.5C12.7,4,12,3,11,2.2C9.9,1.4,8.7,1,7.4,1
	C3.8,1,1,3.9,1,7.9c0,4.3,3.4,7.2,8.6,11.6c0.9,0.8,1.9,1.6,2.9,2.5c0.1,0.1,0.3,0.2,0.5,0.2c0.2,0,0.4-0.1,0.5-0.2
	c1-0.9,2-1.8,2.9-2.5c5.2-4.4,8.6-7.3,8.6-11.6C25.1,3.9,22.4,1,18.7,1"/>
</svg>
