<svg xmlns="http://www.w3.org/2000/svg" width="34" height="34" viewBox="0 0 34 34">
  <g id="Group_2266" data-name="Group 2266" transform="translate(-0.246)">
    <rect id="Rectangle_302" data-name="Rectangle 302" width="34" height="34" rx="6" transform="translate(0.246)" fill="#e21b1b"/>
    <path id="Icon_awesome-twitter" data-name="Icon awesome-twitter" d="M14.77,6.713c.01.146.01.292.01.439a9.533,9.533,0,0,1-9.6,9.6A9.534,9.534,0,0,1,0,15.236a6.979,6.979,0,0,0,.815.042A6.757,6.757,0,0,0,5,13.836,3.38,3.38,0,0,1,1.849,11.5a4.255,4.255,0,0,0,.637.052,3.568,3.568,0,0,0,.888-.115A3.374,3.374,0,0,1,.668,8.123V8.081a3.4,3.4,0,0,0,1.525.428A3.379,3.379,0,0,1,1.149,4a9.59,9.59,0,0,0,6.957,3.53,3.809,3.809,0,0,1-.084-.773,3.377,3.377,0,0,1,5.839-2.308A6.642,6.642,0,0,0,16,3.631a3.365,3.365,0,0,1-1.483,1.859,6.763,6.763,0,0,0,1.943-.522A7.252,7.252,0,0,1,14.77,6.713Z" transform="translate(8.713 7.253)" fill="#fff"/>
  </g>
</svg>
