<svg xmlns="http://www.w3.org/2000/svg" width="50" height="50" viewBox="0 0 50 50">
  <g id="Group_4216" data-name="Group 4216" transform="translate(-8532.327 -5743.327)">
    <g id="Group_4215" data-name="Group 4215" transform="translate(8532 5743)">
      <circle id="Ellipse_47" data-name="Ellipse 47" cx="25" cy="25" r="25" transform="translate(0.327 0.327)"/>
      <path id="Icon_awesome-user-edit" data-name="Icon awesome-user-edit" d="M8.176,9.344A4.672,4.672,0,1,0,3.5,4.672,4.672,4.672,0,0,0,8.176,9.344Zm3.27,1.168h-.61a6.354,6.354,0,0,1-5.322,0h-.61A4.907,4.907,0,0,0,0,15.417v1.518a1.752,1.752,0,0,0,1.752,1.752H11.786a1.753,1.753,0,0,1-.095-.777l.248-2.223.044-.405.288-.288,2.821-2.821a4.856,4.856,0,0,0-3.646-1.661Zm1.653,5.3-.248,2.226a.581.581,0,0,0,.642.642l2.223-.248L20.75,13.4l-2.617-2.617L13.1,15.815Zm10-6L21.721,8.431a.875.875,0,0,0-1.234,0l-1.38,1.38-.15.15,2.621,2.617L23.1,11.052a.879.879,0,0,0,0-1.237Z" transform="translate(16.68 15.922)" fill="#fff"/>
    </g>
  </g>
</svg>
