<svg xmlns="http://www.w3.org/2000/svg" width="50" height="50" viewBox="0 0 50 50">
  <g id="Group_4219" data-name="Group 4219" transform="translate(-8532.327 -5743.327)">
    <g id="Group_4215" data-name="Group 4215" transform="translate(8532 5743)">
      <circle id="Ellipse_47" data-name="Ellipse 47" cx="25" cy="25" r="25" transform="translate(0.327 0.327)" fill="#fff"/>
      <path id="Icon_awesome-user-edit" data-name="Icon awesome-user-edit" d="M9.539,10.9A5.451,5.451,0,1,0,4.088,5.451,5.451,5.451,0,0,0,9.539,10.9Zm3.816,1.363h-.711a7.413,7.413,0,0,1-6.209,0H5.724A5.725,5.725,0,0,0,0,17.988V19.76A2.045,2.045,0,0,0,2.044,21.8H13.751a2.045,2.045,0,0,1-.111-.907l.29-2.593.051-.473.336-.336L17.609,14.2a5.665,5.665,0,0,0-4.254-1.938Zm1.929,6.188-.29,2.6a.678.678,0,0,0,.75.75l2.593-.29,5.873-5.873-3.053-3.053-5.873,5.868Zm11.673-7L25.343,9.837a1.02,1.02,0,0,0-1.439,0l-1.61,1.61-.175.175,3.058,3.053,1.78-1.78a1.026,1.026,0,0,0,0-1.444Z" transform="translate(14.326 14.327)" fill="#e20025"/>
    </g>
  </g>
</svg>
