<svg xmlns="http://www.w3.org/2000/svg" width="25.252" height="16.835" viewBox="0 0 25.252 16.835">
  <path id="Icon_awesome-eye" data-name="Icon awesome-eye" d="M25.1,12.277A14.061,14.061,0,0,0,12.626,4.5,14.063,14.063,0,0,0,.153,12.278a1.418,1.418,0,0,0,0,1.28,14.061,14.061,0,0,0,12.473,7.777A14.063,14.063,0,0,0,25.1,13.557,1.418,1.418,0,0,0,25.1,12.277ZM12.626,19.23a6.313,6.313,0,1,1,6.313-6.313A6.313,6.313,0,0,1,12.626,19.23Zm0-10.522a4.178,4.178,0,0,0-1.11.166,2.1,2.1,0,0,1-2.933,2.933,4.2,4.2,0,1,0,4.043-3.1Z" transform="translate(0 -4.5)" fill="#8e8b8b"/>
</svg>
