<svg width="24" height="24" viewBox="0 0 24 24" fill="none" xmlns="http://www.w3.org/2000/svg">
<rect width="24" height="24" fill="#02B1F0"/>
<g clip-path="url(#clip0_38_243)">
<path d="M14.4717 5.00701C14.4419 4.97376 13.3701 5.02013 12.4373 6.03251C11.5046 7.04401 11.6481 8.20426 11.6691 8.23401C11.6901 8.26376 12.9991 8.31013 13.8347 7.13326C14.6703 5.95638 14.5014 5.04113 14.4717 5.00701V5.00701ZM17.3714 15.2734C17.3294 15.1894 15.3371 14.1936 15.5226 12.2791C15.7081 10.3638 16.9882 9.83876 17.0083 9.78188C17.0284 9.72501 16.4859 9.09063 15.9111 8.76951C15.489 8.5431 15.0218 8.41339 14.5434 8.38976C14.4489 8.38713 14.1208 8.30663 13.4462 8.49126C13.0017 8.61288 11.9998 9.00663 11.7242 9.02238C11.4477 9.03813 10.6252 8.56563 9.74056 8.44051C9.17443 8.33113 8.57419 8.55513 8.14456 8.72751C7.71581 8.89901 6.90031 9.38726 6.32981 10.6849C5.75931 11.9816 6.05769 14.0361 6.27119 14.6749C6.48469 15.3128 6.81806 16.3584 7.38506 17.1214C7.88906 17.9824 8.55756 18.58 8.83669 18.783C9.11581 18.986 9.90331 19.1208 10.4493 18.8416C10.8886 18.5721 11.6813 18.4173 11.9946 18.4286C12.3069 18.44 12.9229 18.5634 13.5538 18.9003C14.0534 19.0726 14.5259 19.0009 14.9993 18.8084C15.4727 18.615 16.1578 17.8818 16.9576 16.3951C17.2612 15.7039 17.3994 15.3303 17.3714 15.2734V15.2734Z" fill="white"/>
<path d="M14.4717 5.00701C14.4419 4.97376 13.3701 5.02013 12.4373 6.03251C11.5046 7.04401 11.6481 8.20426 11.6691 8.23401C11.6901 8.26376 12.9991 8.31013 13.8347 7.13326C14.6703 5.95638 14.5014 5.04113 14.4717 5.00701V5.00701ZM17.3714 15.2734C17.3294 15.1894 15.3371 14.1936 15.5226 12.2791C15.7081 10.3638 16.9882 9.83876 17.0083 9.78188C17.0284 9.72501 16.4859 9.09063 15.9111 8.76951C15.489 8.5431 15.0218 8.41339 14.5434 8.38976C14.4489 8.38713 14.1208 8.30663 13.4462 8.49126C13.0017 8.61288 11.9998 9.00663 11.7242 9.02238C11.4477 9.03813 10.6252 8.56563 9.74056 8.44051C9.17443 8.33113 8.57419 8.55513 8.14456 8.72751C7.71581 8.89901 6.90031 9.38726 6.32981 10.6849C5.75931 11.9816 6.05769 14.0361 6.27119 14.6749C6.48469 15.3128 6.81806 16.3584 7.38506 17.1214C7.88906 17.9824 8.55756 18.58 8.83669 18.783C9.11581 18.986 9.90331 19.1208 10.4493 18.8416C10.8886 18.5721 11.6813 18.4173 11.9946 18.4286C12.3069 18.44 12.9229 18.5634 13.5538 18.9003C14.0534 19.0726 14.5259 19.0009 14.9993 18.8084C15.4727 18.615 16.1578 17.8818 16.9576 16.3951C17.2612 15.7039 17.3994 15.3303 17.3714 15.2734V15.2734Z" fill="white"/>
</g>
<defs>
<clipPath id="clip0_38_243">
<rect width="14" height="14" fill="white" transform="translate(5 5)"/>
</clipPath>
</defs>
</svg>
