<?xml version="1.0" encoding="utf-8"?>
 
<svg version="1.1" id="Layer_1" xmlns="http://www.w3.org/2000/svg" xmlns:xlink="http://www.w3.org/1999/xlink" x="0px" y="0px"
	 viewBox="0 0 46.4 46.3" style="enable-background:new 0 0 46.4 46.3;" xml:space="preserve">
<style type="text/css">
	.st0{fill:#00B353;}
</style>
<path id="XMLID_2_" class="st0" d="M33.7,29.5c-0.5,1.2-2.6,2.2-3.6,2.3c-0.9,0.1-1,0.7-6.1-1.5c-5.1-2.2-8.2-7.7-8.5-8
	c-0.2-0.3-2-2.8-1.9-5.3c0.1-2.5,1.5-3.7,2-4.2c0.5-0.5,1-0.6,1.4-0.6c0.4,0,0.7,0,1,0c0.3,0,0.7-0.1,1.1,1c0.4,1,1.3,3.6,1.4,3.8
	c0.1,0.3,0.2,0.6,0,0.9c-0.2,0.3-0.3,0.5-0.5,0.8c-0.3,0.3-0.6,0.6-0.8,0.9c-0.3,0.2-0.5,0.5-0.3,1c0.3,0.5,1.2,2.2,2.7,3.6
	c1.9,1.8,3.5,2.4,4,2.7c0.5,0.3,0.8,0.2,1.1-0.1c0.3-0.3,1.3-1.4,1.7-1.9c0.4-0.5,0.7-0.4,1.2-0.2c0.5,0.2,2.9,1.5,3.4,1.8
	c0.5,0.3,0.8,0.4,1,0.6C34.2,27.3,34.2,28.3,33.7,29.5 M23.7,2C12.6,2,3.6,10.9,3.6,21.9c0,3.8,1.1,7.3,2.9,10.3L2.9,42.9L14,39.4
	c2.9,1.6,6.2,2.5,9.7,2.5c11.1,0,20.1-8.9,20.1-19.9C43.8,10.9,34.8,2,23.7,2"/>
</svg>
