<?xml version="1.0" encoding="utf-8"?>
 
<svg version="1.1" id="Layer_1" xmlns="http://www.w3.org/2000/svg" xmlns:xlink="http://www.w3.org/1999/xlink" x="0px" y="0px"
	 viewBox="0 0 34.6 34.7" style="enable-background:new 0 0 34.6 34.7;" xml:space="preserve">
<style type="text/css">
	.st0{fill-rule:evenodd;clip-rule:evenodd;fill:#010101;}
</style>
<path id="XMLID_3_" class="st0" d="M17.3,0.4c9.4,0,17,7.6,17,17c0,9.4-7.6,17-17,17c-9.4,0-17-7.6-17-17C0.3,8,7.9,0.4,17.3,0.4
	 M25.5,21.3l-4.3-1.7c-0.3-0.1-0.7-0.3-1,0l-0.6,0.8c-0.1,0.2-0.3,0.3-0.5,0.3c-0.2,0-0.4-0.1-0.6-0.2l-4.3-4.3
	c-0.2-0.2-0.2-0.3-0.2-0.6c0-0.2,0.1-0.4,0.3-0.5l0.8-0.6c0.3-0.2,0.1-0.6,0-1l-1.7-4.3c-0.7-1.9-3.4-0.1-4.3,0.7
	c-4.5,4.5,11.2,20.2,15.7,15.7C25.6,24.8,27.3,22,25.5,21.3"/>
</svg>
