<?xml version="1.0" encoding="utf-8"?>
<svg version="1.1" id="Layer_1" xmlns="http://www.w3.org/2000/svg" xmlns:xlink="http://www.w3.org/1999/xlink" x="0px" y="0px"
	 viewBox="0 0 34.6 34.7" style="enable-background:new 0 0 34.6 34.7;" xml:space="preserve">
<style type="text/css">
	.st0{fill-rule:evenodd;clip-rule:evenodd;fill:#010101;}
</style>
<path id="XMLID_2_" class="st0" d="M17.3,0.3c9.4,0,17,7.6,17,17c0,9.4-7.6,17-17,17c-9.4,0-17-7.6-17-17C0.3,7.9,7.9,0.3,17.3,0.3
	 M7,11.3l10.3,8.4l10.3-8.4v-0.9H7V11.3z M7,23.2l5.7-5.4L7,13.1V23.2z M21.9,17.7l5.7,5.4V13.1L21.9,17.7z M26.6,24.1l-5.8-5.5
	l-3.5,2.9l-3.5-2.8l-5.8,5.5H26.6z"/>
</svg>
