<svg width="24" height="24" viewBox="0 0 24 24" fill="none" xmlns="http://www.w3.org/2000/svg">
<rect width="24" height="24" fill="#FF4C4C"/>
<path d="M17.9394 10.9987C18.0163 11.4106 18.0581 11.8412 18.0581 12.2906C18.0581 15.8056 15.7056 18.305 12.1525 18.305C11.3445 18.3052 10.5443 18.1463 9.79775 17.8372C9.05118 17.5281 8.37284 17.0749 7.80148 16.5035C7.23011 15.9322 6.77693 15.2538 6.46783 14.5073C6.15872 13.7607 5.99975 12.9605 6 12.1525C5.99975 11.3445 6.15872 10.5443 6.46783 9.79775C6.77693 9.05118 7.23011 8.37284 7.80148 7.80148C8.37284 7.23011 9.05118 6.77693 9.79775 6.46783C10.5443 6.15872 11.3445 5.99975 12.1525 6C13.8138 6 15.2019 6.61125 16.2669 7.60375L14.5325 9.33813V9.33375C13.8869 8.71875 13.0675 8.40313 12.1525 8.40313C10.1225 8.40313 8.4725 10.1181 8.4725 12.1488C8.4725 14.1787 10.1225 15.8975 12.1525 15.8975C13.9944 15.8975 15.2481 14.8444 15.5056 13.3981H12.1525V10.9987H17.94H17.9394Z" fill="white"/>
</svg>
