<svg xmlns="http://www.w3.org/2000/svg" width="61" height="61" viewBox="0 0 61 61">
  <g id="Group_4081" data-name="Group 4081" transform="translate(0.373 -0.005)">
    <rect id="Rectangle_495" data-name="Rectangle 495" width="61" height="61" rx="3" transform="translate(-0.373 0.005)" fill="#f91d36"/>
    <path id="Icon_awesome-google" data-name="Icon awesome-google" d="M26.464,14.326c0,7.674-5.255,13.134-13.015,13.134a13.449,13.449,0,1,1,0-26.9,12.933,12.933,0,0,1,9.018,3.52L18.807,7.6c-4.788-4.62-13.693-1.15-13.693,6.41A8.424,8.424,0,0,0,13.449,22.5c5.325,0,7.321-3.818,7.636-5.8H13.449V12.081h12.8A11.79,11.79,0,0,1,26.464,14.326Z" transform="translate(17.081 16.519)" fill="#fff"/>
  </g>
</svg>
