<svg xmlns="http://www.w3.org/2000/svg" width="61" height="61" viewBox="0 0 61 61">
  <g id="Group_4082" data-name="Group 4082" transform="translate(0.187 -0.005)">
    <rect id="Rectangle_494" data-name="Rectangle 494" width="61" height="61" rx="3" transform="translate(-0.187 0.005)" fill="#219ef2"/>
    <path id="Icon_awesome-twitter" data-name="Icon awesome-twitter" d="M27.682,9.626c.02.274.02.548.02.822,0,8.359-6.363,17.991-17.991,17.991A17.869,17.869,0,0,1,0,25.6a13.082,13.082,0,0,0,1.527.078,12.664,12.664,0,0,0,7.85-2.7,6.335,6.335,0,0,1-5.912-4.385,7.974,7.974,0,0,0,1.194.1,6.688,6.688,0,0,0,1.664-.215,6.324,6.324,0,0,1-5.071-6.206v-.078a6.368,6.368,0,0,0,2.858.8A6.333,6.333,0,0,1,2.153,4.536a17.974,17.974,0,0,0,13.038,6.617A7.138,7.138,0,0,1,15.035,9.7,6.329,6.329,0,0,1,25.979,5.378a12.45,12.45,0,0,0,4.013-1.527,6.306,6.306,0,0,1-2.78,3.485,12.677,12.677,0,0,0,3.641-.979,13.593,13.593,0,0,1-3.171,3.269Z" transform="translate(14.641 14.921)" fill="#fff"/>
  </g>
</svg>
