<?xml version="1.0" encoding="utf-8"?>

<svg version="1.1" id="Layer_1" xmlns="http://www.w3.org/2000/svg" xmlns:xlink="http://www.w3.org/1999/xlink" x="0px" y="0px"
	 viewBox="0 0 34.6 34.7" style="enable-background:new 0 0 34.6 34.7;" xml:space="preserve">
<style type="text/css">
	.st0{fill-rule:evenodd;clip-rule:evenodd;fill:#010101;}
</style>
<path id="XMLID_3_" class="st0" d="M17.3,0.4c9.4,0,17,7.6,17,17c0,9.4-7.6,17-17,17c-9.4,0-17-7.6-17-17C0.3,8,7.9,0.4,17.3,0.4
	 M17.3,28c2-3.2,7.1-10.7,7.1-14.2c0-3.9-3.2-7.1-7.1-7.1c-3.9,0-7.1,3.2-7.1,7.1C10.2,17.3,15.3,24.8,17.3,28 M17.3,11
	c1.5,0,2.8,1.2,2.8,2.8c0,1.5-1.2,2.8-2.8,2.8c-1.5,0-2.8-1.2-2.8-2.8C14.5,12.3,15.8,11,17.3,11"/>
</svg>
