<?xml version="1.0" encoding="utf-8"?>

<svg version="1.1" id="Layer_1" xmlns="http://www.w3.org/2000/svg" xmlns:xlink="http://www.w3.org/1999/xlink" x="0px" y="0px"
	 viewBox="0 0 101.8 20.9" style="enable-background:new 0 0 101.8 20.9;" xml:space="preserve">
<style type="text/css">
	.st0{fill:#929497;}
	.st1{fill:#AF1F24;}
	.st2{fill:#1E2D5F;}
</style>
<path id="XMLID_136_" class="st0" d="M11.5,2.2C12,1.7,12.8,1,13.7,0.9c0.5-0.1,1-0.1,1.3,0.2c-0.5,0-1.6,0.5-3.1,1.6
	c0.1,0.2,0.2,0.3,0.4,0.5c0.7-0.7,2.2-1.7,3.1-1.5c0,0.1,0.1,0.2,0.1,0.3c-0.3,0-1.5,0.6-2.8,1.7c0.1,0.2,0.2,0.3,0.3,0.5
	c1-0.9,2-1.7,2.6-1.5c0,0.4,0,1-0.1,1.6c0,0.2-0.1,0.5-0.1,0.7c0.2,0.1,0.5,0.1,0.7,0.2c0.5-2.4,0-3.4-0.8-4.1
	c-1.1-1-2.9-0.5-4.3,0.6C11.2,1.8,11.3,2,11.5,2.2"/>
<path id="XMLID_135_" class="st0" d="M13.2,16.4c0.4-0.5,0.7-1,1-1.5v0c0,0,0,0,0,0c1.3-1.9,2.2-3.6,2.9-5.2
	c-0.2-0.1-0.5-0.1-0.7-0.2c-0.7,1.6-1.5,3-2.2,3.7c0.7-1.4,1.3-2.7,1.8-3.8c-0.3-0.1-0.5-0.1-0.8-0.2c-0.6,1.3-1.4,2.5-2.1,3.5
	c0.7-1.3,1.2-2.5,1.6-3.6c-0.3,0-0.5-0.1-0.8-0.1c-0.9,1.9-1.9,3.7-2.8,5C11.8,15,12.5,15.8,13.2,16.4"/>
<path id="XMLID_134_" class="st0" d="M17.3,2.3c0.6,0.7,0.7,2,0.4,3.4c0.2,0.1,0.5,0.2,0.7,0.3C18.7,4,18.3,2.7,17.3,2.3"/>
<path id="XMLID_133_" class="st0" d="M16.1,1.5c0.7,0.9,0.8,2.3,0.5,3.9c0.2,0.1,0.4,0.1,0.6,0.2C17.8,2.6,16.7,1.8,16.1,1.5"/>
<path id="XMLID_132_" class="st0" d="M3.4,16.7c0.6,3.1,3,2.8,4.6,1.2c-1.1,0.9-3,1.3-3.7,0.1c-0.6-1-0.1-4,0.5-5.9
	c-0.2-0.4-0.4-0.8-0.5-1.2C3.8,12.3,3,14.7,3.4,16.7"/>
<path id="XMLID_131_" class="st0" d="M5.2,12.6c-0.5,1.5-1,3.3-0.3,5.7c0.2,0.3,0.6,0.2,0.6,0.2c-0.5-1.3-0.4-2.8,0.2-4.9
	c-0.1-0.1-0.2-0.3-0.2-0.4C5.4,13.1,5.3,12.8,5.2,12.6"/>
<path id="XMLID_130_" class="st0" d="M5.8,18.6c0.2,0,0.6-0.1,0.6-0.1C6,18,6.3,16.1,6.6,15c-0.2-0.2-0.3-0.5-0.5-0.7
	C5.6,16.1,5.5,18,5.8,18.6"/>
<path id="XMLID_129_" class="st0" d="M9.1,18.4c-0.5,0.8-2.3,1.3-3.4,1C6.9,20.4,8.7,19.5,9.1,18.4"/>
<path id="XMLID_128_" class="st0" d="M7.1,20.1c1.1,0.8,2.2,0.1,3-0.9C9.3,19.8,8,20.2,7.1,20.1"/>
<path id="XMLID_127_" class="st1" d="M6.3,2.5c0.1,0,0.2,0,0.3,0.1c0.9,0.2,2,1,2.9,1.9C8.8,3.1,7.6,2.4,6.8,2
	C6.6,2,6.5,1.9,6.4,1.9c0-0.1,0-0.1,0.1-0.2c0.1,0,0.2,0,0.4,0c2,0.3,3.4,1.4,4.5,2.8c-1.3-2.2-3.2-3.2-4.2-3.4c-0.1,0-0.2,0-0.3,0
	C6.9,1.1,7,1,7,1c1.1-0.6,3.5,0.6,5.8,3.6c-1.2-2.6-4.1-4.9-5.6-4c-0.1,0-0.4,0.2-0.5,0.3C5.6,1.5,5.3,3.1,5.6,5.2
	C5.9,5.1,6.2,5,6.5,5C6.3,4,6.3,3.2,6.3,2.5"/>
<path id="XMLID_126_" class="st1" d="M15.2,15.5c0,0,0.6,2,0,2.7c-1.7-0.8-4.1-3.3-6.1-6.9C8.6,10.6,8.2,9.8,7.9,9
	c-0.4,0-0.7,0.1-1,0.1c0.4,0.9,0.8,1.7,1.3,2.6c2.2,3.8,4.8,6.2,4.8,6.2c-1.7-1.2-3.3-2.6-5.2-5.9c-0.5-0.9-1-1.9-1.4-2.8
	c-0.3,0-0.5,0.1-0.8,0.1c0.5,1.2,1,2.3,1.5,3.1c2.2,3.9,4.8,6.2,4.8,6.2c-1.7-1.2-3.3-2.6-5.2-5.9C6,11.6,5.4,10.5,5,9.5
	c-0.3,0.1-0.7,0.2-1,0.3c0.4,1.1,1,2.3,1.6,3.5c2.8,4.9,6.8,7.9,8.9,6.7c0,0,2.4-1.4,2.9-1.7c0.7-0.4,1.3-2.3,0.8-3.3
	c-0.2,0.1-0.5,0.2-0.7,0.2C16.2,15.5,15.2,15.5,15.2,15.5"/>
<path id="XMLID_125_" class="st1" d="M5.8,1.4C4.5,2.1,4.2,3.7,4.5,5.5C4.7,5.4,5,5.3,5.2,5.3C5,3.6,5.2,2.2,5.8,1.4"/>
<path id="XMLID_124_" class="st1" d="M4.6,2.1C3.5,2.7,3.1,4.1,3.2,6c0.3-0.1,0.5-0.2,0.8-0.3C3.9,4.1,4,2.8,4.6,2.1"/>
<path id="XMLID_123_" class="st2" d="M19.6,10.9c-0.7,0.7-2,1.3-3.2,1.6c1.5,0,2.9-0.7,3.6-1.3C19.9,11.1,19.7,11,19.6,10.9"/>
<path id="XMLID_122_" class="st2" d="M20.2,11.5c-1.2,1.5-3.2,2.2-4.9,2.5c2.3,0,4.2-0.9,5.1-1.7c0-0.1,0-0.2,0-0.2
	C20.4,11.8,20.3,11.7,20.2,11.5"/>
<path id="XMLID_121_" class="st2" d="M0.5,9.2c0-2.4,4.6-4.4,10.3-4.4c5.7,0,10.1,1.9,10.1,4.6c-0.9-2-5.1-3.6-10.1-3.6
	C7,5.8,4.9,6.5,3.1,7.4c0,0,3.3-1.1,7.7-1.1c3.3,0,10.1,0.9,10.1,4.5c-0.8-2.1-5-3.7-10.1-3.7C7,7.1,4.9,7.8,3.1,8.7
	c0,0,3.3-1.1,7.7-1.1c5.7,0,10.1,1.7,10.1,4.2c0,0.1,0,0.5,0,0.6c0,1.7-3.8,3-6.6,2.7c3.7-0.6,6.3-1.9,6.3-3.2
	c0-1.6-4.5-3.4-9.9-3.4c-4.1,0-7.5,0.9-9,1.9c0.4,0.9,2,1.2,2,1.2S3.3,12.9,3,14.9c-1.2,0-2.5-1.4-2.5-2.3V9.2z"/>
<path id="XMLID_258_" class="st1" d="M25.7,17c0.1,0.1,0.2,0.2,0.2,0.2c0,0,0.1,0.1,0.2,0.1L25.9,18c-0.1-0.1-0.2-0.2-0.4-0.3
	c-0.1-0.1-0.2-0.2-0.3-0.2c-0.2,0.1-0.4,0.2-0.7,0.2c-0.4,0-0.8-0.1-1-0.4c-0.3-0.3-0.4-0.8-0.4-1.5c0-0.6,0.1-1.1,0.4-1.4
	c0.3-0.3,0.6-0.5,1.1-0.5c0.5,0,0.8,0.2,1.1,0.5c0.3,0.3,0.4,0.8,0.4,1.4C26,16.2,25.9,16.7,25.7,17 M25,16.4
	c0.1-0.2,0.1-0.4,0.1-0.7c0-0.4-0.1-0.6-0.2-0.8c-0.1-0.2-0.3-0.2-0.4-0.2c-0.2,0-0.3,0.1-0.4,0.2C24,15,24,15.3,24,15.6
	c0,0.4,0.1,0.7,0.2,0.9c0.1,0.2,0.3,0.2,0.4,0.2c0.1,0,0.1,0,0.2,0c-0.1-0.1-0.2-0.2-0.3-0.3l0.1-0.4c0.1,0,0.1,0,0.2,0.1
	C24.7,16.1,24.8,16.2,25,16.4C25,16.3,25,16.4,25,16.4"/>
<path id="XMLID_255_" class="st1" d="M28.3,16.9h-1l-0.1,0.6h-0.9l1.1-3.7h1l1.1,3.7h-0.9L28.3,16.9z M28.1,16.1l-0.3-1.3l-0.3,1.3
	H28.1z"/>
<polygon id="XMLID_116_" class="st1" points="29.2,13.8 31.9,13.8 31.9,14.7 31,14.7 31,17.5 30.1,17.5 30.1,14.7 29.2,14.7 "/>
<path id="XMLID_251_" class="st1" d="M33.8,16.9h-1l-0.1,0.6h-0.9l1.1-3.7h1l1.1,3.7h-0.9L33.8,16.9z M33.6,16.1l-0.3-1.3L33,16.1
	H33.6z"/>
<path id="XMLID_248_" class="st1" d="M35.1,17.5v-3.7h1.5c0.3,0,0.5,0,0.6,0.1c0.1,0.1,0.3,0.2,0.3,0.3c0.1,0.2,0.1,0.4,0.1,0.6
	c0,0.2,0,0.4-0.1,0.5c-0.1,0.1-0.2,0.3-0.3,0.4c-0.1,0.1-0.2,0.1-0.3,0.1c0.1,0,0.2,0.1,0.2,0.1c0,0,0.1,0.1,0.1,0.2
	c0.1,0.1,0.1,0.2,0.1,0.2l0.4,1.1h-1l-0.5-1.1c-0.1-0.1-0.1-0.2-0.2-0.3c-0.1-0.1-0.1-0.1-0.2-0.1H36v1.5H35.1z M36,15.3h0.4
	c0,0,0.1,0,0.2-0.1c0.1,0,0.1-0.1,0.1-0.1c0-0.1,0.1-0.1,0.1-0.2c0-0.1,0-0.2-0.1-0.3c-0.1-0.1-0.2-0.1-0.3-0.1H36V15.3z"/>
<polygon id="XMLID_111_" class="st1" points="39.5,13.8 40.4,13.8 41.4,15.9 41.4,13.8 42.3,13.8 42.3,17.5 41.4,17.5 40.4,15.5 
	40.4,17.5 39.5,17.5 "/>
<path id="XMLID_244_" class="st1" d="M44.6,16.9h-1l-0.1,0.6h-0.9l1.1-3.7h1l1.1,3.7h-0.9L44.6,16.9z M44.4,16.1l-0.3-1.3l-0.3,1.3
	H44.4z"/>
<polygon id="XMLID_108_" class="st1" points="45.4,13.8 48.1,13.8 48.1,14.7 47.2,14.7 47.2,17.5 46.3,17.5 46.3,14.7 45.4,14.7 "/>
<rect id="XMLID_107_" x="48.6" y="13.8" class="st1" width="0.9" height="3.7"/>
<path id="XMLID_239_" class="st1" d="M50,15.7c0-0.6,0.1-1.1,0.4-1.4c0.3-0.3,0.6-0.5,1.1-0.5c0.5,0,0.8,0.2,1.1,0.5
	c0.3,0.3,0.4,0.8,0.4,1.4c0,0.4-0.1,0.8-0.2,1.1c-0.1,0.3-0.3,0.5-0.5,0.6c-0.2,0.2-0.5,0.2-0.8,0.2c-0.3,0-0.6-0.1-0.8-0.2
	c-0.2-0.1-0.4-0.3-0.5-0.6C50,16.5,50,16.1,50,15.7 M50.9,15.7c0,0.4,0.1,0.6,0.2,0.8c0.1,0.2,0.3,0.2,0.4,0.2
	c0.2,0,0.3-0.1,0.4-0.2C52,16.3,52,16,52,15.6c0-0.4-0.1-0.6-0.2-0.8c-0.1-0.2-0.3-0.2-0.4-0.2c-0.2,0-0.3,0.1-0.4,0.2
	C50.9,15,50.9,15.3,50.9,15.7"/>
<polygon id="XMLID_104_" class="st1" points="53.4,13.8 54.2,13.8 55.3,15.9 55.3,13.8 56.1,13.8 56.1,17.5 55.3,17.5 54.2,15.5 
	54.2,17.5 53.4,17.5 "/>
<path id="XMLID_235_" class="st1" d="M58.4,16.9h-1l-0.1,0.6h-0.9l1.1-3.7h1l1.1,3.7h-0.9L58.4,16.9z M58.3,16.1l-0.3-1.3l-0.3,1.3
	H58.3z"/>
<polygon id="XMLID_101_" class="st1" points="59.8,13.8 60.7,13.8 60.7,16.6 62,16.6 62,17.5 59.8,17.5 "/>
<polygon id="XMLID_100_" class="st1" points="63.6,13.8 66.2,13.8 66.2,14.7 65.4,14.7 65.4,17.5 64.5,17.5 64.5,14.7 63.6,14.7 "/>
<path id="XMLID_230_" class="st1" d="M66.7,17.5v-3.7h1.5c0.3,0,0.5,0,0.6,0.1c0.1,0.1,0.3,0.2,0.3,0.3c0.1,0.2,0.1,0.4,0.1,0.6
	c0,0.2,0,0.4-0.1,0.5c-0.1,0.1-0.2,0.3-0.3,0.4c-0.1,0.1-0.2,0.1-0.3,0.1c0.1,0,0.2,0.1,0.2,0.1c0,0,0.1,0.1,0.1,0.2
	c0.1,0.1,0.1,0.2,0.1,0.2l0.4,1.1h-1L68,16.4c-0.1-0.1-0.1-0.2-0.2-0.3c-0.1-0.1-0.1-0.1-0.2-0.1h-0.1v1.5H66.7z M67.5,15.3h0.4
	c0,0,0.1,0,0.2-0.1c0.1,0,0.1-0.1,0.1-0.1c0-0.1,0.1-0.1,0.1-0.2c0-0.1,0-0.2-0.1-0.3c-0.1-0.1-0.2-0.1-0.3-0.1h-0.4V15.3z"/>
<path id="XMLID_227_" class="st1" d="M71.5,16.9h-1l-0.1,0.6h-0.9l1.1-3.7h1l1.1,3.7h-0.9L71.5,16.9z M71.3,16.1L71,14.8l-0.3,1.3
	H71.3z"/>
<path id="XMLID_224_" class="st1" d="M72.9,13.8h1.3c0.3,0,0.5,0,0.6,0.1c0.2,0.1,0.3,0.2,0.4,0.4c0.1,0.2,0.2,0.4,0.2,0.6
	c0,0.2,0.1,0.5,0.1,0.7c0,0.4,0,0.7-0.1,0.9c-0.1,0.2-0.2,0.4-0.3,0.6c-0.1,0.1-0.3,0.2-0.4,0.3c-0.2,0.1-0.4,0.1-0.5,0.1h-1.3V13.8
	z M73.7,14.7v2H74c0.2,0,0.3,0,0.4-0.1c0.1-0.1,0.1-0.1,0.2-0.3c0-0.1,0.1-0.3,0.1-0.6c0-0.4,0-0.7-0.1-0.8
	c-0.1-0.1-0.3-0.2-0.5-0.2H73.7z"/>
<rect id="XMLID_93_" x="76" y="13.8" class="st1" width="0.9" height="3.7"/>
<polygon id="XMLID_92_" class="st1" points="77.5,13.8 78.3,13.8 79.4,15.9 79.4,13.8 80.2,13.8 80.2,17.5 79.4,17.5 78.3,15.5 
	78.3,17.5 77.5,17.5 "/>
<path id="XMLID_91_" class="st1" d="M82.3,16.2v-0.8h1.4V17c-0.3,0.2-0.5,0.4-0.7,0.5c-0.2,0.1-0.4,0.1-0.7,0.1
	c-0.3,0-0.6-0.1-0.8-0.2c-0.2-0.2-0.4-0.4-0.5-0.7c-0.1-0.3-0.2-0.6-0.2-1c0-0.4,0.1-0.8,0.2-1.1c0.1-0.3,0.3-0.5,0.6-0.7
	c0.2-0.1,0.5-0.2,0.8-0.2c0.3,0,0.6,0,0.7,0.1c0.2,0.1,0.3,0.2,0.4,0.3c0.1,0.2,0.2,0.4,0.2,0.6L82.7,15c0-0.1-0.1-0.2-0.2-0.3
	c-0.1-0.1-0.2-0.1-0.3-0.1c-0.2,0-0.3,0.1-0.5,0.3c-0.1,0.2-0.2,0.5-0.2,0.8c0,0.4,0.1,0.7,0.2,0.9c0.1,0.2,0.3,0.3,0.5,0.3
	c0.1,0,0.2,0,0.3-0.1c0.1,0,0.2-0.1,0.3-0.2v-0.3H82.3z"/>
<path id="XMLID_90_" class="st1" d="M86.9,16.2v-0.8h1.4V17c-0.3,0.2-0.5,0.4-0.7,0.5c-0.2,0.1-0.4,0.1-0.7,0.1
	c-0.3,0-0.6-0.1-0.8-0.2c-0.2-0.2-0.4-0.4-0.5-0.7c-0.1-0.3-0.2-0.6-0.2-1c0-0.4,0.1-0.8,0.2-1.1c0.1-0.3,0.3-0.5,0.6-0.7
	c0.2-0.1,0.5-0.2,0.8-0.2c0.3,0,0.6,0,0.7,0.1c0.2,0.1,0.3,0.2,0.4,0.3c0.1,0.2,0.2,0.4,0.2,0.6L87.4,15c0-0.1-0.1-0.2-0.2-0.3
	c-0.1-0.1-0.2-0.1-0.3-0.1c-0.2,0-0.3,0.1-0.5,0.3c-0.1,0.2-0.2,0.5-0.2,0.8c0,0.4,0.1,0.7,0.2,0.9c0.1,0.2,0.3,0.3,0.5,0.3
	c0.1,0,0.2,0,0.3-0.1c0.1,0,0.2-0.1,0.3-0.2v-0.3H86.9z"/>
<path id="XMLID_217_" class="st1" d="M88.8,17.5v-3.7h1.5c0.3,0,0.5,0,0.6,0.1c0.1,0.1,0.3,0.2,0.3,0.3c0.1,0.2,0.1,0.4,0.1,0.6
	c0,0.2,0,0.4-0.1,0.5c-0.1,0.1-0.2,0.3-0.3,0.4c-0.1,0.1-0.2,0.1-0.3,0.1c0.1,0,0.2,0.1,0.2,0.1c0,0,0.1,0.1,0.1,0.2
	c0.1,0.1,0.1,0.2,0.1,0.2l0.4,1.1h-1l-0.5-1.1c-0.1-0.1-0.1-0.2-0.2-0.3c-0.1-0.1-0.1-0.1-0.2-0.1h-0.1v1.5H88.8z M89.7,15.3h0.4
	c0,0,0.1,0,0.2-0.1c0.1,0,0.1-0.1,0.1-0.1c0-0.1,0.1-0.1,0.1-0.2c0-0.1,0-0.2-0.1-0.3c-0.1-0.1-0.2-0.1-0.3-0.1h-0.4V15.3z"/>
<path id="XMLID_214_" class="st1" d="M91.7,15.7c0-0.6,0.1-1.1,0.4-1.4c0.3-0.3,0.6-0.5,1.1-0.5c0.5,0,0.8,0.2,1.1,0.5
	c0.3,0.3,0.4,0.8,0.4,1.4c0,0.4-0.1,0.8-0.2,1.1c-0.1,0.3-0.3,0.5-0.5,0.6c-0.2,0.2-0.5,0.2-0.8,0.2c-0.3,0-0.6-0.1-0.8-0.2
	c-0.2-0.1-0.4-0.3-0.5-0.6C91.8,16.5,91.7,16.1,91.7,15.7 M92.6,15.7c0,0.4,0.1,0.6,0.2,0.8c0.1,0.2,0.3,0.2,0.4,0.2
	c0.2,0,0.3-0.1,0.4-0.2c0.1-0.2,0.2-0.4,0.2-0.9c0-0.4-0.1-0.6-0.2-0.8c-0.1-0.2-0.3-0.2-0.4-0.2c-0.2,0-0.3,0.1-0.4,0.2
	C92.6,15,92.6,15.3,92.6,15.7"/>
<path id="XMLID_85_" class="st1" d="M97,13.8h0.9V16c0,0.2,0,0.4-0.1,0.6c-0.1,0.2-0.1,0.4-0.2,0.5c-0.1,0.1-0.2,0.2-0.4,0.3
	c-0.2,0.1-0.4,0.1-0.6,0.1c-0.1,0-0.3,0-0.5,0c-0.2,0-0.3-0.1-0.4-0.2c-0.1-0.1-0.2-0.2-0.3-0.3c-0.1-0.1-0.2-0.3-0.2-0.4
	c-0.1-0.2-0.1-0.4-0.1-0.6v-2.2H96v2.3c0,0.2,0,0.4,0.1,0.5c0.1,0.1,0.2,0.2,0.4,0.2c0.2,0,0.3-0.1,0.4-0.2c0.1-0.1,0.1-0.3,0.1-0.5
	V13.8z"/>
<path id="XMLID_210_" class="st1" d="M98.5,13.8h1.5c0.3,0,0.6,0.1,0.7,0.3c0.2,0.2,0.2,0.5,0.2,0.8c0,0.4-0.1,0.7-0.3,0.9
	c-0.2,0.2-0.4,0.3-0.8,0.3h-0.5v1.4h-0.9V13.8z M99.3,15.4h0.2c0.2,0,0.3,0,0.4-0.1c0.1-0.1,0.1-0.2,0.1-0.3c0-0.1,0-0.2-0.1-0.3
	c-0.1-0.1-0.2-0.1-0.3-0.1h-0.3V15.4z"/>
<g id="XMLID_137_">
	<polygon id="XMLID_190_" class="st2" points="25.3,5.3 24.7,4.6 24.2,5.2 24.8,6 	"/>
	<polygon id="XMLID_191_" class="st2" points="24.2,5.3 23.6,4.6 23.1,5.2 23.7,6 	"/>
	<path id="XMLID_196_" class="st2" d="M24.7,6.9c-0.2-0.2-0.4-0.4-0.6-0.5l-0.5,1h0.1c-0.1,0.1-0.1,0.2-0.2,0.3
		c0,0.1-0.1,0.2-0.1,0.3c-0.2,0.4-0.5,1.3-0.2,1.6c0.2,0.2,0.6,0.3,0.9,0.1c0.1,0,0.2-0.1,0.3-0.2C25.5,8.8,25.1,7.4,24.7,6.9z
		 M24.4,8.7c-0.1,0-0.2,0-0.2,0l-0.3,0c0,0-0.1,0-0.1,0c0,0-0.1-0.1-0.1-0.1c0,0-0.1-0.1-0.1-0.2l0-0.2c0-0.1,0-0.1,0-0.1l0.1-0.2
		c0-0.1,0.1-0.1,0.1-0.2c0-0.1,0.1-0.1,0.1-0.2c0.1,0.1,0.2,0.1,0.3,0.2c0.1,0.1,0.2,0.2,0.2,0.3c0.1,0.1,0.1,0.2,0.1,0.3
		c0,0.1,0,0.2,0,0.3C24.5,8.6,24.4,8.7,24.4,8.7z"/>
	<path id="XMLID_198_" class="st2" d="M27.5,7.6c-0.1-0.3-0.3-0.4-0.3-0.5C27.1,6.9,27,6.9,27,6.9l-0.2,0.6l-0.1,0.3l0,0.2l0.4,0.5
		l0.2,0.3c0,0,0,0.1,0.1,0.1c0,0,0,0.1,0,0.1l-0.1,0.3c0,0.1-0.1,0.2-0.2,0.3C27.1,9.7,27,9.8,26.8,10c-0.1,0.2-0.3,0.3-0.4,0.4
		l-0.2,0.1L26,10.5l-0.3,0l-0.3,0l-0.4-0.1l0.1,0.1l0.1,0.1c0.1,0.1,0.1,0.1,0.1,0.1c0,0,0,0,0.1,0c0,0,0,0,0.1,0.1l0.1,0.1l0.5,0.2
		c0.3,0.1,0.5,0.2,0.7,0.2c0.1,0,0.2-0.1,0.3-0.2c0.1-0.1,0.2-0.2,0.2-0.3c0,0,0.1-0.1,0.1-0.1c0-0.1,0.1-0.1,0.1-0.2
		c0-0.1,0.1-0.2,0.1-0.2c0-0.1,0.1-0.2,0.1-0.3c0.1-0.1,0.1-0.3,0.1-0.3c0-0.1,0-0.2,0.1-0.4c0-0.2,0-0.4,0-0.7c0-0.1,0-0.2-0.1-0.3
		C27.7,8,27.6,7.8,27.5,7.6z"/>
	<path id="XMLID_199_" class="st2" d="M29.1,8.6c-0.1,0-0.1,0-0.1,0c0,0,0-0.1-0.1-0.2c0-0.1,0-0.3,0-0.5L28.7,6c0-0.3,0-0.5,0-0.7
		c0-0.2,0-0.5-0.1-0.8l-0.2,0.4l-0.3,0.5c0,0.1,0,0.2,0.1,0.5c0,0.2,0,0.4,0,0.5L28.3,8c0,0.2,0,0.4,0,0.6c0,0.2,0,0.4,0.1,0.6
		c0,0.2,0,0.3,0.1,0.3c0.1,0.1,0.1,0.1,0.2,0.1h0.8V8.6h-0.3C29.1,8.6,29.1,8.6,29.1,8.6z"/>
	<polygon id="XMLID_200_" class="st2" points="31,10.8 31.7,11.6 32.2,10.8 31.5,10.1 	"/>
	<path id="XMLID_201_" class="st2" d="M35.7,8.3c0-0.1,0-0.3,0-0.5c0-0.2-0.1-0.4-0.1-0.6c0-0.2-0.1-0.5-0.2-0.8l-0.4,1
		c0.1,0.1,0.1,0.2,0.1,0.3c0,0.1,0.1,0.2,0.1,0.3c0,0.1,0.1,0.2,0.1,0.2c0,0.1,0,0.1,0,0.2h-1.7v0h-0.4l0.2-0.4
		c-0.3,0-0.5-0.1-0.6-0.2c-0.2-0.1-0.3-0.2-0.4-0.2c-0.1-0.1-0.2-0.1-0.3-0.2l-0.5-0.4C31.4,7.1,31.3,7,31.3,7c0,0-0.1-0.1-0.3-0.1
		c-0.1-0.1-0.3-0.1-0.4-0.1c-0.2,0-0.3,0.1-0.5,0.3c-0.2,0.2-0.3,0.5-0.4,1c0.2-0.1,0.3-0.2,0.5-0.2c0.2,0,0.4,0.1,0.6,0.2
		c0.2,0.1,0.4,0.2,0.6,0.4L31,8.5c-0.1,0.1-0.2,0.1-0.3,0.1c-0.1,0-0.1,0-0.2,0h-1.2v1.1h1c0.1,0,0.2,0,0.2-0.1
		c0.1-0.1,0.2-0.1,0.3-0.2c0.1-0.1,0.2-0.2,0.3-0.2c0.1-0.1,0.2-0.1,0.3-0.1c0.2-0.1,0.4-0.1,0.6-0.1l0.1,0h0.1v0.1
		c0,0.1,0,0.2,0,0.2c0,0.1,0,0.1,0.1,0.2c0,0.1,0.1,0.1,0.2,0.1h1v0h2c0,0,0-0.1,0-0.1c0,0,0-0.1,0-0.1c0,0,0-0.1,0-0.2
		c0.1,0.2,0.2,0.4,0.4,0.4h0.2V8.6h-0.3C35.8,8.6,35.7,8.5,35.7,8.3z"/>
	<polygon id="XMLID_202_" class="st2" points="36.2,5.3 35.5,4.5 35,5.2 35.7,6 	"/>
	<polygon id="XMLID_203_" class="st2" points="35.1,5.3 34.5,4.5 33.9,5.2 34.6,6 	"/>
	<path id="XMLID_204_" class="st2" d="M39.3,5.1c-0.1-0.1-0.1-0.2-0.2-0.3C39,4.7,39,4.6,39,4.4l-0.4,0.9l0.1,0.3c0,0.2,0,0.3,0,0.5
		c0,0.2,0.1,0.5,0.1,1.1C38.9,7.7,39,8.2,39,8.6h-0.9h0h-0.3c-0.1,0-0.1,0-0.1-0.1l0-0.3l-0.1-0.9l-0.2-2.9l-0.5,0.8l0.1,0.3
		c0,0,0,0.2,0.1,0.5l0.1,1.2c0.1,0.5,0.1,0.9,0.1,1.3h-0.9v1.1H37c0,0,0.1,0,0.1-0.1l0.2-0.3c0,0.2,0.1,0.3,0.2,0.3
		c0.1,0.1,0.2,0.1,0.3,0.1h0.3h0h1.3c0-0.1,0-0.2,0-0.2c0-0.1,0-0.2,0-0.3l0-0.7l0-0.2c0,0,0-0.1,0-0.1l-0.1-0.9l-0.1-1.2l0.3-0.6
		C39.4,5.4,39.3,5.3,39.3,5.1z"/>
	<polygon id="XMLID_205_" class="st2" points="41.9,5 41.5,4.4 41.1,4.9 41.5,5.5 	"/>
	<polygon id="XMLID_206_" class="st2" points="42.8,5 42.3,4.4 41.9,5 42.3,5.5 	"/>
	<path id="XMLID_209_" class="st2" d="M46.3,8.3c0-0.1,0-0.3,0-0.5c0-0.2-0.1-0.4-0.1-0.6c0-0.2-0.1-0.5-0.2-0.8l-0.4,1
		c0.1,0.1,0.1,0.2,0.1,0.3c0,0.1,0.1,0.2,0.1,0.3c0,0.1,0.1,0.2,0.1,0.2c0,0.1,0,0.1,0,0.2h-1.7v0H44c-0.1,0-0.1,0-0.2,0
		c-0.1,0-0.1,0-0.2-0.1c-0.1-0.1-0.1-0.2-0.2-0.3l-0.1-0.8l-0.2-1.2l-0.1-1l-0.5,1l0,0.3c-0.2,0.1-0.3,0.2-0.5,0.3
		c-0.2,0.1-0.3,0.3-0.4,0.4c-0.1,0.1-0.1,0.2-0.2,0.3c-0.1,0.1-0.1,0.2-0.2,0.4c0,0.1-0.1,0.2-0.1,0.3c0,0.1,0,0.2-0.1,0.2l-0.1,0.5
		l0,0.3c0.1,0,0.4,0.1,0.7,0.2l0.6,0.2c0.1,0,0.1,0,0.1-0.1c0,0,0.1-0.1,0.1-0.1c0-0.1,0-0.1,0.1-0.1l0.1-0.3l0.1-0.2l0.1-0.2L43,9
		l0.1,0.4c0,0.1,0,0.1,0,0.2c0,0,0,0.1,0.1,0.1c0,0.1,0.1,0.1,0.2,0.1h0.7v0h2c0,0,0-0.1,0-0.1c0,0,0-0.1,0-0.1c0,0,0-0.1,0-0.2
		c0.1,0.2,0.2,0.4,0.4,0.4H47V8.6h-0.5C46.4,8.6,46.3,8.5,46.3,8.3z M42.8,8.1c0,0,0,0-0.1,0.1c-0.1,0-0.1,0-0.2,0
		c-0.3,0-0.5-0.1-0.7-0.2c0.1-0.2,0.2-0.3,0.3-0.4c0.2-0.1,0.3-0.2,0.5-0.3L42.7,7L42.8,8.1C42.8,8,42.8,8.1,42.8,8.1z"/>
	<polygon id="XMLID_211_" class="st2" points="45.4,10.8 46.1,11.6 46.6,10.9 45.9,10.2 	"/>
	<polygon id="XMLID_212_" class="st2" points="44.3,10.8 45,11.6 45.5,10.9 44.9,10.2 	"/>
	<polygon id="XMLID_213_" class="st2" points="49,5.3 48.4,4.6 47.8,5.2 48.5,6 	"/>
	<path id="XMLID_218_" class="st2" d="M53.5,7.3c-0.1-0.2-0.3-0.3-0.4-0.4c-0.1-0.1-0.2-0.1-0.3-0.1c-0.2,0-0.3,0-0.4,0.1
		c-0.1,0.1-0.3,0.2-0.4,0.3c-0.1,0.1-0.3,0.2-0.4,0.3c-0.2,0.1-0.3,0.2-0.4,0.4C51,8,50.8,8.1,50.7,8.3c0-0.1,0.1-0.2,0.1-0.4
		c0-0.2,0-0.3,0-0.3c0-0.1,0-0.2,0-0.3c0-0.1,0-0.3,0-0.5c0-0.2,0-0.3-0.1-0.4c0-0.1,0-0.2,0-0.3L51,5.4c-0.1,0-0.1-0.1-0.2-0.1
		c-0.1-0.1-0.1-0.1-0.2-0.2c-0.1-0.1-0.1-0.2-0.1-0.3c-0.1-0.1-0.1-0.2-0.1-0.4l-0.4,0.9l0.1,0.3l0.2,1.6c0.1,0.6,0.1,1,0.1,1.3
		c0,0.1,0,0.1-0.1,0.1c0,0-0.1,0-0.1,0h-0.5v0h-0.3c-0.1,0-0.2-0.1-0.2-0.2c0-0.1,0-0.3,0-0.5c0-0.2-0.1-0.4-0.1-0.6
		C49,7,49,6.8,48.9,6.5l-0.4,1c0.1,0.1,0.1,0.2,0.1,0.3c0,0.1,0.1,0.2,0.1,0.3c0,0.1,0.1,0.2,0.1,0.2c0,0,0,0.1,0,0.2H47v1.1h2
		c0,0,0-0.1,0-0.1c0,0,0-0.1,0-0.1c0,0,0-0.1,0-0.2c0.1,0.2,0.2,0.4,0.4,0.4h0.2v0h3.8c0-0.1,0.1-0.2,0.1-0.3c0-0.1,0.1-0.3,0.1-0.5
		c0.1-0.2,0.1-0.5,0.1-0.7c0-0.1,0-0.2-0.1-0.3C53.7,7.6,53.6,7.5,53.5,7.3z M50.9,8.6c0.3-0.2,0.6-0.5,0.8-0.6
		c0.3-0.2,0.5-0.3,0.6-0.3c0.2,0,0.3,0.1,0.5,0.3c0.2,0.2,0.3,0.4,0.3,0.6H50.9z"/>
	<path id="XMLID_221_" class="st2" d="M56.3,7.9c0-0.2-0.1-0.4-0.2-0.7c-0.1-0.2-0.2-0.4-0.4-0.4c-0.2,0-0.4,0.3-0.7,1.1
		c-0.1,0.4-0.2,0.7-0.2,0.9c0,0.3,0.1,0.5,0.2,0.6c0.2,0.1,0.3,0.1,0.4,0.2c0.1,0,0.2,0,0.3,0c0.1,0,0.1,0,0.2,0
		c-0.1,0.3-0.3,0.5-0.6,0.8c-0.3,0.3-0.6,0.4-0.9,0.4L54,10.8c-0.1,0-0.1,0-0.1,0.1c0,0,0,0.1,0.1,0.1c1.2,0.7,1.8,0.5,2.3-1
		c0-0.1,0.1-0.2,0.1-0.3h0.4V8.6h-0.4C56.3,8.3,56.3,8.1,56.3,7.9z M55.6,8.6c-0.1,0-0.1,0-0.2-0.1c-0.1,0-0.2-0.1-0.2-0.1
		c0,0,0-0.1-0.1-0.1c0,0,0-0.1,0-0.1c0.1-0.3,0.2-0.4,0.3-0.4c0.1,0,0.2,0.1,0.3,0.2c0.1,0.2,0.1,0.3,0.2,0.5
		C55.8,8.6,55.7,8.6,55.6,8.6z"/>
	<path id="XMLID_222_" class="st2" d="M57.9,5.1c-0.1-0.1-0.1-0.2-0.2-0.3c0-0.1-0.1-0.2-0.1-0.4l-0.4,0.9l0.1,0.3
		c0,0.2,0,0.3,0,0.5c0,0.2,0.1,0.5,0.1,1.1c0.1,0.6,0.1,1.1,0.1,1.5h-0.9v1.1H58c0-0.1,0-0.2,0-0.2c0-0.1,0-0.2,0-0.3l0-0.7l0-0.2
		c0,0,0-0.1,0-0.1L58,7.3l-0.1-1.2l0.3-0.6C58.1,5.4,58,5.3,57.9,5.1z"/>
	<path id="XMLID_223_" class="st2" d="M59,5.9c-0.1-0.6-0.1-1-0.1-1.2l-0.5,1.2l0.2,1.9c0,0.2,0.1,0.5,0.1,0.9c0,0.4,0.1,0.7,0.1,1
		c0.3-0.4,0.4-1.7,0.4-2.3C59.1,7,59,6.5,59,5.9z"/>
	<polygon id="XMLID_225_" class="st2" points="62.3,5 61.9,4.4 61.5,5 61.9,5.5 	"/>
	<path id="XMLID_229_" class="st2" d="M63.4,8.6c-0.1,0-0.1,0-0.2-0.1c-0.1-0.1-0.1-0.2-0.2-0.3l-0.1-0.8l-0.2-1.2l-0.1-1l-0.5,1
		l0,0.3c-0.2,0.1-0.4,0.2-0.5,0.3c-0.2,0.1-0.3,0.3-0.4,0.4c-0.1,0.1-0.1,0.2-0.2,0.3c-0.1,0.1-0.1,0.2-0.2,0.4
		c-0.1,0.1-0.1,0.2-0.1,0.3c0,0.1,0,0.2-0.1,0.2l-0.1,0.5l0,0.3c0.1,0,0.4,0.1,0.7,0.2L62,9.4c0.1,0,0.1,0,0.1-0.1
		c0,0,0.1-0.1,0.1-0.1c0-0.1,0-0.1,0.1-0.1l0.1-0.3l0.1-0.2l0.1-0.2L62.6,9l0.1,0.4c0,0.1,0,0.1,0,0.2c0,0,0,0.1,0.1,0.1
		c0,0.1,0.1,0.1,0.2,0.1h0.7V8.6h-0.1C63.5,8.6,63.4,8.6,63.4,8.6z M62.3,8.1c0,0,0,0-0.1,0.1c-0.1,0-0.1,0-0.2,0
		c-0.3,0-0.5-0.1-0.7-0.2c0.1-0.2,0.2-0.3,0.3-0.4c0.2-0.1,0.3-0.2,0.5-0.3L62.2,7L62.3,8.1C62.4,8,62.4,8.1,62.3,8.1z"/>
	<polygon id="XMLID_231_" class="st2" points="61.5,5 61.1,4.4 60.7,4.9 61.1,5.5 	"/>
	<polygon id="XMLID_232_" class="st2" points="64.8,10.8 65.5,11.6 66,10.9 65.3,10.1 	"/>
	<path id="XMLID_233_" class="st2" d="M66.2,8.8V8.6c0-0.4,0-0.8-0.1-1.3c-0.1-0.4-0.2-0.8-0.3-1l-0.5,1.1c0.1,0.1,0.1,0.2,0.2,0.3
		c0,0.1,0.1,0.2,0.2,0.4c0.1,0.2,0.1,0.3,0.1,0.5h-2.1v1.1h2.4c0-0.1,0.1-0.1,0.1-0.2c0-0.1,0-0.2,0-0.3C66.2,9.1,66.2,9,66.2,8.8z"
		/>
	<polygon id="XMLID_234_" class="st2" points="63.7,10.8 64.4,11.6 64.9,10.9 64.3,10.1 	"/>
	<path id="XMLID_238_" class="st2" d="M73.7,8.4c0-0.1,0-0.1,0-0.2V8.1c0-0.1,0-0.2-0.1-0.3c0-0.1-0.1-0.3-0.3-0.4
		C73.3,7.1,73.1,7,73,6.9c-0.1-0.1-0.2-0.1-0.3-0.1c-0.2,0-0.3,0-0.4,0.1C72.1,7,72,7.1,71.8,7.2c-0.1,0.1-0.3,0.2-0.4,0.3
		c-0.2,0.1-0.3,0.2-0.4,0.4c-0.1,0.1-0.3,0.2-0.4,0.4c0-0.1,0.1-0.2,0.1-0.4c0-0.2,0-0.3,0-0.3c0-0.1,0-0.2,0-0.3c0-0.1,0-0.3,0-0.5
		c0-0.2,0-0.3-0.1-0.4c0-0.1,0-0.2,0-0.3l0.3-0.6c-0.1,0-0.1-0.1-0.2-0.1c0-0.1-0.1-0.1-0.2-0.2c0-0.1-0.1-0.2-0.1-0.3
		c-0.1-0.1-0.1-0.2-0.1-0.4L70,5.3L70,5.5l0.2,1.6c0.1,0.6,0.1,1,0.1,1.3c0,0.1,0,0.1-0.1,0.1c0,0-0.1,0-0.1,0h-0.5v0h-0.2
		c-0.1,0-0.2,0-0.3-0.1C69,8.4,69,8.4,69,8.4c0,0-0.1-0.1-0.1-0.1c0,0-0.1-0.1-0.1-0.2l-0.2-0.3l-0.2-0.3c-0.1-0.1-0.1-0.2-0.1-0.2
		l-0.4,1c0.1,0.1,0.2,0.3,0.3,0.5c0.1,0.2,0.2,0.4,0.2,0.4c0,0.1,0,0.1,0,0.2c-0.1,0.3-0.2,0.5-0.5,0.8c-0.3,0.3-0.5,0.4-0.6,0.4
		c-0.1,0-0.2,0-0.3,0c-0.1,0-0.1,0-0.2,0c0,0-0.1,0-0.2,0c-0.1,0-0.2,0-0.3,0c-0.1,0-0.2,0-0.2-0.1l-0.1,0c0,0,0,0,0,0
		c0,0.1,0,0.1,0.1,0.2l0.2,0.1c0,0,0.1,0.1,0.1,0.1c0,0,0.1,0.1,0.1,0.1c0,0,0.1,0.1,0.1,0.1l0.3,0.2c0.1,0.1,0.2,0.1,0.4,0.1
		c0,0,0,0,0.1,0c0.1,0,0.1,0,0.2,0c0.1,0,0.1-0.1,0.2-0.1c0.1-0.1,0.2-0.2,0.3-0.4c0.1-0.2,0.2-0.4,0.3-0.6c0.1-0.2,0.2-0.5,0.3-0.8
		c0.1,0.2,0.3,0.3,0.3,0.3h0.4v0H74V8.6h-0.3C73.7,8.5,73.7,8.4,73.7,8.4z M70.8,8.6c0.3-0.2,0.6-0.5,0.8-0.6
		c0.3-0.2,0.5-0.3,0.6-0.3c0.2,0,0.3,0.1,0.5,0.3C72.9,8.2,73,8.4,73,8.6H70.8z"/>
	<polygon id="XMLID_240_" class="st2" points="75.6,5.3 75,4.5 74.5,5.2 75.1,6 	"/>
	<polygon id="XMLID_241_" class="st2" points="76.7,5.3 76.1,4.5 75.6,5.2 76.2,6 	"/>
	<path id="XMLID_245_" class="st2" d="M76.6,8.4c0-0.1,0.1-0.1,0.1-0.2c0-0.1,0.1-0.2,0.1-0.3l0-0.3c0-0.2,0-0.3,0-0.4
		c0-0.1-0.1-0.2-0.1-0.3c0-0.1-0.1-0.2-0.1-0.2c-0.1-0.1-0.1-0.1-0.1-0.1c0,0-0.1,0-0.1,0c-0.3,0-0.5,0.1-0.7,0.3
		c-0.1,0.1-0.3,0.3-0.5,0.5c-0.2,0.2-0.3,0.4-0.3,0.5l-0.1,0.3c0,0.1,0,0.2,0,0.2v0.1c0,0,0,0.1,0,0.1H74v1.1h3.1V8.6h-0.6
		C76.5,8.5,76.6,8.4,76.6,8.4z M76.1,8.4c0,0-0.1,0.1-0.1,0.1c0,0-0.1,0-0.1,0.1c0,0-0.1,0-0.1,0c-0.1,0-0.2,0-0.3-0.1
		c-0.1-0.1-0.1-0.1-0.2-0.2c0-0.1-0.1-0.1-0.1-0.2c0.1-0.2,0.2-0.4,0.3-0.5c0.1-0.1,0.2-0.2,0.3-0.2c0.1,0,0.1,0.1,0.2,0.2
		c0.1,0.1,0.1,0.2,0.1,0.3c0,0.1,0,0.2,0,0.3C76.2,8.3,76.1,8.4,76.1,8.4z"/>
	<path id="XMLID_246_" class="st2" d="M78.3,5.1c-0.1-0.1-0.1-0.2-0.2-0.3c0-0.1-0.1-0.2-0.1-0.4l-0.4,0.9l0.1,0.3
		c0,0.2,0,0.3,0,0.5c0,0.2,0.1,0.5,0.1,1.1C78,7.7,78,8.2,78,8.6h-0.9v1.1h1.3c0-0.1,0-0.2,0-0.2c0-0.1,0-0.2,0-0.3l0-0.7l0-0.2
		c0,0,0-0.1,0-0.1l-0.1-0.9l-0.1-1.2l0.3-0.6C78.5,5.4,78.4,5.3,78.3,5.1z"/>
	<path id="XMLID_247_" class="st2" d="M79.4,5.9c-0.1-0.6-0.1-1-0.1-1.2l-0.5,1.2L79,7.7c0,0.2,0.1,0.5,0.1,0.9c0,0.4,0.1,0.7,0.1,1
		c0.3-0.4,0.4-1.7,0.4-2.3C79.5,7,79.4,6.5,79.4,5.9z"/>
	<polygon id="XMLID_249_" class="st2" points="81.9,5 81.5,4.4 81.1,4.9 81.5,5.5 	"/>
	<path id="XMLID_253_" class="st2" d="M83.8,8.6c-0.1,0-0.1,0-0.2-0.1c-0.1-0.1-0.1-0.2-0.2-0.3l-0.1-0.8l-0.2-1.2l-0.1-1l-0.5,1
		l0,0.3c-0.2,0.1-0.4,0.2-0.5,0.3c-0.2,0.1-0.3,0.3-0.4,0.4c-0.1,0.1-0.1,0.2-0.2,0.3c-0.1,0.1-0.1,0.2-0.2,0.4
		c0,0.1-0.1,0.2-0.1,0.3c0,0.1,0,0.2-0.1,0.2L81,8.8l0,0.3c0.1,0,0.4,0.1,0.7,0.2l0.6,0.2c0.1,0,0.1,0,0.1-0.1c0,0,0.1-0.1,0.1-0.1
		c0-0.1,0-0.1,0.1-0.1l0.1-0.3l0.1-0.2l0.1-0.2L83,9L83,9.4c0,0.1,0,0.1,0,0.2c0,0,0,0.1,0.1,0.1c0,0.1,0.1,0.1,0.2,0.1h0.7V8.6
		h-0.1C83.9,8.6,83.8,8.6,83.8,8.6z M82.7,8.1c0,0,0,0-0.1,0.1c-0.1,0-0.1,0-0.2,0c-0.3,0-0.5-0.1-0.7-0.2c0.1-0.2,0.2-0.3,0.3-0.4
		c0.2-0.1,0.3-0.2,0.5-0.3L82.7,7L82.7,8.1C82.8,8,82.8,8.1,82.7,8.1z"/>
	<polygon id="XMLID_254_" class="st2" points="82.7,5 82.3,4.4 81.9,5 82.3,5.5 	"/>
	<path id="XMLID_256_" class="st2" d="M87,8.5c-0.1,0-0.2,0-0.4,0c-0.2,0-0.3,0-0.3,0c-0.2,0-0.3-0.1-0.5-0.2
		c-0.2-0.2-0.3-0.3-0.3-0.4c-0.1-0.1-0.1-0.2-0.2-0.4c0.1-0.1,0.1-0.1,0.2-0.1c0.1,0,0.1-0.1,0.3-0.1c0.1,0,0.3-0.1,0.4-0.1
		c0.2,0,0.4,0.1,0.6,0.2c0.2,0.1,0.4,0.3,0.5,0.5c0-0.3-0.2-0.6-0.4-1c-0.2-0.4-0.5-0.6-0.7-0.6c-0.2,0-0.5,0.1-0.8,0.4
		c-0.3,0.3-0.5,0.5-0.5,0.7c-0.1,0.2-0.1,0.4-0.1,0.5c0,0.1,0,0.1,0,0.1c0,0,0,0.1,0,0.1c0,0,0,0.1,0.1,0.2c0,0.1,0.1,0.2,0.1,0.2
		h-0.9v1.1h2.5c0.1,0,0.1,0,0.2,0c0.1,0,0.1,0,0.2,0c0.1,0,0.2,0,0.3,0l0.4-1.1c-0.1,0-0.2,0-0.3,0C87.3,8.5,87.2,8.5,87,8.5z"/>
	<path id="XMLID_260_" class="st2" d="M90.1,7.9c-0.1-0.2-0.1-0.4-0.2-0.7c-0.1-0.2-0.3-0.4-0.4-0.4c-0.2,0-0.4,0.3-0.7,1.1
		c-0.1,0.4-0.2,0.7-0.2,0.9c0,0.3,0.1,0.5,0.2,0.6c0.2,0.1,0.3,0.1,0.4,0.2c0.1,0,0.2,0,0.3,0c0,0,0.1,0,0.2,0
		c-0.1,0.3-0.3,0.5-0.6,0.8c-0.3,0.3-0.6,0.4-0.9,0.4l-0.4-0.1c-0.1,0-0.1,0-0.1,0.1c0,0,0,0.1,0.1,0.1c1.2,0.7,1.8,0.5,2.3-1
		c0-0.1,0.1-0.2,0.1-0.3h0.4V8.6h-0.4C90.2,8.3,90.2,8.1,90.1,7.9z M89.5,8.6c-0.1,0-0.1,0-0.2-0.1c-0.1,0-0.2-0.1-0.2-0.1
		c0,0,0-0.1,0-0.1c0,0,0-0.1,0-0.1c0.1-0.3,0.2-0.4,0.3-0.4c0.1,0,0.2,0.1,0.3,0.2c0.1,0.2,0.1,0.3,0.2,0.5
		C89.6,8.6,89.5,8.6,89.5,8.6z"/>
	<path id="XMLID_263_" class="st2" d="M99.7,8.7c-0.1,0-0.1-0.1-0.2-0.2c-0.1-0.1-0.2-0.1-0.2-0.2c0-0.1-0.1-0.1-0.1-0.1
		c0,0,0-0.1,0-0.1l-0.1-0.9L99,6.1l0.3-0.6c-0.1-0.1-0.3-0.2-0.3-0.3c-0.1-0.1-0.1-0.2-0.1-0.3c-0.1-0.2-0.1-0.3-0.1-0.4l-0.4,0.9
		l0.1,0.3c0,0.1,0,0.2,0,0.4c0,0.3,0.1,0.7,0.1,1.2c0.1,0.6,0.1,1,0.1,1.4h-1.3l0.2-0.4c-0.3,0-0.5-0.1-0.6-0.2
		c-0.2-0.1-0.3-0.2-0.4-0.2c-0.1-0.1-0.2-0.1-0.3-0.2l-0.5-0.4C95.7,7.1,95.7,7,95.6,7c0,0-0.1-0.1-0.3-0.1
		c-0.1-0.1-0.3-0.1-0.4-0.1c-0.2,0-0.3,0.1-0.5,0.3c-0.2,0.2-0.3,0.5-0.4,1c0.2-0.1,0.3-0.2,0.5-0.2c0.2,0,0.4,0.1,0.6,0.2
		c0.2,0.1,0.4,0.2,0.6,0.4l-0.3,0.1c-0.1,0.1-0.2,0.1-0.3,0.1c-0.1,0-0.1,0-0.2,0h-1.2v0h-0.3c-0.2,0-0.3-0.1-0.4-0.3
		C93,8,93,7.9,92.9,7.7c0-0.2,0-0.3,0-0.5c0-0.2-0.1-0.2-0.2-0.2c0,0-0.1,0-0.1,0c0,0-0.1,0-0.2,0c0,0-0.1,0-0.1,0.1
		c-0.1,0-0.1,0.1-0.1,0.1c0,0-0.1,0.1-0.1,0.1c-0.1,0.1-0.1,0.1-0.2,0.2l-0.2,0.2c-0.1,0.1-0.1,0.1-0.1,0.2c0,0,0,0.1-0.1,0.2
		l-0.1,0.3c0,0.1-0.1,0.2-0.1,0.2c0,0.1-0.1,0.1-0.1,0.1h-0.7v1.1h0.4c0.2,0,0.3-0.1,0.3-0.2c0-0.1,0.1-0.2,0.1-0.3
		c0-0.1,0-0.1,0-0.1c0,0,0-0.1,0-0.1l1.4,1.2c0.1,0,0.1-0.1,0.2-0.3c0.1-0.2,0.1-0.2,0.1-0.2h0.7v0h1c0.1,0,0.2,0,0.3-0.1
		c0.1-0.1,0.2-0.1,0.3-0.2c0.1-0.1,0.2-0.2,0.3-0.2c0.1-0.1,0.2-0.1,0.3-0.1c0.2-0.1,0.4-0.1,0.6-0.1l0.1,0h0.1v0.1
		c0,0.1,0,0.2,0,0.2c0,0.1,0,0.1,0.1,0.2c0,0.1,0.1,0.1,0.2,0.1h2.2c0.1,0,0.2,0,0.3,0.1c0.1,0.1,0.1,0.1,0.1,0.2l0.1,0.2
		c0.1-0.1,0.1-0.3,0.2-0.6c0.1-0.3,0.1-0.4,0.1-0.5c0-0.1,0-0.2-0.1-0.3C99.8,8.8,99.7,8.8,99.7,8.7z M92.6,8.8
		c-0.1,0-0.2-0.1-0.4-0.2c-0.1-0.1-0.3-0.3-0.3-0.4c0,0,0-0.1,0.1-0.1C92,8,92.1,8,92.1,8c0,0,0.1-0.1,0.1-0.1c0,0,0.1,0,0.1,0
		c0.1,0,0.1,0.1,0.2,0.2l0.1,0.4c0,0.1,0.1,0.1,0.1,0.2L92.6,8.8z"/>
	<polygon id="XMLID_264_" class="st2" points="95.4,10.8 96,11.6 96.5,10.8 95.9,10.1 	"/>
	<path id="XMLID_265_" class="st2" d="M100.9,7.3c0-0.3-0.1-0.7-0.1-1.3c-0.1-0.6-0.1-1-0.1-1.2l-0.5,1.2l0.2,1.9
		c0,0.2,0.1,0.5,0.1,0.9c0,0.4,0.1,0.7,0.1,1C100.8,9.2,100.9,7.9,100.9,7.3z"/>
</g>
</svg>
