<svg width="24" height="24" viewBox="0 0 24 24" fill="none" xmlns="http://www.w3.org/2000/svg">
<rect width="24" height="24" fill="#02B1F0"/>
<path d="M19.1912 8.36845C18.6694 8.5997 18.1088 8.75595 17.5194 8.82657C18.1275 8.46269 18.5825 7.88999 18.7994 7.21532C18.228 7.55469 17.6027 7.79357 16.9506 7.92157C16.5121 7.45336 15.9313 7.14303 15.2983 7.03875C14.6654 6.93446 14.0157 7.04207 13.4501 7.34486C12.8846 7.64765 12.4349 8.12868 12.1707 8.71326C11.9066 9.29785 11.8428 9.95329 11.9894 10.5778C10.8317 10.5197 9.69914 10.2188 8.66527 9.69464C7.63139 9.17049 6.71928 8.4348 5.98812 7.53532C5.73812 7.96657 5.59438 8.46657 5.59438 8.99907C5.5941 9.47845 5.71215 9.95048 5.93805 10.3733C6.16395 10.7961 6.49073 11.1566 6.88938 11.4228C6.42705 11.4081 5.97492 11.2832 5.57063 11.0584V11.0959C5.57058 11.7683 5.80315 12.4199 6.22886 12.9403C6.65458 13.4607 7.24723 13.8178 7.90625 13.9509C7.47736 14.067 7.02771 14.0841 6.59125 14.0009C6.77719 14.5795 7.13937 15.0853 7.6271 15.4478C8.11484 15.8102 8.7037 16.0111 9.31125 16.0222C8.2799 16.8318 7.00618 17.271 5.695 17.2691C5.46274 17.2691 5.23067 17.2556 5 17.2284C6.33092 18.0842 7.88021 18.5383 9.4625 18.5366C14.8187 18.5366 17.7469 14.1003 17.7469 10.2528C17.7469 10.1278 17.7438 10.0016 17.7381 9.87657C18.3077 9.46468 18.7993 8.95463 19.19 8.37032L19.1912 8.36845V8.36845Z" fill="white"/>
</svg>
