<svg version="1.1" id="Layer_1" xmlns="http://www.w3.org/2000/svg" xmlns:xlink="http://www.w3.org/1999/xlink" x="0px" y="0px" viewBox="0 0 79 27.3" xml:space="preserve"><path id="XMLID_16_" d="M25.1,17.2c0,0.2,0.1,0.4,0.3,0.6c0.2,0.2,0.4,0.3,0.7,0.3h5.7c0-0.8,0.1-1.5,0.4-2.1h-7.1V17.2
	z" class="st0"></path> <path id="XMLID_15_" d="M45,22h15.2c0-0.8,0.1-1.5,0.4-2.1h-16C44.8,20.5,45,21.3,45,22" class="st0"></path> <path id="XMLID_12_" d="M76,4c-1.5-1.5-3.6-2.9-5.5-3.2c-1.9-0.3-5.7-0.3-5.7-0.3v16c0.3-0.1,0.6-0.1,0.9-0.1
	c3.1,0,5.6,2.5,5.6,5.6H76c0.6,0,1.2-0.2,1.6-0.7c0.5-0.5,0.7-1,0.7-1.6V9.6C78.4,7.6,77.6,5.5,76,4 M76.7,11.5
	c0,0.2-0.1,0.5-0.3,0.6c-0.2,0.2-0.5,0.2-0.7,0.2l-8.3-1.7c-0.2,0-0.4-0.1-0.5-0.3c-0.1-0.2-0.2-0.3-0.2-0.5V2.8c0,0,2.8,0,4.2,0.2
	s2.9,1.2,4,2.3c1.1,1.1,1.7,2.6,1.7,4.1V11.5z" class="st0"></path> <path id="XMLID_9_" d="M43.4,19.4c-0.1-0.1-0.2-0.2-0.2-0.3c-0.9-1.1-2.2-1.8-3.7-1.8c-1.5,0-2.9,0.7-3.7,1.8
	c-0.1,0.1-0.2,0.2-0.2,0.3c-0.1,0.2-0.2,0.3-0.3,0.5c-0.3,0.6-0.5,1.4-0.5,2.1c0,2.6,2.1,4.8,4.8,4.8c2.6,0,4.8-2.1,4.8-4.8
	c0-0.8-0.2-1.5-0.5-2.1C43.6,19.7,43.5,19.5,43.4,19.4 M39.4,24.5c-1.4,0-2.5-1.1-2.5-2.5c0-0.9,0.5-1.7,1.2-2.1
	c0.4-0.2,0.8-0.3,1.2-0.3c0.4,0,0.9,0.1,1.2,0.3c0.7,0.4,1.2,1.2,1.2,2.1C41.9,23.4,40.8,24.5,39.4,24.5" class="st0"></path> <path id="XMLID_6_" d="M65.8,17.2c-0.3,0-0.6,0-0.9,0.1c-0.4,0.1-0.8,0.2-1.1,0.4c-0.8,0.4-1.5,0.9-1.9,1.7
	C61.3,20.1,61,21,61,22c0,2.6,2.1,4.8,4.8,4.8c2.6,0,4.8-2.1,4.8-4.8C70.5,19.4,68.4,17.2,65.8,17.2 M65.8,24.5
	c-1.4,0-2.5-1.1-2.5-2.5c0-0.5,0.2-1,0.4-1.4c0.3-0.4,0.7-0.7,1.1-0.9c0.3-0.1,0.6-0.2,0.9-0.2c1.4,0,2.5,1.1,2.5,2.5
	C68.2,23.4,67.1,24.5,65.8,24.5" class="st0"></path> <path id="XMLID_5_" d="M27.4,1.9h34.7c0.8,0,1.4-0.6,1.4-1.4H28.8C28.1,0.5,27.4,1.1,27.4,1.9" class="st0"></path> <path id="XMLID_4_" d="M9.6,5.6h34.7c0.8,0,1.4-0.6,1.4-1.4H11C10.3,4.2,9.6,4.9,9.6,5.6" class="st0"></path> <path id="XMLID_3_" d="M18.5,11.2h34.7c0.8,0,1.4-0.6,1.4-1.4H19.9C19.2,9.8,18.5,10.4,18.5,11.2" class="st0"></path> <path id="XMLID_2_" d="M0.5,16.7h34.7c0.8,0,1.4-0.6,1.4-1.4H1.9C1.1,15.3,0.5,15.9,0.5,16.7" class="st0"></path></svg>