<?xml version="1.0" encoding="utf-8"?>
 
<svg version="1.1" id="Layer_1" xmlns="http://www.w3.org/2000/svg" xmlns:xlink="http://www.w3.org/1999/xlink" x="0px" y="0px"
	 viewBox="0 0 30 30" style="enable-background:new 0 0 30 30;" xml:space="preserve">
<style type="text/css">
	.st0{fill:#4FA0D4;}
	.st1{fill:#FFFFFF;}
</style>
<path id="XMLID_3_" class="st0" d="M29,15c0-7.8-6.3-14.1-14-14.1C7.3,0.9,1,7.2,1,15c0,7.8,6.3,14.1,14,14.1
	C22.7,29.1,29,22.8,29,15"/>
<path id="XMLID_2_" class="st1" d="M23.1,10.8c-0.6,0.2-1.2,0.4-1.8,0.5c0.7-0.4,1.2-1,1.4-1.7c0,0,0-0.1-0.1-0.1
	c-0.6,0.4-1.3,0.6-2,0.7c-0.6-0.7-1.5-1.1-2.5-1.1c-1.9,0-3.4,1.5-3.4,3.4c0,0.3,0,0.5,0.1,0.8c-2.8-0.1-5.3-1.5-7-3.5c0,0,0,0,0,0
	c-0.3,0.5-0.4,1.1-0.4,1.7c0,1.1,0.6,2.2,1.5,2.8c0,0,0,0,0,0c-0.5,0-1-0.2-1.4-0.4c0,0,0,0,0,0c0,0.1,0.1,0.8,0.2,1.2
	c0.4,1.1,1.3,1.9,2.5,2.1c-0.3,0.1-0.6,0.1-0.9,0.1c-0.2,0-0.4,0-0.6-0.1c0,0,0,0,0,0c0.4,1.3,1.7,2.3,3.1,2.3c0,0,0,0,0,0
	C10.5,20.5,9.1,21,7.5,21c-0.3,0-0.5,0-0.8,0c1.5,1,3.3,1.5,5.2,1.5c2.6,0,4.8-0.9,6.4-2.3c1.6-1.4,2.6-3.3,3.1-5.2
	c0.2-0.7,0.2-1.4,0.2-2c0-0.1,0-0.3,0-0.4C22.2,12,22.7,11.5,23.1,10.8C23.2,10.8,23.1,10.7,23.1,10.8"/>
</svg>
