<?xml version="1.0" encoding="utf-8"?>
 
<svg version="1.1" id="Layer_1" xmlns="http://www.w3.org/2000/svg" xmlns:xlink="http://www.w3.org/1999/xlink" x="0px" y="0px"
	 viewBox="0 0 23.4 15.8" style="enable-background:new 0 0 23.4 15.8;" xml:space="preserve">
<style type="text/css">
	.st0{fill:#8E8B8B;}
	.st1{fill:none;stroke:#8E8B8B;}
</style>
<path id="XMLID_3_" class="st0" d="M14.6,1.3c-0.4,0.4-0.4,0.9,0,1.3l4.3,4.3H2.6c-0.5,0-0.9,0.4-0.9,0.9s0.4,0.9,0.9,0.9h16.3
	L14.6,13c-0.4,0.4-0.3,0.9,0,1.3c0.4,0.4,0.9,0.4,1.3,0l5.8-5.8c0.1-0.1,0.1-0.2,0.2-0.3c0-0.1,0.1-0.2,0.1-0.4
	c0-0.2-0.1-0.5-0.3-0.6l-5.8-5.8C15.5,0.9,14.9,0.9,14.6,1.3"/>
<path id="XMLID_2_" class="st1" d="M14.6,1.3c-0.4,0.4-0.4,0.9,0,1.3l4.3,4.3H2.6c-0.5,0-0.9,0.4-0.9,0.9s0.4,0.9,0.9,0.9h16.3
	L14.6,13c-0.4,0.4-0.3,0.9,0,1.3c0.4,0.4,0.9,0.4,1.3,0l5.8-5.8c0.1-0.1,0.1-0.2,0.2-0.3c0-0.1,0.1-0.2,0.1-0.4
	c0-0.2-0.1-0.5-0.3-0.6l-5.8-5.8C15.5,0.9,14.9,0.9,14.6,1.3z"/>
</svg>
