<?xml version="1.0" encoding="utf-8"?>
 
<svg version="1.1" id="Layer_1" xmlns="http://www.w3.org/2000/svg" xmlns:xlink="http://www.w3.org/1999/xlink" x="0px" y="0px"
	 viewBox="0 0 30 30" style="enable-background:new 0 0 30 30;" xml:space="preserve">
<style type="text/css">
	.st0{fill:#D0232F;}
	.st1{fill:#FFFFFF;}
	.st2{fill:#D6242D;}
</style>
<path id="XMLID_29_" class="st0" d="M28.8,15c0-7.7-6.2-13.9-13.8-13.9C7.4,1.1,1.2,7.3,1.2,15c0,7.7,6.2,13.9,13.8,13.9
	C22.6,28.9,28.8,22.7,28.8,15"/>
<path id="XMLID_3_" class="st1" d="M17.2,20.1h-4.4c-2.6,0-4.8-2.1-4.8-4.8v-0.8c0-2.6,2.1-4.8,4.8-4.8h4.4c2.6,0,4.8,2.1,4.8,4.8
	v0.8C21.9,18,19.8,20.1,17.2,20.1"/>
<path id="XMLID_2_" class="st2" d="M17.8,15l-4.6,2.5c-0.2,0.1-0.3,0-0.3-0.2l0-5.1c0-0.2,0.2-0.3,0.3-0.2l4.6,2.5
	C18,14.7,18,14.9,17.8,15"/>
</svg>
